<svg width="601" height="614" viewBox="0 0 601 614" fill="none" xmlns="http://www.w3.org/2000/svg">
<circle cx="300.058" cy="463.507" r="149.5" stroke="#008253"/>
<circle cx="300.058" cy="413.507" r="199.5" stroke="#008253"/>
<circle cx="300.058" cy="363.507" r="249.5" stroke="#008253"/>
<rect width="94.433" height="26.3856" transform="translate(252.842 300.234)" fill="#FFFEFD"/>
<path d="M262.087 315.77L263.743 315.74C263.787 316.208 263.951 316.631 264.234 317.01C264.528 317.377 264.917 317.664 265.401 317.871C265.897 318.078 266.469 318.176 267.117 318.165C267.681 318.155 268.147 318.068 268.516 317.906C268.886 317.743 269.158 317.528 269.333 317.261C269.52 316.982 269.61 316.656 269.604 316.284C269.597 315.912 269.49 315.62 269.282 315.408C269.074 315.183 268.765 315.003 268.354 314.866C267.943 314.717 267.437 314.576 266.834 314.443C266.304 314.321 265.779 314.174 265.26 314.003C264.753 313.82 264.281 313.595 263.844 313.326C263.419 313.058 263.071 312.734 262.801 312.355C262.542 311.963 262.407 311.492 262.397 310.94C262.387 310.352 262.539 309.815 262.855 309.329C263.17 308.832 263.637 308.433 264.256 308.134C264.886 307.823 265.651 307.659 266.551 307.643C267.943 307.618 268.999 307.948 269.719 308.631C270.452 309.314 270.816 310.238 270.813 311.402L269.193 311.431C269.143 310.615 268.874 310.038 268.388 309.699C267.902 309.347 267.275 309.179 266.507 309.192C265.847 309.204 265.285 309.352 264.822 309.636C264.359 309.909 264.133 310.333 264.143 310.909C264.147 311.161 264.205 311.382 264.317 311.572C264.428 311.75 264.611 311.914 264.866 312.066C265.12 312.217 265.459 312.361 265.882 312.498C266.316 312.634 266.853 312.781 267.492 312.937C267.974 313.037 268.438 313.166 268.885 313.326C269.344 313.486 269.755 313.689 270.12 313.935C270.484 314.18 270.772 314.499 270.983 314.891C271.206 315.283 271.323 315.767 271.333 316.343C271.344 316.955 271.204 317.516 270.913 318.025C270.622 318.522 270.161 318.927 269.53 319.238C268.911 319.537 268.104 319.695 267.108 319.713C266.316 319.727 265.625 319.638 265.033 319.444C264.454 319.25 263.963 318.995 263.561 318.678C263.172 318.361 262.859 318.019 262.625 317.651C262.402 317.283 262.246 316.931 262.156 316.597C262.078 316.262 262.055 315.987 262.087 315.77ZM281.98 315.83C281.921 316.575 281.692 317.227 281.294 317.786C280.908 318.333 280.393 318.756 279.751 319.056C279.108 319.355 278.391 319.512 277.599 319.526C276.723 319.542 275.916 319.376 275.177 319.029C274.439 318.67 273.842 318.147 273.385 317.459C272.941 316.759 272.71 315.923 272.692 314.951C272.675 313.967 272.876 313.123 273.295 312.42C273.727 311.704 274.305 311.154 275.03 310.769C275.756 310.384 276.556 310.183 277.432 310.168C278.224 310.154 278.94 310.285 279.581 310.561C280.222 310.838 280.752 311.243 281.169 311.775C281.587 312.296 281.844 312.928 281.941 313.67L280.375 313.698C280.16 313.054 279.785 312.55 279.25 312.188C278.727 311.813 278.13 311.632 277.458 311.643C276.906 311.653 276.393 311.788 275.917 312.049C275.454 312.309 275.082 312.682 274.803 313.167C274.535 313.64 274.408 314.224 274.42 314.92C274.432 315.592 274.58 316.165 274.865 316.64C275.161 317.103 275.545 317.456 276.018 317.7C276.49 317.932 277.008 318.043 277.572 318.032C278.34 318.019 278.961 317.822 279.434 317.441C279.907 317.061 280.24 316.533 280.432 315.857L281.98 315.83ZM287.548 319.331C286.781 319.345 286.075 319.159 285.432 318.775C284.789 318.39 284.276 317.853 283.891 317.164C283.507 316.462 283.306 315.656 283.29 314.744C283.274 313.832 283.445 313.025 283.805 312.323C284.176 311.608 284.688 311.047 285.341 310.639C285.994 310.219 286.728 310.002 287.544 309.988C288.444 309.972 289.143 310.169 289.643 310.58C290.154 310.991 290.512 311.549 290.717 312.253C290.933 312.958 291.049 313.742 291.065 314.606C291.073 315.085 291.022 315.596 290.912 316.139C290.802 316.681 290.619 317.194 290.363 317.679C290.108 318.163 289.749 318.56 289.286 318.868C288.824 319.164 288.244 319.319 287.548 319.331ZM288.008 317.829C288.644 317.817 289.175 317.67 289.602 317.386C290.041 317.09 290.364 316.7 290.571 316.217C290.779 315.733 290.877 315.197 290.867 314.609C290.855 313.973 290.732 313.417 290.495 312.941C290.271 312.465 289.934 312.099 289.485 311.843C289.049 311.587 288.518 311.464 287.895 311.476C286.959 311.492 286.238 311.805 285.733 312.414C285.24 313.023 285.001 313.789 285.018 314.713C285.029 315.337 285.165 315.887 285.425 316.362C285.685 316.826 286.034 317.192 286.471 317.46C286.92 317.716 287.432 317.839 288.008 317.829ZM290.787 310.11L292.514 310.079L292.674 319.06L291.091 319.088C291.091 319.088 291.077 318.98 291.049 318.764C291.021 318.537 290.992 318.267 290.962 317.956C290.933 317.644 290.916 317.369 290.912 317.129L290.787 310.11ZM294.884 306.436L296.611 306.405L296.836 318.985L295.108 319.016L294.884 306.436ZM306.181 315.902L307.819 315.873C307.733 316.463 307.515 316.995 307.163 317.469C306.811 317.944 306.344 318.324 305.761 318.61C305.178 318.897 304.491 319.047 303.699 319.061C302.763 319.078 301.926 318.895 301.187 318.512C300.448 318.129 299.862 317.593 299.43 316.905C298.997 316.216 298.773 315.41 298.757 314.487C298.74 313.551 298.929 312.731 299.325 312.028C299.72 311.313 300.274 310.751 300.987 310.342C301.7 309.933 302.518 309.721 303.442 309.704C304.414 309.687 305.233 309.864 305.9 310.237C306.567 310.609 307.063 311.17 307.388 311.92C307.725 312.658 307.874 313.586 307.834 314.703L300.473 314.834C300.543 315.373 300.713 315.85 300.985 316.265C301.268 316.68 301.634 317.004 302.082 317.236C302.542 317.468 303.066 317.578 303.654 317.568C304.314 317.556 304.863 317.396 305.302 317.088C305.741 316.78 306.034 316.385 306.181 315.902ZM303.486 311.18C302.707 311.194 302.062 311.415 301.554 311.844C301.045 312.261 300.713 312.813 300.557 313.5L306.082 313.402C306.021 312.671 305.748 312.118 305.261 311.742C304.774 311.355 304.182 311.167 303.486 311.18ZM309.932 313.153L315.404 313.056L315.43 314.513L309.958 314.611L309.932 313.153ZM326.551 318.456L324.841 318.486L324.681 309.506L326.391 309.475L326.551 318.456ZM324.856 314.256L324.884 314.795C324.874 314.951 324.837 315.186 324.77 315.499C324.716 315.8 324.613 316.132 324.464 316.495C324.326 316.857 324.129 317.209 323.871 317.55C323.625 317.89 323.306 318.172 322.914 318.395C322.521 318.618 322.043 318.734 321.48 318.744C321.096 318.751 320.699 318.704 320.289 318.604C319.891 318.503 319.522 318.329 319.181 318.083C318.841 317.837 318.565 317.5 318.353 317.072C318.141 316.632 318.03 316.081 318.018 315.422L317.915 309.626L319.642 309.596L319.739 315.031C319.749 315.583 319.841 316.013 320.014 316.322C320.2 316.631 320.456 316.848 320.782 316.975C321.108 317.101 321.475 317.16 321.883 317.153C322.507 317.142 323.026 316.983 323.441 316.675C323.867 316.355 324.197 315.978 324.429 315.541C324.661 315.093 324.803 314.665 324.856 314.256ZM333.946 318.522C333.25 318.535 332.665 318.395 332.192 318.103C331.719 317.812 331.346 317.428 331.073 316.953C330.801 316.478 330.6 315.971 330.47 315.434C330.341 314.896 330.272 314.387 330.263 313.907C330.251 313.259 330.295 312.652 330.393 312.087C330.503 311.521 330.686 311.019 330.942 310.583C331.198 310.146 331.558 309.803 332.022 309.555C332.485 309.307 333.071 309.176 333.779 309.164C334.559 309.15 335.264 309.341 335.896 309.738C336.527 310.123 337.034 310.666 337.419 311.367C337.815 312.068 338.022 312.869 338.038 313.769C338.054 314.692 337.877 315.512 337.505 316.226C337.134 316.929 336.634 317.484 336.005 317.891C335.388 318.299 334.702 318.509 333.946 318.522ZM333.433 317.019C334.009 317.009 334.516 316.868 334.956 316.596C335.395 316.312 335.73 315.934 335.962 315.462C336.205 314.977 336.321 314.423 336.31 313.799C336.294 312.876 336.022 312.118 335.495 311.528C334.981 310.937 334.256 310.65 333.32 310.666C332.756 310.676 332.254 310.817 331.815 311.089C331.388 311.361 331.052 311.739 330.809 312.223C330.566 312.708 330.45 313.268 330.461 313.904C330.472 314.504 330.589 315.042 330.814 315.518C331.05 315.981 331.387 316.354 331.824 316.634C332.261 316.902 332.797 317.03 333.433 317.019ZM328.653 309.435L330.309 309.406L330.417 311.438L330.605 321.984L328.877 322.015L328.653 309.435Z" fill="#141414"/>
<circle cx="300.058" cy="313.507" r="299.5" stroke="#008253"/>
<rect width="97.4325" height="26.439" transform="translate(251.341 0.492676)" fill="#FFFEFD"/>
<path d="M261.083 19.9074L260.875 8.22721L266.886 8.12011C267.726 8.10515 268.448 8.2183 269.053 8.45957C269.669 8.68863 270.143 9.05223 270.476 9.55038C270.809 10.0365 270.982 10.6635 270.996 11.4314C271.005 11.9593 270.923 12.4109 270.75 12.786C270.588 13.149 270.36 13.4531 270.064 13.6984C269.768 13.9437 269.418 14.136 269.012 14.2752C268.607 14.4145 268.17 14.5063 267.703 14.5506L267.575 14.4448C268.283 14.4562 268.879 14.5236 269.361 14.6471C269.843 14.7705 270.213 15.0039 270.472 15.3474C270.741 15.6786 270.882 16.1802 270.894 16.8521L270.946 19.7316L269.2 19.7627L269.15 16.9372C269.141 16.4693 269.057 16.1047 268.896 15.8435C268.735 15.5824 268.462 15.4012 268.076 15.3C267.69 15.1989 267.15 15.1545 266.454 15.1669L262.728 15.2333L262.811 19.8766L261.083 19.9074ZM262.701 13.7216L266.985 13.6452C267.753 13.6316 268.325 13.4293 268.702 13.0385C269.091 12.6475 269.28 12.1401 269.269 11.5162C269.258 10.9163 269.052 10.4579 268.65 10.141C268.261 9.82389 267.682 9.67218 266.914 9.68586L262.631 9.76218L262.701 13.7216ZM280.239 16.6496L281.876 16.6204C281.791 17.21 281.572 17.742 281.221 18.2164C280.869 18.6907 280.402 19.0711 279.819 19.3575C279.236 19.6439 278.548 19.7942 277.756 19.8083C276.821 19.825 275.983 19.6419 275.244 19.259C274.505 18.8761 273.92 18.3404 273.487 17.652C273.055 16.9636 272.831 16.1575 272.814 15.2336C272.798 14.2978 272.987 13.4783 273.383 12.7751C273.778 12.06 274.332 11.498 275.045 11.0892C275.758 10.6805 276.576 10.4679 277.5 10.4514C278.472 10.4341 279.291 10.6115 279.958 10.9837C280.624 11.3559 281.12 11.9171 281.446 12.6675C281.783 13.4056 281.932 14.3331 281.892 15.45L274.531 15.5811C274.6 16.12 274.771 16.597 275.042 17.0122C275.326 17.4272 275.692 17.7508 276.14 17.9828C276.6 18.2147 277.124 18.3253 277.712 18.3149C278.372 18.3031 278.921 18.1433 279.36 17.8354C279.798 17.5276 280.091 17.1323 280.239 16.6496ZM277.544 11.9269C276.764 11.9407 276.12 12.1623 275.612 12.5914C275.103 13.0085 274.771 13.5605 274.615 14.2474L280.14 14.149C280.079 13.4179 279.805 12.8647 279.318 12.4893C278.831 12.1019 278.24 11.9145 277.544 11.9269ZM283.336 16.5944L284.92 16.5662C284.988 17.045 285.211 17.4371 285.589 17.7425C285.966 18.0358 286.491 18.1765 287.163 18.1645C287.594 18.1568 287.93 18.1028 288.168 18.0026C288.406 17.8903 288.571 17.7433 288.664 17.5616C288.769 17.3798 288.819 17.1808 288.815 16.9649C288.811 16.6889 288.735 16.4802 288.588 16.3388C288.441 16.1854 288.235 16.063 287.97 15.9718C287.704 15.8685 287.39 15.7721 287.028 15.6825C286.63 15.5816 286.232 15.4626 285.834 15.3257C285.435 15.1888 285.066 15.0213 284.727 14.8234C284.399 14.6252 284.131 14.3779 283.921 14.0816C283.724 13.7731 283.621 13.3968 283.613 12.9529C283.607 12.581 283.678 12.2316 283.828 11.9049C283.991 11.578 284.22 11.2978 284.516 11.0645C284.823 10.819 285.18 10.6326 285.586 10.5054C285.991 10.3661 286.44 10.2921 286.932 10.2833C287.616 10.2712 288.194 10.3869 288.667 10.6305C289.139 10.8621 289.499 11.1978 289.747 11.6374C290.007 12.0769 290.148 12.5844 290.17 13.1601L288.658 13.1871C288.565 12.6846 288.385 12.3218 288.117 12.0985C287.848 11.8633 287.45 11.7503 286.922 11.7598C286.406 11.7689 286.012 11.878 285.74 12.0869C285.468 12.2958 285.335 12.5742 285.341 12.9221C285.346 13.1861 285.445 13.4003 285.64 13.5649C285.835 13.7174 286.096 13.8508 286.422 13.965C286.748 14.0792 287.116 14.1987 287.526 14.3234C287.912 14.4485 288.281 14.58 288.631 14.7178C288.994 14.8433 289.314 14.9997 289.594 15.1867C289.885 15.3615 290.111 15.5976 290.273 15.8947C290.446 16.1797 290.536 16.5381 290.544 16.9701C290.553 17.498 290.429 17.9623 290.173 18.3629C289.915 18.7515 289.537 19.0583 289.037 19.2833C288.549 19.508 287.951 19.6267 287.243 19.6393C286.595 19.6508 286.042 19.5827 285.583 19.4348C285.136 19.2868 284.755 19.0895 284.438 18.8431C284.134 18.5965 283.895 18.3367 283.722 18.0638C283.561 17.7786 283.448 17.5046 283.383 17.2417C283.331 16.9786 283.315 16.7628 283.336 16.5944ZM299.273 16.3105L300.91 16.2813C300.825 16.8709 300.606 17.4029 300.255 17.8772C299.903 18.3516 299.436 18.7319 298.853 19.0184C298.27 19.3048 297.582 19.4551 296.791 19.4692C295.855 19.4859 295.017 19.3027 294.278 18.9198C293.539 18.5369 292.954 18.0013 292.521 17.3129C292.089 16.6245 291.865 15.8184 291.848 14.8945C291.832 13.9586 292.021 13.1391 292.417 12.436C292.812 11.7208 293.366 11.1589 294.079 10.7501C294.792 10.3413 295.61 10.1287 296.534 10.1123C297.506 10.095 298.325 10.2724 298.992 10.6446C299.658 11.0167 300.155 11.578 300.48 12.3283C300.817 13.0664 300.966 13.9939 300.926 15.1108L293.565 15.242C293.634 15.7808 293.805 16.2579 294.076 16.6731C294.36 17.0881 294.726 17.4116 295.174 17.6437C295.634 17.8755 296.158 17.9862 296.746 17.9757C297.406 17.964 297.955 17.8042 298.394 17.4963C298.832 17.1884 299.125 16.7932 299.273 16.3105ZM296.578 11.5877C295.798 11.6016 295.154 11.8231 294.646 12.2522C294.137 12.6694 293.805 13.2214 293.649 13.9083L299.174 13.8098C299.113 13.0788 298.839 12.5256 298.352 12.1502C297.865 11.7628 297.274 11.5753 296.578 11.5877ZM306.529 19.2777C305.761 19.2914 305.055 19.1059 304.412 18.7213C303.769 18.3367 303.256 17.7997 302.871 17.1105C302.487 16.4092 302.286 15.6027 302.27 14.6908C302.254 13.779 302.426 12.9718 302.785 12.2692C303.156 11.5545 303.669 10.9933 304.321 10.5856C304.974 10.1659 305.708 9.94881 306.524 9.93427C307.424 9.91824 308.124 10.1158 308.623 10.527C309.134 10.9379 309.492 11.4956 309.697 12.2001C309.914 12.9044 310.03 13.6884 310.045 14.5523C310.053 15.0322 310.003 15.5432 309.892 16.0852C309.782 16.6273 309.599 17.1406 309.344 17.6253C309.088 18.1099 308.729 18.5063 308.267 18.8146C307.804 19.1109 307.224 19.2653 306.529 19.2777ZM306.988 17.7753C307.624 17.7639 308.155 17.6164 308.582 17.3328C309.021 17.0369 309.344 16.6471 309.552 16.1633C309.759 15.6796 309.857 15.1437 309.847 14.5558C309.836 13.9199 309.712 13.364 309.475 12.8882C309.251 12.4121 308.914 12.046 308.465 11.79C308.029 11.5337 307.499 11.4111 306.875 11.4223C305.939 11.4389 305.218 11.7518 304.713 12.3609C304.22 12.9698 303.981 13.7362 303.998 14.66C304.009 15.2839 304.145 15.8336 304.405 16.309C304.666 16.7725 305.014 17.1383 305.451 17.4066C305.9 17.6626 306.412 17.7855 306.988 17.7753ZM309.767 10.0565L311.495 10.0257L311.655 19.0063L310.071 19.0345C310.071 19.0345 310.057 18.9268 310.029 18.7112C310.001 18.4837 309.972 18.2142 309.943 17.9026C309.913 17.5911 309.896 17.3154 309.892 17.0754L309.767 10.0565ZM313.748 9.98559L315.476 9.9548L315.636 18.9354L313.908 18.9662L313.748 9.98559ZM318.544 11.4304C317.921 11.4415 317.389 11.595 316.95 11.8908C316.524 12.1865 316.182 12.5466 315.925 12.9713C315.681 13.3957 315.52 13.8006 315.443 14.1861L315.407 13.1605C315.417 13.0403 315.443 12.8538 315.487 12.601C315.542 12.336 315.639 12.0402 315.777 11.7137C315.915 11.3872 316.102 11.0778 316.337 10.7856C316.571 10.4814 316.867 10.2301 317.223 10.0317C317.58 9.8333 318.01 9.72962 318.514 9.72064L318.544 11.4304ZM328.975 15.2772C328.916 16.0223 328.688 16.6745 328.29 17.2337C327.903 17.7807 327.389 18.2039 326.746 18.5034C326.103 18.8029 325.386 18.9597 324.594 18.9738C323.718 18.9894 322.911 18.8238 322.173 18.4769C321.434 18.118 320.837 17.5945 320.38 16.9065C319.936 16.2063 319.705 15.3703 319.688 14.3985C319.67 13.4146 319.871 12.5709 320.291 11.8673C320.722 11.1515 321.3 10.6011 322.026 10.2162C322.751 9.83118 323.551 9.63089 324.427 9.61528C325.219 9.60117 325.936 9.73243 326.577 10.0091C327.218 10.2857 327.747 10.6903 328.164 11.223C328.582 11.7436 328.839 12.3751 328.936 13.1175L327.371 13.1454C327.155 12.5011 326.78 11.9977 326.245 11.6352C325.723 11.2605 325.125 11.0791 324.453 11.091C323.902 11.1009 323.388 11.2361 322.912 11.4966C322.449 11.7569 322.078 12.1295 321.798 12.6146C321.531 13.0874 321.403 13.6718 321.415 14.3677C321.427 15.0396 321.576 15.613 321.86 16.088C322.156 16.5508 322.541 16.904 323.013 17.1477C323.485 17.3793 324.003 17.4901 324.567 17.48C325.335 17.4664 325.956 17.2693 326.429 16.8888C326.902 16.5083 327.235 15.9803 327.427 15.3047L328.975 15.2772ZM337.798 18.5405L337.701 13.1234C337.693 12.6434 337.608 12.2489 337.446 11.9397C337.285 11.6306 337.047 11.4008 336.732 11.2503C336.417 11.0879 336.019 11.011 335.54 11.0195C335.012 11.029 334.528 11.1636 334.089 11.4235C333.661 11.6711 333.313 12.0074 333.044 12.4322C332.776 12.8451 332.616 13.31 332.565 13.827L332.529 12.8015C332.58 12.3325 332.699 11.8923 332.883 11.4809C333.08 11.0694 333.326 10.7109 333.62 10.4056C333.927 10.1001 334.283 9.85975 334.688 9.68451C335.093 9.50927 335.535 9.41737 336.015 9.40882C336.519 9.39984 336.976 9.46371 337.387 9.60042C337.797 9.72513 338.149 9.92889 338.442 10.2117C338.747 10.4823 338.981 10.8202 339.144 11.2254C339.307 11.6185 339.393 12.0731 339.402 12.589L339.508 18.51L337.798 18.5405ZM331.049 18.6608L330.825 6.08075L332.535 6.05029L332.759 18.6303L331.049 18.6608Z" fill="#141414"/>
<rect width="92.4333" height="26.3499" transform="translate(253.841 100.119)" fill="#FFFEFD"/>
<path d="M262.789 115.624L264.445 115.595C264.49 116.062 264.653 116.485 264.936 116.864C265.23 117.231 265.62 117.518 266.103 117.725C266.599 117.933 267.171 118.03 267.819 118.019C268.383 118.009 268.849 117.922 269.219 117.76C269.588 117.597 269.86 117.382 270.035 117.115C270.222 116.836 270.312 116.51 270.306 116.138C270.299 115.766 270.192 115.474 269.984 115.262C269.776 115.037 269.467 114.857 269.056 114.72C268.646 114.572 268.139 114.431 267.537 114.297C267.006 114.175 266.482 114.028 265.963 113.857C265.455 113.674 264.983 113.449 264.546 113.18C264.121 112.912 263.774 112.588 263.503 112.209C263.244 111.817 263.109 111.346 263.099 110.794C263.089 110.206 263.241 109.669 263.557 109.183C263.872 108.686 264.339 108.287 264.958 107.988C265.588 107.677 266.354 107.513 267.253 107.497C268.645 107.472 269.701 107.802 270.422 108.485C271.154 109.168 271.518 110.092 271.515 111.256L269.895 111.285C269.845 110.469 269.576 109.892 269.09 109.553C268.604 109.201 267.977 109.033 267.209 109.046C266.549 109.058 265.988 109.206 265.525 109.49C265.061 109.763 264.835 110.187 264.845 110.763C264.85 111.015 264.908 111.236 265.019 111.426C265.13 111.604 265.313 111.768 265.568 111.92C265.823 112.071 266.161 112.215 266.584 112.352C267.018 112.488 267.555 112.635 268.194 112.791C268.676 112.891 269.14 113.02 269.587 113.181C270.046 113.34 270.458 113.543 270.822 113.789C271.186 114.034 271.474 114.353 271.685 114.745C271.908 115.137 272.025 115.621 272.035 116.197C272.046 116.809 271.906 117.37 271.615 117.879C271.324 118.376 270.863 118.781 270.232 119.092C269.614 119.391 268.806 119.549 267.811 119.567C267.019 119.581 266.327 119.492 265.735 119.298C265.156 119.104 264.665 118.849 264.264 118.532C263.874 118.215 263.562 117.873 263.327 117.505C263.104 117.137 262.948 116.785 262.858 116.451C262.78 116.116 262.757 115.841 262.789 115.624ZM273.152 110.291L278.965 110.187L278.992 111.681L273.179 111.784L273.152 110.291ZM275.161 107.878L276.871 107.848L277.074 119.204L275.364 119.235L275.161 107.878ZM280.601 110.158L282.329 110.127L282.489 119.108L280.761 119.138L280.601 110.158ZM285.398 111.603C284.774 111.614 284.243 111.767 283.804 112.063C283.377 112.359 283.035 112.719 282.779 113.144C282.534 113.568 282.374 113.973 282.296 114.358L282.26 113.333C282.27 113.213 282.297 113.026 282.34 112.773C282.395 112.508 282.492 112.212 282.63 111.886C282.769 111.559 282.955 111.25 283.19 110.958C283.425 110.654 283.72 110.402 284.077 110.204C284.433 110.006 284.863 109.902 285.367 109.893L285.398 111.603ZM290.799 119.14C290.031 119.153 289.326 118.968 288.683 118.583C288.04 118.199 287.526 117.662 287.142 116.972C286.757 116.271 286.557 115.465 286.541 114.553C286.524 113.641 286.696 112.834 287.056 112.131C287.427 111.416 287.939 110.855 288.592 110.448C289.244 110.028 289.979 109.811 290.795 109.796C291.694 109.78 292.394 109.978 292.893 110.389C293.405 110.8 293.763 111.358 293.967 112.062C294.184 112.766 294.3 113.55 294.315 114.414C294.324 114.894 294.273 115.405 294.163 115.947C294.052 116.489 293.869 117.003 293.614 117.487C293.359 117.972 293 118.368 292.537 118.677C292.074 118.973 291.495 119.127 290.799 119.14ZM291.258 117.637C291.894 117.626 292.426 117.478 292.853 117.195C293.291 116.899 293.615 116.509 293.822 116.025C294.029 115.541 294.128 115.006 294.117 114.418C294.106 113.782 293.982 113.226 293.746 112.75C293.521 112.274 293.185 111.908 292.736 111.652C292.299 111.396 291.769 111.273 291.145 111.284C290.209 111.301 289.489 111.614 288.984 112.223C288.49 112.832 288.252 113.598 288.268 114.522C288.279 115.146 288.415 115.696 288.676 116.171C288.936 116.634 289.285 117 289.722 117.268C290.17 117.525 290.682 117.647 291.258 117.637ZM294.037 109.918L295.765 109.888L295.925 118.868L294.341 118.896C294.341 118.896 294.327 118.789 294.299 118.573C294.271 118.346 294.243 118.076 294.213 117.765C294.184 117.453 294.167 117.177 294.162 116.937L294.037 109.918ZM301.771 117.36C301.027 117.373 300.34 117.235 299.711 116.946C299.082 116.658 298.576 116.229 298.194 115.659C297.824 115.09 297.631 114.397 297.617 113.581C297.603 112.777 297.77 112.084 298.12 111.502C298.469 110.908 298.947 110.449 299.554 110.126C300.172 109.791 300.865 109.617 301.633 109.603C301.861 109.599 302.077 109.613 302.282 109.646C302.486 109.666 302.685 109.704 302.878 109.761L306.801 109.691L306.83 111.311C306.29 111.32 305.742 111.24 305.187 111.07C304.644 110.9 304.167 110.716 303.755 110.519L303.7 110.43C304.111 110.639 304.47 110.897 304.776 111.203C305.081 111.498 305.315 111.836 305.478 112.217C305.652 112.586 305.744 113.004 305.752 113.472C305.766 114.264 305.599 114.951 305.249 115.534C304.911 116.116 304.433 116.562 303.815 116.873C303.208 117.184 302.527 117.346 301.771 117.36ZM304.614 122.35L304.607 121.936C304.596 121.324 304.42 120.889 304.079 120.631C303.739 120.373 303.245 120.25 302.597 120.262L300.491 120.299C300.047 120.307 299.668 120.278 299.355 120.211C299.042 120.145 298.782 120.042 298.576 119.901C298.369 119.773 298.216 119.608 298.117 119.405C298.017 119.215 297.965 119 297.961 118.76C297.953 118.292 298.091 117.935 298.374 117.69C298.658 117.445 299.021 117.289 299.464 117.221C299.907 117.141 300.356 117.127 300.813 117.179L301.771 117.36C301.088 117.408 300.567 117.483 300.209 117.586C299.85 117.688 299.674 117.895 299.68 118.207C299.683 118.387 299.757 118.53 299.903 118.635C300.049 118.741 300.254 118.791 300.518 118.786L302.714 118.747C303.398 118.735 304.005 118.808 304.536 118.967C305.079 119.137 305.504 119.424 305.811 119.826C306.131 120.241 306.297 120.808 306.31 121.528L306.324 122.32L304.614 122.35ZM301.745 115.902C302.177 115.894 302.565 115.797 302.91 115.611C303.266 115.413 303.55 115.138 303.759 114.786C303.969 114.422 304.069 113.988 304.06 113.484C304.051 112.969 303.935 112.533 303.713 112.176C303.502 111.808 303.215 111.537 302.852 111.364C302.489 111.178 302.091 111.089 301.659 111.097C301.227 111.105 300.827 111.208 300.459 111.406C300.102 111.593 299.819 111.868 299.609 112.232C299.4 112.595 299.3 113.041 299.309 113.569C299.318 114.073 299.434 114.503 299.656 114.859C299.878 115.203 300.171 115.468 300.534 115.654C300.897 115.827 301.301 115.91 301.745 115.902ZM315.425 115.604L317.063 115.575C316.977 116.165 316.759 116.697 316.407 117.171C316.055 117.645 315.588 118.026 315.005 118.312C314.422 118.599 313.735 118.749 312.943 118.763C312.007 118.78 311.169 118.597 310.431 118.214C309.692 117.831 309.106 117.295 308.674 116.607C308.241 115.918 308.017 115.112 308 114.188C307.984 113.253 308.173 112.433 308.569 111.73C308.964 111.015 309.518 110.453 310.231 110.044C310.944 109.635 311.762 109.423 312.686 109.406C313.658 109.389 314.477 109.566 315.144 109.938C315.811 110.311 316.307 110.872 316.632 111.622C316.969 112.36 317.118 113.288 317.078 114.405L309.717 114.536C309.787 115.075 309.957 115.552 310.228 115.967C310.512 116.382 310.878 116.706 311.326 116.938C311.786 117.169 312.31 117.28 312.898 117.27C313.558 117.258 314.107 117.098 314.546 116.79C314.984 116.482 315.277 116.087 315.425 115.604ZM312.73 110.882C311.95 110.895 311.306 111.117 310.798 111.546C310.289 111.963 309.957 112.515 309.801 113.202L315.326 113.104C315.265 112.373 314.991 111.819 314.505 111.444C314.018 111.057 313.426 110.869 312.73 110.882ZM322.562 116.989C321.819 117.003 321.132 116.865 320.503 116.576C319.874 116.287 319.368 115.858 318.986 115.289C318.615 114.719 318.423 114.027 318.409 113.211C318.394 112.407 318.562 111.714 318.912 111.132C319.261 110.537 319.739 110.079 320.345 109.756C320.963 109.421 321.656 109.246 322.424 109.233C322.652 109.229 322.869 109.243 323.073 109.275C323.278 109.295 323.476 109.334 323.669 109.39L327.593 109.321L327.622 110.94C327.082 110.95 326.534 110.87 325.979 110.7C325.436 110.529 324.959 110.346 324.547 110.149L324.491 110.06C324.903 110.269 325.262 110.526 325.567 110.833C325.873 111.127 326.107 111.465 326.269 111.847C326.444 112.215 326.536 112.634 326.544 113.102C326.558 113.894 326.39 114.581 326.04 115.163C325.703 115.745 325.225 116.192 324.606 116.503C324 116.814 323.318 116.976 322.562 116.989ZM325.406 121.98L325.398 121.566C325.388 120.954 325.212 120.519 324.871 120.261C324.53 120.003 324.036 119.88 323.388 119.891L321.283 119.929C320.839 119.937 320.46 119.907 320.147 119.841C319.834 119.774 319.574 119.671 319.367 119.531C319.161 119.402 319.008 119.237 318.908 119.035C318.809 118.845 318.757 118.629 318.753 118.389C318.744 117.922 318.882 117.565 319.166 117.32C319.45 117.075 319.813 116.918 320.256 116.85C320.698 116.771 321.148 116.757 321.605 116.808L322.562 116.989C321.879 117.038 321.358 117.113 321 117.215C320.642 117.318 320.466 117.525 320.471 117.837C320.474 118.017 320.549 118.159 320.695 118.265C320.841 118.37 321.046 118.421 321.31 118.416L323.505 118.377C324.189 118.365 324.797 118.438 325.328 118.596C325.871 118.767 326.296 119.053 326.603 119.456C326.922 119.87 327.089 120.437 327.101 121.157L327.116 121.949L325.406 121.98ZM322.537 115.532C322.968 115.524 323.357 115.427 323.702 115.241C324.058 115.042 324.341 114.767 324.551 114.416C324.76 114.052 324.861 113.618 324.852 113.114C324.843 112.598 324.727 112.162 324.504 111.806C324.294 111.438 324.007 111.167 323.644 110.993C323.28 110.808 322.883 110.719 322.451 110.726C322.019 110.734 321.619 110.837 321.25 111.036C320.893 111.222 320.61 111.497 320.401 111.861C320.191 112.225 320.091 112.671 320.101 113.199C320.11 113.703 320.225 114.133 320.448 114.489C320.67 114.833 320.963 115.098 321.326 115.283C321.689 115.457 322.093 115.54 322.537 115.532ZM328.422 109.306L330.258 109.273L333.849 117.832L332.362 118.219L328.422 109.306ZM337.583 109.143L332.426 121.818L330.608 121.851L332.843 116.932L335.765 109.175L337.583 109.143Z" fill="#141414"/>
<rect width="74.4362" height="26.0293" transform="translate(262.84 200.332)" fill="#FFFEFD"/>
<path d="M277.085 207.573C278.296 207.552 279.313 207.69 280.135 207.987C280.968 208.272 281.635 208.68 282.137 209.211C282.65 209.742 283.021 210.354 283.25 211.046C283.478 211.738 283.599 212.474 283.613 213.254C283.627 214.022 283.52 214.762 283.292 215.474C283.077 216.186 282.716 216.822 282.21 217.383C281.716 217.944 281.064 218.394 280.254 218.733C279.444 219.059 278.457 219.233 277.293 219.253L272.614 219.337L272.405 207.657L277.085 207.573ZM274.313 217.74L277.247 217.688C278.171 217.671 278.93 217.538 279.526 217.287C280.122 217.025 280.59 216.686 280.93 216.272C281.283 215.846 281.526 215.373 281.661 214.855C281.808 214.336 281.877 213.813 281.867 213.285C281.858 212.745 281.77 212.224 281.605 211.723C281.452 211.222 281.192 210.777 280.825 210.387C280.47 209.985 279.991 209.676 279.387 209.459C278.782 209.229 278.018 209.123 277.095 209.139L274.161 209.192L274.313 217.74ZM292.648 216.063L294.285 216.034C294.2 216.624 293.981 217.156 293.63 217.63C293.278 218.104 292.811 218.485 292.228 218.771C291.645 219.058 290.957 219.208 290.166 219.222C289.23 219.239 288.392 219.056 287.653 218.673C286.914 218.29 286.329 217.754 285.896 217.066C285.464 216.377 285.24 215.571 285.223 214.647C285.207 213.712 285.396 212.892 285.792 212.189C286.187 211.474 286.741 210.912 287.454 210.503C288.167 210.094 288.985 209.882 289.909 209.865C290.881 209.848 291.7 210.025 292.367 210.397C293.033 210.77 293.529 211.331 293.855 212.081C294.192 212.819 294.341 213.747 294.301 214.864L286.94 214.995C287.009 215.534 287.18 216.011 287.451 216.426C287.735 216.841 288.101 217.164 288.549 217.397C289.009 217.628 289.533 217.739 290.121 217.729C290.781 217.717 291.33 217.557 291.769 217.249C292.207 216.941 292.5 216.546 292.648 216.063ZM289.953 211.341C289.173 211.354 288.529 211.576 288.021 212.005C287.512 212.422 287.18 212.974 287.024 213.661L292.549 213.563C292.488 212.832 292.214 212.278 291.727 211.903C291.24 211.516 290.649 211.328 289.953 211.341ZM295.745 216.008L297.329 215.98C297.397 216.459 297.62 216.851 297.998 217.156C298.375 217.45 298.9 217.59 299.572 217.578C300.004 217.571 300.339 217.517 300.577 217.416C300.815 217.304 300.98 217.157 301.073 216.975C301.178 216.793 301.228 216.595 301.224 216.379C301.22 216.103 301.144 215.894 300.997 215.753C300.851 215.599 300.644 215.477 300.379 215.385C300.113 215.282 299.799 215.186 299.437 215.096C299.039 214.995 298.641 214.876 298.243 214.739C297.844 214.603 297.475 214.435 297.136 214.237C296.808 214.039 296.54 213.792 296.33 213.495C296.133 213.187 296.03 212.811 296.022 212.367C296.016 211.995 296.087 211.645 296.238 211.319C296.4 210.992 296.629 210.712 296.925 210.478C297.232 210.233 297.589 210.046 297.995 209.919C298.4 209.78 298.849 209.706 299.341 209.697C300.025 209.685 300.603 209.801 301.076 210.044C301.548 210.276 301.908 210.611 302.156 211.051C302.416 211.491 302.557 211.998 302.579 212.574L301.067 212.601C300.974 212.098 300.794 211.736 300.526 211.512C300.257 211.277 299.859 211.164 299.331 211.173C298.816 211.183 298.421 211.292 298.149 211.501C297.877 211.709 297.744 211.988 297.75 212.336C297.755 212.6 297.854 212.814 298.049 212.979C298.244 213.131 298.505 213.265 298.831 213.379C299.157 213.493 299.525 213.612 299.935 213.737C300.321 213.862 300.69 213.994 301.04 214.131C301.403 214.257 301.724 214.413 302.003 214.6C302.294 214.775 302.52 215.011 302.682 215.308C302.855 215.593 302.945 215.952 302.953 216.384C302.962 216.912 302.838 217.376 302.582 217.777C302.324 218.165 301.946 218.472 301.446 218.697C300.958 218.922 300.36 219.04 299.652 219.053C299.004 219.065 298.451 218.996 297.992 218.849C297.545 218.7 297.164 218.503 296.847 218.257C296.543 218.01 296.304 217.75 296.131 217.477C295.97 217.192 295.857 216.918 295.793 216.655C295.74 216.392 295.724 216.177 295.745 216.008ZM306.648 206.038L306.681 207.892L304.54 207.93L304.507 206.076L306.648 206.038ZM304.789 209.78L306.498 209.75L306.658 218.73L304.949 218.761L304.789 209.78ZM312.686 217.219C311.942 217.232 311.255 217.094 310.626 216.805C309.997 216.516 309.491 216.087 309.109 215.518C308.739 214.948 308.546 214.256 308.532 213.44C308.517 212.636 308.685 211.943 309.035 211.361C309.384 210.766 309.862 210.308 310.468 209.985C311.087 209.65 311.78 209.475 312.547 209.462C312.775 209.458 312.992 209.472 313.196 209.504C313.401 209.525 313.599 209.563 313.792 209.62L317.716 209.55L317.745 211.169C317.205 211.179 316.657 211.099 316.102 210.929C315.559 210.758 315.082 210.575 314.67 210.378L314.614 210.289C315.026 210.498 315.385 210.755 315.69 211.062C315.996 211.357 316.23 211.695 316.393 212.076C316.567 212.445 316.659 212.863 316.667 213.331C316.681 214.123 316.513 214.81 316.164 215.392C315.826 215.974 315.348 216.421 314.729 216.732C314.123 217.043 313.441 217.205 312.686 217.219ZM315.529 222.209L315.522 221.795C315.511 221.183 315.335 220.748 314.994 220.49C314.654 220.232 314.159 220.109 313.511 220.12L311.406 220.158C310.962 220.166 310.583 220.136 310.27 220.07C309.957 220.004 309.697 219.9 309.49 219.76C309.284 219.632 309.131 219.466 309.031 219.264C308.932 219.074 308.88 218.859 308.876 218.619C308.868 218.151 309.005 217.794 309.289 217.549C309.573 217.304 309.936 217.148 310.379 217.08C310.821 217 311.271 216.986 311.728 217.038L312.686 217.219C312.002 217.267 311.482 217.342 311.123 217.444C310.765 217.547 310.589 217.754 310.594 218.066C310.598 218.246 310.672 218.389 310.818 218.494C310.964 218.599 311.169 218.65 311.433 218.645L313.628 218.606C314.312 218.594 314.92 218.667 315.451 218.826C315.994 218.996 316.419 219.282 316.726 219.685C317.046 220.099 317.212 220.666 317.225 221.386L317.239 222.178L315.529 222.209ZM312.66 215.761C313.092 215.753 313.48 215.656 313.825 215.47C314.181 215.272 314.464 214.996 314.674 214.645C314.884 214.281 314.984 213.847 314.975 213.343C314.966 212.827 314.85 212.391 314.628 212.035C314.417 211.667 314.13 211.396 313.767 211.222C313.404 211.037 313.006 210.948 312.574 210.956C312.142 210.963 311.742 211.066 311.373 211.265C311.017 211.451 310.733 211.726 310.524 212.09C310.314 212.454 310.214 212.9 310.224 213.428C310.233 213.932 310.348 214.362 310.571 214.718C310.793 215.062 311.086 215.327 311.449 215.512C311.812 215.686 312.216 215.769 312.66 215.761ZM319.355 209.52L321.083 209.49L321.243 218.47L319.515 218.501L319.355 209.52ZM324.499 209.249C325.003 209.24 325.46 209.304 325.871 209.44C326.281 209.577 326.633 209.787 326.926 210.07C327.219 210.341 327.447 210.685 327.611 211.102C327.786 211.507 327.878 211.973 327.888 212.501L327.992 218.35L326.282 218.38L326.185 212.909C326.172 212.201 325.989 211.677 325.635 211.335C325.292 210.981 324.773 210.81 324.077 210.823C323.537 210.832 323.048 210.967 322.608 211.227C322.169 211.487 321.809 211.829 321.528 212.254C321.26 212.667 321.1 213.132 321.049 213.649L321.014 212.659C321.065 212.178 321.183 211.732 321.368 211.321C321.564 210.909 321.81 210.551 322.105 210.246C322.411 209.928 322.767 209.688 323.172 209.525C323.577 209.349 324.019 209.257 324.499 209.249Z" fill="#141414"/>
</svg>
