<svg width="850" height="436" viewBox="0 0 850 436" fill="none" xmlns="http://www.w3.org/2000/svg">
<path d="M3.18605 58.37H12.5461C12.8061 62.01 13.8894 65.26 15.7961 68.12C17.7027 70.98 20.3027 73.2333 23.5961 74.88C26.9761 76.5267 30.9194 77.35 35.4261 77.35C39.3261 77.35 42.5761 76.7867 45.1761 75.66C47.8627 74.4467 49.8561 72.8 51.1561 70.72C52.5427 68.64 53.2361 66.2133 53.2361 63.44C53.2361 60.58 52.5427 58.2833 51.1561 56.55C49.7694 54.8167 47.7761 53.3433 45.1761 52.13C42.5761 50.9167 39.4994 49.7467 35.9461 48.62C32.5661 47.58 29.1427 46.3667 25.6761 44.98C22.2094 43.5933 18.9594 41.9033 15.9261 39.91C12.9794 37.9167 10.5961 35.5333 8.77606 32.76C6.95606 29.9 6.04605 26.4767 6.04605 22.49C6.04605 18.59 7.08605 14.95 9.16605 11.57C11.3327 8.10333 14.4527 5.33 18.5261 3.25C22.6861 1.08333 27.6694 0 33.4761 0C42.5761 0 49.3794 2.47 53.8861 7.41C58.3927 12.35 60.5594 18.8933 60.3861 27.04H51.0261C50.8527 20.8867 49.1194 16.4667 45.8261 13.78C42.5327 11.0933 38.2427 9.75 32.9561 9.75C28.5361 9.75 24.6794 10.79 21.3861 12.87C18.0927 14.8633 16.4461 18.0267 16.4461 22.36C16.4461 24.2667 16.7927 25.9567 17.4861 27.43C18.2661 28.8167 19.4794 30.1167 21.1261 31.33C22.8594 32.5433 25.1561 33.7567 28.0161 34.97C30.9627 36.0967 34.5594 37.3533 38.8061 38.74C41.5794 39.6067 44.3961 40.6467 47.2561 41.86C50.2027 43.0733 52.8894 44.59 55.3161 46.41C57.8294 48.23 59.8227 50.57 61.2961 53.43C62.8561 56.2033 63.6361 59.7133 63.6361 63.96C63.6361 68.0333 62.6394 71.8467 60.6461 75.4C58.7394 78.8667 55.7061 81.6833 51.5461 83.85C47.4727 86.0167 42.1861 87.1 35.6861 87.1C30.1394 87.1 25.3727 86.3633 21.3861 84.89C17.4861 83.33 14.2794 81.3367 11.7661 78.91C9.25272 76.4833 7.30272 73.97 5.91606 71.37C4.61606 68.6833 3.74939 66.17 3.31605 63.83C2.88272 61.49 2.83939 59.67 3.18605 58.37Z" fill="#141414"/>
<path d="M81.8381 1.3H92.2381V85.8H81.8381V1.3Z" fill="#141414"/>
<path d="M164.554 79.56H160.394L198.874 1.3H209.274V85.8H198.874V19.37L200.954 19.89L167.674 85.8H157.274L123.994 20.02L126.074 19.5V85.8H115.674V1.3H126.074L164.554 79.56Z" fill="#141414"/>
<path d="M238.118 55.9V46.15H264.638C269.838 46.15 274.042 44.5467 277.248 41.34C280.542 38.0467 282.188 33.8 282.188 28.6C282.188 23.2267 280.542 18.98 277.248 15.86C274.042 12.6533 269.838 11.05 264.638 11.05H240.198V85.8H229.798V1.3H264.638C268.538 1.3 272.178 1.90667 275.558 3.12C278.938 4.33333 281.885 6.11 284.398 8.45C286.998 10.79 288.992 13.65 290.378 17.03C291.852 20.41 292.588 24.2667 292.588 28.6C292.588 32.9333 291.852 36.79 290.378 40.17C288.992 43.55 286.998 46.41 284.398 48.75C281.885 51.09 278.938 52.8667 275.558 54.08C272.178 55.2933 268.538 55.9 264.638 55.9H238.118Z" fill="#141414"/>
<path d="M319.296 1.3V76.05H366.096V85.8H308.896V1.3H319.296Z" fill="#141414"/>
<path d="M438.343 1.3L408.443 56.81V85.8H398.043V56.81L368.143 1.3H379.843L405.583 50.05H401.423L426.643 1.3H438.343Z" fill="#141414"/>
<path d="M511.772 1.3V11.05H462.372V38.87H502.802V48.62H462.372V85.8H451.972V1.3H511.772Z" fill="#141414"/>
<path d="M588.528 1.3L558.628 56.81V85.8H548.228V56.81L518.328 1.3H530.028L555.768 50.05H551.608L576.828 1.3H588.528Z" fill="#141414"/>
<path d="M604.758 1.3H615.158V85.8H604.758V1.3Z" fill="#141414"/>
<path d="M703.854 73.45L700.994 74.36V1.3H711.394V85.8H700.994L646.134 13.78L648.994 12.87V85.8H638.594V1.3H648.994L703.854 73.45Z" fill="#141414"/>
<path d="M768.038 87.1C761.885 87.1 756.338 86.06 751.398 83.98C746.545 81.9 742.385 78.9967 738.918 75.27C735.451 71.4567 732.808 66.9067 730.988 61.62C729.168 56.3333 728.258 50.5267 728.258 44.2C728.258 37.7867 729.255 31.8933 731.248 26.52C733.241 21.06 736.058 16.38 739.698 12.48C743.338 8.49334 747.628 5.41667 752.568 3.25C757.595 1.08333 763.098 0 769.078 0C775.578 0 781.341 1.25667 786.368 3.77C791.395 6.19666 795.468 9.66333 798.588 14.17C801.708 18.59 803.571 23.79 804.178 29.77H795.338C794.211 25.61 792.391 22.0567 789.878 19.11C787.365 16.0767 784.331 13.78 780.778 12.22C777.311 10.5733 773.411 9.75 769.078 9.75C763.098 9.75 757.811 11.2667 753.218 14.3C748.711 17.2467 745.158 21.32 742.558 26.52C739.958 31.72 738.658 37.6133 738.658 44.2C738.658 50.7867 739.828 56.5933 742.168 61.62C744.508 66.56 747.888 70.4167 752.308 73.19C756.728 75.9633 761.971 77.35 768.038 77.35C772.718 77.35 776.791 76.44 780.258 74.62C783.811 72.8 786.671 70.1567 788.838 66.69C791.005 63.1367 792.478 58.8033 793.258 53.69H799.628C798.241 64.87 794.731 73.2333 789.098 78.78C783.465 84.3267 776.445 87.1 768.038 87.1ZM797.548 85.8C797.548 82.94 797.591 79.7333 797.678 76.18C797.851 72.54 798.068 68.8567 798.328 65.13C798.588 61.4033 798.805 58.0667 798.978 55.12H770.378V45.37H807.688V85.8H797.548Z" fill="#141414"/>
<path d="M113.906 201.8V117.3H147.186C155.939 117.3 162.743 119.293 167.596 123.28C172.536 127.267 175.006 132.813 175.006 139.92C175.006 144.34 174.096 147.937 172.276 150.71C170.543 153.483 168.073 155.563 164.866 156.95C161.659 158.337 157.889 159.247 153.556 159.68L153.816 158.9C157.023 159.073 160.056 159.507 162.916 160.2C165.776 160.807 168.289 161.803 170.456 163.19C172.709 164.577 174.486 166.483 175.786 168.91C177.086 171.337 177.736 174.457 177.736 178.27C177.736 183.383 176.609 187.63 174.356 191.01C172.103 194.39 168.939 196.99 164.866 198.81C160.879 200.543 156.286 201.54 151.086 201.8H113.906ZM124.306 192.05H148.486C154.379 192.05 158.973 190.967 162.266 188.8C165.646 186.547 167.336 183.037 167.336 178.27C167.336 174.457 166.253 171.597 164.086 169.69C162.006 167.783 159.319 166.527 156.026 165.92C152.733 165.227 149.353 164.88 145.886 164.88H124.306V192.05ZM124.306 155.13H145.886C151.779 155.13 156.373 153.873 159.666 151.36C163.046 148.76 164.736 145.077 164.736 140.31C164.736 135.63 163.046 132.25 159.666 130.17C156.373 128.09 152.213 127.05 147.186 127.05H124.306V155.13Z" fill="#141414"/>
<path d="M253.163 169.3V117.3H263.563V169.3C263.563 174.067 263 178.313 261.873 182.04C260.747 185.68 259.143 188.843 257.063 191.53C255.07 194.217 252.643 196.427 249.783 198.16C246.923 199.807 243.717 201.02 240.163 201.8C236.697 202.667 232.97 203.1 228.983 203.1C224.91 203.1 221.097 202.667 217.543 201.8C213.99 201.02 210.74 199.807 207.793 198.16C204.933 196.427 202.463 194.217 200.383 191.53C198.39 188.843 196.83 185.68 195.703 182.04C194.577 178.313 194.013 174.067 194.013 169.3V117.3H204.413V169.3C204.413 175.8 205.54 180.783 207.793 184.25C210.047 187.717 213.037 190.1 216.763 191.4C220.49 192.7 224.563 193.35 228.983 193.35C233.317 193.35 237.303 192.7 240.943 191.4C244.583 190.1 247.53 187.717 249.783 184.25C252.037 180.783 253.163 175.8 253.163 169.3Z" fill="#141414"/>
<path d="M278.684 174.37H288.044C288.304 178.01 289.387 181.26 291.294 184.12C293.201 186.98 295.801 189.233 299.094 190.88C302.474 192.527 306.417 193.35 310.924 193.35C314.824 193.35 318.074 192.787 320.674 191.66C323.361 190.447 325.354 188.8 326.654 186.72C328.041 184.64 328.734 182.213 328.734 179.44C328.734 176.58 328.041 174.283 326.654 172.55C325.267 170.817 323.274 169.343 320.674 168.13C318.074 166.917 314.997 165.747 311.444 164.62C308.064 163.58 304.641 162.367 301.174 160.98C297.707 159.593 294.457 157.903 291.424 155.91C288.477 153.917 286.094 151.533 284.274 148.76C282.454 145.9 281.544 142.477 281.544 138.49C281.544 134.59 282.584 130.95 284.664 127.57C286.831 124.103 289.951 121.33 294.024 119.25C298.184 117.083 303.167 116 308.974 116C318.074 116 324.877 118.47 329.384 123.41C333.891 128.35 336.057 134.893 335.884 143.04H326.524C326.351 136.887 324.617 132.467 321.324 129.78C318.031 127.093 313.741 125.75 308.454 125.75C304.034 125.75 300.177 126.79 296.884 128.87C293.591 130.863 291.944 134.027 291.944 138.36C291.944 140.267 292.291 141.957 292.984 143.43C293.764 144.817 294.977 146.117 296.624 147.33C298.357 148.543 300.654 149.757 303.514 150.97C306.461 152.097 310.057 153.353 314.304 154.74C317.077 155.607 319.894 156.647 322.754 157.86C325.701 159.073 328.387 160.59 330.814 162.41C333.327 164.23 335.321 166.57 336.794 169.43C338.354 172.203 339.134 175.713 339.134 179.96C339.134 184.033 338.137 187.847 336.144 191.4C334.237 194.867 331.204 197.683 327.044 199.85C322.971 202.017 317.684 203.1 311.184 203.1C305.637 203.1 300.871 202.363 296.884 200.89C292.984 199.33 289.777 197.337 287.264 194.91C284.751 192.483 282.801 189.97 281.414 187.37C280.114 184.683 279.247 182.17 278.814 179.83C278.381 177.49 278.337 175.67 278.684 174.37Z" fill="#141414"/>
<path d="M357.336 117.3H367.736V201.8H357.336V117.3Z" fill="#141414"/>
<path d="M456.432 189.45L453.572 190.36V117.3H463.972V201.8H453.572L398.712 129.78L401.572 128.87V201.8H391.172V117.3H401.572L456.432 189.45Z" fill="#141414"/>
<path d="M495.136 164.62V192.05H544.666V201.8H484.736V117.3H544.536V127.05H495.136V154.87H535.566V164.62H495.136Z" fill="#141414"/>
<path d="M557.092 174.37H566.452C566.712 178.01 567.796 181.26 569.702 184.12C571.609 186.98 574.209 189.233 577.502 190.88C580.882 192.527 584.826 193.35 589.332 193.35C593.232 193.35 596.482 192.787 599.082 191.66C601.769 190.447 603.762 188.8 605.062 186.72C606.449 184.64 607.142 182.213 607.142 179.44C607.142 176.58 606.449 174.283 605.062 172.55C603.676 170.817 601.682 169.343 599.082 168.13C596.482 166.917 593.406 165.747 589.852 164.62C586.472 163.58 583.049 162.367 579.582 160.98C576.116 159.593 572.866 157.903 569.832 155.91C566.886 153.917 564.502 151.533 562.682 148.76C560.862 145.9 559.952 142.477 559.952 138.49C559.952 134.59 560.992 130.95 563.072 127.57C565.239 124.103 568.359 121.33 572.432 119.25C576.592 117.083 581.576 116 587.382 116C596.482 116 603.286 118.47 607.792 123.41C612.299 128.35 614.466 134.893 614.292 143.04H604.932C604.759 136.887 603.026 132.467 599.732 129.78C596.439 127.093 592.149 125.75 586.862 125.75C582.442 125.75 578.586 126.79 575.292 128.87C571.999 130.863 570.352 134.027 570.352 138.36C570.352 140.267 570.699 141.957 571.392 143.43C572.172 144.817 573.386 146.117 575.032 147.33C576.766 148.543 579.062 149.757 581.922 150.97C584.869 152.097 588.466 153.353 592.712 154.74C595.486 155.607 598.302 156.647 601.162 157.86C604.109 159.073 606.796 160.59 609.222 162.41C611.736 164.23 613.729 166.57 615.202 169.43C616.762 172.203 617.542 175.713 617.542 179.96C617.542 184.033 616.546 187.847 614.552 191.4C612.646 194.867 609.612 197.683 605.452 199.85C601.379 202.017 596.092 203.1 589.592 203.1C584.046 203.1 579.279 202.363 575.292 200.89C571.392 199.33 568.186 197.337 565.672 194.91C563.159 192.483 561.209 189.97 559.822 187.37C558.522 184.683 557.656 182.17 557.222 179.83C556.789 177.49 556.746 175.67 557.092 174.37Z" fill="#141414"/>
<path d="M627.424 174.37H636.784C637.044 178.01 638.128 181.26 640.034 184.12C641.941 186.98 644.541 189.233 647.834 190.88C651.214 192.527 655.158 193.35 659.664 193.35C663.564 193.35 666.814 192.787 669.414 191.66C672.101 190.447 674.094 188.8 675.394 186.72C676.781 184.64 677.474 182.213 677.474 179.44C677.474 176.58 676.781 174.283 675.394 172.55C674.008 170.817 672.014 169.343 669.414 168.13C666.814 166.917 663.738 165.747 660.184 164.62C656.804 163.58 653.381 162.367 649.914 160.98C646.448 159.593 643.198 157.903 640.164 155.91C637.218 153.917 634.834 151.533 633.014 148.76C631.194 145.9 630.284 142.477 630.284 138.49C630.284 134.59 631.324 130.95 633.404 127.57C635.571 124.103 638.691 121.33 642.764 119.25C646.924 117.083 651.908 116 657.714 116C666.814 116 673.618 118.47 678.124 123.41C682.631 128.35 684.798 134.893 684.624 143.04H675.264C675.091 136.887 673.358 132.467 670.064 129.78C666.771 127.093 662.481 125.75 657.194 125.75C652.774 125.75 648.918 126.79 645.624 128.87C642.331 130.863 640.684 134.027 640.684 138.36C640.684 140.267 641.031 141.957 641.724 143.43C642.504 144.817 643.718 146.117 645.364 147.33C647.098 148.543 649.394 149.757 652.254 150.97C655.201 152.097 658.798 153.353 663.044 154.74C665.818 155.607 668.634 156.647 671.494 157.86C674.441 159.073 677.128 160.59 679.554 162.41C682.068 164.23 684.061 166.57 685.534 169.43C687.094 172.203 687.874 175.713 687.874 179.96C687.874 184.033 686.878 187.847 684.884 191.4C682.978 194.867 679.944 197.683 675.784 199.85C671.711 202.017 666.424 203.1 659.924 203.1C654.378 203.1 649.611 202.363 645.624 200.89C641.724 199.33 638.518 197.337 636.004 194.91C633.491 192.483 631.541 189.97 630.154 187.37C628.854 184.683 627.988 182.17 627.554 179.83C627.121 177.49 627.078 175.67 627.424 174.37Z" fill="#141414"/>
<path d="M210.456 233.3H278.056V243.05H210.456V233.3ZM239.056 242.01H249.456V317.8H239.056V242.01Z" fill="#141414"/>
<path d="M299.871 270.74H353.431V280.49H299.871V270.74ZM352.781 233.3H363.181V317.8H352.781V233.3ZM290.381 233.3H300.781V317.8H290.381V233.3Z" fill="#141414"/>
<path d="M383.945 317.8V233.3H421.255C427.148 233.3 432.175 234.21 436.335 236.03C440.495 237.763 443.658 240.407 445.825 243.96C448.078 247.513 449.205 251.977 449.205 257.35C449.205 260.99 448.598 264.11 447.385 266.71C446.258 269.31 444.655 271.52 442.575 273.34C440.495 275.073 438.025 276.417 435.165 277.37C432.392 278.323 429.358 278.93 426.065 279.19L425.675 278.54C430.268 278.713 434.212 279.277 437.505 280.23C440.798 281.183 443.355 282.917 445.175 285.43C446.995 287.943 447.905 291.713 447.905 296.74V317.8H437.505V296.74C437.505 293.273 436.898 290.587 435.685 288.68C434.558 286.687 432.608 285.3 429.835 284.52C427.148 283.653 423.422 283.22 418.655 283.22H394.345V317.8H383.945ZM394.345 273.47H421.255C427.148 273.47 431.525 271.997 434.385 269.05C437.332 266.017 438.805 262.117 438.805 257.35C438.805 252.757 437.332 249.247 434.385 246.82C431.525 244.307 427.148 243.05 421.255 243.05H394.345V273.47Z" fill="#141414"/>
<path d="M505.053 319.1C497.34 319.1 490.32 317.323 483.993 313.77C477.753 310.13 472.77 305.06 469.043 298.56C465.317 292.06 463.453 284.39 463.453 275.55C463.453 266.71 465.317 259.04 469.043 252.54C472.77 245.953 477.753 240.883 483.993 237.33C490.32 233.777 497.34 232 505.053 232C512.767 232 519.743 233.777 525.983 237.33C532.31 240.883 537.337 245.953 541.063 252.54C544.79 259.04 546.653 266.71 546.653 275.55C546.653 284.39 544.79 292.06 541.063 298.56C537.337 305.06 532.31 310.13 525.983 313.77C519.743 317.323 512.767 319.1 505.053 319.1ZM505.053 309.35C510.947 309.35 516.233 308.093 520.913 305.58C525.593 302.98 529.32 299.167 532.093 294.14C534.867 289.113 536.253 282.917 536.253 275.55C536.253 268.183 534.867 262.03 532.093 257.09C529.32 252.063 525.593 248.25 520.913 245.65C516.233 243.05 510.947 241.75 505.053 241.75C499.247 241.75 493.96 243.05 489.193 245.65C484.513 248.25 480.787 252.063 478.013 257.09C475.24 262.03 473.853 268.183 473.853 275.55C473.853 282.917 475.24 289.113 478.013 294.14C480.787 299.167 484.513 302.98 489.193 305.58C493.96 308.093 499.247 309.35 505.053 309.35Z" fill="#141414"/>
<path d="M622.734 285.3V233.3H633.134V285.3C633.134 290.067 632.57 294.313 631.444 298.04C630.317 301.68 628.714 304.843 626.634 307.53C624.64 310.217 622.214 312.427 619.354 314.16C616.494 315.807 613.287 317.02 609.734 317.8C606.267 318.667 602.54 319.1 598.554 319.1C594.48 319.1 590.667 318.667 587.114 317.8C583.56 317.02 580.31 315.807 577.364 314.16C574.504 312.427 572.034 310.217 569.954 307.53C567.96 304.843 566.4 301.68 565.274 298.04C564.147 294.313 563.584 290.067 563.584 285.3V233.3H573.984V285.3C573.984 291.8 575.11 296.783 577.364 300.25C579.617 303.717 582.607 306.1 586.334 307.4C590.06 308.7 594.134 309.35 598.554 309.35C602.887 309.35 606.874 308.7 610.514 307.4C614.154 306.1 617.1 303.717 619.354 300.25C621.607 296.783 622.734 291.8 622.734 285.3Z" fill="#141414"/>
<path d="M689.854 319.1C683.701 319.1 678.154 318.06 673.214 315.98C668.361 313.9 664.201 310.997 660.734 307.27C657.268 303.457 654.624 298.907 652.804 293.62C650.984 288.333 650.074 282.527 650.074 276.2C650.074 269.787 651.071 263.893 653.064 258.52C655.058 253.06 657.874 248.38 661.514 244.48C665.154 240.493 669.444 237.417 674.384 235.25C679.411 233.083 684.914 232 690.894 232C697.394 232 703.158 233.257 708.184 235.77C713.211 238.197 717.284 241.663 720.404 246.17C723.524 250.59 725.388 255.79 725.994 261.77H717.154C716.028 257.61 714.208 254.057 711.694 251.11C709.181 248.077 706.148 245.78 702.594 244.22C699.128 242.573 695.228 241.75 690.894 241.75C684.914 241.75 679.628 243.267 675.034 246.3C670.528 249.247 666.974 253.32 664.374 258.52C661.774 263.72 660.474 269.613 660.474 276.2C660.474 282.787 661.644 288.593 663.984 293.62C666.324 298.56 669.704 302.417 674.124 305.19C678.544 307.963 683.788 309.35 689.854 309.35C694.534 309.35 698.608 308.44 702.074 306.62C705.628 304.8 708.488 302.157 710.654 298.69C712.821 295.137 714.294 290.803 715.074 285.69H721.444C720.058 296.87 716.548 305.233 710.914 310.78C705.281 316.327 698.261 319.1 689.854 319.1ZM719.364 317.8C719.364 314.94 719.408 311.733 719.494 308.18C719.668 304.54 719.884 300.857 720.144 297.13C720.404 293.403 720.621 290.067 720.794 287.12H692.194V277.37H729.504V317.8H719.364Z" fill="#141414"/>
<path d="M757.156 270.74H810.716V280.49H757.156V270.74ZM810.066 233.3H820.466V317.8H810.066V233.3ZM747.666 233.3H758.066V317.8H747.666V233.3Z" fill="#141414"/>
<path d="M0.456055 349.3H68.0561V359.05H0.456055V349.3ZM29.0561 358.01H39.4561V433.8H29.0561V358.01Z" fill="#141414"/>
<path d="M90.7807 396.62V424.05H140.311V433.8H80.3807V349.3H140.181V359.05H90.7807V386.87H131.211V396.62H90.7807Z" fill="#141414"/>
<path d="M231.127 405.59C230.26 411.657 228.18 416.9 224.887 421.32C221.594 425.74 217.39 429.163 212.277 431.59C207.25 433.93 201.617 435.1 195.377 435.1C189.57 435.1 184.197 434.103 179.257 432.11C174.317 430.03 169.984 427.083 166.257 423.27C162.617 419.457 159.757 414.863 157.677 409.49C155.597 404.117 154.557 398.137 154.557 391.55C154.557 384.877 155.597 378.897 157.677 373.61C159.757 368.237 162.617 363.643 166.257 359.83C169.984 356.017 174.317 353.113 179.257 351.12C184.197 349.04 189.57 348 195.377 348C201.704 348 207.38 349.213 212.407 351.64C217.52 353.98 221.723 357.403 225.017 361.91C228.31 366.33 230.39 371.617 231.257 377.77H221.637C220.424 373.437 218.517 369.797 215.917 366.85C213.404 363.903 210.37 361.65 206.817 360.09C203.264 358.53 199.45 357.75 195.377 357.75C190.09 357.75 185.107 359.05 180.427 361.65C175.833 364.25 172.107 368.063 169.247 373.09C166.387 378.117 164.957 384.27 164.957 391.55C164.957 398.83 166.387 404.983 169.247 410.01C172.107 415.037 175.833 418.85 180.427 421.45C185.107 424.05 190.09 425.35 195.377 425.35C199.45 425.35 203.22 424.613 206.687 423.14C210.24 421.58 213.273 419.327 215.787 416.38C218.387 413.433 220.294 409.837 221.507 405.59H231.127Z" fill="#141414"/>
<path d="M257.703 386.74H311.263V396.49H257.703V386.74ZM310.613 349.3H321.013V433.8H310.613V349.3ZM248.213 349.3H258.613V433.8H248.213V349.3Z" fill="#141414"/>
<path d="M407.037 421.45L404.177 422.36V349.3H414.577V433.8H404.177L349.317 361.78L352.177 360.87V433.8H341.777V349.3H352.177L407.037 421.45Z" fill="#141414"/>
<path d="M541.972 349.3V424.05H588.772V433.8H531.572V349.3H541.972Z" fill="#141414"/>
<path d="M639.477 435.1C631.764 435.1 624.744 433.323 618.417 429.77C612.177 426.13 607.194 421.06 603.467 414.56C599.74 408.06 597.877 400.39 597.877 391.55C597.877 382.71 599.74 375.04 603.467 368.54C607.194 361.953 612.177 356.883 618.417 353.33C624.744 349.777 631.764 348 639.477 348C647.19 348 654.167 349.777 660.407 353.33C666.734 356.883 671.76 361.953 675.487 368.54C679.214 375.04 681.077 382.71 681.077 391.55C681.077 400.39 679.214 408.06 675.487 414.56C671.76 421.06 666.734 426.13 660.407 429.77C654.167 433.323 647.19 435.1 639.477 435.1ZM639.477 425.35C645.37 425.35 650.657 424.093 655.337 421.58C660.017 418.98 663.744 415.167 666.517 410.14C669.29 405.113 670.677 398.917 670.677 391.55C670.677 384.183 669.29 378.03 666.517 373.09C663.744 368.063 660.017 364.25 655.337 361.65C650.657 359.05 645.37 357.75 639.477 357.75C633.671 357.75 628.384 359.05 623.617 361.65C618.937 364.25 615.21 368.063 612.437 373.09C609.664 378.03 608.277 384.183 608.277 391.55C608.277 398.917 609.664 405.113 612.437 410.14C615.21 415.167 618.937 418.98 623.617 421.58C628.384 424.093 633.671 425.35 639.477 425.35Z" fill="#141414"/>
<path d="M733.888 435.1C727.734 435.1 722.188 434.06 717.248 431.98C712.394 429.9 708.234 426.997 704.768 423.27C701.301 419.457 698.658 414.907 696.838 409.62C695.018 404.333 694.108 398.527 694.108 392.2C694.108 385.787 695.104 379.893 697.098 374.52C699.091 369.06 701.908 364.38 705.548 360.48C709.188 356.493 713.478 353.417 718.418 351.25C723.444 349.083 728.948 348 734.928 348C741.428 348 747.191 349.257 752.218 351.77C757.244 354.197 761.318 357.663 764.438 362.17C767.558 366.59 769.421 371.79 770.028 377.77H761.188C760.061 373.61 758.241 370.057 755.728 367.11C753.214 364.077 750.181 361.78 746.628 360.22C743.161 358.573 739.261 357.75 734.928 357.75C728.948 357.75 723.661 359.267 719.068 362.3C714.561 365.247 711.008 369.32 708.408 374.52C705.808 379.72 704.508 385.613 704.508 392.2C704.508 398.787 705.678 404.593 708.018 409.62C710.358 414.56 713.738 418.417 718.158 421.19C722.578 423.963 727.821 425.35 733.888 425.35C738.568 425.35 742.641 424.44 746.108 422.62C749.661 420.8 752.521 418.157 754.688 414.69C756.854 411.137 758.328 406.803 759.108 401.69H765.478C764.091 412.87 760.581 421.233 754.948 426.78C749.314 432.327 742.294 435.1 733.888 435.1ZM763.398 433.8C763.398 430.94 763.441 427.733 763.528 424.18C763.701 420.54 763.918 416.857 764.178 413.13C764.438 409.403 764.654 406.067 764.828 403.12H736.228V393.37H773.538V433.8H763.398Z" fill="#141414"/>
<path d="M849.544 349.3L819.644 404.81V433.8H809.244V404.81L779.344 349.3H791.044L816.784 398.05H812.624L837.844 349.3H849.544Z" fill="#141414"/>
</svg>
