<svg width="912" height="268" viewBox="0 0 912 268" fill="none" xmlns="http://www.w3.org/2000/svg">
<path d="M227.24 81.14C226.46 87.4667 224.293 92.8833 220.74 97.39C217.273 101.897 212.723 105.363 207.09 107.79C201.457 110.217 195.043 111.43 187.85 111.43C181.35 111.43 175.37 110.433 169.91 108.44C164.537 106.447 159.857 103.587 155.87 99.86C151.883 96.1333 148.763 91.5833 146.51 86.21C144.257 80.75 143.13 74.64 143.13 67.88C143.13 61.0333 144.257 54.9233 146.51 49.55C148.763 44.1767 151.883 39.6267 155.87 35.9C159.857 32.0867 164.537 29.1833 169.91 27.19C175.37 25.1967 181.35 24.2 187.85 24.2C195.13 24.2 201.587 25.4567 207.22 27.97C212.853 30.3967 217.403 33.9067 220.87 38.5C224.423 43.0067 226.59 48.4233 227.37 54.75H215.41C214.283 50.6767 212.42 47.21 209.82 44.35C207.22 41.49 204.057 39.3233 200.33 37.85C196.603 36.29 192.443 35.51 187.85 35.51C181.957 35.51 176.583 36.7667 171.73 39.28C166.877 41.7933 162.977 45.4333 160.03 50.2C157.17 54.9667 155.74 60.86 155.74 67.88C155.74 74.8133 157.17 80.7067 160.03 85.56C162.977 90.3267 166.877 93.9667 171.73 96.48C176.583 98.9067 181.957 100.12 187.85 100.12C192.443 100.12 196.56 99.3833 200.2 97.91C203.927 96.4367 207.09 94.27 209.69 91.41C212.29 88.55 214.197 85.1267 215.41 81.14H227.24ZM244.27 110V25.63H287.69C293.757 25.63 298.957 26.54 303.29 28.36C307.71 30.0933 311.09 32.78 313.43 36.42C315.77 39.9733 316.94 44.5233 316.94 50.07C316.94 53.8833 316.29 57.1333 314.99 59.82C313.777 62.42 312.087 64.5867 309.92 66.32C307.753 68.0533 305.197 69.3967 302.25 70.35C299.303 71.3033 296.14 71.91 292.76 72.17L291.85 71.39C296.963 71.5633 301.253 72.1267 304.72 73.08C308.187 74.0333 310.83 75.7667 312.65 78.28C314.557 80.7067 315.51 84.3467 315.51 89.2V110H302.9V89.59C302.9 86.21 302.337 83.5667 301.21 81.66C300.083 79.7533 298.133 78.41 295.36 77.63C292.587 76.85 288.687 76.46 283.66 76.46H256.75V110H244.27ZM256.75 65.54H287.69C293.237 65.54 297.397 64.1533 300.17 61.38C303.03 58.6067 304.46 54.9667 304.46 50.46C304.46 46.1267 303.03 42.79 300.17 40.45C297.397 38.11 293.237 36.94 287.69 36.94H256.75V65.54ZM347.648 73.47V98.82H401.988V110H335.168V25.63H401.858V36.81H347.648V62.55H391.978V73.47H347.648ZM430.63 89.07V77.89H475.87V89.07H430.63ZM412.3 110L446.75 25.63H460.01L494.72 110H481.2L451.04 33.82H455.72L425.69 110H412.3ZM490.751 25.63H564.721V36.81H490.751V25.63ZM521.431 35.51H534.041V110H521.431V35.51ZM579.741 25.63H592.221V110H579.741V25.63ZM640.574 110L607.684 25.63H621.334L649.674 100.25H645.774L674.114 25.63H687.504L654.874 110H640.574ZM712.893 73.47V98.82H767.233V110H700.413V25.63H767.103V36.81H712.893V62.55H757.223V73.47H712.893Z" fill="#141414"/>
<path d="M20.41 212.88V201.96H50.7C55.7267 201.96 59.7567 200.443 62.79 197.41C65.91 194.377 67.47 190.39 67.47 185.45C67.47 180.337 65.91 176.307 62.79 173.36C59.7567 170.413 55.7267 168.94 50.7 168.94H22.49V242H10.01V157.63H50.18C54.34 157.63 58.1967 158.237 61.75 159.45C65.39 160.577 68.5533 162.31 71.24 164.65C74.0133 166.99 76.1367 169.893 77.61 173.36C79.17 176.827 79.95 180.857 79.95 185.45C79.95 189.957 79.17 193.943 77.61 197.41C76.1367 200.877 74.0133 203.78 71.24 206.12C68.5533 208.373 65.39 210.063 61.75 211.19C58.1967 212.317 54.34 212.88 50.18 212.88H20.41ZM108.697 157.63V230.82H158.357V242H96.2173V157.63H108.697ZM185.585 221.07V209.89H230.825V221.07H185.585ZM167.255 242L201.705 157.63H214.965L249.675 242H236.155L205.995 165.82H210.675L180.645 242H167.255ZM322.678 157.63L290.568 213.79V242H278.088V213.79L245.978 157.63H260.278L287.578 206.9H281.598L308.378 157.63H322.678ZM370.099 243.43C363.425 243.43 357.402 242.433 352.029 240.44C346.742 238.447 342.192 235.587 338.379 231.86C334.565 228.133 331.662 223.627 329.669 218.34C327.675 212.967 326.679 207.03 326.679 200.53C326.679 193.857 327.762 187.833 329.929 182.46C332.095 177 335.172 172.32 339.159 168.42C343.145 164.433 347.869 161.4 353.329 159.32C358.789 157.24 364.812 156.2 371.399 156.2C378.765 156.2 385.222 157.457 390.769 159.97C396.402 162.483 400.909 166.037 404.289 170.63C407.669 175.137 409.662 180.51 410.269 186.75H398.959C397.832 182.763 396.012 179.34 393.499 176.48C390.985 173.62 387.865 171.41 384.139 169.85C380.412 168.29 376.165 167.51 371.399 167.51C364.899 167.51 359.265 168.94 354.499 171.8C349.732 174.573 346.005 178.473 343.319 183.5C340.632 188.44 339.289 194.117 339.289 200.53C339.289 206.857 340.459 212.403 342.799 217.17C345.225 221.85 348.735 225.533 353.329 228.22C358.009 230.82 363.642 232.12 370.229 232.12C375.342 232.12 379.805 231.253 383.619 229.52C387.519 227.7 390.682 225.187 393.109 221.98C395.622 218.687 397.355 214.743 398.309 210.15L404.809 209.37C403.509 220.55 399.782 229.043 393.629 234.85C387.475 240.57 379.632 243.43 370.099 243.43ZM401.949 242C401.949 239.227 402.036 236.063 402.209 232.51C402.469 228.87 402.729 225.23 402.989 221.59C403.335 217.863 403.639 214.527 403.899 211.58H372.309V201.44H413.519V242H401.949ZM431.754 242V157.63H475.174C481.241 157.63 486.441 158.54 490.774 160.36C495.194 162.093 498.574 164.78 500.914 168.42C503.254 171.973 504.424 176.523 504.424 182.07C504.424 185.883 503.774 189.133 502.474 191.82C501.261 194.42 499.571 196.587 497.404 198.32C495.238 200.053 492.681 201.397 489.734 202.35C486.788 203.303 483.624 203.91 480.244 204.17L479.334 203.39C484.448 203.563 488.738 204.127 492.204 205.08C495.671 206.033 498.314 207.767 500.134 210.28C502.041 212.707 502.994 216.347 502.994 221.2V242H490.384V221.59C490.384 218.21 489.821 215.567 488.694 213.66C487.568 211.753 485.618 210.41 482.844 209.63C480.071 208.85 476.171 208.46 471.144 208.46H444.234V242H431.754ZM444.234 197.54H475.174C480.721 197.54 484.881 196.153 487.654 193.38C490.514 190.607 491.944 186.967 491.944 182.46C491.944 178.127 490.514 174.79 487.654 172.45C484.881 170.11 480.721 168.94 475.174 168.94H444.234V197.54ZM564.123 243.43C555.369 243.43 547.569 241.653 540.723 238.1C533.963 234.547 528.633 229.52 524.733 223.02C520.919 216.52 519.013 208.807 519.013 199.88C519.013 190.867 520.919 183.11 524.733 176.61C528.633 170.11 533.963 165.083 540.723 161.53C547.569 157.977 555.369 156.2 564.123 156.2C572.963 156.2 580.763 157.977 587.523 161.53C594.283 165.083 599.613 170.11 603.513 176.61C607.413 183.11 609.363 190.867 609.363 199.88C609.363 208.807 607.413 216.52 603.513 223.02C599.613 229.52 594.283 234.547 587.523 238.1C580.763 241.653 572.963 243.43 564.123 243.43ZM564.123 232.12C570.363 232.12 575.909 230.907 580.763 228.48C585.616 226.053 589.473 222.457 592.333 217.69C595.193 212.923 596.623 206.987 596.623 199.88C596.623 192.773 595.193 186.837 592.333 182.07C589.473 177.303 585.616 173.707 580.763 171.28C575.909 168.767 570.363 167.51 564.123 167.51C558.056 167.51 552.553 168.767 547.613 171.28C542.673 173.707 538.773 177.303 535.913 182.07C533.053 186.837 531.623 192.773 531.623 199.88C531.623 206.987 533.053 212.923 535.913 217.69C538.773 222.457 542.673 226.053 547.613 228.48C552.553 230.907 558.056 232.12 564.123 232.12ZM690.987 208.07V157.63H703.467V208.59C703.467 213.617 702.817 218.037 701.517 221.85C700.303 225.663 698.527 228.957 696.187 231.73C693.847 234.503 691.073 236.757 687.867 238.49C684.747 240.137 681.237 241.35 677.337 242.13C673.523 242.997 669.45 243.43 665.117 243.43C660.61 243.43 656.407 242.997 652.507 242.13C648.607 241.35 645.01 240.137 641.717 238.49C638.51 236.757 635.737 234.503 633.397 231.73C631.143 228.957 629.367 225.663 628.067 221.85C626.853 218.037 626.247 213.617 626.247 208.59V157.63H638.727V208.07C638.727 214.57 639.897 219.553 642.237 223.02C644.663 226.487 647.87 228.87 651.857 230.17C655.843 231.47 660.263 232.12 665.117 232.12C669.797 232.12 674.087 231.47 677.987 230.17C681.887 228.87 685.007 226.487 687.347 223.02C689.773 219.553 690.987 214.57 690.987 208.07ZM795.37 228.22L791.73 229.52V157.63H804.34V242H791.73L732.84 171.67L736.48 170.37V242H724V157.63H736.48L795.37 228.22ZM858.728 157.63C867.482 157.63 874.805 158.757 880.698 161.01C886.678 163.177 891.445 166.21 894.998 170.11C898.638 174.01 901.238 178.473 902.798 183.5C904.358 188.527 905.138 193.857 905.138 199.49C905.138 205.037 904.272 210.367 902.538 215.48C900.892 220.593 898.205 225.143 894.478 229.13C890.838 233.117 886.072 236.28 880.178 238.62C874.285 240.873 867.135 242 858.728 242H824.928V157.63H858.728ZM837.408 230.69H858.598C865.272 230.69 870.775 229.823 875.108 228.09C879.442 226.27 882.865 223.887 885.378 220.94C887.978 217.907 889.798 214.527 890.838 210.8C891.965 207.073 892.528 203.303 892.528 199.49C892.528 195.59 891.965 191.82 890.838 188.18C889.798 184.54 887.978 181.29 885.378 178.43C882.865 175.483 879.442 173.187 875.108 171.54C870.775 169.807 865.272 168.94 858.598 168.94H837.408V230.69Z" fill="#141414"/>
<g clip-path="url(#clip0_306_4240)">
<path d="M564.944 247.293C591.064 246.837 611.868 225.294 611.412 199.175C610.956 173.055 589.413 152.251 563.293 152.707C537.174 153.163 516.37 174.706 516.826 200.826C517.281 226.945 538.825 247.749 564.944 247.293Z" fill="#008253"/>
<path d="M542.756 195.637C545.802 195.584 548.228 193.072 548.175 190.026C548.122 186.98 545.61 184.554 542.564 184.607C539.518 184.66 537.092 187.172 537.145 190.218C537.198 193.264 539.711 195.69 542.756 195.637Z" fill="white"/>
<path d="M585.315 194.894C588.361 194.841 590.787 192.329 590.734 189.283C590.681 186.237 588.168 183.811 585.123 183.864C582.077 183.917 579.651 186.43 579.704 189.476C579.757 192.521 582.269 194.948 585.315 194.894Z" fill="white"/>
<path d="M543.945 211.142C552.957 235.325 578.892 232.136 584.672 210.432" stroke="white" stroke-width="2" stroke-linecap="round"/>
</g>
<defs>
<clipPath id="clip0_306_4240">
<rect width="94.6011" height="94.6011" fill="white" transform="translate(516 153.532) rotate(-1)"/>
</clipPath>
</defs>
</svg>
