<svg width="48" height="49" viewBox="0 0 48 49" fill="none" xmlns="http://www.w3.org/2000/svg">
<rect x="0.5" y="0.651855" width="47" height="47" rx="23.5" fill="#F5F5F5"/>
<path d="M24 34.1519C29.5229 34.1519 34 29.6747 34 24.1519C34 18.629 29.5229 14.1519 24 14.1519C18.4772 14.1519 14 18.629 14 24.1519C14 25.6633 14.3353 27.0964 14.9356 28.3809L14.223 32.7763C14.1135 33.4518 14.6995 34.0353 15.3745 33.9228L19.7298 33.1969C21.0248 33.8093 22.4724 34.1519 24 34.1519Z" stroke="#141414" stroke-width="1.5" stroke-linecap="square" stroke-linejoin="round"/>
<path d="M27.6442 23.3009C27.6562 21.8089 26.4252 20.4409 24.9002 20.2519L24.8002 20.2369C24.7237 20.2218 24.6461 20.2131 24.5682 20.2109C24.2552 20.2109 24.1722 20.4369 24.1502 20.5719C24.1377 20.628 24.1366 20.686 24.1469 20.7425C24.1572 20.799 24.1787 20.8529 24.2102 20.9009C24.3142 21.0459 24.4962 21.0709 24.6422 21.0929C24.6852 21.0989 24.7262 21.1039 24.7592 21.1129C26.1302 21.4279 26.5922 21.9249 26.8172 23.3279C26.8232 23.3629 26.8252 23.4049 26.8272 23.4499C26.8372 23.6169 26.8582 23.9659 27.2222 23.9659C27.2522 23.9659 27.2842 23.9639 27.3182 23.9579C27.6572 23.9049 27.6462 23.5859 27.6412 23.4329C27.6386 23.396 27.6386 23.3589 27.6412 23.3219C27.6423 23.3153 27.6429 23.3086 27.6432 23.3019L27.6442 23.3009Z" fill="#141414"/>
<path d="M24.4801 19.7039C24.5201 19.7069 24.5601 19.7099 24.5911 19.7149C26.8411 20.0729 27.8771 21.1729 28.1641 23.5149C28.1691 23.5549 28.1691 23.6029 28.1701 23.6549C28.1731 23.8379 28.1791 24.2179 28.5751 24.2259H28.5871C28.6415 24.2288 28.6959 24.22 28.7466 24.2002C28.7973 24.1803 28.8431 24.1499 28.8811 24.1109C29.0041 23.9779 28.9961 23.7809 28.9891 23.6209C28.9871 23.5829 28.9851 23.5459 28.9861 23.5139C29.0141 21.1189 27.0061 18.9469 24.6881 18.8669L24.6601 18.8679C24.6512 18.8692 24.6422 18.8698 24.6331 18.8699C24.6101 18.8699 24.5811 18.8679 24.5511 18.8659C24.5112 18.8622 24.4712 18.8602 24.4311 18.8599C24.0621 18.8599 23.9921 19.1299 23.9831 19.2919C23.9631 19.6649 24.3121 19.6919 24.4801 19.7039ZM28.0551 26.5409C28.007 26.5031 27.9593 26.4648 27.9121 26.4259C27.6661 26.2219 27.4041 26.0339 27.1521 25.8519C27.0994 25.814 27.0467 25.776 26.9941 25.7379C26.6701 25.5039 26.3791 25.3889 26.1041 25.3889C25.7341 25.3889 25.4111 25.6009 25.1441 26.0179C25.0261 26.2019 24.8821 26.2919 24.7061 26.2919C24.5833 26.2875 24.4628 26.2564 24.3531 26.2009C23.3081 25.7109 22.5611 24.9609 22.1341 23.9709C21.9281 23.4909 21.9941 23.1789 22.3581 22.9239C22.5641 22.7799 22.9481 22.5109 22.9211 21.9959C22.8911 21.4109 21.6401 19.6509 21.1131 19.4509C20.8883 19.366 20.6404 19.3653 20.4151 19.4489C19.8101 19.6589 19.3751 20.0289 19.1581 20.5159C18.9481 20.9879 18.9581 21.5409 19.1861 22.1169C19.8431 23.7829 20.7661 25.2349 21.9321 26.4329C23.0721 27.6059 24.4741 28.5659 26.0981 29.2879C26.2441 29.3529 26.3981 29.3879 26.5101 29.4139L26.6051 29.4379C26.6181 29.4416 26.6316 29.4436 26.6451 29.4439H26.6581C27.4221 29.4439 28.3391 28.7239 28.6211 27.9019C28.8681 27.1819 28.4171 26.8269 28.0551 26.5419V26.5409ZM24.8181 21.6069C24.6881 21.6099 24.4151 21.6169 24.3191 21.9029C24.2751 22.0369 24.2801 22.1529 24.3351 22.2479C24.4161 22.3879 24.5721 22.4309 24.7131 22.4539C25.2251 22.5389 25.4891 22.8319 25.5411 23.3739C25.5661 23.6279 25.7311 23.8039 25.9431 23.8039C25.9592 23.8042 25.9752 23.8035 25.9911 23.8019C26.2461 23.7699 26.3691 23.5769 26.3581 23.2269C26.3621 22.8609 26.1771 22.4469 25.8621 22.1169C25.5461 21.7849 25.1651 21.5979 24.8181 21.6069Z" fill="#141414"/>
<rect x="0.5" y="0.651855" width="47" height="47" rx="23.5" stroke="#F0F0F0"/>
</svg>
