<svg width="48" height="49" viewBox="0 0 48 49" fill="none" xmlns="http://www.w3.org/2000/svg">
<rect x="0.5" y="0.651855" width="47" height="47" rx="23.5" fill="#F5F5F5"/>
<path d="M15.9089 23.2471L31.2976 16.5964C32.0212 16.2837 32.8054 16.8923 32.682 17.6709L30.5779 30.9469C30.448 31.7669 29.4331 32.0806 28.8631 31.4768L25.5295 27.9218C24.8523 27.2045 24.7992 26.1006 25.4045 25.3217L27.7232 22.0815C27.8626 21.9021 27.6425 21.6662 27.4538 21.7927L22.6065 25.0445C21.7839 25.5964 20.7859 25.8234 19.8055 25.6816L16.1625 25.1547C15.1645 25.0104 14.9833 23.6471 15.9089 23.2471Z" stroke="#141414" stroke-width="1.5" stroke-linecap="round" stroke-linejoin="round"/>
<rect x="0.5" y="0.651855" width="47" height="47" rx="23.5" stroke="#F0F0F0"/>
</svg>

