<svg width="48" height="49" viewBox="0 0 48 49" fill="none" xmlns="http://www.w3.org/2000/svg">
<rect x="0.5" y="0.651855" width="47" height="47" rx="23.5" fill="#F5F5F5"/>
<path d="M16 24.1519C16 28.5701 19.5817 32.1519 24 32.1519C24.3241 32.1519 24.6437 32.1326 24.9576 32.0951C25.8669 33.3418 27.3389 34.1519 29 34.1519C31.7614 34.1519 34 31.9133 34 29.1519C34 27.4907 33.1899 26.0188 31.9433 25.1095C31.9807 24.7955 32 24.4759 32 24.1519C32 19.7336 28.4183 16.1519 24 16.1519C23.6759 16.1519 23.3563 16.1711 23.0424 16.2086C22.1331 14.9619 20.6611 14.1519 19 14.1519C16.2386 14.1519 14 16.3904 14 19.1519C14 20.813 14.8101 22.285 16.0567 23.1942C16.0193 23.5082 16 23.8278 16 24.1519Z" stroke="#141414" stroke-width="1.5" stroke-linejoin="round"/>
<path d="M26.5 22.1519C26.5 21.0473 25.6046 20.1519 24.5 20.1519H23.5C22.3954 20.1519 21.5 21.0473 21.5 22.1519C21.5 23.2564 22.3954 24.1519 23.5 24.1519H24.5C25.6046 24.1519 26.5 25.0473 26.5 26.1519C26.5 27.2564 25.6046 28.1519 24.5 28.1519H23.5C22.3954 28.1519 21.5 27.2564 21.5 26.1519" stroke="#141414" stroke-width="1.5" stroke-linecap="round"/>
<rect x="0.5" y="0.651855" width="47" height="47" rx="23.5" stroke="#F0F0F0"/>
</svg>
