<svg width="48" height="49" viewBox="0 0 48 49" fill="none" xmlns="http://www.w3.org/2000/svg">
<rect x="0.5" y="0.651855" width="47" height="47" rx="23.5" fill="#F5F5F5"/>
<path d="M24 34.1519C29.5229 34.1519 34 29.6747 34 24.1519C34 18.629 29.5229 14.1519 24 14.1519C18.4772 14.1519 14 18.629 14 24.1519C14 25.6633 14.3353 27.0964 14.9356 28.3809L14.223 32.7763C14.1135 33.4518 14.6995 34.0353 15.3745 33.9228L19.7298 33.1969C21.0248 33.8093 22.4724 34.1519 24 34.1519Z" stroke="#141414" stroke-width="1.5" stroke-linecap="square" stroke-linejoin="round"/>
<path d="M28 27.263V26.8268C28 26.2849 27.6701 25.7977 27.167 25.5964L26.7005 25.4098C26.1789 25.2012 25.5845 25.4272 25.3333 25.9296C25.3333 25.9296 24.2222 25.7074 23.3333 24.8185C22.4444 23.9296 22.2222 22.8185 22.2222 22.8185C22.7247 22.5673 22.9506 21.9729 22.742 21.4513L22.5554 20.9848C22.3542 20.4817 21.8669 20.1519 21.3251 20.1519H20.8889C20.398 20.1519 20 20.5498 20 21.0407C20 24.9681 23.1838 28.1519 27.1111 28.1519C27.602 28.1519 28 27.7539 28 27.263Z" fill="#141414"/>
<rect x="0.5" y="0.651855" width="47" height="47" rx="23.5" stroke="#F0F0F0"/>
</svg>
