<svg width="48" height="49" viewBox="0 0 48 49" fill="none" xmlns="http://www.w3.org/2000/svg">
<rect x="0.5" y="0.651855" width="47" height="47" rx="23.5" fill="#F5F5F5"/>
<path d="M24.49 22.4239V21.9739H25.837V28.2959H25.067C24.9146 28.2962 24.7683 28.236 24.6601 28.1286C24.552 28.0212 24.4908 27.8753 24.49 27.7229V27.7239C23.9277 28.1355 23.2488 28.3569 22.552 28.3559C21.6814 28.3559 20.8464 28.0102 20.2306 27.3947C19.6148 26.7793 19.2685 25.9445 19.268 25.0739C19.2685 24.2033 19.6148 23.3685 20.2306 22.753C20.8464 22.1376 21.6814 21.7919 22.552 21.7919C23.2485 21.7911 23.927 22.0125 24.489 22.4239H24.49ZM18.919 19.9419V20.1469C18.919 20.5289 18.868 20.8409 18.619 21.2069L18.589 21.2409C18.506 21.3339 18.4254 21.429 18.347 21.5259L14.024 26.9519H18.919V27.7199C18.919 27.7956 18.9041 27.8706 18.8751 27.9406C18.846 28.0105 18.8035 28.074 18.7499 28.1275C18.6963 28.181 18.6327 28.2234 18.5627 28.2523C18.4927 28.2812 18.4177 28.296 18.342 28.2959H12V27.9339C12 27.4909 12.11 27.2929 12.25 27.0869L16.857 21.3819H12.192V19.9419H18.92H18.919ZM27.47 28.2959C27.3427 28.2959 27.2206 28.2453 27.1306 28.1553C27.0406 28.0653 26.99 27.9432 26.99 27.8159V19.9419H28.431V28.2959H27.47ZM32.693 21.7519C33.1272 21.7518 33.5571 21.8371 33.9582 22.0032C34.3594 22.1692 34.7239 22.4126 35.031 22.7195C35.3381 23.0264 35.5817 23.3908 35.748 23.7918C35.9142 24.1929 35.9999 24.6227 36 25.0569C36.0001 25.491 35.9147 25.921 35.7487 26.3221C35.5827 26.7233 35.3393 27.0878 35.0324 27.3949C34.7255 27.702 34.3611 27.9456 33.9601 28.1119C33.559 28.2781 33.1292 28.3638 32.695 28.3639C31.8182 28.3642 30.9772 28.0161 30.357 27.3963C29.7368 26.7765 29.3883 25.9357 29.388 25.0589C29.3877 24.1821 29.7358 23.3411 30.3556 22.7209C30.9754 22.1007 31.8162 21.7522 32.693 21.7519ZM22.553 27.0049C22.8103 27.0108 23.0663 26.9651 23.3057 26.8707C23.5452 26.7762 23.7634 26.6349 23.9475 26.455C24.1315 26.275 24.2778 26.0601 24.3777 25.8229C24.4775 25.5856 24.529 25.3308 24.529 25.0734C24.529 24.816 24.4775 24.5612 24.3777 24.3239C24.2778 24.0867 24.1315 23.8717 23.9475 23.6918C23.7634 23.5119 23.5452 23.3705 23.3057 23.2761C23.0663 23.1817 22.8103 23.136 22.553 23.1419C22.0483 23.1534 21.5682 23.3619 21.2154 23.7229C20.8625 24.0839 20.665 24.5686 20.665 25.0734C20.665 25.5782 20.8625 26.0629 21.2154 26.4239C21.5682 26.7849 22.0483 26.9934 22.553 27.0049ZM32.693 27.0019C33.2088 27.0019 33.7036 26.797 34.0683 26.4322C34.4331 26.0675 34.638 25.5727 34.638 25.0569C34.638 24.541 34.4331 24.0463 34.0683 23.6816C33.7036 23.3168 33.2088 23.1119 32.693 23.1119C32.1772 23.1119 31.6824 23.3168 31.3177 23.6816C30.9529 24.0463 30.748 24.541 30.748 25.0569C30.748 25.5727 30.9529 26.0675 31.3177 26.4322C31.6824 26.797 32.1772 27.0019 32.693 27.0019Z" fill="#141414"/>
<rect x="0.5" y="0.651855" width="47" height="47" rx="23.5" stroke="#F0F0F0"/>
</svg>
