<svg width="38" height="56" viewBox="0 0 38 56" fill="none" xmlns="http://www.w3.org/2000/svg">
<path d="M29.7449 0.748901V37.7989C29.8592 40.432 28.9529 43.0076 27.2149 44.9889C26.1696 46.1138 24.8945 47.0006 23.4762 47.589C22.0578 48.1774 20.5294 48.4536 18.9949 48.3989C17.4587 48.4544 15.9286 48.1786 14.5085 47.5902C13.0884 47.0018 11.8116 46.1146 10.7649 44.9889C9.02682 43.0076 8.12052 40.432 8.23486 37.7989V0.798901H0.234855V37.7989C0.138556 40.1084 0.534572 42.412 1.39662 44.5568C2.25866 46.7015 3.56702 48.6384 5.23486 50.2389C8.97984 53.6669 13.921 55.4875 18.9949 55.3089C24.6049 55.3089 29.2349 53.5989 32.7349 50.2289C34.3852 48.6174 35.682 46.68 36.5429 44.5401C37.4037 42.4001 37.8096 40.1043 37.7349 37.7989V0.798901L29.7449 0.748901Z" fill="#141414"/>
</svg>
