<svg width="24" height="25" viewBox="0 0 24 25" fill="none" xmlns="http://www.w3.org/2000/svg">
<path d="M15.4167 22.1532L4.25 22.1532C3.14543 22.1532 2.25 21.2578 2.25 20.1532L2.25 8.98658C2.25 7.88201 3.14543 6.98658 4.25 6.98658L15.4167 6.98657C16.5212 6.98657 17.4167 7.88201 17.4167 8.98658L17.4167 20.1533C17.4167 21.2578 16.5212 22.1532 15.4167 22.1532Z" stroke="#141414" stroke-width="1.5" stroke-linecap="round"/>
<path d="M6.5835 6.98665V4.65332C6.5835 3.54875 7.47893 2.65332 8.5835 2.65332H19.7502C20.8547 2.65332 21.7502 3.54875 21.7502 4.65332V15.82C21.7502 16.9246 20.8547 17.82 19.7502 17.82H17.4168" stroke="#141414" stroke-width="1.5" stroke-linecap="round"/>
</svg>
