<svg width="18" height="18" viewBox="0 0 18 18" fill="none" xmlns="http://www.w3.org/2000/svg">
<path d="M10.4026 7.40068L10.823 7.67124L10.4026 7.40068ZM6.83329 6.50002C6.83329 6.77616 7.05715 7.00002 7.33329 7.00002C7.60944 7.00002 7.83329 6.77616 7.83329 6.50002H6.83329ZM8.49996 10.25C8.49996 10.5262 8.72382 10.75 8.99996 10.75C9.2761 10.75 9.49996 10.5262 9.49996 10.25H8.49996ZM9.49996 12.3334C9.49996 12.0572 9.2761 11.8334 8.99996 11.8334C8.72382 11.8334 8.49996 12.0572 8.49996 12.3334H9.49996ZM8.49996 13.1667C8.49996 13.4428 8.72382 13.6667 8.99996 13.6667C9.2761 13.6667 9.49996 13.4428 9.49996 13.1667H8.49996ZM16.8333 9.00002C16.8333 13.3263 13.3262 16.8334 8.99996 16.8334V17.8334C13.8785 17.8334 17.8333 13.8785 17.8333 9.00002H16.8333ZM8.99996 16.8334C4.67373 16.8334 1.16663 13.3263 1.16663 9.00002H0.166626C0.166626 13.8785 4.12144 17.8334 8.99996 17.8334V16.8334ZM1.16663 9.00002C1.16663 4.67379 4.67373 1.16669 8.99996 1.16669V0.166687C4.12144 0.166687 0.166626 4.12151 0.166626 9.00002H1.16663ZM8.99996 1.16669C13.3262 1.16669 16.8333 4.67379 16.8333 9.00002H17.8333C17.8333 4.12151 13.8785 0.166687 8.99996 0.166687V1.16669ZM10.1666 6.50002C10.1666 6.73302 10.0988 6.94867 9.98208 7.13012L10.823 7.67124C11.0405 7.33326 11.1666 6.9306 11.1666 6.50002H10.1666ZM7.83329 6.50002C7.83329 5.85569 8.35563 5.33335 8.99996 5.33335V4.33335C7.80334 4.33335 6.83329 5.3034 6.83329 6.50002H7.83329ZM8.99996 5.33335C9.64429 5.33335 10.1666 5.85569 10.1666 6.50002H11.1666C11.1666 5.3034 10.1966 4.33335 8.99996 4.33335V5.33335ZM8.49996 9.83335V10.25H9.49996V9.83335H8.49996ZM9.98208 7.13012C9.87323 7.29929 9.73814 7.47253 9.58372 7.66446C9.43452 7.84988 9.26362 8.05704 9.11017 8.26794C8.80679 8.68489 8.49996 9.20846 8.49996 9.83335H9.49996C9.49996 9.53777 9.64538 9.23204 9.91878 8.85629C10.0537 8.67084 10.2023 8.4908 10.3628 8.29135C10.5181 8.0984 10.6828 7.8891 10.823 7.67124L9.98208 7.13012ZM8.49996 12.3334V13.1667H9.49996V12.3334H8.49996Z" fill="#141414"/>
</svg>
