<svg width="25" height="25" viewBox="0 0 25 25" fill="none" xmlns="http://www.w3.org/2000/svg">
<path d="M18.1406 3.40332H18.8906C18.8906 2.98911 18.5548 2.65332 18.1406 2.65332V3.40332ZM18.1406 7.40332V8.15332C18.5548 8.15332 18.8906 7.81753 18.8906 7.40332H18.1406ZM14.1406 21.4033V22.1533C14.5548 22.1533 14.8906 21.8175 14.8906 21.4033H14.1406ZM10.1406 21.4033H9.39062C9.39062 21.8175 9.72641 22.1533 10.1406 22.1533V21.4033ZM10.1406 14.4033H10.8906C10.8906 13.9891 10.5548 13.6533 10.1406 13.6533V14.4033ZM6.14062 14.4033H5.39062C5.39062 14.8175 5.72641 15.1533 6.14062 15.1533V14.4033ZM6.14062 10.4033V9.65332C5.72641 9.65332 5.39062 9.98911 5.39062 10.4033H6.14062ZM10.1406 10.4033V11.1533C10.5548 11.1533 10.8906 10.8175 10.8906 10.4033H10.1406ZM14.1406 10.4033H13.3906C13.3906 10.8175 13.7264 11.1533 14.1406 11.1533V10.4033ZM18.1406 10.4033H18.8906C18.8906 9.98911 18.5548 9.65332 18.1406 9.65332V10.4033ZM18.1406 14.4033V15.1533C18.5548 15.1533 18.8906 14.8175 18.8906 14.4033H18.1406ZM14.1406 14.4033V13.6533C13.7264 13.6533 13.3906 13.9891 13.3906 14.4033H14.1406ZM15.1406 4.15332H18.1406V2.65332H15.1406V4.15332ZM17.3906 3.40332V7.40332H18.8906V3.40332H17.3906ZM18.1406 6.65332H15.1406V8.15332H18.1406V6.65332ZM14.1406 20.6533H10.1406V22.1533H14.1406V20.6533ZM10.8906 21.4033V14.4033H9.39062V21.4033H10.8906ZM10.1406 13.6533H6.14062V15.1533H10.1406V13.6533ZM6.89062 14.4033V10.4033H5.39062V14.4033H6.89062ZM6.14062 11.1533H10.1406V9.65332H6.14062V11.1533ZM10.8906 10.4033V8.40332H9.39062V10.4033H10.8906ZM13.3906 8.40332V10.4033H14.8906V8.40332H13.3906ZM14.1406 11.1533H18.1406V9.65332H14.1406V11.1533ZM17.3906 10.4033V14.4033H18.8906V10.4033H17.3906ZM13.3906 14.4033V21.4033H14.8906V14.4033H13.3906ZM18.1406 13.6533H14.1406V15.1533H18.1406V13.6533ZM15.1406 6.65332C14.1741 6.65332 13.3906 7.43682 13.3906 8.40332H14.8906C14.8906 8.26525 15.0026 8.15332 15.1406 8.15332V6.65332ZM15.1406 2.65332C11.965 2.65332 9.39062 5.22768 9.39062 8.40332H10.8906C10.8906 6.05611 12.7934 4.15332 15.1406 4.15332V2.65332Z" fill="#141414"/>
</svg>
