<svg width="80" height="80" viewBox="0 0 80 80" fill="none" xmlns="http://www.w3.org/2000/svg">
<path d="M67.6887 65.6659C67.7508 53.7178 67.8888 41.7207 67.4029 29.9748C67.3589 28.9077 67.3026 27.9379 67.3221 26.9539C67.33 25.9548 67.3413 24.9463 67.28 23.9412C67.22 22.9376 67.084 21.9238 66.7441 20.9337C66.4477 19.9403 65.7097 18.9735 64.9115 18.4018C63.2686 17.1788 61.3944 16.8874 59.7714 16.7559C58.1244 16.6402 56.6036 16.7169 55.2191 16.7232C52.404 16.7965 49.9795 16.8596 47.9974 16.911C44.9817 17.014 43.0035 17.1236 42.2275 17.2367C42.0491 16.8509 41.8988 16.6583 41.8597 16.6733C41.7812 16.6917 41.812 16.9253 41.871 17.334C41.8688 17.3373 41.8522 17.3407 41.8522 17.3445C41.8522 17.3486 41.871 17.3527 41.8744 17.3565C41.9304 17.7419 42.0062 18.2865 42.0491 18.9761C41.8541 18.8461 41.6273 18.7534 41.3685 18.7534C40.7138 18.7534 40.1831 19.2446 40.1831 19.8509C40.1831 20.4571 40.7138 20.9487 41.3685 20.9487C41.6149 20.9487 41.8308 20.8627 42.0205 20.7437C41.7628 22.8155 40.5737 25.6347 38.1988 28.1993C36.1277 30.4492 32.8821 32.4106 29.0814 32.8192C29.1336 32.5826 29.1648 32.3249 29.1648 32.0534C29.1648 30.9303 28.6735 30.0195 28.0673 30.0195C27.4607 30.0195 26.9694 30.9303 26.9694 32.0534C26.9694 32.3486 27.0066 32.6251 27.0678 32.8782C26.773 32.8651 26.4841 32.8748 26.1848 32.8414C23.7032 32.6003 21.1521 31.6575 19.0394 30.0056C16.942 28.3582 15.3363 25.9176 14.6264 23.1562C14.4706 22.5646 14.368 21.9681 14.3004 21.3721C14.5922 21.4269 14.9126 21.4573 15.2488 21.4573C16.6062 21.4573 17.7071 20.9657 17.7071 20.3594C17.7071 19.7532 16.6062 19.2615 15.2488 19.2615C14.8871 19.2615 14.5464 19.2984 14.2369 19.3611C14.3128 17.8639 14.655 16.4062 15.2721 15.0785C16.3651 12.6337 18.2067 10.6674 20.3194 9.34906C22.327 8.12874 24.4799 7.49059 26.5705 7.26636C26.7358 8.38602 27.1272 9.17366 27.5843 9.17366C28.0545 9.17366 28.4523 8.33682 28.6089 7.16645C30.2687 7.20476 31.8395 7.50036 33.2025 7.99089C34.0826 8.36161 34.9476 8.685 35.6736 9.16502C36.4436 9.58269 37.0983 10.0496 37.6602 10.5641C38.7903 11.585 39.5614 12.6953 40.1369 13.6328C41.2565 15.5393 41.6937 16.7334 41.8597 16.6733C41.9784 16.6365 41.8289 15.3639 40.8926 13.2339C40.405 12.1845 39.6907 10.9138 38.5165 9.68485C38.3606 9.51959 38.1728 9.36522 37.9986 9.20596C38.2908 9.06286 38.583 8.85815 38.8305 8.5603C39.4488 7.81549 39.5862 6.87911 39.1389 6.46971C38.6916 6.06068 37.7965 6.3683 37.1411 7.15818C36.8759 7.47782 36.72 7.81586 36.6314 8.1355C36.5566 8.08667 36.4924 8.02958 36.4158 7.98188C35.6458 7.41059 34.7192 6.99592 33.7584 6.54145C32.2646 5.9202 30.5185 5.51418 28.654 5.40563C28.6221 5.00148 28.562 4.62889 28.4801 4.30136C30.1076 4.17929 31.3155 3.75336 31.3155 3.24217C31.3155 2.63595 29.6253 2.14429 27.5403 2.14429C25.4554 2.14429 23.7652 2.63595 23.7652 3.24217C23.7652 3.76275 25.0144 4.1962 26.6862 4.30888C26.6036 4.64091 26.5435 5.01876 26.5119 5.42892C24.1269 5.59155 21.6366 6.24923 19.2764 7.61567C19.1404 7.69604 19.0153 7.80497 18.8812 7.89023C18.817 7.76666 18.7475 7.64384 18.6457 7.53454C18.1417 6.99179 17.3728 6.88662 16.9289 7.29941C16.4845 7.71182 16.5334 8.48631 17.0374 9.02868C17.0821 9.07675 17.1369 9.10229 17.1854 9.14324C15.6079 10.489 14.2324 12.1826 13.3107 14.1962C11.9563 17.0252 11.6427 20.5048 12.5013 23.7083C13.3291 26.9268 15.2188 29.7788 17.7165 31.7018C17.7946 31.7615 17.8814 31.8025 17.9606 31.8607C17.6132 33.1911 17.102 38.0378 17.2369 45.1867C17.259 47.2987 17.2831 49.612 17.3093 52.0955C17.2136 64.7375 17.1914 66.3957 17.2703 68.8525C17.3601 70.4308 17.5591 72.1094 18.3171 73.7748C18.5188 74.1996 18.7896 74.6525 19.1855 75.0533C19.5802 75.4567 20.085 75.7504 20.5549 75.9333C21.5134 76.2992 22.3447 76.3679 23.1297 76.5099C29.5408 77.5717 35.8156 77.9488 41.4173 77.8369C47.0175 77.8237 52.0926 77.6577 56.3347 77.2074C57.3841 77.0819 58.3836 76.9621 59.3289 76.8491C60.2785 76.7608 61.1735 76.6778 62.0107 76.6C63.6991 76.3788 65.2372 76.164 66.3519 75.2704C66.9127 74.7949 67.1148 74.1936 67.2293 73.7282C67.3401 73.2497 67.3601 72.8478 67.3616 72.5266C67.3582 72.2265 67.3375 72.0019 67.3097 71.8404C67.7364 71.1561 67.8953 70.4184 67.9512 69.7818C68.0658 68.2309 67.7664 66.8551 67.6887 65.6659ZM33.87 33.4446C37.9357 31.5162 40.877 28.0593 42.226 24.3438C42.8145 22.7877 43.0384 21.2958 42.9343 20.104C42.8066 18.901 42.5565 18.0292 42.3281 17.4639C43.1661 17.571 45.1049 17.6724 47.9993 17.7659C49.9754 17.8166 52.3927 17.8786 55.1992 17.9507C56.6242 18.0018 58.1146 17.9856 59.646 18.1468C61.1589 18.3109 62.7631 18.6673 63.9556 19.6251C65.194 20.4984 65.5087 22.1721 65.588 24.0275C65.6229 24.9519 65.5925 25.9149 65.5628 26.9227C65.5283 28.1753 65.5445 28.3118 65.5831 30.0323C65.6759 34.1819 65.7104 38.6189 65.7006 43.2902C65.6612 47.9642 65.6203 52.8703 65.5778 57.9567C65.5557 60.5348 65.4974 63.0179 65.5083 65.7966C65.6146 67.2254 65.861 68.4758 65.7664 69.5955C65.7232 70.1438 65.5744 70.59 65.3596 70.8293C65.1639 71.0667 64.8176 71.2263 64.2456 71.3221C63.1349 71.4979 61.8316 71.3337 60.402 71.3213C59.0664 71.3326 57.7398 71.3439 56.4226 71.3551C53.7971 71.4032 51.2103 71.3304 48.6683 71.324C43.5841 71.289 38.6799 71.2556 34.0078 71.2237C31.7005 71.1632 29.2745 71.3334 27.3893 70.951C26.4316 70.7452 25.7206 70.3234 25.4013 69.6886C25.2526 69.4152 25.0967 68.8157 24.9848 68.3729C24.4507 66.2096 24.4458 63.3011 24.2797 60.9758C24.1742 59.0531 24.0728 57.2078 23.9763 55.4462C23.7058 51.9238 23.7648 48.7308 23.719 45.9262C23.672 43.1201 23.6318 40.7031 23.5988 38.7274C23.5545 36.8908 23.5041 35.453 23.4474 34.4185C24.2993 34.6293 25.1534 34.7908 26.0004 34.8561C28.8414 35.0943 31.5972 34.5316 33.87 33.4446ZM44.8867 73.7992C44.9047 73.6598 44.8987 73.54 44.8976 73.4161C45.9782 73.433 47.0404 73.4495 48.1383 73.4668C48.005 73.5967 47.8701 73.7229 47.745 73.8769C47.1715 74.5891 46.8643 75.3568 46.9739 75.8661C46.0319 75.8642 45.0711 75.859 44.0867 75.8477C44.1889 75.6978 44.282 75.5408 44.3624 75.3812C44.6846 74.7476 44.8244 74.2217 44.8867 73.7992ZM36.172 75.6716C35.011 75.6163 33.8456 75.5559 32.6538 75.4608C32.7424 75.3793 32.8329 75.3189 32.9201 75.2283C33.5965 74.5267 33.9826 73.7845 34.033 73.2474C35.0186 73.2628 36.0537 73.279 37.0596 73.2944C36.8951 73.4322 36.7366 73.5967 36.5931 73.7827C36.0845 74.4478 35.908 75.2073 36.172 75.6716ZM28.2675 73.0476C29.4203 73.1775 30.6277 73.1811 31.9142 73.2069C31.72 73.3571 31.5251 73.5122 31.3395 73.7045C30.855 74.2071 30.5136 74.7536 30.345 75.2298C29.261 75.1209 28.1713 75 27.0656 74.855C27.5754 74.3547 28.0239 73.7248 28.2675 73.0476ZM18.432 37.6337C19.0153 37.7851 20.1185 37.4861 21.2224 36.8239C21.9597 36.3811 22.5516 35.862 22.9099 35.3906C22.8466 36.4456 22.7818 37.7874 22.7402 38.8274C22.1279 38.6726 20.973 38.901 19.7729 39.4621C19.3038 39.6815 18.8857 39.929 18.5244 40.1821C18.4861 39.2679 18.4561 38.4176 18.432 37.6337ZM19.1528 53.1043C19.2891 53.1043 19.4559 53.0785 19.5889 53.0514C20.3582 52.8926 21.444 52.3762 22.3604 51.5846C22.351 52.8196 22.3601 54.0906 22.4228 55.4237C21.3749 55.7429 19.9483 56.7381 19.2388 57.5785C19.22 56.0423 19.1926 54.5478 19.1528 53.1043ZM22.3909 49.517C21.8147 49.6045 21.0725 49.8944 20.3262 50.3669C19.8232 50.6851 19.427 51.0351 19.0991 51.3792C19.0518 50.1855 18.9992 49.0332 18.9402 47.9285C19.5363 47.9567 20.5237 47.5293 21.5225 46.8547C21.88 46.6113 22.2038 46.3578 22.4863 46.1061C22.4581 47.1833 22.4209 48.3293 22.3909 49.517ZM19.2583 59.0121C19.8443 59.1308 20.8783 58.8634 21.8808 58.1607C22.1061 58.0033 22.3037 57.8358 22.4885 57.6652C22.5163 58.6215 22.5448 59.5977 22.5741 60.5972C22.0186 60.5356 21.1514 60.8222 20.3269 61.4464C19.895 61.7724 19.5476 62.1364 19.3004 62.488C19.2806 60.3019 19.3004 61.9367 19.2583 59.0121ZM22.6943 40.1303C22.6526 41.3296 22.6057 42.6596 22.5554 44.1109C21.3741 44.2343 19.7398 45.1822 18.8561 46.3814C18.8335 45.9713 18.8102 45.533 18.7885 45.1371C18.7186 44.0749 18.6608 43.0645 18.6123 42.109C20.0048 41.9193 21.8088 41.0242 22.6943 40.1303ZM19.4026 68.0438C19.3579 66.7135 19.3297 65.385 19.3184 64.0741C19.851 64.2097 20.7607 63.869 21.6509 63.1978C22.0423 62.9011 22.3762 62.5811 22.6324 62.2679C22.665 63.3349 22.6872 64.4324 22.7627 65.575C21.8366 65.9802 20.1332 67.3462 19.4026 68.0438ZM22.3157 34.0858C21.0506 34.2321 19.2139 35.3147 18.3952 36.3529C18.34 34.2788 18.3186 32.8053 18.2589 32.0549C19.5359 32.9477 20.9042 33.6223 22.3157 34.0858ZM19.5115 69.8092C20.6115 69.7004 22.0431 68.9205 23.0031 67.7291C23.0564 68.081 23.1015 68.4311 23.1822 68.7872C23.3284 69.3588 23.3993 69.8103 23.707 70.4928C23.1409 70.5532 22.3232 71.046 21.5878 71.8284C21.1176 72.3287 20.7818 72.8512 20.582 73.3158C20.4813 73.1813 20.3855 73.0303 20.2882 72.8339C19.8679 71.9298 19.6373 70.8856 19.5115 69.8092ZM22.2613 74.1357C22.5693 73.9205 22.8851 73.6538 23.1875 73.3323C23.8185 72.6607 24.202 71.9595 24.3237 71.4085C24.8447 71.9719 25.5166 72.3505 26.1852 72.5961C26.0357 72.7366 25.8877 72.8861 25.7453 73.054C25.3183 73.5569 25.0249 74.0816 24.8706 74.5414C24.4037 74.4704 23.9473 74.4197 23.4775 74.3423C23.0549 74.2713 22.6399 74.209 22.2613 74.1357ZM37.6425 75.7395C37.8855 75.5855 38.1248 75.3929 38.3336 75.1205C38.8219 74.4869 38.9609 73.7778 38.799 73.3214C40.2116 73.3436 41.6344 73.3654 43.0823 73.3879C42.8258 73.6764 42.5929 74.0174 42.4138 74.3701C42.1106 74.9628 41.9589 75.4293 41.8635 75.8184C41.7155 75.8158 41.5777 75.8165 41.4289 75.8139C40.1913 75.8135 38.9233 75.7835 37.6425 75.7395ZM48.8286 75.8661C49.7202 75.176 50.164 74.2132 50.1624 73.4961C50.9684 73.5081 51.7711 73.5186 52.5854 73.5303C52.3683 73.768 52.161 74.0437 51.9972 74.3885C51.7411 74.9384 51.6817 75.3283 51.6697 75.643C51.6701 75.7038 51.675 75.7632 51.6757 75.824C50.7487 75.8439 49.8101 75.8605 48.8286 75.8661ZM53.7347 75.7666C53.8287 75.6212 53.9135 75.4744 53.9804 75.3309C54.3004 74.6571 54.3718 74.0001 54.2505 73.534C54.9787 73.5381 55.7025 73.5505 56.4368 73.5393C56.6994 73.5374 56.9672 73.5359 57.2305 73.5344C57.0956 73.6797 56.9634 73.8352 56.8451 74.0118C56.4706 74.5801 56.2779 75.1848 56.3271 75.6501C56.2877 75.6543 56.2498 75.6558 56.21 75.6599C55.4223 75.7061 54.5784 75.7365 53.7347 75.7666ZM58.4376 75.4969C58.5158 75.4045 58.6025 75.3346 58.6735 75.2276C59.0826 74.6135 59.1915 73.9874 59.1073 73.5224C60.81 73.5105 60.3612 73.5114 60.8911 73.5284C60.8332 73.6061 60.769 73.6779 60.7194 73.7624C60.4069 74.319 60.3164 74.9643 60.5688 75.4176C59.8931 75.4368 59.1746 75.4612 58.4376 75.4969ZM65.8231 74.5992C64.9979 75.1134 63.7381 75.276 62.2158 75.3542C62.3634 75.2144 62.5069 75.0586 62.6237 74.855C62.8803 74.4084 62.9426 73.9592 62.8874 73.5892C63.4335 73.5926 63.9965 73.5776 64.5938 73.4897C65.3168 73.3819 66.2802 73.072 66.9567 72.3219C66.9446 72.3753 66.9349 72.4196 66.9217 72.4786C66.7696 73.03 66.6025 74.0482 65.8231 74.5992Z" fill="#141414"/>
<path d="M31.2558 16.3496C30.3326 17.2409 29.6354 18.145 29.282 18.8406C28.8467 18.6171 28.2277 18.5548 27.7161 18.7275C27.1644 18.9007 26.8267 19.1764 26.4853 19.5873C26.163 20.0027 26.0165 20.5706 26.0687 21.0382C26.1825 21.9896 26.7595 22.526 27.2631 22.7814C28.364 23.2956 29.0518 22.6995 28.9132 22.4404C28.8226 22.165 28.402 21.9588 28.1875 21.5344C28.0714 21.3425 28.0279 21.0604 28.0906 20.9706C28.121 20.9252 28.1394 20.9443 28.1706 20.9237C28.1909 20.9203 28.3336 20.814 28.3543 20.8287C28.3603 20.8012 28.4647 20.7746 28.6769 20.9458C28.8621 21.1002 28.9815 21.3233 29.0525 21.4247C29.2448 21.7267 28.8426 22.147 28.9132 22.4404C28.9503 22.5857 29.1058 22.6864 29.4229 22.6999C29.7192 22.6766 30.2807 22.4775 30.5485 21.8398C30.8148 21.1911 30.7209 20.4395 30.3157 19.768C31.0109 19.425 31.8977 18.7816 32.7804 17.9294C34.3804 16.3849 35.3363 14.7792 34.9153 14.3432C34.4942 13.9067 32.8558 14.8051 31.2558 16.3496Z" fill="#141414"/>
<path d="M39.4807 39.93C45.2995 39.93 50.0167 39.4387 50.0167 38.8325C50.0167 38.2263 45.2995 37.7346 39.4807 37.7346C33.6623 37.7346 28.9451 38.2263 28.9451 38.8325C28.9451 39.4387 33.6623 39.93 39.4807 39.93Z" fill="#141414"/>
<path d="M39.4807 52.726C45.2995 52.726 50.0167 52.2344 50.0167 51.6282C50.0167 51.0219 45.2995 50.5303 39.4807 50.5303C33.6623 50.5303 28.9451 51.0219 28.9451 51.6282C28.9451 52.2344 33.6623 52.726 39.4807 52.726Z" fill="#141414"/>
<path d="M39.4807 65.5217C45.2995 65.5217 50.0167 65.03 50.0167 64.4238C50.0167 63.8176 45.2995 63.3259 39.4807 63.3259C33.6623 63.3259 28.9451 63.8176 28.9451 64.4238C28.9451 65.03 33.6623 65.5217 39.4807 65.5217Z" fill="#141414"/>
<path d="M54.5682 32.6081C54.0931 32.719 53.5349 32.9225 53.044 33.374C52.5614 33.8168 52.2707 34.4178 52.1223 34.9703C52.0457 35.2498 51.9976 35.5247 51.9653 35.7929C51.8595 36.6521 51.7738 37.3018 51.7317 37.9845C51.7043 39.0351 51.5942 40.1728 52.2639 41.5505C52.4442 41.8885 52.7278 42.2333 53.0711 42.4917C53.4091 42.7419 53.7697 42.8914 54.0976 42.989C54.7692 43.1764 55.286 43.1963 55.7972 43.244C57.3297 43.3631 58.8465 43.2796 60.3127 42.7794C60.8742 42.6093 61.4939 42.1368 61.7719 41.5704C62.297 40.4195 62.1077 39.6548 62.0787 38.9547C61.9525 37.5447 61.8639 36.3908 61.6629 35.6599C61.4958 34.8757 61.1818 34.4486 61.041 34.5215C60.905 34.5883 60.9054 34.9684 60.8103 35.72C60.7529 36.5148 60.5955 37.58 60.5271 38.9062C60.5053 39.5523 60.4314 40.3692 60.1913 40.667C60.079 40.8079 59.9859 40.8732 59.7233 40.9409C59.3996 41.0235 58.9774 41.0986 58.586 41.1384C57.7822 41.2263 56.9165 41.2011 55.991 41.102C55.5245 41.0502 55.034 40.9968 54.7267 40.8973C54.3891 40.7711 54.3192 40.7253 54.1874 40.492C53.6262 39.3539 53.9571 36.9058 54.0852 35.4608C54.2426 34.805 54.4236 34.5977 55.049 34.3641C56.3711 33.9267 58.6999 34.0127 60.0824 34.0963C60.6537 34.1676 60.8903 34.5876 61.041 34.5215C61.1078 34.4963 61.1548 34.3671 61.0962 34.1297C61.0447 33.8995 60.8261 33.5333 60.3923 33.3C59.5333 32.9206 58.5214 32.6604 57.0461 32.5026C56.3099 32.4508 55.5388 32.4053 54.5682 32.6081Z" fill="#141414"/>
<path d="M61.6659 48.753C61.5052 47.9627 61.1792 47.5387 61.0409 47.6142C60.9054 47.684 60.9144 48.0615 60.813 48.8067C60.7502 49.6071 60.5966 50.6663 60.5267 51.9922C60.5046 52.6371 60.4328 53.4533 60.1936 53.7552C60.0824 53.8987 59.9885 53.9622 59.7301 54.0309C59.4135 54.1117 58.9872 54.1894 58.5977 54.2289C57.7954 54.3171 56.9311 54.2942 56.0071 54.1958C55.5429 54.1444 55.049 54.091 54.7391 53.993C54.3947 53.8724 54.3248 53.8146 54.1922 53.5952C53.6303 52.4974 53.9458 49.9669 54.0893 48.6392C54.261 48.0228 54.5821 47.6446 55.114 47.4358C55.6717 47.2119 56.3508 47.1661 57.0276 47.1372C58.3873 47.0534 59.4123 47.041 60.0708 47.1807C60.6511 47.275 60.8911 47.6806 61.0409 47.6142C61.1086 47.5879 61.151 47.4583 61.0913 47.2224C61.0357 46.9929 60.8235 46.6376 60.4043 46.3938C59.6445 45.9243 58.4313 45.7009 57.0641 45.5852C56.3827 45.5239 55.5324 45.4368 54.5491 45.705C53.5233 45.9401 52.4863 46.9118 52.1557 48.0446C52.0607 48.3259 51.9984 48.617 51.963 48.913C51.8589 49.7583 51.7715 50.418 51.7302 51.1042C51.705 52.1541 51.5957 53.2933 52.2778 54.6702C52.4667 55.0075 52.7537 55.3523 53.0977 55.6039C53.4373 55.8481 53.7964 55.9942 54.1228 56.0885C54.7917 56.2706 55.3033 56.2909 55.8156 56.3379C57.3516 56.4568 58.8704 56.367 60.3281 55.8665C60.89 55.6926 61.5067 55.2163 61.7794 54.6495C62.2958 53.501 62.108 52.74 62.0787 52.0399C61.954 50.6332 61.8605 49.4768 61.6659 48.753Z" fill="#141414"/>
<path d="M61.6828 61.8464C61.5638 61.0576 61.2682 60.6091 61.1243 60.6782C60.9861 60.7413 60.9685 61.1128 60.8284 61.8588C60.7348 62.7024 60.6034 63.7293 60.5267 65.0641C60.5035 65.7083 60.4366 66.5256 60.1988 66.8389C60.0899 66.9883 59.9949 67.0473 59.7432 67.1191C58.5397 67.4266 57.2679 67.4217 56.0319 67.29C55.5699 67.2392 55.0719 67.1863 54.7568 67.0901C54.4056 66.9756 54.3305 66.9038 54.1986 66.7018C53.9688 66.3096 53.8722 65.5299 53.8722 64.8016C53.867 64.0523 53.9346 63.2932 53.9935 62.5116C54.0266 61.7622 54.1381 61.4648 54.4375 61.1282C54.735 60.8213 55.2319 60.5967 55.7619 60.4679C56.8327 60.2148 57.955 60.2129 58.8219 60.1862C59.6835 60.1671 60.3033 60.2602 60.6101 60.3977C60.8787 60.5227 61.0195 60.7177 61.1243 60.6782C61.2085 60.6572 61.3114 60.3902 61.0304 59.9567C60.6672 59.4598 59.8818 59.1311 58.9447 58.9486C58.011 58.7852 56.8909 58.588 55.4497 58.7503C54.7425 58.8491 53.9 59.0579 53.1327 59.6991C52.7507 60.0202 52.4494 60.4623 52.2372 60.9359C52.0528 61.3757 51.957 61.9936 51.9266 62.3106C51.8331 63.0618 51.7238 63.8934 51.7073 64.7873C51.7185 65.6831 51.6971 66.6608 52.297 67.7993C52.4971 68.1354 52.7886 68.4806 53.1345 68.7225C53.476 68.9584 53.8339 69.1007 54.1577 69.1905C54.8229 69.3659 55.3296 69.3858 55.8434 69.4324C57.3924 69.5512 58.91 69.4516 60.3596 68.9482C60.9238 68.7661 61.5352 68.2804 61.7967 67.711C62.2943 66.5654 62.1088 65.8116 62.0784 65.1103C61.9612 63.7139 61.8432 62.5288 61.6828 61.8464Z" fill="#141414"/>
<path d="M48.2705 29.4284C49.0078 29.697 49.8495 29.4006 50.31 29.1332C51.2148 28.6205 52.0491 28.0822 52.9847 27.4629C56.6581 25.0091 59.3571 22.615 59.0138 22.1154C58.6705 21.6159 55.4291 23.1897 51.7745 25.6311C50.8738 26.2283 49.9769 26.8781 49.2745 27.3953C48.9353 27.6221 48.8444 27.6593 48.7464 27.671C48.5954 27.683 48.2311 27.4978 47.9231 27.3434C46.6941 26.7252 45.8997 26.2722 45.6807 26.4942C45.4727 26.6993 45.8993 27.5748 47.037 28.6182C47.3281 28.8579 47.5993 29.1782 48.2705 29.4284Z" fill="#141414"/>
</svg>
