<svg width="72" height="70" viewBox="0 0 72 70" fill="none" xmlns="http://www.w3.org/2000/svg">
<path d="M29.3749 39.9167C36.3516 37.055 40.5254 34.6759 46.5517 30.1254C47.0052 29.7808 46.9834 29.0875 46.4993 28.777C39.9635 24.5946 36.0252 22.3568 28.5498 19.3238C27.9732 19.0951 27.3669 19.55 27.4218 20.1607C27.9986 26.4396 28.2747 32.8287 28.2416 39.1515C28.2393 39.7379 28.8338 40.1378 29.3749 39.9167Z" fill="#141414"/>
<path d="M26.1675 59.827L22.4689 63.7215C21.9739 64.2436 22.3458 65.1095 23.065 65.1095C23.6989 65.1095 23.5891 64.7972 27.3597 60.9593C27.6722 60.6296 27.6583 60.1095 27.3297 59.797C26.9991 59.4845 26.48 59.4963 26.1675 59.827Z" fill="#141414"/>
<path d="M35.0341 59.5701C34.5857 59.5701 34.2197 59.9297 34.2122 60.3791L34.0849 68.3629C34.0774 68.8166 34.4402 69.1901 34.894 69.1976H34.9068C35.3552 69.1976 35.7212 68.838 35.7287 68.3886L35.8561 60.4048C35.8636 59.9511 35.5008 59.5776 35.047 59.5701C35.0427 59.5701 35.0384 59.5701 35.0341 59.5701Z" fill="#141414"/>
<path d="M43.5701 58.9707C43.1816 59.2062 43.0575 59.7113 43.2929 60.0998L47.0451 66.2984C47.1992 66.5531 47.471 66.6944 47.7493 66.6944C48.3828 66.6944 48.785 65.9972 48.4513 65.4466L44.6992 59.2479C44.4648 58.8605 43.9607 58.7342 43.5701 58.9707Z" fill="#141414"/>
<path d="M0.933726 43.4766C0.953258 47.8206 1.26689 52.7966 4.6957 55.4637C9.25716 59.0116 12.4955 56.4582 57.7796 57.4048C61.1287 57.4747 64.6825 57.5101 67.5567 55.7896C69.4685 54.6453 70.4724 52.7216 70.5672 50.5836C70.6915 50.0895 70.7648 49.5736 70.7662 49.0392C70.798 37.1582 71.1699 22.5379 71.2017 10.6092C71.2103 7.28518 68.6664 4.5476 65.5318 4.508C57.2503 4.40499 48.6264 4.52512 40.1869 4.66371C39.9327 2.63674 38.098 0.844417 36.0277 0.803214C33.8541 0.760005 31.8803 2.65761 31.6977 4.8007C7.51131 5.17763 9.67717 4.6663 7.94645 5.11186C5.32404 5.44416 3.08049 6.26822 1.82354 9.08888C0.473909 12.1177 0.795247 12.6482 0.933726 43.4766ZM9.35457 6.5553C27.7373 6.78079 47.2889 5.91814 65.5104 6.15183C67.7482 6.17966 69.5643 8.17773 69.5579 10.605C69.526 22.5297 69.1543 37.1004 69.1223 49.035C69.1159 51.4643 67.2987 53.4442 65.0705 53.4496C60.7314 53.4592 9.74249 52.7175 9.86185 52.7186C7.63368 52.7186 5.80042 50.7623 5.77366 48.3543C5.64496 36.324 5.38281 23.1061 5.2514 11.032C5.22491 8.63779 6.9657 6.56564 9.35457 6.5553Z" fill="#141414"/>
</svg>
