<svg width="72" height="66" viewBox="0 0 72 66" fill="none" xmlns="http://www.w3.org/2000/svg">
<path d="M70.771 2.7483C70.5181 2.00263 69.834 1.44479 68.9994 1.39743C61.3403 0.961037 53.6075 0.469177 46.028 0.619394C44.9883 0.639728 44.1364 1.46593 44.0882 2.50081C43.8967 6.54726 43.7281 16.4595 43.8362 19.6669C43.8485 20.034 44.1 20.3369 44.4355 20.431C44.5313 20.7607 44.8294 21.0079 45.1916 21.0229L46.4823 21.0774C47.1718 22.0053 48.0683 23.9704 48.9646 25.2384C49.2279 25.6087 49.7479 25.7195 50.1502 25.388C50.6062 25.2694 51.1267 24.9663 51.5335 24.7124C52.0173 23.5753 52.5146 22.405 53.0015 21.2606C58.6115 21.4535 63.8432 22.3402 69.6426 21.8961C69.9007 21.8761 70.1137 21.7308 70.2502 21.5293C70.4148 21.4025 70.571 21.2586 70.7191 21.0898C71.6594 5.77857 71.5897 5.12114 71.1807 3.70453C71.0849 3.37276 70.9471 3.04769 70.771 2.7483ZM46.0606 2.26323C53.5366 2.10899 60.9113 2.58077 68.9069 3.03913C69.1006 3.04983 69.2445 3.20822 69.2338 3.39872C69.0525 6.72688 68.9374 13.9517 68.8412 18.2013C67.209 15.1799 65.9424 13.0637 64.6453 10.5916C64.3961 10.1153 63.7476 9.99403 63.3471 10.3818C60.2079 13.4102 58.3217 14.3372 58.0399 14.7433C55.2383 11.3108 54.8991 10.9242 53.7153 9.45394C53.4092 9.07386 52.8516 9.05212 52.5102 9.3726C50.0179 11.7324 47.6528 14.2664 45.446 16.9047C45.4426 12.6244 45.5792 5.76962 45.7299 2.57787C45.738 2.4045 45.883 2.26644 46.0606 2.26323ZM52.5637 19.6006C52.3347 19.6016 52.103 19.6883 51.943 19.8595C51.1099 20.7457 50.2403 21.9443 49.5677 23.1066C48.8977 21.9298 48.3288 20.696 47.5199 19.7418C47.3711 19.5663 47.156 19.4604 46.9264 19.4518L45.4726 19.3897C45.4712 19.3393 45.4704 19.2751 45.4691 19.222C45.615 19.1749 45.7532 19.101 45.8568 18.9734C48.0694 16.2433 50.4693 13.6256 52.9982 11.1813C55.184 13.8711 57.6787 16.7927 60.1433 20.0862C57.4421 19.8801 55.0171 19.6656 52.5637 19.6006ZM62.1524 20.2225C62.1385 20.0811 62.1015 19.9412 62.0115 19.8178C61.044 18.4962 60.0393 17.212 59.0264 15.9513C59.8221 15.6149 62.6787 13.2387 63.6971 12.3082C65.0789 14.8691 66.6146 17.4639 67.9212 19.9559C68.0176 20.1397 68.1819 20.2479 68.3622 20.3169C66.2545 20.4131 64.1854 20.3486 62.1524 20.2225Z" fill="#141414"/>
<path d="M32.8211 18.053H16.9018C16.4481 18.053 16.0799 18.4211 16.0799 18.8749C16.0799 19.3287 16.4481 19.6968 16.9018 19.6968H32.8211C33.2749 19.6968 33.643 19.3287 33.643 18.8749C33.643 18.4211 33.2749 18.053 32.8211 18.053Z" fill="#141414"/>
<path d="M29.5019 29.7729H17.3165C16.8628 29.7729 16.4946 30.1411 16.4946 30.5949C16.4946 31.0486 16.8628 31.4168 17.3165 31.4168H29.5019C29.9557 31.4168 30.3238 31.0486 30.3238 30.5949C30.3238 30.1411 29.9557 29.7729 29.5019 29.7729Z" fill="#141414"/>
<path d="M26.8895 41.9937H17.3631C16.9093 41.9937 16.5412 42.3618 16.5412 42.8156C16.5412 43.2693 16.9093 43.6375 17.3631 43.6375H26.8895C27.3433 43.6375 27.7114 43.2693 27.7114 42.8156C27.7114 42.3618 27.3433 41.9937 26.8895 41.9937Z" fill="#141414"/>
<path d="M11.2843 15.1689H6.90396C6.4502 15.1689 6.08205 15.5371 6.08205 15.9909V20.6088C6.08205 21.0626 6.4502 21.4307 6.90396 21.4307H10.9879C11.4213 21.4307 11.7804 21.0936 11.8082 20.6612L12.1046 16.0433C12.1348 15.5695 11.7572 15.1689 11.2843 15.1689ZM10.2168 19.7869H7.72588V16.8128H10.4078L10.2168 19.7869Z" fill="#141414"/>
<path d="M11.2212 26.603H6.84082C6.38706 26.603 6.01891 26.9712 6.01891 27.4249V32.0429C6.01891 32.4966 6.38706 32.8648 6.84082 32.8648H10.9247C11.3582 32.8648 11.7172 32.5277 11.745 32.0953L12.0415 27.4774C12.0559 27.2505 11.9762 27.0279 11.8205 26.8631C11.6653 26.6972 11.4481 26.603 11.2212 26.603ZM10.1536 31.221H7.66274V28.2469H10.3447L10.1536 31.221Z" fill="#141414"/>
<path d="M10.8873 39.302H6.50692C6.05315 39.302 5.685 39.6702 5.685 40.1239V44.7419C5.685 45.1956 6.05315 45.5638 6.50692 45.5638H10.5908C11.0243 45.5638 11.3833 45.2267 11.4111 44.7943L11.7076 40.1764C11.722 39.9495 11.6423 39.7269 11.4866 39.5621C11.3314 39.3962 11.1142 39.302 10.8873 39.302ZM9.81974 43.9199H7.32883V40.9458H10.0108L9.81974 43.9199Z" fill="#141414"/>
<path d="M44.212 53.2815C44.2738 53.8256 44.7683 54.0997 45.2146 53.9863C47.6066 53.3838 50.19 52.0225 51.9575 50.4332C52.3217 50.106 52.3205 49.5331 51.9537 49.2079C48.2884 45.9508 44.9336 43.6612 45.0436 43.7384C44.2813 43.203 43.4588 43.9472 43.7823 44.6976C44.414 48.8028 44.0273 52.8414 44.212 53.2815ZM45.8051 52.0816C45.8362 49.8509 45.775 47.8854 45.6205 46.212C47.1666 47.3581 48.688 48.5462 50.1408 49.804C48.8915 50.7589 47.3416 51.5623 45.8051 52.0816Z" fill="#141414"/>
<path d="M56.92 57.9568L39.543 57.3061L39.5993 56.7325C39.6437 56.2809 39.3135 55.8785 38.8614 55.8346C38.4231 55.7886 38.0079 56.1193 37.9629 56.572L37.897 57.2445L36.485 57.1916C36.0537 57.1338 35.6502 57.5287 35.6331 57.9814C35.616 58.4352 35.9702 58.8173 36.424 58.8333L37.7365 58.8825L37.7023 59.2304C37.5968 60.3171 39.2324 60.4705 39.3387 59.3909L39.3825 58.9441C46.7512 59.2201 57.0456 59.5996 56.8901 59.5996C57.3299 59.5996 57.6943 59.2518 57.7109 58.8087C57.728 58.3549 57.3738 57.9729 56.92 57.9568Z" fill="#141414"/>
<path d="M58.8458 10.2395C60.3067 9.73971 61.0007 8.35058 60.532 6.86086C60.1044 5.50277 58.719 4.32875 56.9832 4.82747C55.1856 5.3455 54.6762 7.32134 55.5033 8.85844C56.1156 9.99647 57.3949 10.7332 58.8458 10.2395ZM57.438 6.40709C58.1667 6.1951 58.7631 6.71452 58.9636 7.35422C59.0583 7.65495 59.1846 8.38697 58.3145 8.68342C57.7066 8.89287 57.1871 8.54532 56.9326 8.04072C56.6244 7.42989 56.6979 6.61951 57.438 6.40709Z" fill="#141414"/>
<path d="M63.2241 37.8733C62.5982 36.5502 61.2715 35.6269 59.7545 35.6269C59.7534 35.6269 59.7518 35.6269 59.7507 35.6269C54.0262 35.2125 48.2127 35.1073 42.4095 35.2744C42.6491 31.1219 42.8312 26.9692 42.6155 22.8166C42.3969 18.4873 41.7005 14.0258 38.8147 10.7679C38.3876 10.0853 37.5946 9.07526 36.7339 8.82897C35.2823 7.76144 33.0753 6.91518 31.4036 6.54328C31.0533 6.46542 27.7738 5.87587 25.5073 5.64056C25.4672 5.63053 25.4314 5.6106 25.3907 5.6023C22.2873 4.96703 19.9249 5.06357 9.87699 4.76219C7.19666 4.68192 4.51633 4.60166 1.71454 4.53638C1.04861 4.55835 0.516151 4.67224 0.533565 5.37542C0.533837 5.48728 0.81848 61.2738 0.655568 57.4088C0.672333 57.8065 0.989311 58.1974 1.42745 58.1885C3.0402 58.3031 16.7241 57.1705 30.9717 58.1917C31.0269 59.1059 31.0637 60.0161 31.1372 60.9341C31.1372 63.0937 32.8923 64.8499 34.9824 64.8499H34.9878C42.4412 65.4803 58.3837 65.8257 61.3105 64.4976C64.9085 63.5773 65.3684 60.8041 65.3138 57.1643C65.1127 43.751 65.5448 40.1812 63.2241 37.8733ZM31.1404 39.4732C30.6676 44.9729 30.5904 50.7093 30.872 56.5385C21.3532 55.8707 12.2567 56.1198 2.30442 56.5211C2.53531 15.7493 2.51807 18.5986 2.19901 6.19386C20.5507 6.63653 22.5188 6.69322 25.0611 7.21189C26.8759 7.58338 28.1295 11.8558 29.8064 13.4651C30.154 13.7964 30.6736 13.7452 31.0066 13.4244C32.0691 12.4034 34.6943 10.3743 36.0226 10.3743C36.2265 10.3487 36.3517 10.4129 36.3935 10.4461C37.2673 11.1652 37.8832 12.2312 38.3321 13.8022L38.3396 13.8001C40.2233 21.0555 39.8306 27.8818 39.0975 35.4094C37.7496 35.4739 36.4003 35.5291 35.0568 35.6248C32.8955 35.6248 31.1372 37.3831 31.1404 39.4732ZM35.0568 63.2093C33.802 63.2093 32.781 62.1884 32.7783 60.8688C32.1951 53.5529 32.1945 46.4017 32.781 39.5439C32.781 38.2896 33.802 37.2686 35.1151 37.2665C43.2901 36.6834 51.5493 36.6816 59.6913 37.2686C60.9461 37.2686 61.9671 38.2896 61.9692 39.6027C62.5595 47.808 62.56 54.7601 61.9671 60.9341C61.9671 62.1884 60.9461 63.2093 59.6913 63.2093C58.3523 63.2093 51.4208 64.5866 35.0568 63.2093Z" fill="#141414"/>
</svg>
