<svg width="80" height="80" viewBox="0 0 80 80" fill="none" xmlns="http://www.w3.org/2000/svg">
<path d="M23.0943 53.8868C23.0943 54.3397 23.3962 54.6415 23.8491 54.6415C33.2075 54.1887 35.4717 54.1887 40 53.8868C35.4717 53.5849 33.0566 53.5849 24.6038 53.1321C24.9057 50.2642 25.9623 47.3963 27.7736 45.1321C29.7359 42.717 32.3019 40.7548 35.3208 39.8491C35.6226 39.6981 35.7736 39.5472 35.9245 39.3963C36.3774 38.7925 36.2264 38.0378 35.6226 37.5849C34.2642 36.5283 33.2075 35.1698 32.6038 33.5095C32 31.8491 32.1509 30.1887 32.6038 28.5283C33.6604 25.3585 36.8302 22.9434 40.1509 23.0944C43.4717 23.0944 46.7925 25.5095 47.6981 28.6793C48.1509 30.3397 48.1509 32 47.5472 33.6604C46.9434 35.3208 45.8868 36.6793 44.5283 37.5849C44.3774 37.7359 44.0755 38.0378 44.0755 38.1887C43.9245 38.7925 44.2264 39.5472 44.8302 39.8491C47.6981 40.7548 50.2642 42.5661 52.2264 45.1321C53.8868 47.3963 55.0943 50.1132 55.2453 52.9812L48 53.2831C45.283 53.434 42.566 53.5849 39.8491 53.7359C42.566 53.8868 45.283 54.0378 48 54.1887C48.4528 54.1887 56.6038 54.6415 56.1509 54.4906C56.6038 54.4906 56.9057 54.1887 56.9057 53.7359C56.9057 50.2642 56 46.7925 54.0377 43.9246C52.5283 41.6604 50.2642 39.6981 47.8491 38.3397C48.9057 37.2831 49.8113 35.9246 50.4151 34.5661C51.3208 32.4529 51.3208 30.0378 50.717 27.7736C49.5094 23.2453 45.1321 19.9246 40.4528 19.9246C38.1887 19.9246 35.7736 20.6793 33.9623 22.0378C32.1509 23.3963 30.6415 25.3585 30.0377 27.6227C29.434 29.8868 29.434 32.151 30.1887 34.4151C30.6415 35.9246 31.5472 37.1321 32.6038 38.1887C30.0377 39.5472 27.7736 41.3585 26.1132 43.7736C24 46.7925 22.9434 50.4151 23.0943 53.8868Z" fill="#141414"/>
<path d="M6.9434 38.6416C6.64151 38.6416 6.33963 38.7926 6.03774 38.7926C5.28302 39.0944 4.52831 39.3963 3.77359 40.0001C4.52831 40.6039 5.28302 40.9058 6.03774 41.2076C6.33963 41.2076 6.49057 41.3586 6.79246 41.3586C6.9434 49.6605 10.4151 57.9624 16.3019 64.0001C22.1887 70.0378 30.3396 73.5095 38.7925 73.8114V73.9624C39.0943 74.7171 39.3962 75.4718 40 76.2265C40.6038 75.4718 40.9057 74.7171 41.2076 73.9624V73.8114C49.5094 73.5095 57.8113 69.8869 63.6981 64.0001C69.5849 57.9624 73.0566 49.6605 73.2076 41.3586C73.5094 41.3586 73.6604 41.2076 73.9623 41.2076C74.717 40.9058 75.4717 40.6039 76.2264 40.0001C75.4717 39.3963 74.717 39.0944 73.9623 38.7926C73.6604 38.6416 73.3585 38.6416 73.2076 38.6416C72.7547 30.9435 69.434 23.3963 64 17.9624C64.7547 17.2076 65.5094 16.4529 66.2642 15.6982C68.0755 13.8869 69.7359 12.0756 71.5472 10.1133C73.2076 8.15104 74.8679 6.18878 76.3774 4.07557C74.2642 5.585 72.3019 7.09444 70.3396 8.90576C68.2264 10.5661 66.4151 12.3775 64.6038 14.0378C63.8491 14.7926 63.0943 15.5473 62.3396 16.4529C56.6038 11.3209 49.0566 8.30198 41.5094 8.30198C41.5094 7.54727 41.3585 6.79255 41.2076 6.03783C40.9057 5.28312 40.6038 4.5284 40 3.77368C39.3962 4.5284 39.0943 5.28312 38.7925 6.03783C38.6415 6.79255 38.4906 7.54727 38.4906 8.30198C30.9434 8.30198 23.3962 11.3209 17.6604 16.4529C16.9057 15.6982 16.1509 14.9435 15.3962 14.0378C13.5849 12.3775 11.7736 10.5661 9.81133 8.90576C7.84906 7.24538 5.8868 5.585 3.77359 4.07557C5.28302 6.18878 6.79246 8.15104 8.60378 10.1133C10.2642 12.0756 11.9245 13.8869 13.7359 15.6982L16 17.9624C13.283 20.8303 11.0189 24.151 9.3585 27.7737C8 31.0944 7.09434 34.868 6.9434 38.6416ZM19.3208 20.8303C20.8302 22.0378 22.3396 23.3963 23.8491 24.4529C23.2453 24.4529 22.7925 24.4529 22.1887 24.4529C21.1321 24.4529 19.9245 24.6039 18.717 25.0567C19.7736 25.6605 20.8302 25.9624 21.8868 26.2642C22.9434 26.5661 24.1509 26.7171 25.2076 26.868C25.9623 26.868 26.566 26.2642 26.4151 25.6605C26.2642 24.6039 26.1132 23.3963 25.8113 22.3397C25.5094 21.2831 25.2076 20.2265 24.6038 19.019C24.3019 20.2265 24.1509 21.2831 24 22.4907V24.151C22.7925 22.6416 21.5849 21.1322 20.3774 19.6227C19.7736 18.868 19.0189 18.1133 18.4151 17.5095C21.1321 14.7926 24.3019 12.6793 27.7736 11.1699C31.0943 9.66047 34.717 8.75481 38.3396 8.45293C38.3396 9.20764 38.4906 9.81142 38.6415 10.5661C38.9434 11.3209 39.2453 12.0756 39.8491 12.8303C40.4528 12.0756 40.7547 11.3209 41.0566 10.5661C41.2076 9.81142 41.3585 9.20764 41.3585 8.45293C44.9811 8.75481 48.6038 9.66047 51.9245 11.1699C55.3962 12.6793 58.566 14.9435 61.283 17.5095C60.6792 18.2642 59.9245 18.868 59.3208 19.6227C58.1132 21.1322 56.9057 22.6416 55.6981 24.151C55.6981 23.5473 55.6981 23.0944 55.6981 22.4907C55.6981 21.4341 55.5472 20.2265 55.0943 19.019C54.4906 20.0756 54.1887 21.1322 53.8868 22.3397C53.5849 23.3963 53.434 24.6039 53.283 25.6605C53.283 26.4152 53.8868 27.019 54.4906 26.868C55.5472 26.7171 56.7547 26.5661 57.8113 26.2642C58.8679 25.9624 59.9245 25.6605 60.9811 25.0567C59.7736 24.7548 58.717 24.6039 57.5094 24.4529C56.9057 24.4529 56.4528 24.4529 55.8491 24.4529C57.3585 23.2454 58.8679 22.0378 60.3774 20.8303C61.1321 20.2265 61.7359 19.6227 62.4906 18.868C67.3208 24.302 70.1887 31.2454 70.4906 38.4907C70.0377 38.4907 69.5849 38.6416 69.1321 38.7926C68.3774 39.0944 67.6226 39.3963 66.8679 40.0001C67.6226 40.6039 68.3774 40.9058 69.1321 41.2076C69.5849 41.3586 70.0377 41.3586 70.4906 41.5095C70.0377 49.2076 66.8679 56.7548 61.283 62.0378C56 67.3209 48.6038 70.4907 41.0566 70.7926C41.0566 70.3397 40.9057 69.8869 40.7547 69.4341C40.4528 68.6794 40.151 67.9246 39.5472 67.1699C38.9434 67.9246 38.6415 68.6794 38.3396 69.4341C38.1887 69.8869 38.1887 70.3397 38.0377 70.7926C30.4906 70.4907 23.2453 67.3209 17.8113 62.0378C12.3774 56.7548 9.05661 49.2076 8.60378 41.5095C9.05661 41.5095 9.50944 41.3586 9.96227 41.2076C10.717 40.9058 11.4717 40.6039 12.2264 40.0001C11.4717 39.3963 10.717 39.0944 9.96227 38.7926C9.50944 38.6416 9.05661 38.6416 8.60378 38.4907C8.90567 31.3963 11.7736 24.302 16.6038 18.868C17.9623 19.6227 18.566 20.2265 19.3208 20.8303Z" fill="#141414"/>
</svg>
