<svg width="80" height="80" viewBox="0 0 80 80" fill="none" xmlns="http://www.w3.org/2000/svg">
<rect width="80" height="80" rx="16" fill="#F4FDF7"/>
<path d="M20.143 55.0098C20.1602 55.1049 21.0458 54.9606 22.6202 54.777C22.803 54.7582 22.9975 54.7403 23.1989 54.7253C23.4013 54.95 23.6208 54.9036 23.8353 54.6936C24.336 54.6803 24.876 54.6958 25.4517 54.7756C26.5227 54.9037 27.6864 55.4285 29.0255 55.9472C30.3525 56.4726 31.8069 57.0918 33.4669 57.5678C35.1108 58.0417 37.0241 58.3708 39.0128 58.0289C39.5121 57.967 39.9973 57.8127 40.4938 57.6809C40.9678 57.4999 41.4755 57.3225 41.9172 57.1132C44.7815 55.8343 47.5917 54.3279 50.3286 52.7927C51.2488 52.2467 52.2129 51.8307 53.1816 51.3516C54.144 50.8832 55.0907 50.4017 56.0026 49.8765C56.9112 49.3441 57.7938 48.7843 58.588 48.0698C58.9804 47.7077 59.3593 47.3056 59.6385 46.7725C59.7846 46.516 59.876 46.1947 59.9133 45.8656C59.9303 45.5275 59.8702 45.175 59.7228 44.8837C59.4368 44.2799 58.9201 43.916 58.4264 43.693C57.9255 43.4646 57.3893 43.3761 56.8775 43.374C55.8486 43.3755 54.9561 43.6881 54.1521 44.0117C53.3471 44.3434 52.6176 44.7194 51.9224 45.0386C51.2452 45.3476 50.5215 45.6198 49.8674 45.8946C47.2284 46.9777 45.1023 47.8656 43.6335 48.5222C43.6812 47.779 43.3764 47.1622 42.8295 46.6734C41.6116 45.6408 40.0211 45.6491 38.7297 45.6867C36.1685 45.8881 33.9309 44.8344 31.6572 44.1855C29.5002 43.5555 27.6776 43.4848 25.3872 43.9699C23.6454 44.3549 22.3254 44.8907 21.427 45.2731C20.5306 45.664 20.0566 45.9284 20.0851 46.0075C20.1146 46.0894 20.647 45.9776 21.5852 45.7293C22.5233 45.4891 23.869 45.0899 25.5448 44.8327C27.227 44.57 29.2121 44.5511 31.3289 45.2805C33.0548 45.8214 34.7903 46.5995 36.7051 46.8502C37.3874 46.9442 38.0999 46.9472 38.7561 46.9268C39.4159 46.9113 40.0408 46.903 40.5985 46.993C41.5519 47.1504 42.6365 47.7015 42.4222 48.6429C42.3646 48.9173 42.1992 49.1883 41.9854 49.4203C41.762 49.5754 41.622 49.6961 41.5492 49.7766C40.7926 50.2649 39.7909 50.4092 38.8699 50.4414C37.8837 50.473 36.9506 50.4136 36.1023 50.3313C34.4034 50.1524 33.0265 49.882 32.0675 49.7307C31.1085 49.5722 30.5674 49.517 30.5466 49.6009C30.526 49.6832 31.0252 49.8963 31.9532 50.1999C32.8831 50.4964 34.2416 50.9017 35.9855 51.2007C36.8587 51.3425 37.8255 51.4575 38.8826 51.4698C39.9306 51.4647 41.1644 51.4057 42.3245 50.6468C42.841 50.2831 43.2935 49.7662 43.5158 49.0775C43.6084 49.0447 43.6955 49.0122 43.7944 48.9787C45.3051 48.4649 47.4964 47.6946 50.1844 46.7125C50.8608 46.4587 51.5516 46.2293 52.3076 45.915C53.75 45.3074 55.4174 44.4258 56.8613 44.4646C57.601 44.461 58.4519 44.8238 58.6876 45.3694C58.9686 45.8486 58.4801 46.5913 57.7934 47.1906C56.1528 48.635 53.2165 49.9598 51.2777 50.8934C51.243 50.8344 51.2074 50.7756 51.164 50.7239C50.9351 50.4684 50.5811 50.2901 50.252 50.3956C49.9424 50.4892 49.847 51.0131 50.1847 51.4662C50.0305 51.55 49.8727 51.6211 49.7211 51.7108C47.8205 52.7772 45.9583 53.7969 44.1334 54.7212C43.4844 55.051 42.8463 55.3519 42.2073 55.6558C42.1837 55.448 42.1005 55.2344 41.9909 55.0444C41.7898 54.7357 41.5046 54.4405 41.1576 54.4384C40.8178 54.4244 40.5475 55.0603 40.9327 55.6927C41.0414 55.8686 41.174 55.9949 41.3109 56.0849C40.9034 56.2746 40.5171 56.4157 40.1275 56.5747C39.7724 56.6719 39.4233 56.7763 39.0693 56.8486C39.0555 56.8238 39.0415 56.8017 39.0279 56.7756C38.8741 56.4989 38.7393 56.157 38.6189 55.6446C38.4025 54.5623 37.9803 53.5815 37.6382 53.66C37.3127 53.7355 37.1596 54.6775 37.4136 55.9408C37.4989 56.3438 37.7049 56.7234 37.9534 57.0169C36.4943 57.1444 35.0585 56.9189 33.7372 56.5753C31.656 56.0394 29.8341 55.2489 27.5394 54.5188C27.8356 54.3741 28.1862 53.9059 28.3355 53.2496C28.5411 52.3551 28.2587 51.6073 27.9195 51.6128C27.5734 51.6147 27.2978 52.235 27.1253 52.9735C26.9924 53.5694 26.9561 54.12 27.1079 54.3934C26.7405 54.2871 26.3787 54.2096 26.0219 54.1568C26.2071 54.0222 26.3681 53.7807 26.4076 53.4442C26.48 52.8054 26.0572 52.3734 25.735 52.4809C25.4048 52.5843 25.2218 52.9465 25.1744 53.3024C25.1474 53.5813 25.2035 53.8788 25.3691 54.081C24.9402 54.0549 24.5388 54.0602 24.1608 54.085C24.1797 54.0152 24.2054 53.9516 24.2169 53.8762C24.3071 53.2761 24.1054 52.7485 23.7665 52.6976C23.4276 52.6467 23.0795 53.0919 22.9893 53.6918C22.9606 53.8822 22.9701 54.0574 22.9954 54.2202C22.8425 54.2463 22.6879 54.2722 22.5478 54.2998C20.9621 54.6357 20.1299 54.9366 20.143 55.0098Z" fill="#005939"/>
<path d="M36.7671 39.4716C36.7427 39.8394 36.7482 40.2211 36.8398 40.6576C36.9287 41.0848 37.1723 41.5723 37.5671 41.8872C38.3677 42.5132 39.253 42.5493 40.027 42.5938C42.5295 42.6079 46.7906 42.6456 52.6454 42.5934C53.005 42.5877 53.5131 42.5444 53.9005 42.3173C54.3061 42.1442 54.6622 41.7927 54.8826 41.4095C55.1026 41.0158 55.1805 40.6023 55.206 40.2203C55.2494 39.45 55.0759 38.7804 54.8826 38.1597C54.477 36.9393 53.8886 35.8522 53.1466 35.029C51.6794 33.3791 50.0356 32.6145 48.9097 32.2453C47.7653 31.8777 47.0915 31.896 47.0821 31.9633C47.0613 32.0634 47.6971 32.2088 48.733 32.6947C49.7525 33.1775 51.2288 34.0259 52.4711 35.589C52.5601 35.6985 52.6391 35.822 52.7221 35.9402C52.5771 35.9294 52.425 35.9279 52.267 35.9428C51.7276 36.0022 51.2384 36.1913 51.1713 36.5304C51.1012 36.8623 51.6497 37.253 52.3932 37.1768C52.7652 37.139 53.0657 36.9966 53.2562 36.8247C53.4685 37.2453 53.649 37.7035 53.8053 38.1854C53.4798 38.1141 52.9608 38.1667 52.3934 38.2259C51.5722 38.328 50.8415 38.4165 50.7483 38.7522C50.648 39.0737 51.4475 39.5841 52.5346 39.4585C53.2252 39.3804 53.7425 39.0786 53.986 38.7942C54.2277 39.8035 54.2283 40.9802 53.4044 41.2875C53.1865 41.4142 52.9686 41.421 52.628 41.4284C47.0883 41.3747 44.0587 41.3797 40.0642 41.3792C39.3613 41.3671 38.676 41.266 38.3216 40.9734C37.9767 40.7253 37.8805 40.1606 37.9107 39.4958C37.9349 36.9143 39.3384 34.7389 40.8864 33.572C42.4649 32.3601 44.1599 32.1082 45.2769 32.0377C45.8469 31.991 46.2928 32.0197 46.5994 32.0244C47.2339 32.0252 47.2407 31.94 46.6351 31.7769C46.3327 31.6914 45.8808 31.5828 45.2797 31.555C44.11 31.4788 42.2268 31.5949 40.3738 32.86C38.5607 34.0851 36.8718 36.4661 36.7671 39.4716Z" fill="#005939"/>
<path d="M45.5525 30.7742C46.5304 30.8924 47.5737 30.7872 48.4661 30.2949C49.3134 29.7803 49.9598 29.0755 50.3348 28.2602C51.105 26.6154 50.7192 24.9128 50.0623 23.824C49.358 22.7135 48.3616 22.1927 47.6856 22.047C47.3472 21.9472 47.0719 21.9608 46.8902 21.9697C46.5284 21.9912 46.521 22.0761 46.8534 22.2171C47.0127 22.2861 47.251 22.3464 47.5238 22.5017C48.0772 22.7636 48.8124 23.3054 49.2964 24.2522C49.7425 25.1891 49.9411 26.5625 49.3055 27.7619C49.0101 28.3534 48.4862 28.8697 47.8855 29.227C47.2809 29.5481 46.4982 29.6402 45.7022 29.543C44.8987 29.4422 44.1336 29.189 43.6076 28.7568C43.0841 28.3309 42.7558 27.6847 42.6297 27.0309C42.3927 25.6774 42.7815 24.3672 43.4661 23.587C44.1501 22.7831 45.0221 22.4627 45.6211 22.309C46.2333 22.1702 46.6048 22.1488 46.6113 22.0499C46.6183 21.9797 46.2601 21.8322 45.5608 21.8301C44.883 21.8462 43.7853 22.0622 42.8269 22.986C41.8705 23.8949 41.2646 25.4922 41.5025 27.2257C41.6352 28.0949 42.0442 29.0195 42.8267 29.6884C43.6105 30.3475 44.585 30.6495 45.5525 30.7742Z" fill="#005939"/>
</svg>
