<svg width="48" height="48" viewBox="0 0 48 48" fill="none" xmlns="http://www.w3.org/2000/svg">
<rect width="48" height="48" rx="24" fill="#F9F2FE"/>
<path d="M26.1263 15H28.9516C29.5589 15 30.1373 15.263 30.5408 15.7227L33.4629 19.0515C34.141 19.824 34.1814 20.9755 33.559 21.7948L25.6854 32.1597C24.8342 33.2801 23.1658 33.2801 22.3146 32.1597L14.441 21.7948C13.8186 20.9755 13.859 19.824 14.5371 19.0515L17.4592 15.7227C17.8627 15.263 18.4411 15 19.0484 15H22.1099M26.1263 15L28.2526 20.3829M26.1263 15H22.1099M28.2526 20.3829H33.5684M28.2526 20.3829L24 32.7634L19.7474 20.3829M28.2526 20.3829H19.7474M22.1099 15L19.7474 20.3829M14.4316 20.3829H19.7474" stroke="#8E07F5" stroke-width="1.5" stroke-linecap="round" stroke-linejoin="round"/>
</svg>
