<svg width="48" height="48" viewBox="0 0 48 48" fill="none" xmlns="http://www.w3.org/2000/svg">
<rect width="48" height="48" rx="24" fill="#FDF6E8"/>
<path d="M22.0328 15.2714C22.8375 13.5762 25.1625 13.5762 25.9672 15.2714L27.3579 18.2012C27.6774 18.8743 28.2951 19.3409 29.0096 19.4489L32.1193 19.9187C33.9187 20.1905 34.6371 22.4895 33.3351 23.8091L31.0849 26.0896C30.5679 26.6136 30.332 27.3685 30.454 28.1084L30.9852 31.3285C31.2926 33.1918 29.4116 34.6126 27.8022 33.7329L25.0208 32.2126C24.3817 31.8633 23.6183 31.8633 22.9792 32.2126L20.1978 33.7329C18.5884 34.6126 16.7074 33.1918 17.0148 31.3286L17.546 28.1084C17.668 27.3685 17.4321 26.6136 16.9151 26.0896L14.6649 23.8091C13.3629 22.4895 14.0813 20.1905 15.8807 19.9187L18.9904 19.4489C19.7049 19.3409 20.3226 18.8743 20.6421 18.2012L22.0328 15.2714Z" stroke="#EBA119" stroke-width="1.5" stroke-linejoin="round"/>
</svg>
