<svg width="24" height="25" viewBox="0 0 24 25" fill="none" xmlns="http://www.w3.org/2000/svg">
<path d="M6 9.40332H2V21.4033H6V9.40332Z" stroke="#141414" stroke-width="1.5" stroke-linecap="round" stroke-linejoin="round"/>
<path d="M16 8.40332C17.5913 8.40332 19.1174 9.03546 20.2426 10.1607C21.3679 11.2859 22 12.812 22 14.4033V21.4033H18V14.4033C18 13.8729 17.7893 13.3642 17.4142 12.9891C17.0391 12.614 16.5304 12.4033 16 12.4033C15.4696 12.4033 14.9609 12.614 14.5858 12.9891C14.2107 13.3642 14 13.8729 14 14.4033V21.4033H10V14.4033C10 12.812 10.6321 11.2859 11.7574 10.1607C12.8826 9.03546 14.4087 8.40332 16 8.40332V8.40332Z" stroke="#141414" stroke-width="1.5" stroke-linecap="round" stroke-linejoin="round"/>
<path d="M4 6.40332C5.10457 6.40332 6 5.50789 6 4.40332C6 3.29875 5.10457 2.40332 4 2.40332C2.89543 2.40332 2 3.29875 2 4.40332C2 5.50789 2.89543 6.40332 4 6.40332Z" stroke="#141414" stroke-width="1.5" stroke-linecap="round" stroke-linejoin="round"/>
</svg>
