<svg width="672" height="304" viewBox="0 0 672 304" fill="none" xmlns="http://www.w3.org/2000/svg">
<path d="M123.465 0V154.857C123.951 165.857 120.168 176.619 112.906 184.893C108.506 189.629 103.135 193.358 97.1593 195.823C91.1839 198.288 84.7462 199.432 78.2874 199.176C71.828 199.438 65.3885 198.297 59.4123 195.831C53.436 193.366 48.0649 189.634 43.6687 184.893C36.4067 176.619 32.6235 165.857 33.11 154.857V0H0.0490273V154.857C-0.316855 164.509 1.36847 174.129 4.99372 183.082C8.61898 192.034 14.1017 200.116 21.0799 206.793C36.7357 221.081 57.3665 228.664 78.5471 227.914C89.0376 228.342 99.5091 226.688 109.357 223.049C119.206 219.409 128.236 213.855 135.928 206.707C142.873 200.001 148.34 191.916 151.977 182.972C155.614 174.027 157.34 164.421 157.045 154.77V0H123.465Z" fill="#141414"/>
<path d="M360.95 62.239V169.314C361.3 173.541 360.705 177.792 359.208 181.76C357.711 185.727 355.35 189.312 352.295 192.253C346.212 196.998 338.719 199.575 331.004 199.575C323.29 199.575 315.797 196.998 309.714 192.253C306.706 189.288 304.393 185.693 302.941 181.726C301.49 177.76 300.935 173.521 301.319 169.314V62.1523H269.037V169.314C269.387 173.541 268.792 177.792 267.295 181.76C265.798 185.727 263.437 189.312 260.382 192.253C254.299 196.998 246.806 199.575 239.092 199.575C231.377 199.575 223.884 196.998 217.801 192.253C214.746 189.312 212.385 185.727 210.888 181.76C209.391 177.792 208.796 173.541 209.146 169.314V62.1523H177.037V169.314C176.983 177.257 178.613 185.121 181.821 192.388C185.028 199.654 189.74 206.158 195.645 211.469C207.361 222.415 222.89 228.349 238.919 228.003C254.369 227.763 269.13 221.561 280.115 210.69C281.859 208.985 283.451 207.131 284.875 205.151C286.297 207.186 287.89 209.097 289.635 210.864C294.986 216.37 301.392 220.741 308.47 223.716C315.549 226.69 323.154 228.207 330.831 228.176C346.876 228.616 362.44 222.669 374.105 211.643C380.083 206.324 384.876 199.806 388.171 192.514C391.466 185.221 393.191 177.317 393.232 169.314V62.1523L360.95 62.239Z" fill="#141414"/>
<path d="M512.234 78.6834C500.538 67.7053 484.995 61.767 468.96 62.1503H431.139L431.659 87.6858V90.6288H468.701C476.492 90.3433 484.112 92.9657 490.078 97.9864C495.357 102.661 498.127 112.355 498.732 126.725C490.266 119.948 479.717 116.309 468.874 116.424C461.137 116.142 453.42 117.397 446.171 120.116C438.922 122.835 432.283 126.964 426.639 132.264C421.126 137.356 416.739 143.543 413.758 150.43C410.777 157.317 409.269 164.751 409.329 172.255C409.17 186.882 414.802 200.978 424.994 211.467C430.646 217.109 437.416 221.502 444.87 224.365C452.323 227.227 460.294 228.495 468.268 228.087C479.117 228.527 489.747 224.952 498.127 218.046V228.087H530.495V120.838C530.55 112.928 528.954 105.093 525.81 97.8345C522.666 90.5759 518.042 84.0533 512.234 78.6834ZM498.213 172.602C498.128 176.259 497.319 179.863 495.834 183.206C494.348 186.548 492.215 189.564 489.558 192.078C486.753 194.734 483.429 196.781 479.795 198.092C476.161 199.403 472.296 199.949 468.441 199.695C464.735 199.913 461.024 199.365 457.539 198.084C454.055 196.803 450.872 194.817 448.189 192.251C443.171 186.827 440.496 179.641 440.746 172.255C440.695 168.621 441.388 165.014 442.781 161.657C444.175 158.301 446.24 155.264 448.85 152.735C451.46 150.205 454.56 148.236 457.959 146.949C461.358 145.662 464.984 145.083 468.614 145.249C476.217 145.125 483.592 147.841 489.299 152.866C492.183 155.265 494.484 158.288 496.028 161.707C497.572 165.126 498.32 168.852 498.213 172.602Z" fill="#141414"/>
<path d="M640.237 62.1523V169.834C640.563 174.058 639.957 178.302 638.461 182.266C636.966 186.23 634.617 189.817 631.582 192.772C625.702 197.486 618.391 200.054 610.854 200.054C603.318 200.054 596.007 197.486 590.127 192.772C587.092 189.817 584.743 186.23 583.248 182.266C581.752 178.302 581.146 174.058 581.472 169.834V62.1523H550.401V169.834C550.297 177.756 551.861 185.612 554.992 192.89C558.123 200.168 562.752 206.705 568.576 212.075C580.007 222.975 595.28 228.917 611.071 228.609C621.697 229.168 632.133 225.637 640.237 218.741V228.522C640.557 232.746 639.948 236.988 638.453 240.951C636.958 244.914 634.613 248.501 631.582 251.461C625.755 256.368 618.34 258.983 610.725 258.818H577.577L565.807 283.748V287.383H611.244C619.092 287.603 626.905 286.245 634.219 283.391C641.533 280.536 648.2 276.242 653.825 270.763C659.595 265.35 664.186 258.805 667.313 251.537C670.44 244.269 672.036 236.434 672 228.522V62.1523H640.237Z" fill="#141414"/>
<path d="M209.493 232.589V237.609C209.507 237.715 209.497 237.822 209.463 237.923C209.429 238.024 209.372 238.116 209.296 238.192C209.221 238.267 209.129 238.324 209.028 238.358C208.927 238.392 208.819 238.403 208.714 238.388H198.328V286.256C198.342 286.362 198.332 286.47 198.298 286.571C198.264 286.672 198.207 286.763 198.132 286.839C198.056 286.914 197.964 286.971 197.863 287.005C197.762 287.039 197.655 287.05 197.549 287.035H191.578C190.972 287.035 190.712 287.035 190.712 286.256V238.561H180.153C180.048 238.576 179.94 238.565 179.839 238.531C179.738 238.497 179.646 238.44 179.571 238.365C179.496 238.289 179.439 238.198 179.405 238.097C179.37 237.996 179.36 237.888 179.374 237.782V232.762C179.36 232.656 179.37 232.549 179.405 232.448C179.439 232.347 179.496 232.255 179.571 232.179C179.646 232.104 179.738 232.047 179.839 232.013C179.94 231.979 180.048 231.969 180.153 231.983H208.714C208.805 231.971 208.897 231.977 208.986 232.001C209.075 232.025 209.158 232.066 209.23 232.123C209.303 232.179 209.363 232.249 209.408 232.329C209.453 232.409 209.482 232.497 209.493 232.589Z" fill="#141414"/>
<path d="M241.342 270.329H223.427V274.657C223.345 276.37 223.935 278.047 225.071 279.331C225.568 279.922 226.192 280.392 226.896 280.707C227.601 281.022 228.367 281.173 229.139 281.149C230.498 281.195 231.825 280.732 232.86 279.85C233.887 278.924 234.56 277.669 234.764 276.301C234.838 276.112 234.97 275.951 235.141 275.842C235.312 275.733 235.514 275.682 235.716 275.695H241.515C241.515 275.695 242.034 275.695 242.121 275.695C242.167 275.79 242.191 275.893 242.191 275.998C242.191 276.103 242.167 276.207 242.121 276.301C241.865 279.393 240.441 282.272 238.14 284.352C235.355 286.301 232.018 287.303 228.62 287.21C225.223 287.116 221.945 285.932 219.272 283.832C218.052 282.647 217.098 281.216 216.471 279.634C215.844 278.053 215.56 276.356 215.637 274.657V258.21C215.566 256.511 215.852 254.817 216.479 253.236C217.105 251.655 218.057 250.224 219.272 249.035C222.022 246.792 225.461 245.567 229.009 245.567C232.557 245.567 235.996 246.792 238.745 249.035C239.95 250.228 240.889 251.662 241.5 253.243C242.112 254.825 242.382 256.517 242.294 258.21V268.771C242.396 268.833 242.485 268.915 242.556 269.012C242.626 269.109 242.677 269.219 242.705 269.336C242.733 269.452 242.738 269.573 242.72 269.691C242.701 269.81 242.659 269.923 242.597 270.026C242.534 270.128 242.452 270.217 242.355 270.288C242.258 270.358 242.149 270.409 242.032 270.437C241.915 270.465 241.795 270.47 241.676 270.452C241.558 270.433 241.444 270.391 241.342 270.329ZM224.725 254.748C223.589 256.032 222.998 257.709 223.08 259.422V263.664H233.985V259.422C234.057 257.726 233.502 256.062 232.427 254.748C231.904 254.144 231.251 253.666 230.516 253.351C229.782 253.036 228.985 252.892 228.187 252.93C227.519 252.991 226.869 253.183 226.275 253.494C225.681 253.806 225.154 254.232 224.725 254.748Z" fill="#141414"/>
<path d="M257.007 284.613C255.776 283.418 254.814 281.973 254.187 280.375C253.56 278.778 253.282 277.065 253.372 275.351V258.991C253.3 257.292 253.587 255.597 254.213 254.016C254.839 252.435 255.791 251.004 257.007 249.815C258.307 248.616 259.835 247.692 261.501 247.097C263.166 246.502 264.935 246.249 266.7 246.353C269.156 246.296 271.591 246.83 273.797 247.911C275.713 248.811 277.329 250.246 278.45 252.042C279.571 253.839 280.149 255.921 280.115 258.039V259.077C280.115 259.683 280.115 259.943 279.336 259.943H273.278C273.172 259.957 273.065 259.947 272.963 259.913C272.862 259.879 272.771 259.822 272.695 259.746C272.62 259.671 272.563 259.579 272.529 259.478C272.495 259.377 272.484 259.27 272.499 259.164V258.385C272.491 256.894 271.901 255.465 270.854 254.403C270.311 253.86 269.662 253.433 268.947 253.151C268.233 252.868 267.468 252.734 266.7 252.758C265.915 252.727 265.134 252.875 264.414 253.19C263.695 253.505 263.056 253.979 262.546 254.576C261.471 255.891 260.917 257.554 260.988 259.25V274.745C260.917 276.441 261.471 278.105 262.546 279.419C262.992 280.128 263.602 280.719 264.326 281.141C265.049 281.563 265.864 281.804 266.7 281.843C267.468 281.867 268.233 281.734 268.947 281.451C269.662 281.168 270.311 280.742 270.854 280.198C271.901 279.136 272.491 277.707 272.499 276.216V275.437C272.484 275.332 272.495 275.224 272.529 275.123C272.563 275.022 272.62 274.93 272.695 274.855C272.771 274.779 272.862 274.722 272.963 274.688C273.065 274.654 273.172 274.644 273.278 274.658H279.336C279.442 274.644 279.549 274.654 279.65 274.688C279.751 274.722 279.843 274.779 279.918 274.855C279.994 274.93 280.051 275.022 280.085 275.123C280.119 275.224 280.129 275.332 280.115 275.437V276.649C280.198 278.272 279.914 279.893 279.285 281.392C278.656 282.891 277.697 284.228 276.48 285.305C273.765 287.621 270.262 288.799 266.7 288.595C264.901 288.61 263.116 288.266 261.451 287.583C259.787 286.899 258.276 285.889 257.007 284.613Z" fill="#141414"/>
<path d="M315.426 249.815C317.324 252.613 318.237 255.963 318.022 259.337V286.604C318.037 286.709 318.026 286.817 317.992 286.918C317.958 287.019 317.901 287.111 317.826 287.186C317.75 287.261 317.659 287.318 317.558 287.352C317.457 287.387 317.349 287.397 317.243 287.383H311.272C310.666 287.383 310.406 287.383 310.406 286.604V260.029C310.507 258.195 310.022 256.376 309.021 254.836C308.552 254.236 307.945 253.758 307.252 253.442C306.559 253.126 305.801 252.98 305.04 253.018C304.276 252.983 303.513 253.121 302.809 253.421C302.105 253.72 301.478 254.174 300.973 254.749C299.863 256.217 299.283 258.017 299.328 259.856V285.825C299.342 285.93 299.332 286.038 299.298 286.139C299.264 286.24 299.207 286.331 299.132 286.407C299.056 286.482 298.964 286.539 298.863 286.573C298.762 286.608 298.655 286.618 298.549 286.604H292.664C292.558 286.618 292.451 286.608 292.35 286.573C292.249 286.539 292.157 286.482 292.082 286.407C292.006 286.331 291.949 286.24 291.915 286.139C291.881 286.038 291.871 285.93 291.885 285.825V231.811C291.871 231.705 291.881 231.597 291.915 231.496C291.949 231.395 292.006 231.304 292.082 231.228C292.157 231.153 292.249 231.096 292.35 231.062C292.451 231.028 292.558 231.017 292.664 231.032H298.722C298.828 231.017 298.936 231.028 299.037 231.062C299.138 231.096 299.229 231.153 299.305 231.228C299.38 231.304 299.437 231.395 299.471 231.496C299.505 231.597 299.516 231.705 299.501 231.811V249.123C300.464 247.961 301.686 247.042 303.069 246.441C304.452 245.839 305.958 245.572 307.464 245.66C309.034 245.621 310.589 245.981 311.982 246.708C313.375 247.435 314.56 248.504 315.426 249.815Z" fill="#141414"/>
<path d="M354.459 249.815C356.388 252.602 357.332 255.952 357.142 259.336V286.603C357.142 287.122 357.142 287.382 356.277 287.382H350.305C350.199 287.396 350.092 287.386 349.991 287.352C349.89 287.318 349.798 287.261 349.723 287.185C349.647 287.11 349.59 287.018 349.556 286.917C349.522 286.816 349.512 286.709 349.526 286.603V260.029C349.602 258.185 349.086 256.365 348.055 254.835C347.585 254.236 346.978 253.758 346.286 253.441C345.593 253.125 344.834 252.98 344.074 253.017C343.309 252.983 342.547 253.12 341.843 253.42C341.139 253.72 340.511 254.174 340.006 254.749C338.931 256.234 338.355 258.022 338.362 259.856V285.824C338.376 285.93 338.366 286.037 338.331 286.138C338.297 286.239 338.24 286.331 338.165 286.406C338.09 286.482 337.998 286.539 337.897 286.573C337.796 286.607 337.688 286.617 337.583 286.603H331.524C331.419 286.617 331.311 286.607 331.21 286.573C331.109 286.539 331.017 286.482 330.942 286.406C330.867 286.331 330.81 286.239 330.776 286.138C330.742 286.037 330.731 285.93 330.746 285.824V246.958C330.731 246.852 330.742 246.745 330.776 246.644C330.81 246.543 330.867 246.451 330.942 246.376C331.017 246.3 331.109 246.243 331.21 246.209C331.311 246.175 331.419 246.165 331.524 246.179H337.583C337.688 246.165 337.796 246.175 337.897 246.209C337.998 246.243 338.09 246.3 338.165 246.376C338.24 246.451 338.297 246.543 338.331 246.644C338.366 246.745 338.376 246.852 338.362 246.958V249.122C339.328 247.966 340.551 247.051 341.934 246.449C343.316 245.848 344.819 245.578 346.324 245.66C347.923 245.59 349.514 245.936 350.94 246.664C352.365 247.392 353.578 248.478 354.459 249.815Z" fill="#141414"/>
<path d="M372.634 284.526C371.414 283.34 370.459 281.91 369.832 280.328C369.206 278.746 368.922 277.05 368.999 275.35V258.99C368.921 257.283 369.214 255.579 369.856 253.996C370.498 252.412 371.475 250.986 372.72 249.815C374.026 248.624 375.555 247.705 377.219 247.11C378.883 246.516 380.649 246.258 382.413 246.353C384.205 246.249 386 246.502 387.693 247.097C389.386 247.691 390.945 248.615 392.28 249.815C393.495 251.004 394.447 252.435 395.074 254.016C395.7 255.597 395.986 257.292 395.915 258.99V275.35C395.992 277.05 395.708 278.746 395.081 280.328C394.455 281.91 393.5 283.34 392.28 284.526C389.496 286.767 386.03 287.989 382.457 287.989C378.883 287.989 375.417 286.767 372.634 284.526ZM386.654 279.592C387.804 278.281 388.394 276.572 388.299 274.831V259.423C388.381 257.71 387.791 256.033 386.654 254.749C386.11 254.139 385.444 253.651 384.698 253.317C383.952 252.983 383.144 252.81 382.327 252.81C381.51 252.81 380.702 252.983 379.956 253.317C379.21 253.651 378.544 254.139 378 254.749C376.901 256.055 376.316 257.717 376.355 259.423V274.831C376.295 276.567 376.881 278.263 378 279.592C378.557 280.179 379.229 280.646 379.973 280.965C380.716 281.284 381.517 281.449 382.327 281.449C383.136 281.449 383.937 281.284 384.681 280.965C385.425 280.646 386.096 280.179 386.654 279.592Z" fill="#141414"/>
<path d="M407.858 286.603V232.589C407.844 232.483 407.854 232.376 407.888 232.275C407.922 232.174 407.979 232.082 408.054 232.006C408.13 231.931 408.222 231.874 408.323 231.84C408.424 231.806 408.531 231.796 408.637 231.81H414.695C414.801 231.796 414.908 231.806 415.009 231.84C415.11 231.874 415.202 231.931 415.277 232.006C415.353 232.082 415.41 232.174 415.444 232.275C415.478 232.376 415.488 232.483 415.474 232.589V286.603C415.488 286.709 415.478 286.816 415.444 286.917C415.41 287.018 415.353 287.11 415.277 287.185C415.202 287.261 415.11 287.318 415.009 287.352C414.908 287.386 414.801 287.396 414.695 287.382H408.637C408.531 287.396 408.424 287.386 408.323 287.352C408.222 287.318 408.13 287.261 408.054 287.185C407.979 287.11 407.922 287.018 407.888 286.917C407.854 286.816 407.844 286.709 407.858 286.603Z" fill="#141414"/>
<path d="M431.139 284.525C429.93 283.335 428.988 281.902 428.377 280.32C427.765 278.738 427.497 277.043 427.591 275.35V258.99C427.508 257.297 427.781 255.606 428.392 254.026C429.003 252.445 429.939 251.01 431.139 249.814C432.458 248.617 434.002 247.694 435.681 247.099C437.36 246.505 439.14 246.251 440.919 246.352C442.697 246.255 444.476 246.512 446.154 247.106C447.833 247.7 449.377 248.621 450.699 249.814C451.925 250.999 452.89 252.427 453.531 254.008C454.172 255.588 454.475 257.285 454.42 258.99V275.35C454.486 277.055 454.188 278.756 453.547 280.338C452.905 281.92 451.934 283.347 450.699 284.525C447.915 286.766 444.449 287.988 440.876 287.988C437.302 287.988 433.836 286.766 431.052 284.525H431.139ZM445.16 279.591C446.309 278.28 446.9 276.571 446.804 274.83V259.422C446.886 257.71 446.296 256.032 445.16 254.748C444.616 254.138 443.949 253.65 443.203 253.316C442.457 252.982 441.649 252.809 440.832 252.809C440.015 252.809 439.207 252.982 438.461 253.316C437.716 253.65 437.049 254.138 436.505 254.748C435.43 256.062 434.876 257.726 434.947 259.422V274.83C434.862 276.555 435.417 278.25 436.505 279.591C437.063 280.178 437.734 280.645 438.478 280.964C439.222 281.283 440.023 281.448 440.832 281.448C441.642 281.448 442.443 281.283 443.187 280.964C443.93 280.645 444.602 280.178 445.16 279.591Z" fill="#141414"/>
<path d="M485.577 247.217H491.722C491.827 247.203 491.935 247.213 492.036 247.247C492.137 247.281 492.229 247.338 492.304 247.414C492.38 247.489 492.437 247.581 492.471 247.682C492.505 247.783 492.515 247.891 492.501 247.996V286.429C492.78 291.042 491.433 295.606 488.693 299.327C486.969 301.008 484.898 302.29 482.625 303.083C480.352 303.876 477.932 304.159 475.537 303.914H473.46C472.941 303.914 472.595 303.914 472.595 303.049V297.942C472.595 297.422 472.595 297.163 473.547 297.163C475.092 297.385 476.666 297.268 478.161 296.82C479.656 296.371 481.035 295.602 482.202 294.566C483.987 292.048 484.844 288.989 484.625 285.91V284.265C483.763 285.484 482.601 286.459 481.252 287.096C479.902 287.733 478.411 288.01 476.922 287.901C475.412 287.987 473.903 287.727 472.508 287.142C471.113 286.557 469.87 285.662 468.873 284.525C466.874 281.901 465.89 278.642 466.104 275.349V259.509C465.902 256.177 466.917 252.886 468.96 250.247C469.94 249.111 471.167 248.216 472.548 247.631C473.928 247.045 475.425 246.786 476.922 246.871C478.411 246.761 479.902 247.038 481.252 247.675C482.601 248.312 483.763 249.288 484.625 250.507V248.429C484.464 248.303 484.36 248.118 484.336 247.915C484.312 247.712 484.369 247.508 484.495 247.347C484.621 247.186 484.806 247.082 485.009 247.058C485.212 247.034 485.416 247.091 485.577 247.217ZM483.24 279.245C484.33 277.938 484.886 276.269 484.798 274.57V259.682C484.869 257.986 484.315 256.322 483.24 255.008C482.744 254.417 482.12 253.947 481.415 253.632C480.71 253.317 479.944 253.166 479.173 253.19C478.388 253.159 477.606 253.306 476.886 253.621C476.167 253.936 475.528 254.41 475.018 255.008C473.944 256.322 473.389 257.986 473.46 259.682V274.57C473.372 276.269 473.929 277.938 475.018 279.245C475.528 279.842 476.167 280.316 476.886 280.631C477.606 280.946 478.388 281.093 479.173 281.062C479.936 281.03 480.682 280.826 481.356 280.466C482.03 280.107 482.615 279.601 483.067 278.985L483.24 279.245Z" fill="#141414"/>
<path d="M502.887 302.963C502.835 302.765 502.835 302.556 502.887 302.357V297.683C502.872 297.577 502.883 297.47 502.917 297.369C502.951 297.268 503.008 297.176 503.083 297.101C503.159 297.025 503.25 296.968 503.351 296.934C503.452 296.9 503.56 296.89 503.666 296.904C505.056 296.88 506.432 296.616 507.733 296.125C508.786 295.512 509.607 294.569 510.07 293.442C510.812 291.575 511.335 289.629 511.628 287.642L501.502 248.257C501.502 248.257 501.502 247.651 502.281 247.651H508.772C509.291 247.651 509.637 247.651 509.637 248.344L515.436 276.995L521.148 248.344C521.159 248.241 521.19 248.142 521.239 248.051C521.289 247.961 521.356 247.881 521.436 247.816C521.517 247.752 521.609 247.704 521.708 247.676C521.807 247.648 521.911 247.639 522.014 247.651H528.591C528.687 247.611 528.79 247.59 528.894 247.59C528.998 247.59 529.101 247.611 529.197 247.651C529.243 247.746 529.267 247.849 529.267 247.954C529.267 248.059 529.243 248.163 529.197 248.257L518.379 290.499C517.691 293.32 516.675 296.051 515.35 298.635C514.428 300.333 512.966 301.674 511.195 302.444C508.737 303.233 506.159 303.585 503.579 303.483C503.579 303.483 502.973 303.136 502.887 302.963Z" fill="#141414"/>
</svg>
