<svg width="672" height="304" viewBox="0 0 672 304" fill="none" xmlns="http://www.w3.org/2000/svg">
<path d="M123.465 0V154.857C123.951 165.857 120.168 176.619 112.906 184.893C108.506 189.629 103.135 193.358 97.1593 195.823C91.1839 198.288 84.7462 199.432 78.2874 199.176C71.828 199.438 65.3885 198.297 59.4123 195.831C53.436 193.366 48.0649 189.634 43.6687 184.893C36.4067 176.619 32.6235 165.857 33.11 154.857V0H0.0490273V154.857C-0.316855 164.509 1.36847 174.129 4.99372 183.082C8.61898 192.034 14.1017 200.116 21.0799 206.793C36.7357 221.081 57.3665 228.664 78.5471 227.914C89.0376 228.342 99.5091 226.688 109.357 223.049C119.206 219.409 128.236 213.855 135.928 206.707C142.873 200.001 148.34 191.916 151.977 182.972C155.614 174.027 157.34 164.421 157.045 154.77V0H123.465Z" fill="#141414"/>
<path d="M360.95 62.2385V169.314C361.3 173.54 360.705 177.791 359.208 181.759C357.711 185.727 355.35 189.311 352.295 192.252C346.212 196.997 338.719 199.575 331.004 199.575C323.29 199.575 315.797 196.997 309.714 192.252C306.706 189.288 304.393 185.692 302.941 181.726C301.49 177.759 300.935 173.52 301.319 169.314V62.1519H269.037V169.314C269.387 173.54 268.792 177.791 267.295 181.759C265.798 185.727 263.437 189.311 260.382 192.252C254.299 196.997 246.806 199.575 239.092 199.575C231.377 199.575 223.884 196.997 217.801 192.252C214.746 189.311 212.385 185.727 210.888 181.759C209.391 177.791 208.796 173.54 209.146 169.314V62.1519H177.037V169.314C176.983 177.257 178.613 185.121 181.821 192.387C185.028 199.654 189.74 206.157 195.645 211.469C207.361 222.415 222.89 228.348 238.919 228.002C254.369 227.763 269.13 221.56 280.115 210.69C281.859 208.984 283.451 207.131 284.875 205.15C286.297 207.186 287.89 209.097 289.635 210.863C294.986 216.37 301.392 220.741 308.47 223.715C315.549 226.69 323.154 228.207 330.831 228.175C346.876 228.615 362.44 222.669 374.105 211.642C380.083 206.323 384.876 199.806 388.171 192.513C391.466 185.221 393.191 177.316 393.232 169.314V62.1519L360.95 62.2385Z" fill="#141414"/>
<path d="M512.234 78.6834C500.538 67.7053 484.995 61.767 468.96 62.1503H431.139L431.659 87.6858V90.6288H468.701C476.492 90.3433 484.112 92.9657 490.078 97.9864C495.357 102.661 498.127 112.355 498.732 126.725C490.266 119.948 479.717 116.309 468.874 116.424C461.137 116.142 453.42 117.397 446.171 120.116C438.922 122.835 432.283 126.964 426.639 132.264C421.126 137.356 416.739 143.543 413.758 150.43C410.777 157.317 409.269 164.751 409.329 172.255C409.17 186.882 414.802 200.978 424.994 211.467C430.646 217.109 437.416 221.502 444.87 224.365C452.323 227.227 460.294 228.495 468.268 228.087C479.117 228.527 489.747 224.952 498.127 218.046V228.087H530.495V120.838C530.55 112.928 528.954 105.093 525.81 97.8345C522.666 90.5759 518.042 84.0533 512.234 78.6834ZM498.213 172.602C498.128 176.259 497.319 179.863 495.834 183.206C494.348 186.548 492.215 189.564 489.558 192.078C486.753 194.734 483.429 196.781 479.795 198.092C476.161 199.403 472.296 199.949 468.441 199.695C464.735 199.913 461.024 199.365 457.539 198.084C454.055 196.803 450.872 194.817 448.189 192.251C443.171 186.827 440.496 179.641 440.746 172.255C440.695 168.621 441.388 165.014 442.781 161.657C444.175 158.301 446.24 155.264 448.85 152.735C451.46 150.205 454.56 148.236 457.959 146.949C461.358 145.662 464.984 145.083 468.614 145.249C476.217 145.125 483.592 147.841 489.299 152.866C492.183 155.265 494.484 158.288 496.028 161.707C497.572 165.126 498.32 168.852 498.213 172.602Z" fill="#141414"/>
<path d="M640.237 62.1519V169.833C640.563 174.057 639.956 178.302 638.461 182.266C636.965 186.229 634.617 189.816 631.582 192.772C625.701 197.485 618.39 200.053 610.854 200.053C603.318 200.053 596.007 197.485 590.126 192.772C587.091 189.816 584.743 186.229 583.247 182.266C581.752 178.302 581.145 174.057 581.471 169.833V62.1519H550.401V169.833C550.296 177.756 551.86 185.612 554.992 192.889C558.123 200.167 562.751 206.704 568.576 212.075C580.007 222.974 595.28 228.916 611.07 228.608C621.696 229.168 632.133 225.637 640.237 218.74V228.521C640.557 232.745 639.948 236.987 638.452 240.95C636.957 244.913 634.612 248.501 631.582 251.46C625.755 256.367 618.34 258.983 610.724 258.818H577.577L565.806 283.747V287.383H611.243C619.092 287.602 626.904 286.245 634.219 283.39C641.533 280.535 648.2 276.242 653.825 270.763C659.594 265.349 664.186 258.804 667.313 251.536C670.44 244.268 672.035 236.434 671.999 228.521V62.1519H640.237Z" fill="#141414"/>
<path d="M209.493 232.589V237.609C209.507 237.715 209.497 237.822 209.463 237.923C209.429 238.024 209.372 238.116 209.296 238.192C209.221 238.267 209.129 238.324 209.028 238.358C208.927 238.392 208.82 238.403 208.714 238.388H198.328V286.256C198.343 286.362 198.332 286.47 198.298 286.571C198.264 286.672 198.207 286.763 198.132 286.839C198.056 286.914 197.965 286.971 197.864 287.005C197.763 287.039 197.655 287.05 197.549 287.035H191.578C190.972 287.035 190.712 287.035 190.712 286.256V238.561H180.154C180.048 238.576 179.94 238.565 179.839 238.531C179.738 238.497 179.647 238.44 179.571 238.365C179.496 238.289 179.439 238.198 179.405 238.097C179.371 237.996 179.36 237.888 179.375 237.782V232.762C179.36 232.656 179.371 232.549 179.405 232.448C179.439 232.347 179.496 232.255 179.571 232.179C179.647 232.104 179.738 232.047 179.839 232.013C179.94 231.979 180.048 231.969 180.154 231.983H208.714C208.805 231.971 208.898 231.977 208.986 232.001C209.075 232.025 209.158 232.066 209.23 232.123C209.303 232.179 209.363 232.249 209.408 232.329C209.454 232.409 209.482 232.497 209.493 232.589Z" fill="#141414"/>
<path d="M241.342 270.329H223.427V274.657C223.345 276.37 223.935 278.047 225.071 279.331C225.568 279.922 226.192 280.392 226.896 280.707C227.601 281.022 228.368 281.173 229.139 281.149C230.498 281.195 231.825 280.732 232.86 279.85C233.887 278.924 234.56 277.669 234.765 276.301C234.838 276.112 234.97 275.951 235.141 275.842C235.312 275.733 235.514 275.682 235.716 275.695H241.515C241.515 275.695 242.034 275.695 242.121 275.695C242.167 275.79 242.191 275.893 242.191 275.998C242.191 276.103 242.167 276.207 242.121 276.301C241.865 279.393 240.442 282.272 238.14 284.352C235.356 286.301 232.018 287.303 228.62 287.21C225.223 287.116 221.945 285.932 219.273 283.832C218.053 282.647 217.098 281.216 216.471 279.634C215.845 278.053 215.56 276.356 215.638 274.657V258.21C215.566 256.511 215.853 254.817 216.479 253.236C217.105 251.655 218.057 250.224 219.273 249.035C222.022 246.792 225.461 245.567 229.009 245.567C232.557 245.567 235.996 246.792 238.746 249.035C239.95 250.228 240.889 251.662 241.5 253.243C242.112 254.825 242.382 256.517 242.294 258.21V268.771C242.396 268.833 242.485 268.915 242.556 269.012C242.627 269.109 242.677 269.219 242.705 269.336C242.734 269.452 242.738 269.573 242.72 269.691C242.701 269.81 242.66 269.923 242.597 270.026C242.534 270.128 242.452 270.217 242.356 270.288C242.259 270.358 242.149 270.409 242.032 270.437C241.916 270.465 241.795 270.47 241.676 270.452C241.558 270.433 241.444 270.391 241.342 270.329ZM224.725 254.748C223.589 256.032 222.999 257.709 223.081 259.422V263.664H233.986V259.422C234.057 257.726 233.502 256.062 232.428 254.748C231.905 254.144 231.251 253.666 230.516 253.351C229.782 253.036 228.985 252.892 228.187 252.93C227.519 252.991 226.869 253.183 226.275 253.494C225.681 253.806 225.154 254.232 224.725 254.748Z" fill="#141414"/>
<path d="M257.007 284.613C255.776 283.418 254.814 281.973 254.188 280.375C253.561 278.778 253.283 277.065 253.372 275.351V258.991C253.3 257.292 253.587 255.597 254.213 254.016C254.84 252.435 255.792 251.004 257.007 249.815C258.307 248.616 259.836 247.692 261.501 247.097C263.167 246.502 264.935 246.249 266.7 246.353C269.157 246.296 271.591 246.83 273.797 247.911C275.714 248.811 277.33 250.246 278.45 252.042C279.571 253.839 280.149 255.921 280.115 258.039V259.077C280.115 259.683 280.115 259.943 279.336 259.943H273.278C273.172 259.957 273.065 259.947 272.964 259.913C272.863 259.879 272.771 259.822 272.696 259.746C272.62 259.671 272.563 259.579 272.529 259.478C272.495 259.377 272.485 259.27 272.499 259.164V258.385C272.491 256.894 271.901 255.465 270.855 254.403C270.311 253.86 269.662 253.433 268.948 253.151C268.233 252.868 267.468 252.734 266.7 252.758C265.916 252.727 265.134 252.875 264.414 253.19C263.695 253.505 263.056 253.979 262.546 254.576C261.471 255.891 260.917 257.554 260.988 259.25V274.745C260.917 276.441 261.471 278.105 262.546 279.419C262.992 280.128 263.602 280.719 264.326 281.141C265.049 281.563 265.864 281.804 266.7 281.843C267.468 281.867 268.233 281.734 268.948 281.451C269.662 281.168 270.311 280.742 270.855 280.198C271.901 279.136 272.491 277.707 272.499 276.216V275.437C272.485 275.332 272.495 275.224 272.529 275.123C272.563 275.022 272.62 274.93 272.696 274.855C272.771 274.779 272.863 274.722 272.964 274.688C273.065 274.654 273.172 274.644 273.278 274.658H279.336C279.442 274.644 279.549 274.654 279.65 274.688C279.751 274.722 279.843 274.779 279.919 274.855C279.994 274.93 280.051 275.022 280.085 275.123C280.119 275.224 280.129 275.332 280.115 275.437V276.649C280.198 278.272 279.915 279.893 279.285 281.392C278.656 282.891 277.697 284.228 276.48 285.305C273.766 287.621 270.262 288.799 266.7 288.595C264.901 288.61 263.116 288.266 261.452 287.583C259.787 286.899 258.276 285.889 257.007 284.613Z" fill="#141414"/>
<path d="M315.426 249.815C317.324 252.613 318.238 255.963 318.023 259.337V286.604C318.037 286.709 318.027 286.817 317.993 286.918C317.959 287.019 317.902 287.111 317.826 287.186C317.751 287.261 317.659 287.318 317.558 287.352C317.457 287.387 317.35 287.397 317.244 287.383H311.272C310.666 287.383 310.407 287.383 310.407 286.604V260.029C310.508 258.195 310.023 256.376 309.022 254.836C308.552 254.236 307.945 253.758 307.253 253.442C306.56 253.126 305.801 252.98 305.041 253.018C304.276 252.983 303.514 253.121 302.81 253.421C302.106 253.72 301.478 254.174 300.973 254.749C299.863 256.217 299.284 258.017 299.329 259.856V285.825C299.343 285.93 299.333 286.038 299.299 286.139C299.264 286.24 299.208 286.331 299.132 286.407C299.057 286.482 298.965 286.539 298.864 286.573C298.763 286.608 298.655 286.618 298.55 286.604H292.665C292.559 286.618 292.451 286.608 292.35 286.573C292.249 286.539 292.158 286.482 292.082 286.407C292.007 286.331 291.95 286.24 291.916 286.139C291.882 286.038 291.871 285.93 291.886 285.825V231.811C291.871 231.705 291.882 231.597 291.916 231.496C291.95 231.395 292.007 231.304 292.082 231.228C292.158 231.153 292.249 231.096 292.35 231.062C292.451 231.028 292.559 231.017 292.665 231.032H298.723C298.829 231.017 298.936 231.028 299.037 231.062C299.138 231.096 299.23 231.153 299.305 231.228C299.381 231.304 299.438 231.395 299.472 231.496C299.506 231.597 299.516 231.705 299.502 231.811V249.123C300.464 247.961 301.686 247.042 303.07 246.441C304.453 245.839 305.958 245.572 307.464 245.66C309.035 245.621 310.59 245.981 311.983 246.708C313.375 247.435 314.561 248.504 315.426 249.815Z" fill="#141414"/>
<path d="M354.459 249.815C356.387 252.602 357.331 255.952 357.142 259.336V286.603C357.142 287.122 357.142 287.382 356.276 287.382H350.305C350.199 287.396 350.091 287.386 349.99 287.352C349.889 287.318 349.798 287.261 349.722 287.185C349.647 287.11 349.59 287.018 349.556 286.917C349.522 286.816 349.511 286.709 349.526 286.603V260.029C349.601 258.185 349.086 256.365 348.054 254.835C347.585 254.236 346.978 253.758 346.285 253.441C345.592 253.125 344.834 252.98 344.073 253.017C343.309 252.983 342.546 253.12 341.842 253.42C341.138 253.72 340.511 254.174 340.006 254.749C338.93 256.234 338.355 258.022 338.361 259.856V285.824C338.375 285.93 338.365 286.037 338.331 286.138C338.297 286.239 338.24 286.331 338.165 286.406C338.089 286.482 337.997 286.539 337.896 286.573C337.795 286.607 337.688 286.617 337.582 286.603H331.524C331.418 286.617 331.311 286.607 331.21 286.573C331.109 286.539 331.017 286.482 330.942 286.406C330.866 286.331 330.809 286.239 330.775 286.138C330.741 286.037 330.731 285.93 330.745 285.824V246.958C330.731 246.852 330.741 246.745 330.775 246.644C330.809 246.543 330.866 246.451 330.942 246.376C331.017 246.3 331.109 246.243 331.21 246.209C331.311 246.175 331.418 246.165 331.524 246.179H337.582C337.688 246.165 337.795 246.175 337.896 246.209C337.997 246.243 338.089 246.3 338.165 246.376C338.24 246.451 338.297 246.543 338.331 246.644C338.365 246.745 338.375 246.852 338.361 246.958V249.122C339.328 247.966 340.551 247.051 341.933 246.449C343.315 245.848 344.818 245.578 346.323 245.66C347.923 245.59 349.513 245.936 350.939 246.664C352.365 247.392 353.578 248.478 354.459 249.815Z" fill="#141414"/>
<path d="M372.633 284.526C371.413 283.34 370.459 281.91 369.832 280.328C369.205 278.746 368.921 277.05 368.998 275.35V258.99C368.921 257.283 369.214 255.579 369.856 253.996C370.498 252.412 371.475 250.986 372.72 249.815C374.026 248.624 375.555 247.705 377.219 247.11C378.883 246.516 380.649 246.258 382.413 246.353C384.205 246.249 385.999 246.502 387.693 247.097C389.386 247.691 390.945 248.615 392.28 249.815C393.495 251.004 394.447 252.435 395.073 254.016C395.7 255.597 395.986 257.292 395.915 258.99V275.35C395.992 277.05 395.708 278.746 395.081 280.328C394.454 281.91 393.5 283.34 392.28 284.526C389.496 286.767 386.03 287.989 382.456 287.989C378.883 287.989 375.417 286.767 372.633 284.526ZM386.654 279.592C387.804 278.281 388.394 276.572 388.298 274.831V259.423C388.38 257.71 387.79 256.033 386.654 254.749C386.11 254.139 385.443 253.651 384.698 253.317C383.952 252.983 383.144 252.81 382.327 252.81C381.509 252.81 380.702 252.983 379.956 253.317C379.21 253.651 378.543 254.139 377.999 254.749C376.901 256.055 376.316 257.717 376.355 259.423V274.831C376.295 276.567 376.881 278.263 377.999 279.592C378.557 280.179 379.228 280.646 379.972 280.965C380.716 281.284 381.517 281.449 382.327 281.449C383.136 281.449 383.937 281.284 384.681 280.965C385.425 280.646 386.096 280.179 386.654 279.592Z" fill="#141414"/>
<path d="M407.858 286.602V232.588C407.844 232.483 407.854 232.375 407.888 232.274C407.922 232.173 407.979 232.081 408.055 232.006C408.13 231.931 408.222 231.874 408.323 231.84C408.424 231.805 408.531 231.795 408.637 231.809H414.695C414.801 231.795 414.908 231.805 415.009 231.84C415.11 231.874 415.202 231.931 415.278 232.006C415.353 232.081 415.41 232.173 415.444 232.274C415.478 232.375 415.488 232.483 415.474 232.588V286.602C415.488 286.708 415.478 286.816 415.444 286.917C415.41 287.018 415.353 287.109 415.278 287.185C415.202 287.26 415.11 287.317 415.009 287.351C414.908 287.385 414.801 287.396 414.695 287.381H408.637C408.531 287.396 408.424 287.385 408.323 287.351C408.222 287.317 408.13 287.26 408.055 287.185C407.979 287.109 407.922 287.018 407.888 286.917C407.854 286.816 407.844 286.708 407.858 286.602Z" fill="#141414"/>
<path d="M431.139 284.525C429.931 283.335 428.989 281.902 428.377 280.32C427.765 278.738 427.497 277.043 427.591 275.35V258.99C427.508 257.297 427.781 255.606 428.392 254.026C429.004 252.445 429.939 251.01 431.139 249.814C432.458 248.617 434.002 247.694 435.681 247.099C437.36 246.505 439.141 246.251 440.919 246.352C442.697 246.255 444.477 246.512 446.155 247.106C447.833 247.7 449.378 248.621 450.699 249.814C451.926 250.999 452.891 252.427 453.532 254.008C454.173 255.588 454.476 257.285 454.421 258.99V275.35C454.487 277.055 454.189 278.756 453.547 280.338C452.906 281.92 451.935 283.347 450.699 284.525C447.915 286.766 444.449 287.988 440.876 287.988C437.303 287.988 433.837 286.766 431.053 284.525H431.139ZM445.16 279.591C446.31 278.28 446.9 276.571 446.804 274.83V259.422C446.886 257.71 446.296 256.032 445.16 254.748C444.616 254.138 443.949 253.65 443.204 253.316C442.458 252.982 441.65 252.809 440.833 252.809C440.016 252.809 439.208 252.982 438.462 253.316C437.716 253.65 437.049 254.138 436.505 254.748C435.431 256.062 434.876 257.726 434.948 259.422V274.83C434.863 276.555 435.418 278.25 436.505 279.591C437.063 280.178 437.734 280.645 438.478 280.964C439.222 281.283 440.023 281.448 440.833 281.448C441.642 281.448 442.443 281.283 443.187 280.964C443.931 280.645 444.602 280.178 445.16 279.591Z" fill="#141414"/>
<path d="M485.577 247.217H491.722C491.828 247.203 491.935 247.213 492.036 247.247C492.137 247.281 492.229 247.338 492.305 247.414C492.38 247.489 492.437 247.581 492.471 247.682C492.505 247.783 492.515 247.891 492.501 247.996V286.429C492.781 291.042 491.433 295.606 488.693 299.327C486.97 301.008 484.898 302.29 482.625 303.083C480.352 303.876 477.933 304.159 475.538 303.914H473.461C472.942 303.914 472.595 303.914 472.595 303.049V297.942C472.595 297.422 472.595 297.163 473.547 297.163C475.092 297.385 476.667 297.268 478.161 296.82C479.656 296.371 481.035 295.602 482.202 294.566C483.988 292.048 484.844 288.989 484.625 285.91V284.265C483.764 285.484 482.602 286.459 481.252 287.096C479.903 287.733 478.411 288.01 476.923 287.901C475.413 287.987 473.903 287.727 472.509 287.142C471.114 286.557 469.871 285.662 468.874 284.525C466.874 281.901 465.891 278.642 466.104 275.349V259.509C465.902 256.177 466.917 252.886 468.96 250.247C469.94 249.111 471.168 248.216 472.548 247.631C473.929 247.045 475.426 246.786 476.923 246.871C478.411 246.761 479.903 247.038 481.252 247.675C482.602 248.312 483.764 249.288 484.625 250.507V248.429C484.465 248.303 484.361 248.118 484.336 247.915C484.312 247.712 484.369 247.508 484.496 247.347C484.622 247.186 484.807 247.082 485.01 247.058C485.213 247.034 485.417 247.091 485.577 247.217ZM483.241 279.245C484.33 277.938 484.886 276.269 484.799 274.57V259.682C484.87 257.986 484.315 256.322 483.241 255.008C482.744 254.417 482.12 253.947 481.416 253.632C480.711 253.317 479.944 253.166 479.173 253.19C478.388 253.159 477.607 253.306 476.887 253.621C476.167 253.936 475.529 254.41 475.019 255.008C473.944 256.322 473.39 257.986 473.461 259.682V274.57C473.373 276.269 473.929 277.938 475.019 279.245C475.529 279.842 476.167 280.316 476.887 280.631C477.607 280.946 478.388 281.093 479.173 281.062C479.936 281.03 480.682 280.826 481.356 280.466C482.03 280.107 482.615 279.601 483.068 278.985L483.241 279.245Z" fill="#141414"/>
<path d="M502.887 302.963C502.835 302.764 502.835 302.556 502.887 302.357V297.683C502.872 297.577 502.883 297.469 502.917 297.368C502.951 297.267 503.008 297.176 503.083 297.1C503.159 297.025 503.25 296.968 503.351 296.934C503.452 296.9 503.56 296.889 503.666 296.904C505.056 296.879 506.432 296.616 507.733 296.125C508.786 295.511 509.607 294.568 510.07 293.441C510.812 291.575 511.335 289.629 511.628 287.642L501.502 248.256C501.502 248.256 501.502 247.651 502.281 247.651H508.772C509.291 247.651 509.637 247.651 509.637 248.343L515.436 276.995L521.148 248.343C521.159 248.241 521.19 248.141 521.239 248.051C521.289 247.96 521.356 247.88 521.436 247.816C521.517 247.752 521.609 247.704 521.708 247.675C521.807 247.647 521.911 247.639 522.014 247.651H528.591C528.687 247.61 528.79 247.589 528.894 247.589C528.998 247.589 529.101 247.61 529.197 247.651C529.243 247.745 529.267 247.849 529.267 247.954C529.267 248.059 529.243 248.162 529.197 248.256L518.379 290.498C517.691 293.32 516.675 296.051 515.35 298.635C514.428 300.332 512.966 301.673 511.195 302.444C508.737 303.233 506.159 303.584 503.579 303.482C503.579 303.482 502.973 303.136 502.887 302.963Z" fill="#141414"/>
</svg>
