<svg width="238" height="108" viewBox="0 0 238 108" fill="none" xmlns="http://www.w3.org/2000/svg">
<path d="M43.7272 0V54.6111C43.8995 58.4902 42.5596 62.2855 39.9876 65.2037C38.4294 66.8738 36.5269 68.1887 34.4106 69.058C32.2943 69.9274 30.0143 70.3308 27.7268 70.2404C25.4391 70.3328 23.1584 69.9304 21.0418 69.0609C18.9253 68.1914 17.023 66.8755 15.466 65.2037C12.894 62.2855 11.5542 58.4902 11.7264 54.6111V0H0.0173638V54.6111C-0.11222 58.015 0.484665 61.4075 1.76861 64.5647C3.05255 67.7219 4.99435 70.572 7.46581 72.9268C13.0105 77.9654 20.3173 80.6394 27.8188 80.3751C31.5342 80.526 35.2428 79.9429 38.7308 78.6592C42.2187 77.3756 45.417 75.417 48.1411 72.8962C50.601 70.5313 52.5371 67.6802 53.8251 64.5259C55.1131 61.3717 55.7246 57.9841 55.6202 54.5806V0H43.7272Z" fill="#008253"/>
<path d="M127.836 21.949V59.7097C127.96 61.2001 127.75 62.6994 127.219 64.0986C126.689 65.4978 125.853 66.7619 124.771 67.7991C122.617 69.4725 119.963 70.3813 117.231 70.3813C114.498 70.3813 111.845 69.4725 109.69 67.7991C108.625 66.7535 107.806 65.4857 107.292 64.0869C106.777 62.6881 106.581 61.1932 106.717 59.7097V21.9185H95.2838V59.7097C95.4079 61.2001 95.1972 62.6994 94.667 64.0986C94.1368 65.4978 93.3004 66.7619 92.2186 67.7991C90.0642 69.4725 87.4103 70.3813 84.6782 70.3813C81.946 70.3813 79.2921 69.4725 77.1378 67.7991C76.0559 66.7619 75.2196 65.4978 74.6894 64.0986C74.1592 62.6994 73.9485 61.2001 74.0726 59.7097V21.9185H62.7007V59.7097C62.6814 62.5108 63.2588 65.2842 64.3948 67.8467C65.5308 70.4093 67.1995 72.7028 69.2909 74.5759C73.4402 78.4361 78.9401 80.5284 84.6169 80.4064C90.0891 80.3221 95.3168 78.1346 99.2072 74.3012C99.8249 73.6998 100.389 73.0461 100.893 72.3475C101.397 73.0654 101.961 73.7394 102.579 74.3623C104.474 76.3042 106.743 77.8457 109.25 78.8947C111.757 79.9437 114.45 80.4786 117.169 80.4675C122.852 80.6226 128.364 78.5256 132.495 74.637C134.613 72.7613 136.31 70.4628 137.477 67.8911C138.644 65.3194 139.255 62.5319 139.269 59.7097V21.9185L127.836 21.949Z" fill="#008253"/>
<path d="M181.416 27.7483C177.274 23.8768 171.769 21.7826 166.09 21.9178H152.695L152.879 30.923V31.9609H165.998C168.758 31.8602 171.456 32.785 173.569 34.5556C175.439 36.204 176.42 39.6229 176.634 44.6902C173.636 42.3006 169.9 41.0172 166.059 41.0576C163.319 40.9584 160.586 41.401 158.019 42.3598C155.452 43.3186 153.1 44.7747 151.101 46.6439C149.149 48.4394 147.595 50.6215 146.539 53.0502C145.484 55.4789 144.949 58.1005 144.971 60.7469C144.915 65.905 146.909 70.876 150.519 74.5752C152.52 76.5646 154.918 78.1141 157.558 79.1236C160.198 80.1331 163.021 80.5803 165.845 80.4362C169.687 80.5914 173.452 79.3307 176.42 76.8952V80.4362H187.884V42.6144C187.903 39.8248 187.338 37.0618 186.224 34.502C185.111 31.9422 183.473 29.642 181.416 27.7483ZM176.451 60.8691C176.42 62.1588 176.134 63.4297 175.608 64.6086C175.082 65.7874 174.326 66.8509 173.385 67.7374C172.392 68.6741 171.214 69.3962 169.927 69.8585C168.64 70.3207 167.271 70.5131 165.906 70.4237C164.594 70.5006 163.279 70.3073 162.045 69.8556C160.811 69.4039 159.684 68.7036 158.734 67.7984C156.956 65.8856 156.009 63.3515 156.098 60.7469C156.08 59.4652 156.325 58.1934 156.818 57.0095C157.312 55.8257 158.044 54.7548 158.968 53.8628C159.892 52.9708 160.99 52.2765 162.194 51.8225C163.398 51.3685 164.682 51.1644 165.968 51.2228C168.66 51.1792 171.272 52.137 173.293 53.9091C174.315 54.7552 175.13 55.8213 175.677 57.027C176.224 58.2328 176.488 59.5465 176.451 60.8691Z" fill="#008253"/>
<path d="M226.75 21.9185V59.8929C226.866 61.3826 226.651 62.8793 226.122 64.2772C225.592 65.6751 224.76 66.94 223.685 67.9823C221.602 69.6445 219.013 70.5502 216.344 70.5502C213.675 70.5502 211.086 69.6445 209.003 67.9823C207.928 66.94 207.096 65.6751 206.567 64.2772C206.037 62.8793 205.822 61.3826 205.938 59.8929V21.9185H194.934V59.8929C194.896 62.6868 195.45 65.4572 196.559 68.0238C197.669 70.5904 199.308 72.8957 201.371 74.7896C205.419 78.6333 210.828 80.7289 216.421 80.6201C220.184 80.8175 223.88 79.5722 226.75 77.1401V80.5896C226.864 82.079 226.648 83.5752 226.119 84.9727C225.589 86.3703 224.758 87.6354 223.685 88.679C221.622 90.4095 218.995 91.3319 216.298 91.2737H204.558L200.39 100.065V101.347H216.482C219.262 101.425 222.029 100.946 224.619 99.9393C227.209 98.9325 229.571 97.4183 231.563 95.4863C233.606 93.5771 235.232 91.269 236.34 88.7059C237.447 86.1428 238.012 83.3798 238 80.5896V21.9185H226.75Z" fill="#008253"/>
<path d="M74.1955 82.0235V83.794C74.2005 83.8313 74.1969 83.8692 74.1848 83.9048C74.1727 83.9404 74.1526 83.9728 74.1259 83.9994C74.0992 84.026 74.0667 84.0461 74.0309 84.0581C73.9951 84.0701 73.957 84.0738 73.9196 84.0687H70.2414V100.95C70.2464 100.987 70.2428 101.025 70.2307 101.06C70.2186 101.096 70.1985 101.128 70.1718 101.155C70.1451 101.182 70.1126 101.202 70.0768 101.214C70.041 101.226 70.0029 101.229 69.9655 101.224H67.8505C67.636 101.224 67.544 101.224 67.544 100.95V84.1298H63.8044C63.767 84.1348 63.7289 84.1312 63.6932 84.1192C63.6574 84.1071 63.6249 84.0871 63.5982 84.0605C63.5715 84.0339 63.5513 84.0015 63.5392 83.9659C63.5272 83.9302 63.5235 83.8923 63.5286 83.8551V82.0845C63.5235 82.0473 63.5272 82.0094 63.5392 81.9737C63.5513 81.9381 63.5715 81.9057 63.5982 81.8791C63.6249 81.8525 63.6574 81.8325 63.6932 81.8204C63.7289 81.8084 63.767 81.8048 63.8044 81.8098H73.9196C73.9519 81.8056 73.9846 81.8077 74.016 81.8162C74.0474 81.8246 74.0768 81.8392 74.1025 81.8591C74.1282 81.879 74.1496 81.9038 74.1656 81.932C74.1815 81.9602 74.1917 81.9913 74.1955 82.0235Z" fill="#434141"/>
<path d="M85.4752 95.3328H79.1303V96.8591C79.1012 97.4632 79.3102 98.0547 79.7126 98.5075C79.8885 98.7159 80.1095 98.8817 80.3591 98.9928C80.6086 99.1038 80.8801 99.1571 81.1533 99.1486C81.6346 99.165 82.1047 99.0017 82.4713 98.6907C82.8348 98.3638 83.0732 97.9215 83.1457 97.4391C83.1717 97.3723 83.2184 97.3156 83.279 97.2772C83.3397 97.2387 83.4111 97.2206 83.4828 97.2254H85.5365C85.5365 97.2254 85.7204 97.2254 85.7511 97.2254C85.7674 97.2587 85.7758 97.2952 85.7758 97.3323C85.7758 97.3693 85.7674 97.4058 85.7511 97.4391C85.6605 98.5295 85.1563 99.5446 84.3411 100.278C83.355 100.966 82.173 101.319 80.9696 101.286C79.7663 101.253 78.6056 100.835 77.659 100.095C77.2269 99.6768 76.8887 99.1723 76.6668 98.6145C76.4449 98.0567 76.3443 97.4584 76.3716 96.8591V91.0592C76.3462 90.4601 76.4477 89.8624 76.6695 89.3049C76.8913 88.7474 77.2284 88.2426 77.659 87.8234C78.6327 87.0325 79.8508 86.6006 81.1073 86.6006C82.3639 86.6006 83.5819 87.0325 84.5557 87.8234C84.9822 88.2442 85.3147 88.7499 85.5313 89.3075C85.7479 89.8652 85.8437 90.4621 85.8124 91.0592V94.7834C85.8486 94.8054 85.8801 94.8343 85.9051 94.8685C85.9301 94.9027 85.9481 94.9414 85.9581 94.9825C85.9681 95.0236 85.9698 95.0663 85.9632 95.1081C85.9566 95.1498 85.9418 95.1899 85.9197 95.226C85.8975 95.262 85.8685 95.2934 85.8342 95.3183C85.7999 95.3432 85.7609 95.3611 85.7197 95.3711C85.6784 95.381 85.6356 95.3827 85.5936 95.3762C85.5517 95.3696 85.5115 95.3549 85.4752 95.3328ZM79.59 89.8381C79.1876 90.291 78.9786 90.8825 79.0076 91.4865V92.9823H82.8698V91.4865C82.895 90.8883 82.6987 90.3016 82.3181 89.8381C82.1328 89.625 81.9013 89.4566 81.6411 89.3455C81.381 89.2345 81.0989 89.1838 80.8161 89.1971C80.5795 89.2185 80.3494 89.2861 80.139 89.3961C79.9287 89.5061 79.7421 89.6563 79.59 89.8381Z" fill="#434141"/>
<path d="M91.0234 100.37C90.5874 99.9487 90.2469 99.4392 90.0248 98.8758C89.8028 98.3124 89.7043 97.7083 89.736 97.1039V91.3345C89.7107 90.7354 89.8122 90.1377 90.034 89.5802C90.2558 89.0227 90.5929 88.518 91.0234 88.0988C91.4839 87.6759 92.0252 87.3498 92.615 87.14C93.2049 86.9302 93.8312 86.8409 94.4565 86.8777C95.3264 86.8574 96.1885 87.0459 96.9699 87.4272C97.6487 87.7446 98.2209 88.2505 98.6179 88.8841C99.0148 89.5177 99.2196 90.252 99.2075 90.9987V91.365C99.2075 91.5787 99.2075 91.6703 98.9316 91.6703H96.786C96.7486 91.6753 96.7105 91.6717 96.6747 91.6597C96.639 91.6476 96.6065 91.6276 96.5798 91.601C96.5531 91.5744 96.5329 91.542 96.5208 91.5064C96.5087 91.4708 96.5051 91.4328 96.5101 91.3956V91.1208C96.5074 90.595 96.2984 90.0911 95.9277 89.7166C95.7353 89.525 95.5054 89.3747 95.2524 89.2749C94.9993 89.1752 94.7285 89.1281 94.4565 89.1366C94.1785 89.1257 93.9017 89.1777 93.6468 89.2888C93.392 89.3998 93.1658 89.567 92.9852 89.7777C92.6045 90.2412 92.4082 90.8278 92.4334 91.4261V96.8902C92.4082 97.4885 92.6045 98.0751 92.9852 98.5387C93.143 98.7887 93.3593 98.997 93.6155 99.1459C93.8716 99.2947 94.1602 99.3796 94.4565 99.3934C94.7285 99.4019 94.9993 99.3548 95.2524 99.2551C95.5054 99.1553 95.7353 99.005 95.9277 98.8134C96.2984 98.4389 96.5074 97.935 96.5101 97.4092V97.1344C96.5051 97.0972 96.5087 97.0593 96.5208 97.0236C96.5329 96.988 96.5531 96.9556 96.5798 96.929C96.6065 96.9024 96.639 96.8824 96.6747 96.8703C96.7105 96.8583 96.7486 96.8547 96.786 96.8597H98.9316C98.9691 96.8547 99.0072 96.8583 99.0429 96.8703C99.0787 96.8824 99.1112 96.9024 99.1379 96.929C99.1646 96.9556 99.1848 96.988 99.1969 97.0236C99.2089 97.0593 99.2126 97.0972 99.2075 97.1344V97.5618C99.2369 98.1342 99.1365 98.7059 98.9136 99.2344C98.6907 99.7629 98.3512 100.235 97.9201 100.614C96.9587 101.431 95.718 101.847 94.4565 101.774C93.8191 101.78 93.1871 101.659 92.5976 101.418C92.008 101.176 91.4728 100.82 91.0234 100.37Z" fill="#434141"/>
<path d="M111.714 88.0985C112.386 89.0852 112.709 90.2665 112.633 91.4564V101.072C112.638 101.109 112.635 101.147 112.622 101.183C112.61 101.219 112.59 101.251 112.564 101.278C112.537 101.304 112.504 101.324 112.469 101.336C112.433 101.348 112.395 101.352 112.357 101.347H110.242C110.028 101.347 109.936 101.347 109.936 101.072V91.7006C109.972 91.0537 109.8 90.4123 109.445 89.869C109.279 89.6577 109.064 89.4891 108.819 89.3775C108.573 89.266 108.305 89.2147 108.035 89.228C107.765 89.2157 107.495 89.2643 107.245 89.3699C106.996 89.4756 106.774 89.6357 106.595 89.8385C106.202 90.356 105.996 90.9909 106.012 91.6396V100.797C106.017 100.835 106.014 100.873 106.002 100.908C105.99 100.944 105.969 100.976 105.943 101.003C105.916 101.029 105.884 101.049 105.848 101.061C105.812 101.073 105.774 101.077 105.736 101.072H103.652C103.615 101.077 103.577 101.073 103.541 101.061C103.505 101.049 103.473 101.029 103.446 101.003C103.419 100.976 103.399 100.944 103.387 100.908C103.375 100.873 103.371 100.835 103.376 100.797V81.7491C103.371 81.7118 103.375 81.6739 103.387 81.6383C103.399 81.6027 103.419 81.5703 103.446 81.5437C103.473 81.5171 103.505 81.497 103.541 81.485C103.577 81.473 103.615 81.4693 103.652 81.4744H105.798C105.835 81.4693 105.873 81.473 105.909 81.485C105.945 81.497 105.977 81.5171 106.004 81.5437C106.031 81.5703 106.051 81.6027 106.063 81.6383C106.075 81.6739 106.079 81.7118 106.074 81.7491V87.8543C106.414 87.4446 106.847 87.1206 107.337 86.9084C107.827 86.6963 108.36 86.602 108.894 86.6333C109.45 86.6192 110.001 86.7463 110.494 87.0027C110.987 87.259 111.407 87.6361 111.714 88.0985Z" fill="#434141"/>
<path d="M125.538 88.0982C126.221 89.0811 126.555 90.2626 126.488 91.456V101.072C126.488 101.255 126.488 101.346 126.181 101.346H124.066C124.029 101.352 123.991 101.348 123.955 101.336C123.919 101.324 123.887 101.304 123.86 101.277C123.833 101.251 123.813 101.218 123.801 101.183C123.789 101.147 123.785 101.109 123.79 101.072V91.7002C123.817 91.05 123.635 90.4083 123.269 89.8687C123.103 89.6573 122.888 89.4888 122.643 89.3772C122.397 89.2657 122.129 89.2144 121.859 89.2276C121.589 89.2154 121.319 89.2639 121.069 89.3696C120.82 89.4753 120.598 89.6354 120.419 89.8382C120.038 90.3619 119.834 90.9926 119.836 91.6392V100.797C119.841 100.834 119.838 100.872 119.826 100.908C119.814 100.943 119.793 100.976 119.767 101.002C119.74 101.029 119.707 101.049 119.672 101.061C119.636 101.073 119.598 101.077 119.56 101.072H117.415C117.377 101.077 117.339 101.073 117.304 101.061C117.268 101.049 117.235 101.029 117.209 101.002C117.182 100.976 117.162 100.943 117.15 100.908C117.138 100.872 117.134 100.834 117.139 100.797V87.0908C117.134 87.0536 117.138 87.0156 117.15 86.98C117.162 86.9444 117.182 86.912 117.209 86.8854C117.235 86.8588 117.268 86.8388 117.304 86.8267C117.339 86.8147 117.377 86.8111 117.415 86.8161H119.56C119.598 86.8111 119.636 86.8147 119.672 86.8267C119.707 86.8388 119.74 86.8588 119.767 86.8854C119.793 86.912 119.814 86.9444 119.826 86.98C119.838 87.0156 119.841 87.0536 119.836 87.0908V87.854C120.179 87.4461 120.612 87.1234 121.101 86.9115C121.591 86.6995 122.123 86.6041 122.656 86.633C123.223 86.6083 123.786 86.7303 124.291 86.9871C124.796 87.244 125.225 87.6268 125.538 88.0982Z" fill="#434141"/>
<path d="M131.974 100.34C131.542 99.9215 131.204 99.4169 130.982 98.8592C130.76 98.3014 130.66 97.7031 130.687 97.1038V91.3344C130.66 90.7323 130.763 90.1314 130.991 89.5729C131.218 89.0144 131.564 88.5115 132.005 88.0986C132.467 87.6786 133.009 87.3543 133.598 87.1447C134.188 86.9351 134.813 86.8443 135.438 86.8775C136.073 86.8412 136.708 86.9304 137.308 87.14C137.908 87.3495 138.46 87.6754 138.932 88.0986C139.363 88.5178 139.7 89.0226 139.922 89.5801C140.144 90.1375 140.245 90.7353 140.22 91.3344V97.1038C140.247 97.7031 140.146 98.3014 139.925 98.8592C139.703 99.4169 139.364 99.9215 138.932 100.34C137.947 101.13 136.719 101.561 135.453 101.561C134.188 101.561 132.96 101.13 131.974 100.34ZM136.94 98.5996C137.347 98.1373 137.556 97.5346 137.522 96.9206V91.487C137.551 90.8829 137.342 90.2914 136.94 89.8386C136.747 89.6235 136.511 89.4514 136.247 89.3335C135.983 89.2157 135.697 89.1547 135.407 89.1547C135.118 89.1547 134.832 89.2157 134.568 89.3335C134.304 89.4514 134.067 89.6235 133.875 89.8386C133.486 90.2991 133.279 90.8853 133.292 91.487V96.9206C133.271 97.5328 133.479 98.1311 133.875 98.5996C134.072 98.8065 134.31 98.9712 134.574 99.0837C134.837 99.1963 135.121 99.2543 135.407 99.2543C135.694 99.2543 135.978 99.1963 136.241 99.0837C136.505 98.9712 136.742 98.8065 136.94 98.5996Z" fill="#434141"/>
<path d="M144.45 101.072V82.0235C144.445 81.9862 144.448 81.9483 144.46 81.9127C144.472 81.8771 144.493 81.8447 144.519 81.8181C144.546 81.7915 144.579 81.7714 144.614 81.7594C144.65 81.7474 144.688 81.7437 144.726 81.7488H146.871C146.909 81.7437 146.947 81.7474 146.983 81.7594C147.018 81.7714 147.051 81.7915 147.077 81.8181C147.104 81.8447 147.124 81.8771 147.136 81.9127C147.149 81.9483 147.152 81.9862 147.147 82.0235V101.072C147.152 101.109 147.149 101.147 147.136 101.183C147.124 101.218 147.104 101.251 147.077 101.277C147.051 101.304 147.018 101.324 146.983 101.336C146.947 101.348 146.909 101.352 146.871 101.347H144.726C144.688 101.352 144.65 101.348 144.614 101.336C144.579 101.324 144.546 101.304 144.519 101.277C144.493 101.251 144.472 101.218 144.46 101.183C144.448 101.147 144.445 101.109 144.45 101.072Z" fill="#434141"/>
<path d="M152.695 100.339C152.267 99.9197 151.933 99.4142 151.717 98.8562C151.5 98.2983 151.405 97.7008 151.438 97.1035V91.3341C151.409 90.7372 151.506 90.1409 151.722 89.5835C151.939 89.0262 152.27 88.5202 152.695 88.0983C153.162 87.676 153.709 87.3505 154.304 87.1409C154.898 86.9312 155.529 86.8416 156.159 86.8773C156.788 86.8433 157.419 86.9337 158.013 87.1433C158.608 87.3528 159.154 87.6774 159.622 88.0983C160.057 88.516 160.399 89.0198 160.626 89.5771C160.853 90.1345 160.96 90.733 160.94 91.3341V97.1035C160.964 97.7051 160.858 98.3048 160.631 98.8627C160.404 99.4206 160.06 99.9239 159.622 100.339C158.637 101.13 157.409 101.561 156.143 101.561C154.878 101.561 153.65 101.13 152.664 100.339H152.695ZM157.661 98.5993C158.068 98.1371 158.277 97.5343 158.243 96.9204V91.4867C158.272 90.8827 158.063 90.2912 157.661 89.8383C157.468 89.6232 157.232 89.4511 156.968 89.3332C156.704 89.2154 156.418 89.1545 156.128 89.1545C155.839 89.1545 155.553 89.2154 155.288 89.3332C155.024 89.4511 154.788 89.6232 154.596 89.8383C154.215 90.3018 154.019 90.8885 154.044 91.4867V96.9204C154.014 97.5286 154.21 98.1264 154.596 98.5993C154.793 98.8062 155.031 98.9709 155.294 99.0834C155.558 99.196 155.841 99.2541 156.128 99.2541C156.415 99.2541 156.698 99.196 156.962 99.0834C157.225 98.9709 157.463 98.8062 157.661 98.5993Z" fill="#434141"/>
<path d="M171.975 87.1826H174.152C174.189 87.1775 174.227 87.1812 174.263 87.1932C174.299 87.2052 174.331 87.2253 174.358 87.2519C174.385 87.2785 174.405 87.3109 174.417 87.3465C174.429 87.3821 174.432 87.42 174.427 87.4573V101.011C174.526 102.637 174.049 104.247 173.079 105.559C172.468 106.152 171.735 106.604 170.93 106.884C170.125 107.163 169.268 107.264 168.42 107.177H167.684C167.5 107.177 167.377 107.177 167.377 106.872V105.071C167.377 104.888 167.377 104.796 167.715 104.796C168.262 104.875 168.819 104.833 169.349 104.675C169.878 104.517 170.366 104.246 170.78 103.88C171.412 102.992 171.715 101.914 171.638 100.828V100.248C171.333 100.678 170.921 101.021 170.443 101.246C169.965 101.471 169.437 101.568 168.91 101.53C168.375 101.56 167.841 101.469 167.347 101.262C166.853 101.056 166.413 100.74 166.059 100.339C165.351 99.4139 165.003 98.2647 165.079 97.1036V91.5173C165.007 90.3424 165.366 89.1816 166.09 88.251C166.437 87.8505 166.872 87.5349 167.361 87.3284C167.85 87.122 168.38 87.0303 168.91 87.0605C169.437 87.0218 169.965 87.1195 170.443 87.3442C170.921 87.5688 171.333 87.9128 171.638 88.3426V87.6099C171.581 87.5654 171.544 87.5002 171.536 87.4287C171.527 87.3571 171.547 87.285 171.592 87.2284C171.637 87.1717 171.702 87.135 171.774 87.1265C171.846 87.1179 171.918 87.1381 171.975 87.1826ZM171.148 98.4772C171.533 98.0166 171.731 97.4279 171.699 96.8288V91.5783C171.725 90.9801 171.528 90.3934 171.148 89.9299C170.972 89.7216 170.751 89.5557 170.501 89.4447C170.252 89.3337 169.98 89.2804 169.707 89.2889C169.429 89.278 169.152 89.33 168.897 89.441C168.643 89.5521 168.416 89.7192 168.236 89.9299C167.855 90.3934 167.659 90.9801 167.684 91.5783V96.8288C167.653 97.4279 167.85 98.0166 168.236 98.4772C168.416 98.6879 168.643 98.8551 168.897 98.9661C169.152 99.0771 169.429 99.1292 169.707 99.1183C169.977 99.1067 170.242 99.0349 170.48 98.9081C170.719 98.7813 170.926 98.6027 171.086 98.3856L171.148 98.4772Z" fill="#434141"/>
<path d="M178.106 106.842C178.088 106.772 178.088 106.698 178.106 106.628V104.98C178.101 104.942 178.104 104.904 178.116 104.869C178.128 104.833 178.149 104.801 178.175 104.774C178.202 104.748 178.234 104.728 178.27 104.716C178.306 104.704 178.344 104.7 178.382 104.705C178.874 104.696 179.361 104.603 179.822 104.43C180.195 104.214 180.486 103.881 180.65 103.484C180.913 102.826 181.098 102.139 181.202 101.439L177.615 87.5492C177.615 87.5492 177.615 87.3356 177.891 87.3356H180.19C180.374 87.3356 180.497 87.3356 180.497 87.5798L182.55 97.6839L184.573 87.5798C184.577 87.5436 184.588 87.5086 184.606 87.4767C184.623 87.4448 184.647 87.4166 184.675 87.3939C184.704 87.3712 184.737 87.3543 184.772 87.3443C184.807 87.3343 184.844 87.3313 184.88 87.3356H187.209C187.243 87.3213 187.28 87.314 187.317 87.314C187.353 87.314 187.39 87.3213 187.424 87.3356C187.44 87.3689 187.449 87.4054 187.449 87.4424C187.449 87.4794 187.44 87.5159 187.424 87.5492L183.592 102.446C183.349 103.441 182.989 104.404 182.52 105.315C182.193 105.914 181.675 106.387 181.048 106.659C180.178 106.937 179.265 107.061 178.351 107.025C178.351 107.025 178.136 106.903 178.106 106.842Z" fill="#434141"/>
</svg>
