<svg width="78" height="36" viewBox="0 0 78 36" fill="none" xmlns="http://www.w3.org/2000/svg">
<path d="M14.2657 0V17.89C14.3219 19.1607 13.8847 20.404 13.0457 21.36C12.5373 21.9071 11.9166 22.3379 11.2262 22.6227C10.5358 22.9075 9.79193 23.0396 9.04566 23.01C8.29931 23.0403 7.55527 22.9084 6.86475 22.6236C6.17422 22.3388 5.55362 21.9077 5.04566 21.36C4.20658 20.404 3.76946 19.1607 3.82567 17.89V0H0.00566482V17.89C-0.0366108 19.0051 0.158118 20.1164 0.576996 21.1507C0.995873 22.185 1.62937 23.1186 2.43567 23.89C4.24459 25.5406 6.62837 26.4166 9.07567 26.33C10.2878 26.3794 11.4977 26.1884 12.6356 25.7679C13.7735 25.3474 14.817 24.7058 15.7057 23.88C16.5082 23.1053 17.1398 22.1713 17.5601 21.138C17.9803 20.1047 18.1797 18.9949 18.1457 17.88V0H14.2657Z" fill="#141414"/>
<path d="M41.7052 7.19018V19.5602C41.7457 20.0484 41.677 20.5396 41.504 20.9979C41.331 21.4563 41.0582 21.8704 40.7052 22.2102C40.0024 22.7584 39.1366 23.0561 38.2452 23.0561C37.3539 23.0561 36.4881 22.7584 35.7852 22.2102C35.4377 21.8677 35.1704 21.4523 35.0027 20.9941C34.835 20.5359 34.7709 20.0461 34.8152 19.5602V7.18018H31.0852V19.5602C31.1257 20.0484 31.057 20.5396 30.884 20.9979C30.711 21.4563 30.4382 21.8704 30.0852 22.2102C29.3824 22.7584 28.5166 23.0561 27.6252 23.0561C26.7339 23.0561 25.8681 22.7584 25.1652 22.2102C24.8123 21.8704 24.5394 21.4563 24.3665 20.9979C24.1935 20.5396 24.1248 20.0484 24.1652 19.5602V7.18018H20.4552V19.5602C20.4489 20.4778 20.6373 21.3863 21.0079 22.2258C21.3785 23.0652 21.9229 23.8166 22.6052 24.4302C23.9589 25.6947 25.7532 26.3802 27.6052 26.3402C29.3905 26.3126 31.096 25.596 32.3652 24.3402C32.5667 24.1432 32.7508 23.929 32.9152 23.7002C33.0796 23.9353 33.2636 24.1561 33.4652 24.3602C34.0835 24.9963 34.8237 25.5013 35.6415 25.8449C36.4594 26.1886 37.3381 26.3638 38.2252 26.3602C40.0791 26.411 41.8774 25.7241 43.2252 24.4502C43.916 23.8357 44.4698 23.0828 44.8505 22.2403C45.2313 21.3978 45.4305 20.4847 45.4352 19.5602V7.18018L41.7052 7.19018Z" fill="#141414"/>
<path d="M59.1853 9.09C57.8339 7.82174 56.0381 7.13572 54.1853 7.18H49.8153L49.8753 10.18V10.52H54.1553C55.0556 10.487 55.936 10.79 56.6253 11.37C57.2353 11.91 57.5553 13.03 57.6253 14.69C56.647 13.9072 55.4282 13.4868 54.1753 13.5C53.2813 13.4675 52.3898 13.6125 51.5521 13.9266C50.7145 14.2407 49.9475 14.7177 49.2953 15.33C48.6584 15.9182 48.1514 16.633 47.807 17.4286C47.4626 18.2242 47.2883 19.0831 47.2953 19.95C47.2769 21.6397 47.9276 23.2682 49.1053 24.48C49.7583 25.1317 50.5406 25.6393 51.4018 25.97C52.263 26.3007 53.184 26.4472 54.1053 26.4C55.3588 26.4508 56.5871 26.0378 57.5553 25.24V26.4H61.2953V13.96C61.3023 13.046 61.1182 12.1407 60.7548 11.3021C60.3915 10.4634 59.8569 9.70997 59.1853 9.09ZM57.5653 19.94C57.5554 20.3625 57.462 20.7788 57.2904 21.165C57.1187 21.5512 56.8723 21.8996 56.5653 22.19C56.2411 22.4968 55.8571 22.7334 55.4372 22.8848C55.0173 23.0363 54.5707 23.0993 54.1253 23.07C53.702 23.091 53.2789 23.0256 52.8818 22.8778C52.4846 22.7299 52.1217 22.5027 51.8153 22.21C51.2355 21.5834 50.9264 20.7532 50.9553 19.9C50.9494 19.4801 51.0294 19.0635 51.1905 18.6757C51.3515 18.2878 51.5902 17.937 51.8917 17.6448C52.1933 17.3526 52.5514 17.1252 52.9441 16.9764C53.3368 16.8277 53.7558 16.7609 54.1753 16.78C55.0537 16.7657 55.9059 17.0795 56.5653 17.66C56.8931 17.9401 57.1532 18.2907 57.3264 18.6855C57.4996 19.0803 57.5812 19.5092 57.5653 19.94Z" fill="#141414"/>
<path d="M73.9763 7.18018V19.6202C74.0139 20.1082 73.9439 20.5985 73.7711 21.0564C73.5983 21.5144 73.327 21.9287 72.9763 22.2702C72.2968 22.8147 71.452 23.1114 70.5813 23.1114C69.7105 23.1114 68.8658 22.8147 68.1863 22.2702C67.8356 21.9287 67.5643 21.5144 67.3915 21.0564C67.2187 20.5985 67.1486 20.1082 67.1863 19.6202V7.18018H63.5963V19.6202C63.5842 20.5354 63.7649 21.443 64.1267 22.2838C64.4885 23.1246 65.0233 23.8797 65.6963 24.5002C67.0171 25.7593 68.7818 26.4458 70.6063 26.4102C71.834 26.4748 73.0399 26.0669 73.9763 25.2702V26.4002C74.0133 26.8881 73.9429 27.3782 73.7701 27.8361C73.5974 28.2939 73.3264 28.7083 72.9763 29.0502C72.303 29.6171 71.4462 29.9192 70.5663 29.9002H66.7363L65.3763 32.7802V33.2002H70.6263C71.5331 33.2256 72.4358 33.0687 73.2809 32.7389C74.126 32.4091 74.8964 31.9131 75.5463 31.2802C76.2129 30.6548 76.7434 29.8986 77.1048 29.059C77.4661 28.2194 77.6504 27.3142 77.6463 26.4002V7.18018H73.9763Z" fill="#141414"/>
<path d="M24.2053 26.87V27.45C24.207 27.4622 24.2058 27.4747 24.2019 27.4863C24.1979 27.498 24.1913 27.5086 24.1826 27.5173C24.1739 27.526 24.1633 27.5326 24.1516 27.5366C24.14 27.5405 24.1275 27.5417 24.1153 27.54H22.9153V33.07C22.917 33.0822 22.9158 33.0947 22.9119 33.1063C22.9079 33.118 22.9013 33.1286 22.8926 33.1373C22.8839 33.146 22.8733 33.1526 22.8616 33.1566C22.85 33.1605 22.8375 33.1617 22.8253 33.16H22.1353C22.0653 33.16 22.0353 33.16 22.0353 33.07V27.56H20.8153C20.8031 27.5617 20.7907 27.5605 20.779 27.5566C20.7674 27.5526 20.7568 27.546 20.748 27.5373C20.7393 27.5286 20.7327 27.518 20.7288 27.5063C20.7249 27.4947 20.7237 27.4822 20.7253 27.47V26.89C20.7237 26.8778 20.7249 26.8654 20.7288 26.8537C20.7327 26.8421 20.7393 26.8315 20.748 26.8227C20.7568 26.814 20.7674 26.8075 20.779 26.8035C20.7907 26.7996 20.8031 26.7984 20.8153 26.8H24.1153C24.1258 26.7986 24.1365 26.7993 24.1468 26.8021C24.157 26.8049 24.1666 26.8097 24.175 26.8162C24.1834 26.8227 24.1904 26.8308 24.1956 26.8401C24.2008 26.8493 24.2041 26.8595 24.2053 26.87Z" fill="#141414"/>
<path d="M27.8855 31.23H25.8155V31.73C25.806 31.9279 25.8742 32.1216 26.0055 32.27C26.0629 32.3382 26.135 32.3926 26.2164 32.4289C26.2978 32.4653 26.3864 32.4828 26.4755 32.48C26.6325 32.4853 26.7859 32.4318 26.9055 32.33C27.0241 32.2229 27.1018 32.078 27.1255 31.92C27.134 31.8981 27.1492 31.8795 27.169 31.8669C27.1888 31.8543 27.2121 31.8484 27.2355 31.85H27.9055C27.9055 31.85 27.9655 31.85 27.9755 31.85C27.9808 31.8609 27.9836 31.8728 27.9836 31.885C27.9836 31.8971 27.9808 31.9091 27.9755 31.92C27.9479 32.2777 27.7831 32.611 27.5155 32.85C27.1938 33.0752 26.8082 33.191 26.4156 33.1802C26.023 33.1694 25.6443 33.0326 25.3355 32.79C25.1945 32.653 25.0842 32.4877 25.0118 32.305C24.9394 32.1223 24.9066 31.9263 24.9155 31.73V29.83C24.9072 29.6337 24.9403 29.4379 25.0127 29.2553C25.0851 29.0727 25.195 28.9073 25.3355 28.77C25.6532 28.5109 26.0506 28.3694 26.4605 28.3694C26.8704 28.3694 27.2678 28.5109 27.5855 28.77C27.7247 28.9078 27.8331 29.0735 27.9038 29.2562C27.9744 29.4388 28.0057 29.6344 27.9955 29.83V31.05C28.0194 31.0646 28.0365 31.088 28.043 31.1152C28.0496 31.1424 28.0451 31.1711 28.0305 31.195C28.0159 31.2188 27.9924 31.2359 27.9652 31.2425C27.9381 31.2491 27.9094 31.2446 27.8855 31.23ZM25.9655 29.43C25.8342 29.5783 25.766 29.7721 25.7755 29.97V30.46H27.0355V29.97C27.0437 29.774 26.9797 29.5818 26.8555 29.43C26.795 29.3602 26.7195 29.305 26.6347 29.2686C26.5498 29.2322 26.4577 29.2156 26.3655 29.22C26.2883 29.227 26.2132 29.2491 26.1446 29.2852C26.076 29.3212 26.0151 29.3704 25.9655 29.43Z" fill="#141414"/>
<path d="M29.6949 32.8802C29.5539 32.7432 29.4436 32.5779 29.3712 32.3952C29.2988 32.2125 29.266 32.0165 29.2749 31.8202V29.9202C29.2666 29.7239 29.2997 29.5281 29.3721 29.3455C29.4444 29.1628 29.5544 28.9975 29.6949 28.8602C29.8451 28.7216 30.0217 28.6148 30.2141 28.5461C30.4066 28.4773 30.6109 28.4481 30.8149 28.4602C31.0987 28.4535 31.3799 28.5153 31.6349 28.6402C31.8575 28.7445 32.0451 28.9113 32.1749 29.1202C32.3038 29.3305 32.3698 29.5735 32.3649 29.8202V29.9302C32.3649 30.0002 32.3649 30.0302 32.2749 30.0302H31.5749C31.5627 30.0318 31.5502 30.0306 31.5386 30.0267C31.5269 30.0227 31.5163 30.0162 31.5076 30.0074C31.4989 29.9987 31.4923 29.9881 31.4883 29.9765C31.4844 29.9648 31.4832 29.9524 31.4849 29.9402V29.8502C31.484 29.6779 31.4158 29.5128 31.2949 29.3902C31.2321 29.3274 31.1571 29.2781 31.0745 29.2455C30.992 29.2128 30.9036 29.1974 30.8149 29.2002C30.7242 29.1966 30.6339 29.2136 30.5507 29.25C30.4676 29.2864 30.3938 29.3411 30.3349 29.4102C30.2107 29.562 30.1466 29.7542 30.1549 29.9502V31.7602C30.1466 31.9561 30.2107 32.1483 30.3349 32.3002C30.3886 32.3784 30.4601 32.4427 30.5436 32.4879C30.627 32.5331 30.72 32.5579 30.8149 32.5602C30.9036 32.5629 30.992 32.5475 31.0745 32.5149C31.1571 32.4822 31.2321 32.4329 31.2949 32.3702C31.4158 32.2475 31.484 32.0824 31.4849 31.9102V31.8202C31.4832 31.808 31.4844 31.7955 31.4883 31.7838C31.4923 31.7722 31.4989 31.7616 31.5076 31.7529C31.5163 31.7442 31.5269 31.7376 31.5386 31.7336C31.5502 31.7297 31.5627 31.7285 31.5749 31.7302H32.2749C32.2871 31.7285 32.2995 31.7297 32.3112 31.7336C32.3228 31.7376 32.3334 31.7442 32.3422 31.7529C32.3509 31.7616 32.3574 31.7722 32.3614 31.7838C32.3653 31.7955 32.3665 31.808 32.3649 31.8202V31.9602C32.3745 32.1477 32.3417 32.335 32.269 32.5081C32.1963 32.6812 32.0855 32.8357 31.9449 32.9602C31.6312 33.2277 31.2264 33.3638 30.8149 33.3402C30.6069 33.342 30.4008 33.3022 30.2084 33.2232C30.0161 33.1443 29.8415 33.0276 29.6949 32.8802Z" fill="#141414"/>
<path d="M36.4453 28.86C36.6646 29.1832 36.7702 29.5702 36.7453 29.96V33.11C36.747 33.1222 36.7458 33.1346 36.7419 33.1463C36.7379 33.158 36.7313 33.1686 36.7226 33.1773C36.7139 33.186 36.7033 33.1926 36.6916 33.1965C36.68 33.2005 36.6675 33.2017 36.6553 33.2H35.9653C35.8953 33.2 35.8653 33.2 35.8653 33.11V30.04C35.877 29.8281 35.821 29.618 35.7053 29.44C35.651 29.3708 35.5809 29.3156 35.5009 29.279C35.4209 29.2425 35.3332 29.2257 35.2453 29.23C35.157 29.226 35.0689 29.2419 34.9876 29.2765C34.9062 29.3111 34.8337 29.3636 34.7753 29.43C34.6471 29.5995 34.5801 29.8075 34.5853 30.02V33.02C34.587 33.0322 34.5858 33.0446 34.5819 33.0563C34.5779 33.068 34.5713 33.0786 34.5626 33.0873C34.5539 33.096 34.5433 33.1026 34.5316 33.1065C34.52 33.1105 34.5075 33.1117 34.4953 33.11H33.8153C33.8031 33.1117 33.7907 33.1105 33.779 33.1065C33.7674 33.1026 33.7568 33.096 33.748 33.0873C33.7393 33.0786 33.7327 33.068 33.7288 33.0563C33.7249 33.0446 33.7237 33.0322 33.7253 33.02V26.87C33.7237 26.8578 33.7249 26.8454 33.7288 26.8337C33.7327 26.822 33.7393 26.8114 33.748 26.8027C33.7568 26.794 33.7674 26.7874 33.779 26.7835C33.7907 26.7796 33.8031 26.7784 33.8153 26.78H34.5153C34.5275 26.7784 34.54 26.7796 34.5516 26.7835C34.5633 26.7874 34.5739 26.794 34.5826 26.8027C34.5913 26.8114 34.5979 26.822 34.6019 26.8337C34.6058 26.8454 34.607 26.8578 34.6053 26.87V28.87C34.7165 28.7358 34.8577 28.6296 35.0176 28.5602C35.1774 28.4907 35.3513 28.4598 35.5253 28.47C35.6988 28.4553 35.8733 28.4831 36.0337 28.551C36.194 28.619 36.3353 28.7251 36.4453 28.86Z" fill="#141414"/>
<path d="M40.9556 28.86C41.1784 29.1819 41.2875 29.569 41.2656 29.96V33.11C41.2656 33.17 41.2656 33.2 41.1656 33.2H40.4756C40.4634 33.2016 40.4509 33.2004 40.4393 33.1965C40.4276 33.1925 40.417 33.1859 40.4083 33.1772C40.3996 33.1685 40.393 33.1579 40.389 33.1463C40.3851 33.1346 40.3839 33.1222 40.3856 33.11V30.04C40.3943 29.8269 40.3347 29.6167 40.2156 29.44C40.1613 29.3707 40.0912 29.3155 40.0111 29.279C39.9311 29.2424 39.8434 29.2256 39.7556 29.23C39.6672 29.2259 39.5792 29.2418 39.4978 29.2765C39.4164 29.3111 39.3439 29.3635 39.2856 29.43C39.1613 29.6015 39.0948 29.8081 39.0956 30.02V33.02C39.0972 33.0322 39.096 33.0446 39.0921 33.0563C39.0881 33.0679 39.0816 33.0785 39.0729 33.0872C39.0641 33.096 39.0535 33.1025 39.0419 33.1065C39.0302 33.1104 39.0178 33.1116 39.0056 33.11H38.3056C38.2934 33.1116 38.2809 33.1104 38.2693 33.1065C38.2576 33.1025 38.247 33.096 38.2383 33.0872C38.2296 33.0785 38.223 33.0679 38.219 33.0563C38.2151 33.0446 38.2139 33.0322 38.2156 33.02V28.62C38.2139 28.6077 38.2151 28.5953 38.219 28.5836C38.223 28.572 38.2296 28.5614 38.2383 28.5527C38.247 28.544 38.2576 28.5374 38.2693 28.5334C38.2809 28.5295 38.2934 28.5283 38.3056 28.53H39.0056C39.0178 28.5283 39.0302 28.5295 39.0419 28.5334C39.0535 28.5374 39.0641 28.544 39.0729 28.5527C39.0816 28.5614 39.0881 28.572 39.0921 28.5836C39.096 28.5953 39.0972 28.6077 39.0956 28.62V28.87C39.2073 28.7363 39.3486 28.6306 39.5083 28.5612C39.668 28.4918 39.8417 28.4605 40.0156 28.47C40.1923 28.4518 40.3708 28.478 40.5349 28.546C40.699 28.6141 40.8436 28.722 40.9556 28.86Z" fill="#141414"/>
<path d="M43.0562 32.8702C42.9223 32.7405 42.816 32.585 42.7438 32.4132C42.6716 32.2413 42.635 32.0566 42.6362 31.8702V29.9702C42.6272 29.7729 42.661 29.5761 42.7352 29.3931C42.8095 29.2102 42.9223 29.0454 43.0662 28.9102C43.217 28.7726 43.3937 28.6664 43.586 28.5977C43.7783 28.529 43.9823 28.4993 44.1862 28.5102C44.3932 28.4982 44.6005 28.5275 44.7962 28.5961C44.9919 28.6648 45.172 28.7715 45.3262 28.9102C45.4666 29.0475 45.5766 29.2128 45.649 29.3955C45.7213 29.5781 45.7544 29.7739 45.7462 29.9702V31.8702C45.7473 32.0566 45.7107 32.2413 45.6385 32.4132C45.5663 32.585 45.4601 32.7405 45.3262 32.8702C45.0045 33.1291 44.6041 33.2702 44.1912 33.2702C43.7783 33.2702 43.3778 33.1291 43.0562 32.8702ZM44.6762 32.3002C44.809 32.1487 44.8772 31.9513 44.8662 31.7502V29.9702C44.8756 29.7723 44.8075 29.5785 44.6762 29.4302C44.6133 29.3597 44.5363 29.3033 44.4501 29.2647C44.3639 29.2261 44.2706 29.2061 44.1762 29.2061C44.0818 29.2061 43.9884 29.2261 43.9022 29.2647C43.8161 29.3033 43.739 29.3597 43.6762 29.4302C43.5492 29.581 43.4817 29.773 43.4862 29.9702V31.7502C43.4792 31.9507 43.5469 32.1467 43.6762 32.3002C43.7406 32.3679 43.8182 32.4219 43.9041 32.4588C43.9901 32.4956 44.0826 32.5147 44.1762 32.5147C44.2697 32.5147 44.3623 32.4956 44.4482 32.4588C44.5342 32.4219 44.6117 32.3679 44.6762 32.3002Z" fill="#141414"/>
<path d="M47.1257 33.11V26.87C47.1241 26.8578 47.1253 26.8454 47.1292 26.8337C47.1331 26.822 47.1397 26.8114 47.1484 26.8027C47.1571 26.794 47.1677 26.7874 47.1794 26.7835C47.1911 26.7796 47.2035 26.7784 47.2157 26.78H47.9157C47.9279 26.7784 47.9404 26.7796 47.952 26.7835C47.9637 26.7874 47.9743 26.794 47.983 26.8027C47.9917 26.8114 47.9983 26.822 48.0022 26.8337C48.0062 26.8454 48.0074 26.8578 48.0057 26.87V33.11C48.0074 33.1222 48.0062 33.1346 48.0022 33.1463C47.9983 33.158 47.9917 33.1686 47.983 33.1773C47.9743 33.186 47.9637 33.1926 47.952 33.1965C47.9404 33.2005 47.9279 33.2017 47.9157 33.2H47.2157C47.2035 33.2017 47.1911 33.2005 47.1794 33.1965C47.1677 33.1926 47.1571 33.186 47.1484 33.1773C47.1397 33.1686 47.1331 33.158 47.1292 33.1463C47.1253 33.1346 47.1241 33.1222 47.1257 33.11Z" fill="#141414"/>
<path d="M49.8152 32.87C49.6826 32.7398 49.5779 32.5841 49.5074 32.4122C49.4369 32.2402 49.4021 32.0558 49.4052 31.87V29.97C49.3883 29.7663 49.4163 29.5613 49.4871 29.3696C49.5579 29.1778 49.6699 29.0039 49.8152 28.86C49.9675 28.7217 50.1459 28.615 50.3399 28.5464C50.5339 28.4777 50.7397 28.4483 50.9452 28.46C51.1506 28.4489 51.3562 28.4785 51.5501 28.5472C51.744 28.6158 51.9225 28.7221 52.0752 28.86C52.2169 28.9969 52.3284 29.1619 52.4025 29.3445C52.4765 29.527 52.5115 29.7231 52.5052 29.92V31.82C52.5044 32.0071 52.466 32.192 52.3921 32.3639C52.3182 32.5357 52.2104 32.6908 52.0752 32.82C51.7535 33.0789 51.353 33.2201 50.9402 33.2201C50.5273 33.2201 50.1268 33.0789 49.8052 32.82L49.8152 32.87ZM51.4352 32.3C51.568 32.1486 51.6362 31.9511 51.6252 31.75V29.97C51.6346 29.7721 51.5664 29.5784 51.4352 29.43C51.3723 29.3596 51.2953 29.3032 51.2091 29.2646C51.1229 29.226 51.0296 29.206 50.9352 29.206C50.8407 29.206 50.7474 29.226 50.6612 29.2646C50.575 29.3032 50.498 29.3596 50.4352 29.43C50.311 29.5819 50.2469 29.774 50.2552 29.97V31.75C50.2454 31.9493 50.3095 32.1451 50.4352 32.3C50.4996 32.3678 50.5772 32.4218 50.6631 32.4586C50.7491 32.4955 50.8416 32.5145 50.9352 32.5145C51.0287 32.5145 51.1212 32.4955 51.2072 32.4586C51.2931 32.4218 51.3707 32.3678 51.4352 32.3Z" fill="#141414"/>
<path d="M56.1059 28.56H56.8159C56.8281 28.5583 56.8406 28.5595 56.8522 28.5635C56.8639 28.5674 56.8745 28.574 56.8832 28.5827C56.8919 28.5914 56.8985 28.602 56.9025 28.6137C56.9064 28.6253 56.9076 28.6378 56.9059 28.65V33.06C56.9395 33.5976 56.7799 34.1296 56.4559 34.56C56.258 34.7559 56.0189 34.9052 55.7559 34.9969C55.4929 35.0886 55.2128 35.1204 54.9359 35.09H54.6959C54.6824 35.0916 54.6687 35.0901 54.6558 35.0856C54.643 35.0812 54.6313 35.0739 54.6217 35.0642C54.612 35.0546 54.6047 35.0429 54.6003 35.0301C54.5958 35.0172 54.5943 35.0035 54.5959 34.99V34.4C54.5959 34.34 54.5959 34.31 54.7059 34.31C54.8844 34.3357 55.0663 34.3222 55.239 34.2703C55.4118 34.2185 55.5711 34.1297 55.7059 34.01C55.9122 33.7191 56.0112 33.3657 55.9859 33.01V32.82C55.8864 32.9608 55.7521 33.0734 55.5962 33.147C55.4402 33.2206 55.2679 33.2526 55.0959 33.24C54.9215 33.2499 54.7471 33.2199 54.5859 33.1524C54.4248 33.0848 54.2811 32.9814 54.1659 32.85C53.9147 32.5406 53.7897 32.1477 53.8159 31.75V29.92C53.7925 29.5351 53.9098 29.1548 54.1459 28.85C54.2591 28.7188 54.401 28.6154 54.5605 28.5478C54.72 28.4801 54.8929 28.4501 55.0659 28.46C55.2379 28.4473 55.4102 28.4793 55.5662 28.5529C55.7221 28.6265 55.8564 28.7392 55.9559 28.88V28.64C55.9453 28.6201 55.9431 28.5968 55.9496 28.5752C55.9562 28.5537 55.971 28.5356 55.9909 28.525C56.0108 28.5144 56.0341 28.5121 56.0557 28.5187C56.0772 28.5252 56.0953 28.5401 56.1059 28.56ZM55.8159 32.23C55.9403 32.0821 56.0045 31.893 55.9959 31.7V29.97C56.0042 29.774 55.9401 29.5818 55.8159 29.43C55.7585 29.3617 55.6864 29.3074 55.605 29.271C55.5236 29.2346 55.435 29.2172 55.3459 29.22C55.2553 29.2164 55.1649 29.2334 55.0818 29.2698C54.9987 29.3062 54.9249 29.361 54.8659 29.43C54.7418 29.5818 54.6777 29.774 54.6859 29.97V31.7C54.6773 31.893 54.7416 32.0821 54.8659 32.23C54.9249 32.299 54.9987 32.3538 55.0818 32.3901C55.1649 32.4265 55.2553 32.4435 55.3459 32.44C55.435 32.4428 55.5236 32.4253 55.605 32.3889C55.6864 32.3526 55.7585 32.2982 55.8159 32.23Z" fill="#141414"/>
<path d="M58.106 35.0001C58.1001 34.9771 58.1001 34.953 58.106 34.9301V34.3901C58.1044 34.3779 58.1056 34.3654 58.1095 34.3538C58.1134 34.3421 58.12 34.3315 58.1287 34.3228C58.1374 34.3141 58.148 34.3075 58.1597 34.3035C58.1714 34.2996 58.1838 34.2984 58.196 34.3001C58.3567 34.2973 58.5157 34.2668 58.666 34.2101C58.7877 34.1392 58.8826 34.0303 58.936 33.9001C59.0217 33.6844 59.0821 33.4596 59.116 33.2301L57.916 28.6301C57.916 28.6301 57.916 28.5601 58.006 28.5601H58.756C58.816 28.5601 58.856 28.5601 58.856 28.6401L59.526 31.9501L60.186 28.6401C60.1873 28.6282 60.1908 28.6167 60.1966 28.6063C60.2023 28.5958 60.21 28.5866 60.2193 28.5792C60.2286 28.5717 60.2393 28.5662 60.2507 28.5629C60.2622 28.5596 60.2742 28.5587 60.286 28.5601H61.046C61.0571 28.5554 61.069 28.553 61.081 28.553C61.093 28.553 61.1049 28.5554 61.116 28.5601C61.1213 28.571 61.1241 28.5829 61.1241 28.5951C61.1241 28.6072 61.1213 28.6192 61.116 28.6301L59.896 33.5601C59.8166 33.886 59.6991 34.2015 59.546 34.5001C59.4396 34.6962 59.2706 34.8511 59.066 34.9401C58.7828 35.0354 58.4848 35.0795 58.186 35.0701C58.186 35.0701 58.116 35.0201 58.106 35.0001Z" fill="#141414"/>
</svg>
