<svg width="140" height="65" viewBox="0 0 140 65" fill="none" xmlns="http://www.w3.org/2000/svg">
<path d="M25.7219 0.621582V33.0005C25.8232 35.3005 25.035 37.5507 23.5221 39.2809C22.6055 40.2711 21.4864 41.0507 20.2415 41.5661C18.9966 42.0816 17.6555 42.3207 16.3099 42.2672C14.9642 42.322 13.6226 42.0834 12.3776 41.5678C11.1325 41.0523 10.0135 40.2721 9.09764 39.2809C7.58472 37.5507 6.79656 35.3005 6.89791 33.0005V0.621582H0.010214V33.0005C-0.0660115 35.0187 0.285097 37.0301 1.04036 38.902C1.79562 40.7739 2.93786 42.4638 4.39165 43.8599C7.65326 46.8473 11.9513 48.4327 16.364 48.276C18.5495 48.3655 20.7311 48.0198 22.7828 47.2587C24.8345 46.4976 26.7159 45.3363 28.3183 43.8418C29.7653 42.4396 30.9042 40.7492 31.6618 38.8791C32.4195 37.0089 32.7792 35.0004 32.7177 32.9825V0.621582H25.7219Z" fill="#008253"/>
<path d="M75.1979 13.6351V36.0234C75.2709 36.9071 75.1469 37.796 74.8351 38.6256C74.5232 39.4552 74.0312 40.2046 73.3948 40.8196C72.1276 41.8118 70.5664 42.3506 68.9593 42.3506C67.3522 42.3506 65.7911 41.8118 64.5238 40.8196C63.8971 40.1997 63.4152 39.448 63.1128 38.6186C62.8104 37.7893 62.6949 36.9029 62.7748 36.0234V13.6169H56.0494V36.0234C56.1224 36.9071 55.9984 37.796 55.6866 38.6256C55.3747 39.4552 54.8827 40.2046 54.2463 40.8196C52.979 41.8118 51.4179 42.3506 49.8108 42.3506C48.2036 42.3506 46.6425 41.8118 45.3753 40.8196C44.7389 40.2046 44.2469 39.4552 43.935 38.6256C43.6232 37.796 43.4992 36.9071 43.5722 36.0234V13.6169H36.8828V36.0234C36.8715 37.6842 37.2112 39.3285 37.8794 40.8478C38.5476 42.3672 39.5292 43.727 40.7594 44.8376C43.2002 47.1263 46.4354 48.3668 49.7747 48.2945C52.9937 48.2445 56.0688 46.9475 58.3573 44.6747C58.7206 44.3181 59.0524 43.9306 59.349 43.5164C59.6453 43.942 59.977 44.3416 60.3407 44.7109C61.4555 45.8623 62.7901 46.7762 64.2647 47.3982C65.7393 48.0201 67.3237 48.3373 68.9232 48.3307C72.2659 48.4227 75.5083 47.1794 77.9385 44.8738C79.1841 43.7617 80.1825 42.3989 80.869 40.8742C81.5555 39.3494 81.9147 37.6967 81.9233 36.0234V13.6169L75.1979 13.6351Z" fill="#008253"/>
<path d="M106.715 17.0736C104.279 14.7782 101.041 13.5366 97.7001 13.6167H89.8208L89.929 18.9559V19.5712H97.646C99.2693 19.5116 100.857 20.0599 102.1 21.1096C103.199 22.087 103.776 24.1141 103.903 27.1185C102.139 25.7017 99.9411 24.9408 97.6821 24.9647C96.0702 24.9059 94.4627 25.1683 92.9524 25.7368C91.4421 26.3053 90.0591 27.1686 88.8832 28.2768C87.7347 29.3413 86.8207 30.6351 86.1997 32.0751C85.5787 33.5151 85.2644 35.0695 85.2771 36.6385C85.2439 39.6968 86.4171 42.644 88.5406 44.8373C89.7179 46.0168 91.1285 46.9355 92.6813 47.534C94.2341 48.1326 95.8947 48.3977 97.5559 48.3123C99.8161 48.4043 102.031 47.6569 103.776 46.2129V48.3123H110.52V25.8878C110.531 24.2338 110.199 22.5956 109.544 21.0779C108.889 19.5602 107.925 18.1964 106.715 17.0736ZM103.794 36.7109C103.777 37.4756 103.608 38.2291 103.299 38.9281C102.989 39.627 102.545 40.2575 101.991 40.7832C101.407 41.3385 100.714 41.7667 99.9574 42.0407C99.2003 42.3148 98.395 42.4289 97.592 42.3759C96.8199 42.4215 96.0467 42.3068 95.3208 42.039C94.5948 41.7712 93.9317 41.356 93.3728 40.8194C92.3274 39.6852 91.7701 38.1828 91.8222 36.6385C91.8115 35.8786 91.9558 35.1245 92.2462 34.4226C92.5366 33.7207 92.9668 33.0858 93.5106 32.5569C94.0544 32.0281 94.7001 31.6164 95.4082 31.3472C96.1162 31.078 96.8717 30.957 97.628 30.9917C99.2119 30.9658 100.748 31.5337 101.937 32.5844C102.538 33.086 103.018 33.7181 103.339 34.433C103.661 35.1479 103.817 35.9268 103.794 36.7109Z" fill="#008253"/>
<path d="M133.383 13.6169V36.132C133.451 37.0152 133.324 37.9026 133.013 38.7315C132.701 39.5603 132.212 40.3102 131.58 40.9282C130.354 41.9137 128.831 42.4507 127.261 42.4507C125.691 42.4507 124.168 41.9137 122.943 40.9282C122.311 40.3102 121.821 39.5603 121.51 38.7315C121.198 37.9026 121.072 37.0152 121.14 36.132V13.6169H114.667V36.132C114.645 37.7885 114.971 39.4311 115.623 40.9528C116.276 42.4745 117.24 43.8414 118.453 44.9643C120.835 47.2432 124.017 48.4857 127.306 48.4212C129.52 48.5382 131.694 47.7999 133.383 46.3579V48.4031C133.449 49.2862 133.322 50.1732 133.011 51.0019C132.699 51.8305 132.211 52.5806 131.58 53.1993C130.366 54.2253 128.821 54.7722 127.234 54.7377H120.328L117.876 59.9502V60.7103H127.342C128.977 60.7563 130.605 60.4724 132.129 59.8755C133.653 59.2786 135.042 58.3808 136.213 57.2354C137.415 56.1034 138.372 54.7349 139.023 53.2153C139.675 51.6956 140.007 50.0574 140 48.4031V13.6169H133.383Z" fill="#008253"/>
<path d="M43.6444 49.2535V50.3032C43.6473 50.3253 43.6452 50.3478 43.6381 50.3689C43.631 50.39 43.6191 50.4092 43.6034 50.425C43.5877 50.4408 43.5686 50.4527 43.5475 50.4598C43.5265 50.4669 43.5041 50.4691 43.4821 50.4661H41.3184V60.4748C41.3214 60.4969 41.3192 60.5194 41.3121 60.5405C41.305 60.5617 41.2932 60.5808 41.2775 60.5966C41.2618 60.6124 41.2426 60.6243 41.2216 60.6314C41.2005 60.6385 41.1781 60.6407 41.1561 60.6377H39.912C39.7858 60.6377 39.7317 60.6377 39.7317 60.4748V50.5023H37.532C37.51 50.5053 37.4876 50.5031 37.4665 50.496C37.4455 50.4889 37.4264 50.477 37.4107 50.4612C37.395 50.4454 37.3831 50.4262 37.376 50.4051C37.3689 50.384 37.3667 50.3615 37.3697 50.3394V49.2897C37.3667 49.2676 37.3689 49.2451 37.376 49.224C37.3831 49.2029 37.395 49.1837 37.4107 49.1679C37.4264 49.1521 37.4455 49.1402 37.4665 49.1331C37.4876 49.126 37.51 49.1238 37.532 49.1268H43.4821C43.501 49.1243 43.5203 49.1255 43.5388 49.1306C43.5573 49.1356 43.5745 49.1442 43.5897 49.156C43.6048 49.1678 43.6174 49.1825 43.6268 49.1992C43.6362 49.216 43.6421 49.2344 43.6444 49.2535Z" fill="#141414"/>
<path d="M50.2795 57.1444H46.5472V58.0493C46.5301 58.4075 46.6531 58.7582 46.8898 59.0267C46.9933 59.1502 47.1233 59.2485 47.27 59.3144C47.4168 59.3802 47.5765 59.4118 47.7372 59.4067C48.0204 59.4165 48.2969 59.3196 48.5125 59.1353C48.7264 58.9415 48.8666 58.6792 48.9092 58.3932C48.9245 58.3536 48.952 58.32 48.9877 58.2972C49.0234 58.2744 49.0654 58.2636 49.1076 58.2665H50.3156C50.3156 58.2665 50.4238 58.2665 50.4418 58.2665C50.4514 58.2862 50.4564 58.3079 50.4564 58.3299C50.4564 58.3518 50.4514 58.3735 50.4418 58.3932C50.3885 59.0397 50.092 59.6415 49.6124 60.0764C49.0324 60.4841 48.337 60.6936 47.6292 60.6741C46.9214 60.6545 46.2386 60.4069 45.6817 59.9678C45.4276 59.7199 45.2286 59.4208 45.0981 59.0901C44.9676 58.7594 44.9084 58.4047 44.9245 58.0493V54.6105C44.9095 54.2553 44.9693 53.9009 45.0997 53.5704C45.2302 53.2399 45.4285 52.9406 45.6817 52.6921C46.2545 52.2231 46.971 51.967 47.7102 51.967C48.4493 51.967 49.1658 52.2231 49.7386 52.6921C49.9895 52.9415 50.1851 53.2414 50.3125 53.572C50.4399 53.9026 50.4963 54.2565 50.4779 54.6105V56.8186C50.4992 56.8317 50.5177 56.8488 50.5324 56.8691C50.5471 56.8894 50.5577 56.9123 50.5636 56.9367C50.5694 56.9611 50.5705 56.9864 50.5666 57.0111C50.5627 57.0359 50.554 57.0596 50.541 57.081C50.528 57.1024 50.5109 57.121 50.4907 57.1358C50.4705 57.1506 50.4476 57.1612 50.4233 57.1671C50.3991 57.1729 50.3739 57.174 50.3492 57.1701C50.3245 57.1662 50.3009 57.1575 50.2795 57.1444ZM46.8177 53.8866C46.5809 54.1551 46.458 54.5058 46.4751 54.8639V55.7508H48.7469V54.8639C48.7618 54.5092 48.6463 54.1614 48.4224 53.8866C48.3134 53.7602 48.1772 53.6604 48.0242 53.5945C47.8712 53.5287 47.7052 53.4986 47.5389 53.5065C47.3997 53.5192 47.2644 53.5593 47.1406 53.6245C47.0169 53.6897 46.9071 53.7788 46.8177 53.8866Z" fill="#141414"/>
<path d="M53.5432 60.1312C53.2867 59.8813 53.0864 59.5792 52.9558 59.2452C52.8252 58.9112 52.7672 58.553 52.7859 58.1946V54.7739C52.771 54.4187 52.8307 54.0643 52.9612 53.7338C53.0916 53.4033 53.2899 53.104 53.5432 52.8555C53.814 52.6047 54.1324 52.4114 54.4794 52.287C54.8264 52.1626 55.1948 52.1097 55.5626 52.1315C56.0743 52.1195 56.5814 52.2312 57.0411 52.4573C57.4404 52.6455 57.777 52.9454 58.0105 53.3211C58.244 53.6968 58.3644 54.1321 58.3573 54.5748V54.792C58.3573 54.9187 58.3573 54.973 58.1951 54.973H56.9329C56.9109 54.976 56.8885 54.9739 56.8675 54.9667C56.8464 54.9596 56.8273 54.9477 56.8116 54.9319C56.7959 54.9162 56.784 54.897 56.7769 54.8758C56.7698 54.8547 56.7677 54.8322 56.7706 54.8101V54.6472C56.7691 54.3355 56.6461 54.0367 56.4281 53.8147C56.3149 53.7011 56.1797 53.612 56.0308 53.5528C55.882 53.4937 55.7226 53.4658 55.5626 53.4708C55.3991 53.4643 55.2363 53.4952 55.0864 53.561C54.9364 53.6268 54.8034 53.726 54.6971 53.8509C54.4732 54.1257 54.3577 54.4735 54.3726 54.8282V58.0679C54.3577 58.4226 54.4732 58.7705 54.6971 59.0453C54.79 59.1935 54.9172 59.3171 55.0679 59.4053C55.2186 59.4935 55.3883 59.5439 55.5626 59.5521C55.7226 59.5571 55.882 59.5292 56.0308 59.4701C56.1797 59.4109 56.3149 59.3218 56.4281 59.2082C56.6461 58.9862 56.7691 58.6874 56.7706 58.3756V58.2127C56.7677 58.1906 56.7698 58.1681 56.7769 58.147C56.784 58.1259 56.7959 58.1067 56.8116 58.0909C56.8273 58.0752 56.8464 58.0633 56.8675 58.0561C56.8885 58.049 56.9109 58.0469 56.9329 58.0498H58.1951C58.2171 58.0469 58.2395 58.049 58.2605 58.0561C58.2816 58.0633 58.3007 58.0752 58.3164 58.0909C58.3321 58.1067 58.344 58.1259 58.3511 58.147C58.3582 58.1681 58.3603 58.1906 58.3573 58.2127V58.4661C58.3746 58.8055 58.3156 59.1445 58.1845 59.4578C58.0534 59.7711 57.8536 60.0508 57.6001 60.276C57.0345 60.7602 56.3047 61.0065 55.5626 60.9638C55.1877 60.9671 54.8159 60.8951 54.4691 60.7522C54.1223 60.6092 53.8075 60.3981 53.5432 60.1312Z" fill="#141414"/>
<path d="M65.7137 52.8553C66.1091 53.4403 66.2994 54.1407 66.2546 54.8461V60.5473C66.2576 60.5694 66.2555 60.5919 66.2484 60.613C66.2413 60.6341 66.2294 60.6533 66.2137 60.6691C66.198 60.6849 66.1789 60.6968 66.1578 60.7039C66.1368 60.711 66.1144 60.7132 66.0924 60.7102H64.8483C64.7221 60.7102 64.668 60.7102 64.668 60.5473V54.9909C64.689 54.6074 64.588 54.2271 64.3795 53.905C64.2816 53.7797 64.1552 53.6797 64.0109 53.6136C63.8665 53.5475 63.7085 53.5171 63.5501 53.5249C63.3908 53.5177 63.232 53.5465 63.0853 53.6091C62.9386 53.6718 62.8078 53.7667 62.7026 53.8869C62.4714 54.1937 62.3507 54.5702 62.36 54.9548V60.3844C62.363 60.4065 62.3609 60.429 62.3538 60.4501C62.3467 60.4713 62.3348 60.4904 62.3191 60.5062C62.3034 60.522 62.2843 60.5339 62.2632 60.541C62.2422 60.5482 62.2198 60.5503 62.1978 60.5473H60.9717C60.9497 60.5503 60.9273 60.5482 60.9062 60.541C60.8852 60.5339 60.8661 60.522 60.8504 60.5062C60.8346 60.4904 60.8228 60.4713 60.8157 60.4501C60.8086 60.429 60.8064 60.4065 60.8094 60.3844V49.0907C60.8064 49.0686 60.8086 49.0461 60.8157 49.025C60.8228 49.0039 60.8346 48.9847 60.8504 48.9689C60.8661 48.9531 60.8852 48.9412 60.9062 48.9341C60.9273 48.927 60.9497 48.9248 60.9717 48.9278H62.2338C62.2558 48.9248 62.2782 48.927 62.2993 48.9341C62.3203 48.9412 62.3395 48.9531 62.3552 48.9689C62.3709 48.9847 62.3827 49.0039 62.3898 49.025C62.3969 49.0461 62.3991 49.0686 62.3961 49.0907V52.7105C62.5966 52.4676 62.8512 52.2754 63.1394 52.1497C63.4276 52.0239 63.7412 51.968 64.0549 51.9865C64.3821 51.9782 64.7061 52.0536 64.9963 52.2055C65.2865 52.3575 65.5334 52.5811 65.7137 52.8553Z" fill="#141414"/>
<path d="M73.8455 52.8551C74.2472 53.4379 74.4439 54.1384 74.4044 54.846V60.5472C74.4044 60.6558 74.4044 60.71 74.2241 60.71H72.98C72.958 60.713 72.9356 60.7109 72.9146 60.7037C72.8935 60.6966 72.8744 60.6847 72.8587 60.669C72.843 60.6532 72.8311 60.634 72.824 60.6129C72.8169 60.5917 72.8148 60.5693 72.8177 60.5472V54.9908C72.8335 54.6053 72.7261 54.2248 72.5112 53.9049C72.4134 53.7795 72.2869 53.6796 72.1426 53.6134C71.9983 53.5473 71.8403 53.5169 71.6818 53.5248C71.5226 53.5175 71.3637 53.5463 71.2171 53.6089C71.0704 53.6716 70.9396 53.7665 70.8344 53.8867C70.6104 54.1973 70.4904 54.5712 70.4918 54.9546V60.3843C70.4948 60.4064 70.4926 60.4289 70.4855 60.45C70.4784 60.4711 70.4666 60.4903 70.4509 60.506C70.4351 60.5218 70.416 60.5337 70.395 60.5409C70.3739 60.548 70.3515 60.5502 70.3295 60.5472H69.0674C69.0454 60.5502 69.023 60.548 69.0019 60.5409C68.9809 60.5337 68.9618 60.5218 68.9461 60.506C68.9303 60.4903 68.9185 60.4711 68.9114 60.45C68.9043 60.4289 68.9021 60.4064 68.9051 60.3843V52.2579C68.9021 52.2358 68.9043 52.2133 68.9114 52.1922C68.9185 52.171 68.9303 52.1518 68.9461 52.1361C68.9618 52.1203 68.9809 52.1084 69.0019 52.1013C69.023 52.0941 69.0454 52.092 69.0674 52.095H70.3295C70.3515 52.092 70.3739 52.0941 70.395 52.1013C70.416 52.1084 70.4351 52.1203 70.4509 52.1361C70.4666 52.1518 70.4784 52.171 70.4855 52.1922C70.4926 52.2133 70.4948 52.2358 70.4918 52.2579V52.7103C70.6932 52.4685 70.948 52.2772 71.2359 52.1515C71.5239 52.0258 71.8371 51.9693 72.1506 51.9864C72.4838 51.9718 72.8151 52.0441 73.1122 52.1964C73.4092 52.3486 73.6619 52.5756 73.8455 52.8551Z" fill="#141414"/>
<path d="M77.6319 60.113C77.3778 59.8652 77.1788 59.566 77.0483 59.2353C76.9178 58.9046 76.8586 58.5499 76.8746 58.1946V54.7739C76.8585 54.4169 76.9195 54.0606 77.0533 53.7295C77.1871 53.3984 77.3906 53.1002 77.65 52.8554C77.922 52.6064 78.2406 52.4141 78.5872 52.2898C78.9339 52.1655 79.3018 52.1117 79.6694 52.1314C80.0427 52.1098 80.4165 52.1627 80.7693 52.287C81.1221 52.4113 81.4469 52.6044 81.7249 52.8554C81.9781 53.1039 82.1764 53.4032 82.3069 53.7337C82.4374 54.0643 82.4971 54.4186 82.4822 54.7739V58.1946C82.4982 58.5499 82.439 58.9046 82.3085 59.2353C82.178 59.566 81.9791 59.8652 81.7249 60.113C81.145 60.5816 80.4229 60.8371 79.6784 60.8371C78.9339 60.8371 78.2118 60.5816 77.6319 60.113ZM80.5529 59.0814C80.7924 58.8073 80.9154 58.45 80.8955 58.086V54.8644C80.9125 54.5062 80.7896 54.1555 80.5529 53.887C80.4396 53.7595 80.3007 53.6574 80.1453 53.5876C79.9899 53.5177 79.8216 53.4816 79.6514 53.4816C79.4811 53.4816 79.3128 53.5177 79.1574 53.5876C79.0021 53.6574 78.8632 53.7595 78.7498 53.887C78.5209 54.1601 78.3991 54.5076 78.4072 54.8644V58.086C78.3947 58.4489 78.5167 58.8036 78.7498 59.0814C78.866 59.2041 79.0059 59.3017 79.1609 59.3685C79.3158 59.4352 79.4827 59.4696 79.6514 59.4696C79.82 59.4696 79.9869 59.4352 80.1419 59.3685C80.2968 59.3017 80.4367 59.2041 80.5529 59.0814Z" fill="#141414"/>
<path d="M84.9705 60.547V49.2533C84.9676 49.2312 84.9697 49.2087 84.9768 49.1876C84.9839 49.1665 84.9958 49.1473 85.0115 49.1315C85.0272 49.1157 85.0463 49.1038 85.0674 49.0967C85.0884 49.0896 85.1108 49.0874 85.1328 49.0904H86.395C86.417 49.0874 86.4394 49.0896 86.4604 49.0967C86.4815 49.1038 86.5006 49.1157 86.5163 49.1315C86.532 49.1473 86.5439 49.1665 86.551 49.1876C86.5581 49.2087 86.5602 49.2312 86.5572 49.2533V60.547C86.5602 60.5691 86.5581 60.5916 86.551 60.6127C86.5439 60.6339 86.532 60.6531 86.5163 60.6688C86.5006 60.6846 86.4815 60.6965 86.4604 60.7036C86.4394 60.7108 86.417 60.7129 86.395 60.7099H85.1328C85.1108 60.7129 85.0884 60.7108 85.0674 60.7036C85.0463 60.6965 85.0272 60.6846 85.0115 60.6688C84.9958 60.6531 84.9839 60.6339 84.9768 60.6127C84.9697 60.5916 84.9676 60.5691 84.9705 60.547Z" fill="#141414"/>
<path d="M89.8207 60.1129C89.5688 59.8641 89.3727 59.5644 89.2452 59.2336C89.1177 58.9028 89.0619 58.5485 89.0814 58.1944V54.7737C89.0642 54.4198 89.1211 54.0662 89.2484 53.7358C89.3757 53.4053 89.5707 53.1053 89.8207 52.8552C90.0954 52.6048 90.4171 52.4118 90.7669 52.2875C91.1167 52.1632 91.4877 52.1101 91.8582 52.1312C92.2286 52.1111 92.5993 52.1647 92.9489 52.289C93.2986 52.4132 93.6203 52.6056 93.8956 52.8552C94.1512 53.1029 94.3523 53.4015 94.4858 53.732C94.6193 54.0624 94.6824 54.4173 94.6709 54.7737V58.1944C94.6847 58.5511 94.6227 58.9066 94.489 59.2374C94.3553 59.5682 94.153 59.8666 93.8956 60.1129C93.3157 60.5815 92.5936 60.837 91.8491 60.837C91.1047 60.837 90.3826 60.5815 89.8027 60.1129H89.8207ZM92.7417 59.0812C92.9812 58.8072 93.1042 58.4498 93.0842 58.0858V54.8642C93.1013 54.506 92.9784 54.1553 92.7417 53.8868C92.6283 53.7593 92.4894 53.6573 92.3341 53.5874C92.1787 53.5175 92.0104 53.4814 91.8401 53.4814C91.6699 53.4814 91.5016 53.5175 91.3462 53.5874C91.1908 53.6573 91.0519 53.7593 90.9386 53.8868C90.7147 54.1617 90.5992 54.5095 90.614 54.8642V58.0858C90.5964 58.4464 90.712 58.8009 90.9386 59.0812C91.0548 59.2039 91.1947 59.3016 91.3496 59.3683C91.5046 59.435 91.6715 59.4694 91.8401 59.4694C92.0088 59.4694 92.1756 59.435 92.3306 59.3683C92.4856 59.3016 92.6254 59.2039 92.7417 59.0812Z" fill="#141414"/>
<path d="M101.162 52.3121H102.442C102.464 52.3092 102.487 52.3113 102.508 52.3184C102.529 52.3256 102.548 52.3375 102.563 52.3532C102.579 52.369 102.591 52.3882 102.598 52.4093C102.605 52.4304 102.607 52.4529 102.604 52.475V60.5109C102.663 61.4754 102.382 62.4297 101.811 63.2077C101.452 63.5592 101.021 63.8273 100.547 63.9931C100.073 64.1588 99.5694 64.2182 99.0704 64.1669H98.6377C98.5295 64.1669 98.4574 64.1669 98.4574 63.9859V62.9181C98.4574 62.8095 98.4574 62.7552 98.6557 62.7552C98.9775 62.8018 99.3056 62.7773 99.617 62.6835C99.9284 62.5897 100.216 62.4289 100.459 62.2122C100.831 61.6858 101.009 61.0461 100.964 60.4024V60.0585C100.784 60.3133 100.542 60.5172 100.261 60.6504C99.9797 60.7836 99.669 60.8416 99.3589 60.8186C99.0444 60.8366 98.7299 60.7824 98.4393 60.66C98.1488 60.5377 97.8898 60.3506 97.6821 60.1128C97.2655 59.5641 97.0606 58.8827 97.1051 58.1943V54.8822C97.0629 54.1856 97.2744 53.4974 97.7001 52.9456C97.9042 52.7082 98.1599 52.521 98.4476 52.3986C98.7352 52.2762 99.047 52.2219 99.3589 52.2398C99.669 52.2168 99.9797 52.2747 100.261 52.4079C100.542 52.5411 100.784 52.7451 100.964 52.9999V52.5655C100.93 52.5391 100.909 52.5005 100.903 52.458C100.898 52.4156 100.91 52.3729 100.937 52.3393C100.963 52.3057 101.001 52.284 101.044 52.2789C101.086 52.2738 101.129 52.2857 101.162 52.3121ZM100.675 59.0087C100.902 58.7356 101.018 58.3866 101 58.0314V54.9184C101.015 54.5637 100.899 54.2159 100.675 53.941C100.572 53.8175 100.442 53.7192 100.295 53.6533C100.148 53.5875 99.9884 53.5559 99.8277 53.561C99.6642 53.5545 99.5014 53.5853 99.3515 53.6512C99.2016 53.717 99.0685 53.8161 98.9623 53.941C98.7384 54.2159 98.6229 54.5637 98.6377 54.9184V58.0314C98.6194 58.3866 98.7353 58.7356 98.9623 59.0087C99.0685 59.1337 99.2016 59.2328 99.3515 59.2986C99.5014 59.3644 99.6642 59.3953 99.8277 59.3888C99.9867 59.382 100.142 59.3394 100.283 59.2642C100.423 59.189 100.545 59.0832 100.639 58.9544L100.675 59.0087Z" fill="#141414"/>
<path d="M104.768 63.9679C104.757 63.9264 104.757 63.8828 104.768 63.8412V62.8639C104.765 62.8418 104.767 62.8193 104.774 62.7982C104.781 62.7771 104.793 62.7579 104.809 62.7421C104.825 62.7263 104.844 62.7144 104.865 62.7073C104.886 62.7002 104.908 62.698 104.93 62.701C105.22 62.6959 105.507 62.6408 105.778 62.5381C105.997 62.4099 106.168 62.2127 106.265 61.977C106.419 61.5868 106.528 61.1798 106.589 60.7644L104.479 52.5294C104.479 52.5294 104.479 52.4027 104.642 52.4027H105.994C106.102 52.4027 106.174 52.4027 106.174 52.5475L107.382 58.5382L108.572 52.5475C108.575 52.5261 108.581 52.5053 108.591 52.4864C108.602 52.4674 108.616 52.4508 108.632 52.4373C108.649 52.4238 108.669 52.4138 108.689 52.4079C108.71 52.402 108.731 52.4002 108.753 52.4027H110.123C110.143 52.3942 110.165 52.3899 110.186 52.3899C110.208 52.3899 110.229 52.3942 110.249 52.4027C110.259 52.4224 110.264 52.4441 110.264 52.4661C110.264 52.488 110.259 52.5096 110.249 52.5294L107.995 61.3617C107.852 61.9516 107.64 62.5227 107.364 63.063C107.173 63.4179 106.868 63.6982 106.499 63.8593C105.987 64.0243 105.45 64.0978 104.912 64.0765C104.912 64.0765 104.786 64.0041 104.768 63.9679Z" fill="#141414"/>
</svg>
