<svg width="260" height="120" viewBox="0 0 260 120" fill="none" xmlns="http://www.w3.org/2000/svg">
<path d="M47.7692 0.977112V61.1095C47.9574 65.3807 46.4937 69.5597 43.684 72.7729C41.9817 74.612 39.9033 76.0597 37.5914 77.017C35.2795 77.9743 32.7887 78.4184 30.2898 78.3189C27.7906 78.4207 25.2991 77.9776 22.9869 77.0202C20.6746 76.0628 18.5965 74.6138 16.8956 72.7729C14.0859 69.5597 12.6222 65.3807 12.8104 61.1095V0.977112H0.0189689V61.1095C-0.122593 64.8575 0.529466 68.593 1.93209 72.0694C3.33472 75.5458 5.45602 78.684 8.15593 81.2768C14.2132 86.825 22.1954 89.7693 30.3902 89.4782C34.4491 89.6444 38.5005 89.0023 42.3109 87.5889C46.1213 86.1755 49.6152 84.0188 52.5911 81.2433C55.2784 78.6392 57.3935 75.4998 58.8006 72.0267C60.2076 68.5536 60.8756 64.8235 60.7615 61.0759V0.977112H47.7692Z" fill="white"/>
<path d="M139.653 25.145V66.7233C139.789 68.3644 139.558 70.0152 138.979 71.5559C138.4 73.0966 137.486 74.4885 136.305 75.6306C133.951 77.4731 131.052 78.4738 128.067 78.4738C125.082 78.4738 122.183 77.4731 119.83 75.6306C118.666 74.4793 117.771 73.0833 117.209 71.5431C116.648 70.0028 116.433 68.3567 116.582 66.7233V25.1113H104.092V66.7233C104.227 68.3644 103.997 70.0152 103.418 71.5559C102.839 73.0966 101.925 74.4885 100.743 75.6306C98.3895 77.4731 95.4904 78.4738 92.5057 78.4738C89.521 78.4738 86.6218 77.4731 84.2682 75.6306C83.0864 74.4885 82.1727 73.0966 81.5935 71.5559C81.0143 70.0152 80.7841 68.3644 80.9197 66.7233V25.1113H68.4966V66.7233C68.4756 69.8076 69.1063 72.8614 70.3473 75.683C71.5883 78.5046 73.4113 81.03 75.696 83.0925C80.2288 87.343 86.2371 89.6469 92.4387 89.5125C98.4167 89.4196 104.128 87.011 108.378 82.79C109.052 82.1278 109.669 81.408 110.219 80.6388C110.77 81.4293 111.386 82.1714 112.061 82.8572C114.131 84.9955 116.61 86.6929 119.349 87.8479C122.087 89.0029 125.03 89.5919 128 89.5797C134.208 89.7505 140.23 87.4415 144.743 83.1597C147.056 81.0944 148.91 78.5636 150.185 75.7319C151.46 72.9001 152.127 69.8308 152.143 66.7233V25.1113L139.653 25.145Z" fill="white"/>
<path d="M198.186 31.5307C193.661 27.2678 187.647 24.9619 181.443 25.1107H166.81L167.011 35.0264V36.1692H181.342C184.357 36.0583 187.305 37.0766 189.613 39.0262C191.656 40.8413 192.728 44.6059 192.962 50.1855C189.686 47.5543 185.605 46.1411 181.409 46.1856C178.416 46.0763 175.431 46.5637 172.626 47.6194C169.821 48.6752 167.252 50.2785 165.069 52.3367C162.936 54.3137 161.238 56.7164 160.085 59.3906C158.932 62.0649 158.348 64.9516 158.372 67.8655C158.31 73.5451 160.489 79.0187 164.432 83.0919C166.619 85.2824 169.238 86.9885 172.122 88.1001C175.006 89.2117 178.09 89.704 181.175 89.5454C185.373 89.7163 189.486 88.3282 192.728 85.6465V89.5454H205.251V47.8998C205.272 44.8281 204.655 41.7858 203.438 38.9672C202.222 36.1486 200.433 33.6158 198.186 31.5307ZM192.761 68C192.728 69.4201 192.415 70.8195 191.84 72.1176C191.266 73.4156 190.44 74.5866 189.412 75.5628C188.327 76.5941 187.041 77.3892 185.635 77.8982C184.229 78.4072 182.733 78.6191 181.242 78.5206C179.808 78.6054 178.372 78.3924 177.024 77.8951C175.676 77.3977 174.444 76.6266 173.406 75.63C171.465 73.5237 170.43 70.7334 170.527 67.8655C170.507 66.4542 170.775 65.0538 171.314 63.7503C171.853 62.4467 172.653 61.2676 173.662 60.2854C174.672 59.3033 175.871 58.5387 177.186 58.0388C178.501 57.5389 179.904 57.3142 181.309 57.3785C184.25 57.3305 187.104 58.3852 189.312 60.3364C190.428 61.268 191.318 62.4419 191.916 63.7696C192.513 65.0972 192.802 66.5438 192.761 68Z" fill="white"/>
<path d="M247.711 25.1113V66.925C247.837 68.5653 247.602 70.2133 247.024 71.7526C246.445 73.2918 245.536 74.6846 244.362 75.8323C242.087 77.6625 239.258 78.6598 236.342 78.6598C233.427 78.6598 230.598 77.6625 228.323 75.8323C227.148 74.6846 226.24 73.2918 225.661 71.7526C225.082 70.2133 224.848 68.5653 224.974 66.925V25.1113H212.953V66.925C212.912 70.0014 213.517 73.0519 214.729 75.8779C215.94 78.704 217.731 81.2424 219.985 83.3278C224.407 87.5601 230.317 89.8675 236.426 89.7478C240.537 89.9651 244.575 88.5939 247.711 85.916V89.7141C247.834 91.3542 247.599 93.0016 247.02 94.5405C246.442 96.0793 245.534 97.4723 244.362 98.6214C242.108 100.527 239.239 101.543 236.292 101.478H223.467L218.913 111.159V112.57H236.493C239.53 112.656 242.552 112.129 245.382 111.02C248.212 109.912 250.792 108.244 252.968 106.117C255.2 104.015 256.977 101.473 258.186 98.6511C259.396 95.8288 260.014 92.7865 260 89.7141V25.1113H247.711Z" fill="white"/>
<path d="M81.0538 91.2934V93.2429C81.0593 93.284 81.0553 93.3257 81.0421 93.3649C81.0289 93.4042 81.0069 93.4398 80.9777 93.4691C80.9486 93.4984 80.9131 93.5205 80.874 93.5337C80.8349 93.547 80.7933 93.551 80.7524 93.5454H76.7342V112.133C76.7397 112.174 76.7357 112.216 76.7225 112.255C76.7093 112.294 76.6873 112.33 76.6581 112.359C76.6289 112.388 76.5934 112.411 76.5544 112.424C76.5153 112.437 76.4737 112.441 76.4328 112.436H74.1223C73.8879 112.436 73.7874 112.436 73.7874 112.133V93.6127H69.7022C69.6613 93.6182 69.6197 93.6142 69.5807 93.601C69.5416 93.5877 69.5061 93.5656 69.4769 93.5363C69.4477 93.5071 69.4257 93.4714 69.4125 93.4322C69.3993 93.393 69.3953 93.3512 69.4009 93.3102V91.3606C69.3953 91.3196 69.3993 91.2779 69.4125 91.2386C69.4257 91.1994 69.4477 91.1637 69.4769 91.1345C69.5061 91.1052 69.5416 91.0831 69.5807 91.0698C69.6197 91.0566 69.6613 91.0526 69.7022 91.0582H80.7524C80.7876 91.0535 80.8234 91.0558 80.8577 91.0651C80.892 91.0744 80.9241 91.0905 80.9522 91.1124C80.9802 91.1343 81.0037 91.1616 81.0211 91.1927C81.0385 91.2238 81.0496 91.258 81.0538 91.2934Z" fill="white"/>
<path d="M93.3764 105.948H86.4449V107.629C86.4132 108.294 86.6414 108.945 87.0811 109.444C87.2732 109.673 87.5147 109.856 87.7873 109.978C88.0599 110.1 88.3565 110.159 88.6549 110.15C89.1807 110.168 89.6942 109.988 90.0948 109.646C90.4919 109.286 90.7523 108.799 90.8315 108.267C90.8599 108.194 90.9109 108.131 90.9772 108.089C91.0434 108.047 91.1214 108.027 91.1998 108.032H93.4433C93.4433 108.032 93.6442 108.032 93.6777 108.032C93.6955 108.069 93.7047 108.109 93.7047 108.15C93.7047 108.191 93.6955 108.231 93.6777 108.267C93.5787 109.468 93.028 110.586 92.1374 111.393C91.0601 112.15 89.7688 112.54 88.4543 112.503C87.1397 112.467 85.8717 112.007 84.8376 111.192C84.3655 110.731 83.9961 110.176 83.7537 109.562C83.5113 108.947 83.4013 108.289 83.4312 107.629V101.242C83.4035 100.583 83.5144 99.9246 83.7567 99.3108C83.999 98.6969 84.3673 98.1411 84.8376 97.6795C85.9013 96.8087 87.232 96.3331 88.6047 96.3331C89.9774 96.3331 91.308 96.8087 92.3718 97.6795C92.8378 98.1428 93.201 98.6997 93.4376 99.3137C93.6742 99.9277 93.7788 100.585 93.7447 101.242V105.343C93.7843 105.367 93.8187 105.399 93.846 105.437C93.8733 105.475 93.893 105.517 93.9039 105.562C93.9147 105.608 93.9166 105.655 93.9094 105.701C93.9022 105.747 93.8861 105.791 93.8619 105.83C93.8377 105.87 93.806 105.905 93.7685 105.932C93.731 105.96 93.6885 105.979 93.6434 105.99C93.5983 106.001 93.5515 106.003 93.5057 105.996C93.4599 105.989 93.4159 105.972 93.3764 105.948ZM86.9472 99.8979C86.5075 100.397 86.2792 101.048 86.3109 101.713V103.36H90.5301V101.713C90.5577 101.054 90.3432 100.408 89.9274 99.8979C89.7249 99.6633 89.4721 99.4778 89.1879 99.3555C88.9036 99.2333 88.5954 99.1774 88.2866 99.1921C88.0281 99.2157 87.7767 99.2901 87.5469 99.4112C87.3171 99.5324 87.1133 99.6977 86.9472 99.8979Z" fill="white"/>
<path d="M99.4373 111.495C98.9609 111.031 98.5889 110.47 98.3464 109.849C98.1038 109.229 97.9962 108.564 98.0309 107.898V101.546C98.0032 100.886 98.1141 100.228 98.3564 99.6139C98.5987 99.0001 98.967 98.4443 99.4373 97.9827C99.9403 97.5171 100.532 97.158 101.176 96.927C101.82 96.696 102.505 96.5977 103.188 96.6382C104.138 96.6159 105.08 96.8234 105.933 97.2432C106.675 97.5928 107.3 98.1498 107.734 98.8475C108.167 99.5451 108.391 100.354 108.378 101.176V101.579C108.378 101.814 108.378 101.915 108.077 101.915H105.733C105.692 101.921 105.65 101.917 105.611 101.904C105.572 101.89 105.536 101.868 105.507 101.839C105.478 101.81 105.456 101.774 105.443 101.735C105.43 101.696 105.426 101.654 105.431 101.613V101.31C105.428 100.731 105.2 100.176 104.795 99.7642C104.585 99.5532 104.334 99.3876 104.057 99.2778C103.781 99.1679 103.485 99.1161 103.188 99.1255C102.884 99.1135 102.582 99.1708 102.303 99.293C102.025 99.4153 101.778 99.5994 101.58 99.8314C101.165 100.342 100.95 100.988 100.978 101.646V107.663C100.95 108.322 101.165 108.968 101.58 109.478C101.753 109.753 101.989 109.983 102.269 110.147C102.549 110.311 102.864 110.404 103.188 110.419C103.485 110.429 103.781 110.377 104.057 110.267C104.334 110.157 104.585 109.992 104.795 109.781C105.2 109.368 105.428 108.813 105.431 108.234V107.932C105.426 107.891 105.43 107.849 105.443 107.81C105.456 107.771 105.478 107.735 105.507 107.706C105.536 107.676 105.572 107.654 105.611 107.641C105.65 107.628 105.692 107.624 105.733 107.629H108.077C108.117 107.624 108.159 107.628 108.198 107.641C108.237 107.654 108.273 107.676 108.302 107.706C108.331 107.735 108.353 107.771 108.366 107.81C108.379 107.849 108.383 107.891 108.378 107.932V108.402C108.41 109.033 108.3 109.662 108.057 110.244C107.813 110.826 107.442 111.345 106.971 111.764C105.921 112.663 104.566 113.12 103.188 113.041C102.491 113.047 101.801 112.914 101.157 112.648C100.513 112.382 99.9282 111.99 99.4373 111.495Z" fill="white"/>
<path d="M122.04 97.9827C122.774 99.0691 123.128 100.37 123.044 101.68V112.268C123.05 112.309 123.046 112.351 123.033 112.39C123.02 112.429 122.998 112.465 122.968 112.494C122.939 112.523 122.904 112.546 122.865 112.559C122.826 112.572 122.784 112.576 122.743 112.57H120.433C120.198 112.57 120.098 112.57 120.098 112.268V101.949C120.137 101.237 119.949 100.53 119.562 99.9323C119.38 99.6995 119.145 99.5139 118.877 99.3911C118.609 99.2682 118.316 99.2118 118.022 99.2264C117.726 99.2129 117.431 99.2663 117.159 99.3827C116.886 99.4991 116.643 99.6753 116.448 99.8986C116.018 100.468 115.794 101.168 115.812 101.882V111.965C115.817 112.006 115.813 112.048 115.8 112.087C115.787 112.127 115.765 112.162 115.736 112.192C115.706 112.221 115.671 112.243 115.632 112.256C115.593 112.269 115.551 112.274 115.51 112.268H113.233C113.192 112.274 113.151 112.269 113.112 112.256C113.073 112.243 113.037 112.221 113.008 112.192C112.979 112.162 112.957 112.127 112.944 112.087C112.93 112.048 112.926 112.006 112.932 111.965V90.9914C112.926 90.9503 112.93 90.9086 112.944 90.8694C112.957 90.8301 112.979 90.7945 113.008 90.7652C113.037 90.7359 113.073 90.7138 113.112 90.7006C113.151 90.6873 113.192 90.6833 113.233 90.6889H115.577C115.618 90.6833 115.66 90.6873 115.699 90.7006C115.738 90.7138 115.773 90.7359 115.803 90.7652C115.832 90.7945 115.854 90.8301 115.867 90.8694C115.88 90.9086 115.884 90.9503 115.879 90.9914V97.7138C116.251 97.2627 116.724 96.9059 117.259 96.6723C117.794 96.4387 118.377 96.335 118.959 96.3694C119.567 96.3539 120.169 96.4938 120.707 96.7761C121.246 97.0583 121.705 97.4736 122.04 97.9827Z" fill="white"/>
<path d="M137.142 97.9824C137.888 99.0646 138.253 100.366 138.18 101.68V112.268C138.18 112.469 138.18 112.57 137.845 112.57H135.535C135.494 112.576 135.452 112.572 135.413 112.558C135.374 112.545 135.338 112.523 135.309 112.494C135.28 112.464 135.258 112.429 135.245 112.39C135.232 112.35 135.228 112.309 135.233 112.268V101.949C135.262 101.233 135.063 100.526 134.664 99.9319C134.482 99.6991 134.247 99.5135 133.979 99.3907C133.711 99.2679 133.418 99.2114 133.124 99.226C132.828 99.2125 132.533 99.266 132.26 99.3823C131.988 99.4987 131.745 99.675 131.55 99.8982C131.134 100.475 130.911 101.169 130.914 101.881V111.965C130.919 112.006 130.915 112.048 130.902 112.087C130.889 112.126 130.867 112.162 130.837 112.191C130.808 112.22 130.773 112.243 130.734 112.256C130.695 112.269 130.653 112.273 130.612 112.268H128.268C128.227 112.273 128.186 112.269 128.147 112.256C128.108 112.243 128.072 112.22 128.043 112.191C128.014 112.162 127.992 112.126 127.978 112.087C127.965 112.048 127.961 112.006 127.967 111.965V96.8731C127.961 96.8321 127.965 96.7904 127.978 96.7511C127.992 96.7119 128.014 96.6762 128.043 96.647C128.072 96.6177 128.108 96.5956 128.147 96.5823C128.186 96.5691 128.227 96.5651 128.268 96.5706H130.612C130.653 96.5651 130.695 96.5691 130.734 96.5823C130.773 96.5956 130.808 96.6177 130.837 96.647C130.867 96.6762 130.889 96.7119 130.902 96.7511C130.915 96.7904 130.919 96.8321 130.914 96.8731V97.7134C131.288 97.2644 131.761 96.909 132.296 96.6756C132.83 96.4422 133.412 96.3372 133.994 96.369C134.613 96.3418 135.228 96.4762 135.78 96.759C136.332 97.0417 136.801 97.4633 137.142 97.9824Z" fill="white"/>
<path d="M144.174 111.461C143.702 111.001 143.332 110.445 143.09 109.831C142.847 109.217 142.737 108.558 142.767 107.898V101.545C142.737 100.883 142.85 100.221 143.099 99.6059C143.348 98.991 143.726 98.4372 144.207 97.9826C144.712 97.5201 145.304 97.163 145.948 96.9322C146.592 96.7014 147.275 96.6014 147.957 96.638C148.651 96.598 149.345 96.6962 150 96.927C150.655 97.1578 151.259 97.5165 151.775 97.9826C152.245 98.4442 152.613 98.9999 152.856 99.6138C153.098 100.228 153.209 100.886 153.181 101.545V107.898C153.211 108.558 153.101 109.217 152.859 109.831C152.616 110.445 152.247 111.001 151.775 111.461C150.698 112.331 149.357 112.806 147.974 112.806C146.592 112.806 145.251 112.331 144.174 111.461ZM149.598 109.545C150.043 109.036 150.271 108.373 150.234 107.697V101.714C150.266 101.048 150.038 100.397 149.598 99.8984C149.388 99.6616 149.13 99.4721 148.841 99.3423C148.553 99.2125 148.24 99.1455 147.924 99.1455C147.608 99.1455 147.295 99.2125 147.007 99.3423C146.718 99.4721 146.46 99.6616 146.25 99.8984C145.825 100.406 145.598 101.051 145.613 101.714V107.697C145.59 108.371 145.817 109.029 146.25 109.545C146.466 109.773 146.725 109.954 147.013 110.078C147.301 110.202 147.611 110.266 147.924 110.266C148.237 110.266 148.547 110.202 148.835 110.078C149.123 109.954 149.382 109.773 149.598 109.545Z" fill="white"/>
<path d="M157.802 112.267V91.2934C157.797 91.2523 157.801 91.2106 157.814 91.1713C157.827 91.1321 157.849 91.0965 157.878 91.0672C157.907 91.0379 157.943 91.0158 157.982 91.0026C158.021 90.9893 158.063 90.9853 158.104 90.9909H160.448C160.488 90.9853 160.53 90.9893 160.569 91.0026C160.608 91.0158 160.644 91.0379 160.673 91.0672C160.702 91.0965 160.724 91.1321 160.737 91.1713C160.75 91.2106 160.754 91.2523 160.749 91.2934V112.267C160.754 112.308 160.75 112.35 160.737 112.389C160.724 112.429 160.702 112.464 160.673 112.494C160.644 112.523 160.608 112.545 160.569 112.558C160.53 112.571 160.488 112.575 160.448 112.57H158.104C158.063 112.575 158.021 112.571 157.982 112.558C157.943 112.545 157.907 112.523 157.878 112.494C157.849 112.464 157.827 112.429 157.814 112.389C157.801 112.35 157.797 112.308 157.802 112.267Z" fill="white"/>
<path d="M166.81 111.461C166.342 110.999 165.978 110.442 165.741 109.828C165.504 109.213 165.401 108.556 165.437 107.898V101.545C165.405 100.888 165.511 100.231 165.747 99.6176C165.984 99.0039 166.346 98.4468 166.81 97.9822C167.32 97.5172 167.917 97.1588 168.567 96.928C169.217 96.6971 169.906 96.5984 170.594 96.6377C171.282 96.6003 171.97 96.6999 172.619 96.9306C173.269 97.1614 173.866 97.5188 174.378 97.9822C174.852 98.4422 175.226 98.9969 175.474 99.6105C175.722 100.224 175.839 100.883 175.817 101.545V107.898C175.843 108.56 175.728 109.221 175.48 109.835C175.231 110.449 174.856 111.003 174.378 111.461C173.301 112.331 171.96 112.806 170.577 112.806C169.194 112.806 167.853 112.331 166.776 111.461H166.81ZM172.235 109.545C172.679 109.036 172.908 108.372 172.871 107.696V101.713C172.902 101.048 172.674 100.397 172.235 99.8981C172.024 99.6613 171.766 99.4718 171.478 99.342C171.189 99.2122 170.876 99.1452 170.56 99.1452C170.244 99.1452 169.931 99.2122 169.643 99.342C169.354 99.4718 169.096 99.6613 168.886 99.8981C168.47 100.409 168.256 101.054 168.283 101.713V107.696C168.251 108.366 168.465 109.024 168.886 109.545C169.102 109.773 169.362 109.954 169.649 110.078C169.937 110.202 170.247 110.266 170.56 110.266C170.873 110.266 171.183 110.202 171.471 110.078C171.759 109.954 172.019 109.773 172.235 109.545Z" fill="white"/>
<path d="M187.872 96.9739H190.25C190.291 96.9683 190.332 96.9723 190.371 96.9856C190.41 96.9988 190.446 97.0209 190.475 97.0502C190.504 97.0795 190.526 97.1151 190.539 97.1544C190.553 97.1936 190.557 97.2353 190.551 97.2764V112.2C190.659 113.991 190.138 115.764 189.078 117.208C188.411 117.861 187.61 118.359 186.73 118.667C185.851 118.975 184.914 119.085 183.988 118.99H183.184C182.983 118.99 182.849 118.99 182.849 118.654V116.671C182.849 116.469 182.849 116.368 183.218 116.368C183.815 116.455 184.425 116.409 185.003 116.235C185.581 116.061 186.115 115.762 186.566 115.36C187.257 114.382 187.588 113.194 187.504 111.999V111.36C187.171 111.833 186.721 112.212 186.199 112.459C185.677 112.707 185.1 112.814 184.524 112.772C183.94 112.805 183.355 112.704 182.816 112.477C182.276 112.25 181.795 111.902 181.41 111.461C180.636 110.442 180.255 109.176 180.338 107.898V101.747C180.26 100.453 180.652 99.175 181.443 98.1503C181.822 97.7094 182.297 97.3618 182.831 97.1345C183.365 96.9072 183.944 96.8063 184.524 96.8395C185.1 96.7969 185.677 96.9044 186.199 97.1518C186.721 97.3992 187.171 97.7779 187.504 98.2512V97.4445C187.442 97.3954 187.402 97.3236 187.392 97.2448C187.383 97.166 187.405 97.0867 187.454 97.0243C187.503 96.9619 187.574 96.9215 187.653 96.9121C187.731 96.9026 187.81 96.9249 187.872 96.9739ZM186.968 109.41C187.39 108.903 187.605 108.255 187.571 107.595V101.814C187.598 101.155 187.384 100.509 186.968 99.999C186.776 99.7696 186.535 99.587 186.262 99.4647C185.989 99.3424 185.693 99.2838 185.394 99.2931C185.091 99.2811 184.788 99.3384 184.51 99.4606C184.231 99.5829 183.984 99.767 183.787 99.999C183.371 100.509 183.157 101.155 183.184 101.814V107.595C183.15 108.255 183.365 108.903 183.787 109.41C183.984 109.642 184.231 109.826 184.51 109.949C184.788 110.071 185.091 110.128 185.394 110.116C185.69 110.104 185.978 110.024 186.239 109.885C186.5 109.745 186.726 109.549 186.901 109.31L186.968 109.41Z" fill="white"/>
<path d="M194.569 118.62C194.549 118.543 194.549 118.462 194.569 118.385V116.57C194.564 116.529 194.568 116.487 194.581 116.448C194.594 116.409 194.616 116.373 194.645 116.344C194.674 116.315 194.71 116.293 194.749 116.279C194.788 116.266 194.83 116.262 194.871 116.268C195.409 116.258 195.941 116.156 196.444 115.965C196.852 115.727 197.17 115.361 197.349 114.923C197.636 114.198 197.838 113.443 197.951 112.671L194.034 97.3775C194.034 97.3775 194.034 97.1422 194.335 97.1422H196.846C197.047 97.1422 197.181 97.1422 197.181 97.4111L199.425 108.537L201.635 97.4111C201.639 97.3713 201.651 97.3327 201.67 97.2976C201.689 97.2624 201.715 97.2314 201.746 97.2064C201.777 97.1814 201.813 97.1629 201.851 97.1518C201.89 97.1408 201.93 97.1375 201.97 97.1422H204.514C204.552 97.1265 204.591 97.1184 204.632 97.1184C204.672 97.1184 204.712 97.1265 204.749 97.1422C204.767 97.1789 204.776 97.2191 204.776 97.2599C204.776 97.3006 204.767 97.3408 204.749 97.3775L200.563 113.78C200.297 114.876 199.904 115.936 199.391 116.94C199.035 117.599 198.469 118.12 197.784 118.419C196.833 118.725 195.835 118.862 194.837 118.822C194.837 118.822 194.603 118.688 194.569 118.62Z" fill="white"/>
</svg>
