<svg width="60" height="61" viewBox="0 0 60 61" fill="none" xmlns="http://www.w3.org/2000/svg">
<path d="M17.5 24.6533C17.0858 24.6533 16.75 24.9891 16.75 25.4033C16.75 25.8175 17.0858 26.1533 17.5 26.1533V24.6533ZM42.5 26.1533C42.9142 26.1533 43.25 25.8175 43.25 25.4033C43.25 24.9891 42.9142 24.6533 42.5 24.6533V26.1533ZM17.5 34.6533C17.0858 34.6533 16.75 34.9891 16.75 35.4033C16.75 35.8175 17.0858 36.1533 17.5 36.1533V34.6533ZM42.5 36.1533C42.9142 36.1533 43.25 35.8175 43.25 35.4033C43.25 34.9891 42.9142 34.6533 42.5 34.6533V36.1533ZM17.5 36.1533H42.5V34.6533H17.5V36.1533ZM17.5 26.1533H30V24.6533H17.5V26.1533ZM30 26.1533H42.5V24.6533H30V26.1533Z" fill="#141414"/>
</svg>
