<svg width="126" height="126" viewBox="0 0 126 126" fill="none" xmlns="http://www.w3.org/2000/svg">
<g clip-path="url(#clip0_208_2966)">
<path d="M46.9913 12.877C46.4958 13.0387 46.0466 13.0672 45.6437 12.9623C45.2408 12.8574 44.8896 12.6648 44.5901 12.3844C44.2906 12.104 44.0355 11.7855 43.8246 11.4289C43.6137 11.0723 43.4525 10.7231 43.3409 10.3814C43.1904 9.92004 43.0881 9.47604 43.0339 9.04939C42.9883 8.61996 43.0093 8.22079 43.0969 7.85188C43.1845 7.48298 43.367 7.15872 43.6445 6.87912C43.9219 6.59952 44.3127 6.37747 44.8168 6.21298C45.3721 6.03177 45.9193 6.01392 46.4584 6.15943C46.9946 6.2964 47.4774 6.57371 47.9068 6.99136C48.3447 7.40622 48.6681 7.93404 48.8772 8.57481C49.0919 9.23268 49.1448 9.85825 49.0359 10.4515C48.9242 11.0363 48.6879 11.5435 48.3271 11.9732C47.9749 12.4001 47.5296 12.7014 46.9913 12.877ZM46.294 11.9135C46.7041 11.7796 47.0366 11.5672 47.2914 11.2761C47.5434 10.9764 47.7004 10.6321 47.7626 10.2431C47.8305 9.84283 47.7919 9.42055 47.647 8.97628C47.4323 8.31841 47.0716 7.83583 46.5648 7.52853C46.0666 7.21844 45.4842 7.17212 44.8178 7.38958C44.4163 7.52061 44.0881 7.73169 43.8333 8.0228C43.5871 8.31113 43.43 8.65544 43.3621 9.05573C43.2942 9.45602 43.3342 9.88258 43.4819 10.3354C43.6213 10.7626 43.8237 11.1219 44.089 11.4135C44.36 11.6937 44.6828 11.8862 45.0573 11.9909C45.429 12.087 45.8412 12.0612 46.294 11.9135ZM41.2062 7.53298L42.3852 7.14825L42.909 8.57967L45.3596 16.0896L44.1293 16.491L41.2062 7.53298Z" fill="#141414"/>
<path d="M49.8603 4.93903L51.1307 4.68727L52.4393 11.2904L51.169 11.5421L49.8603 4.93903ZM53.5899 5.36884C53.1312 5.45975 52.7596 5.64341 52.4751 5.91982C52.1995 6.19449 51.9952 6.50543 51.8624 6.85266C51.7383 7.19813 51.6734 7.51814 51.6676 7.81267L51.5048 7.06104C51.4962 6.97107 51.4911 6.82996 51.4897 6.63771C51.4953 6.43489 51.5275 6.2039 51.5862 5.94473C51.6448 5.68556 51.7414 5.43263 51.8758 5.18595C52.0086 4.93043 52.1933 4.70588 52.43 4.51228C52.6666 4.31868 52.9702 4.18517 53.3407 4.11174L53.5899 5.36884Z" fill="#141414"/>
<path d="M58.9936 10.5329C58.3389 10.5822 57.7276 10.4885 57.1596 10.2517C56.5916 10.015 56.1266 9.64866 55.7645 9.15286C55.4025 8.65705 55.1941 8.04595 55.1393 7.31955C55.0839 6.58418 55.198 5.94426 55.4817 5.39979C55.7646 4.84635 56.1692 4.41002 56.6953 4.09078C57.2213 3.77155 57.8117 3.58726 58.4664 3.53792C59.121 3.48859 59.7279 3.58264 60.2869 3.8201C60.8459 4.05755 61.3068 4.42866 61.6695 4.93344C62.0316 5.42924 62.2403 6.04483 62.2957 6.7802C62.3505 7.5066 62.236 8.14203 61.9524 8.6865C61.6687 9.23097 61.2683 9.66249 60.7512 9.98104C60.2341 10.2996 59.6482 10.4835 58.9936 10.5329ZM58.9094 9.41638C59.313 9.38597 59.6784 9.26824 60.0056 9.0632C60.3412 8.84852 60.5989 8.55853 60.7788 8.19323C60.967 7.8183 61.0422 7.37973 61.0043 6.87752C60.9658 6.36635 60.8254 5.93952 60.5832 5.59703C60.3499 5.25385 60.0512 5.00129 59.6873 4.83932C59.3323 4.67668 58.9531 4.61056 58.5495 4.64098C58.146 4.67139 57.7764 4.79394 57.4408 5.00863C57.1046 5.21434 56.8424 5.50467 56.6542 5.87961C56.466 6.25454 56.3915 6.70208 56.4307 7.22222C56.4686 7.72442 56.6041 8.14711 56.8374 8.49028C57.079 8.82381 57.3818 9.07155 57.7457 9.23352C58.109 9.38652 58.4969 9.44747 58.9094 9.41638Z" fill="#141414"/>
<path d="M70.5795 8.07475C70.4847 8.62686 70.2696 9.09794 69.9342 9.48802C69.6084 9.86978 69.1954 10.1504 68.6952 10.3299C68.195 10.5095 67.6489 10.5774 67.057 10.5337C66.4023 10.4854 65.8113 10.3065 65.284 9.99708C64.7574 9.67867 64.3474 9.24713 64.0539 8.70244C63.7701 8.14945 63.655 7.50971 63.7086 6.78322C63.7628 6.04777 63.9706 5.43186 64.3319 4.93548C64.7028 4.4308 65.172 4.05962 65.7397 3.82195C66.3073 3.58429 66.9185 3.48961 67.5732 3.53792C68.1651 3.5816 68.6909 3.7286 69.1503 3.97893C69.6098 4.22926 69.9771 4.56747 70.2523 4.99358C70.5281 5.41071 70.6769 5.89963 70.6986 6.46034L69.5282 6.37398C69.4115 5.8784 69.166 5.47704 68.7919 5.16988C68.4274 4.85442 67.9941 4.67816 67.4918 4.6411C67.0792 4.61066 66.6866 4.67637 66.3139 4.83825C65.9503 5.00079 65.6476 5.25349 65.4058 5.59637C65.1737 5.93094 65.0385 6.35832 65.0001 6.87852C64.9631 7.38078 65.0344 7.8189 65.2142 8.19288C65.4037 8.55855 65.6664 8.84847 66.0022 9.06263C66.3388 9.26781 66.7178 9.38596 67.1394 9.41706C67.7134 9.45942 68.19 9.35481 68.5693 9.10325C68.9486 8.85168 69.233 8.48039 69.4225 7.98938L70.5795 8.07475Z" fill="#141414"/>
<path d="M77.1661 9.84503L78.364 10.1137C78.1973 10.5279 77.944 10.8766 77.604 11.1598C77.264 11.443 76.8563 11.6373 76.3811 11.7427C75.9058 11.8481 75.3786 11.8359 74.7994 11.706C74.115 11.5525 73.5375 11.2709 73.0672 10.8613C72.5968 10.4517 72.2652 9.95794 72.0722 9.38009C71.8792 8.80224 71.8584 8.17546 72.01 7.49975C72.1635 6.81528 72.4465 6.25201 72.859 5.80994C73.2734 5.35911 73.7764 5.04794 74.3679 4.87643C74.9593 4.70492 75.5929 4.69493 76.2686 4.84646C76.9794 5.00587 77.5447 5.28009 77.9644 5.66914C78.384 6.05819 78.6459 6.55473 78.7501 7.15874C78.865 7.75595 78.8091 8.45769 78.5822 9.26396L73.1985 8.05661C73.1538 8.46134 73.1935 8.83893 73.3177 9.18936C73.4507 9.54176 73.6598 9.84212 73.9451 10.0904C74.2392 10.3407 74.6013 10.5141 75.0313 10.6105C75.5139 10.7188 75.9422 10.6996 76.3161 10.553C76.69 10.4065 76.9733 10.1705 77.1661 9.84503ZM76.0397 5.92878C75.4693 5.80087 74.961 5.84817 74.5148 6.07068C74.0706 6.28442 73.7309 6.62761 73.4959 7.10026L77.537 8.0065C77.6219 7.46334 77.5203 7.01199 77.2323 6.65245C76.9462 6.28415 76.5487 6.04293 76.0397 5.92878Z" fill="#141414"/>
<path d="M79.5905 10.5246L80.7036 10.937C80.6208 11.29 80.6695 11.6245 80.8497 11.9406C81.033 12.2483 81.3608 12.4897 81.833 12.6646C82.1366 12.7771 82.3853 12.8309 82.5789 12.8259C82.7757 12.8125 82.9313 12.755 83.0456 12.6535C83.1684 12.5552 83.2579 12.4301 83.3141 12.2783C83.386 12.0843 83.3901 11.918 83.3263 11.7793C83.2658 11.6322 83.1552 11.4905 82.9947 11.3543C82.8373 11.2097 82.6446 11.0568 82.4166 10.8956C82.1664 10.7165 81.9209 10.5249 81.6801 10.3206C81.4393 10.1163 81.2274 9.8987 81.0444 9.66785C80.8698 9.44012 80.7499 9.19429 80.6847 8.93034C80.631 8.66109 80.6619 8.37045 80.7775 8.05842C80.8744 7.797 81.0198 7.57275 81.2138 7.38567C81.4162 7.20172 81.6526 7.06869 81.9227 6.98657C82.2045 6.89915 82.5044 6.86639 82.8223 6.88829C83.1434 6.90176 83.4769 6.97255 83.8226 7.10065C84.3033 7.27875 84.6753 7.51727 84.9386 7.81623C85.205 8.10674 85.3647 8.43926 85.4177 8.81378C85.4792 9.19142 85.4392 9.58419 85.2977 9.99211L84.2351 9.59842C84.3073 9.22236 84.2803 8.91984 84.1541 8.69087C84.0311 8.45347 83.7841 8.26603 83.413 8.12855C83.0504 7.9942 82.7455 7.96277 82.4984 8.03427C82.2514 8.10577 82.0825 8.2638 81.9919 8.50836C81.9232 8.69388 81.9344 8.87068 82.0256 9.03873C82.1199 9.19836 82.2653 9.36251 82.4617 9.53121C82.6582 9.6999 82.8826 9.88375 83.1349 10.0827C83.3704 10.2755 83.5917 10.4678 83.7988 10.6596C84.0174 10.8461 84.1987 11.0427 84.3426 11.2495C84.4982 11.451 84.5917 11.6775 84.6232 11.9289C84.6663 12.1751 84.6316 12.4499 84.5191 12.7535C84.3816 13.1246 84.1686 13.4149 83.8799 13.6244C83.5944 13.8255 83.2464 13.9364 82.836 13.957C82.434 13.9806 81.9842 13.9003 81.4867 13.716C81.0313 13.5472 80.6637 13.3487 80.3838 13.1203C80.1124 12.8951 79.8999 12.6533 79.7463 12.395C79.601 12.1398 79.5053 11.8933 79.4591 11.6556C79.4245 11.4126 79.4205 11.1905 79.447 10.9894C79.482 10.7913 79.5299 10.6364 79.5905 10.5246Z" fill="#141414"/>
<path d="M85.812 12.9166L86.8669 13.4611C86.7419 13.8013 86.7496 14.1393 86.8901 14.475C87.0347 14.8026 87.3308 15.0819 87.7784 15.3129C88.0661 15.4614 88.3063 15.545 88.4991 15.5635C88.6961 15.5741 88.8575 15.5359 88.9833 15.4491C89.1171 15.3663 89.2211 15.253 89.2954 15.1092C89.3902 14.9254 89.4145 14.7607 89.3681 14.6154C89.3258 14.462 89.2332 14.3079 89.0904 14.1533C88.9517 13.9906 88.779 13.8154 88.5722 13.6277C88.3456 13.4197 88.1252 13.1997 87.911 12.9676C87.6968 12.7356 87.5128 12.4939 87.3592 12.2426C87.2135 11.9954 87.1244 11.7368 87.0916 11.4669C87.071 11.1931 87.137 10.9084 87.2896 10.6127C87.4175 10.3649 87.589 10.16 87.8043 9.99784C88.0276 9.83981 88.2783 9.73643 88.5564 9.68771C88.8467 9.63513 89.1483 9.63899 89.4613 9.69932C89.7784 9.75166 90.1007 9.86238 90.4284 10.0315C90.8839 10.2666 91.2242 10.5485 91.4493 10.8772C91.6784 11.1979 91.7966 11.5473 91.8039 11.9255C91.8191 12.3078 91.7317 12.6929 91.5417 13.0806L90.5347 12.5609C90.652 12.1963 90.662 11.8928 90.5645 11.6502C90.4712 11.3996 90.2487 11.1836 89.8971 11.0021C89.5534 10.8247 89.2547 10.7565 89.0007 10.7975C88.7468 10.8385 88.56 10.9749 88.4404 11.2066C88.3497 11.3825 88.3393 11.5593 88.4095 11.7372C88.4837 11.9071 88.6081 12.0877 88.7826 12.2789C88.9571 12.4702 89.1576 12.68 89.3839 12.9081C89.5943 13.128 89.7906 13.3457 89.9729 13.5612C90.1672 13.7729 90.3233 13.9901 90.4411 14.2128C90.5711 14.4317 90.6364 14.6678 90.6372 14.9212C90.6501 15.1708 90.5823 15.4394 90.4338 15.7271C90.2523 16.0787 90.0056 16.341 89.6936 16.514C89.3858 16.679 89.027 16.7468 88.6171 16.7174C88.2152 16.6921 87.7785 16.5578 87.307 16.3145C86.8754 16.0917 86.5346 15.85 86.2846 15.5894C86.0425 15.3329 85.8609 15.0671 85.7397 14.792C85.6265 14.5211 85.5614 14.2649 85.5444 14.0233C85.5395 13.7779 85.5625 13.5569 85.6133 13.3605C85.6721 13.1682 85.7383 13.0202 85.812 12.9166Z" fill="#141414"/>
<path d="M98.2991 23.9563C97.9086 23.6105 97.6565 23.2372 97.5429 22.8364C97.4294 22.4356 97.4178 22.0349 97.5081 21.6344C97.5984 21.2339 97.744 20.8523 97.945 20.4897C98.1459 20.1271 98.3656 19.8111 98.604 19.5418C98.926 19.1782 99.2573 18.8649 99.5981 18.6021C99.9456 18.3453 100.301 18.1612 100.664 18.05C101.026 17.9387 101.399 17.932 101.78 18.0298C102.162 18.1276 102.552 18.3524 102.949 18.7042C103.387 19.0916 103.679 19.5549 103.827 20.0938C103.98 20.626 103.985 21.1832 103.842 21.7652C103.706 22.3533 103.414 22.8998 102.967 23.4048C102.508 23.9233 101.995 24.2858 101.428 24.4923C100.867 24.6921 100.309 24.7451 99.7557 24.6514C99.2089 24.5636 98.7233 24.3319 98.2991 23.9563ZM98.7776 22.8664C99.1008 23.1526 99.4525 23.3319 99.8328 23.4043C100.219 23.47 100.596 23.4312 100.963 23.2878C101.343 23.1437 101.688 22.8965 101.998 22.5464C102.457 22.0279 102.691 21.4721 102.699 20.8791C102.714 20.2921 102.459 19.766 101.934 19.301C101.618 19.0208 101.269 18.8445 100.889 18.7721C100.515 18.7056 100.139 18.7444 99.7589 18.8886C99.379 19.0327 99.0311 19.2833 98.7152 19.6401C98.4171 19.9768 98.2094 20.3335 98.0922 20.7101C97.9876 21.086 97.985 21.462 98.0843 21.8383C98.1896 22.2078 98.4207 22.5505 98.7776 22.8664ZM99.9811 16.2566L100.91 17.0793L99.9402 18.2564L94.7001 24.1752L93.7304 23.3167L99.9811 16.2566Z" fill="#141414"/>
<path d="M106.572 22.443L107.431 23.4123L102.393 27.8763L101.534 26.9069L106.572 22.443ZM108.085 25.8791C107.775 25.5291 107.428 25.3011 107.046 25.1952C106.67 25.096 106.298 25.0767 105.932 25.1374C105.571 25.2047 105.262 25.3103 105.005 25.454L105.571 24.934C105.644 24.8811 105.764 24.8055 105.929 24.7072C106.107 24.6096 106.322 24.5207 106.576 24.4405C106.829 24.3602 107.096 24.3158 107.377 24.3073C107.665 24.2929 107.952 24.3389 108.238 24.4454C108.525 24.5519 108.793 24.7466 109.044 25.0293L108.085 25.8791Z" fill="#141414"/>
<path d="M106.37 33.1603C105.997 32.6202 105.769 32.0452 105.686 31.4354C105.604 30.8255 105.685 30.2392 105.93 29.6763C106.175 29.1135 106.598 28.625 107.197 28.2109C107.804 27.7918 108.414 27.5671 109.027 27.537C109.647 27.5017 110.228 27.6306 110.77 27.9234C111.311 28.2163 111.768 28.6328 112.141 29.173C112.514 29.7131 112.74 30.2844 112.817 30.8868C112.894 31.4892 112.807 32.0744 112.554 32.6424C112.309 33.2053 111.883 33.6963 111.276 34.1155C110.677 34.5295 110.071 34.7516 109.458 34.7818C108.844 34.8119 108.27 34.6842 107.734 34.3987C107.198 34.1133 106.743 33.7004 106.37 33.1603ZM107.291 32.5239C107.521 32.8568 107.807 33.1128 108.149 33.2917C108.504 33.4729 108.885 33.5489 109.291 33.5198C109.709 33.4929 110.126 33.3363 110.54 33.05C110.962 32.7586 111.26 32.4219 111.433 32.0398C111.611 31.6652 111.678 31.2799 111.634 30.884C111.596 30.4954 111.461 30.1347 111.231 29.8017C111.001 29.4688 110.709 29.2117 110.354 29.0305C110.007 28.8441 109.624 28.7644 109.205 28.7913C108.786 28.8182 108.362 28.9799 107.933 29.2764C107.519 29.5627 107.222 29.8932 107.044 30.2678C106.878 30.6448 106.817 31.0312 106.861 31.4271C106.913 31.8179 107.056 32.1835 107.291 32.5239Z" fill="#141414"/>
<path d="M114.359 41.9179C113.833 42.1147 113.317 42.1665 112.81 42.0733C112.315 41.9843 111.864 41.7687 111.456 41.4266C111.048 41.0845 110.713 40.6463 110.452 40.1121C110.163 39.5213 110.02 38.9196 110.021 38.3072C110.03 37.6908 110.197 37.1181 110.52 36.5891C110.855 36.0642 111.35 35.6415 112.006 35.321C112.67 34.9965 113.307 34.8652 113.919 34.9271C114.543 34.9931 115.101 35.2117 115.594 35.5827C116.086 35.9538 116.477 36.4347 116.765 37.0256C117.027 37.5598 117.165 38.0889 117.18 38.6128C117.196 39.1368 117.089 39.6254 116.859 40.0787C116.637 40.528 116.29 40.9036 115.815 41.2056L115.299 40.1494C115.669 39.7981 115.892 39.383 115.969 38.9042C116.058 38.4296 115.991 37.9656 115.77 37.5123C115.588 37.14 115.333 36.8335 115.004 36.5929C114.68 36.3603 114.309 36.226 113.89 36.19C113.483 36.1582 113.045 36.257 112.576 36.4865C112.122 36.7081 111.779 36.9912 111.547 37.3356C111.326 37.6842 111.208 38.0579 111.192 38.4566C111.185 38.8514 111.274 39.239 111.46 39.6195C111.713 40.1375 112.044 40.497 112.453 40.6981C112.863 40.8992 113.328 40.9578 113.848 40.8738L114.359 41.9179Z" fill="#141414"/>
<path d="M116.047 48.5212L116.415 49.6874C115.975 49.7513 115.547 49.7077 115.133 49.5566C114.719 49.4055 114.348 49.1516 114.019 48.7951C113.69 48.4385 113.437 47.9782 113.259 47.4144C113.048 46.7479 113.002 46.1096 113.119 45.4994C113.237 44.8892 113.496 44.3564 113.897 43.9009C114.298 43.4454 114.827 43.1137 115.485 42.906C116.152 42.6955 116.779 42.6573 117.366 42.7913C117.962 42.9226 118.481 43.2001 118.925 43.6237C119.369 44.0472 119.695 44.588 119.903 45.2458C120.121 45.9379 120.168 46.562 120.043 47.1182C119.918 47.6745 119.621 48.1487 119.153 48.5408C118.696 48.9387 118.064 49.2418 117.256 49.45L115.601 44.2085C115.23 44.3726 114.924 44.5958 114.685 44.8782C114.448 45.1692 114.294 45.4997 114.223 45.8697C114.154 46.2484 114.186 46.647 114.318 47.0656C114.467 47.5355 114.698 47.8948 115.011 48.1435C115.325 48.3922 115.67 48.5181 116.047 48.5212ZM118.856 45.5905C118.68 45.0352 118.385 44.621 117.97 44.3481C117.564 44.0724 117.098 43.9517 116.573 43.9859L117.816 47.9202C118.326 47.7215 118.664 47.4081 118.83 46.98C119.004 46.5492 119.012 46.086 118.856 45.5905Z" fill="#141414"/>
<path d="M116.741 50.9657L116.944 52.1354C116.597 52.2412 116.332 52.4514 116.149 52.766C115.975 53.0791 115.932 53.4838 116.018 53.98C116.073 54.299 116.151 54.541 116.253 54.7059C116.364 54.8693 116.491 54.9749 116.637 55.0227C116.783 55.0794 116.936 55.094 117.096 55.0663C117.3 55.0309 117.446 54.9509 117.533 54.8261C117.63 54.6998 117.697 54.533 117.734 54.3258C117.78 54.117 117.816 53.8735 117.84 53.5954C117.869 53.2892 117.912 52.9806 117.967 52.6698C118.023 52.3589 118.104 52.0664 118.212 51.7921C118.321 51.5267 118.474 51.2995 118.669 51.1105C118.875 50.9287 119.142 50.8094 119.469 50.7526C119.744 50.7049 120.011 50.7179 120.27 50.7916C120.531 50.8742 120.765 51.0116 120.972 51.204C121.189 51.4036 121.368 51.6464 121.509 51.9323C121.658 52.2167 121.765 52.5405 121.828 52.9038C121.915 53.4089 121.896 53.8503 121.77 54.2282C121.653 54.6045 121.445 54.9097 121.148 55.1438C120.853 55.3868 120.493 55.5495 120.069 55.6322L119.876 54.5157C120.237 54.3891 120.485 54.2138 120.62 53.9896C120.763 53.7639 120.801 53.4561 120.733 53.0663C120.667 52.6852 120.541 52.4059 120.355 52.2282C120.169 52.0505 119.948 51.984 119.691 52.0286C119.496 52.0624 119.349 52.1609 119.249 52.3242C119.158 52.486 119.09 52.6942 119.043 52.9488C118.995 53.2034 118.949 53.4898 118.904 53.808C118.856 54.1084 118.801 54.3964 118.739 54.6718C118.688 54.9545 118.609 55.2101 118.502 55.4385C118.406 55.6742 118.257 55.8689 118.056 56.0225C117.865 56.1834 117.61 56.2916 117.291 56.3469C116.901 56.4145 116.543 56.3762 116.217 56.232C115.899 56.0862 115.628 55.8411 115.404 55.4966C115.182 55.161 115.025 54.7317 114.935 54.2089C114.852 53.7304 114.839 53.3128 114.895 52.9561C114.954 52.6083 115.056 52.3031 115.202 52.0404C115.35 51.7866 115.515 51.58 115.697 51.4206C115.89 51.2685 116.08 51.1534 116.267 51.0753C116.456 51.006 116.614 50.9695 116.741 50.9657Z" fill="#141414"/>
<path d="M117.804 57.5221L117.865 58.7076C117.508 58.771 117.22 58.948 117.001 59.2384C116.791 59.5284 116.699 59.9249 116.725 60.4279C116.741 60.7512 116.79 61.0008 116.871 61.1767C116.961 61.3522 117.076 61.4724 117.214 61.5373C117.353 61.6112 117.503 61.644 117.665 61.6356C117.871 61.625 118.026 61.563 118.128 61.4497C118.239 61.3359 118.326 61.1783 118.387 60.977C118.458 60.7753 118.522 60.5378 118.58 60.2647C118.646 59.9641 118.725 59.6629 118.817 59.3609C118.91 59.059 119.026 58.7784 119.166 58.519C119.306 58.2686 119.484 58.0613 119.701 57.8971C119.927 57.7413 120.206 57.6549 120.539 57.6378C120.817 57.6234 121.08 57.6684 121.329 57.7727C121.578 57.8859 121.794 58.0504 121.976 58.2661C122.167 58.4904 122.316 58.7529 122.422 59.0536C122.536 59.3539 122.603 59.6882 122.622 60.0564C122.648 60.5684 122.576 61.0043 122.406 61.3643C122.244 61.7238 122.002 62.002 121.679 62.1987C121.356 62.4045 120.979 62.5229 120.549 62.5541L120.49 61.4225C120.864 61.3402 121.132 61.1958 121.292 60.9894C121.462 60.7826 121.536 60.4816 121.516 60.0864C121.496 59.7002 121.404 59.4077 121.241 59.209C121.078 59.0103 120.866 58.9177 120.605 58.9311C120.408 58.9413 120.25 59.0215 120.131 59.1717C120.022 59.3214 119.929 59.5198 119.851 59.7669C119.774 60.0141 119.694 60.2929 119.611 60.6033C119.527 60.8958 119.438 61.1751 119.343 61.4411C119.258 61.7156 119.149 61.9599 119.016 62.1738C118.893 62.3963 118.722 62.5718 118.503 62.7001C118.294 62.8369 118.028 62.9137 117.704 62.9303C117.309 62.9507 116.958 62.8697 116.652 62.6874C116.354 62.5046 116.115 62.2288 115.934 61.8599C115.753 61.5 115.649 61.0551 115.622 60.5252C115.597 60.0402 115.634 59.6241 115.733 59.2767C115.833 58.9384 115.971 58.6476 116.147 58.4044C116.325 58.1701 116.513 57.9848 116.713 57.8484C116.923 57.7206 117.125 57.6291 117.32 57.574C117.516 57.5279 117.677 57.5106 117.804 57.5221Z" fill="#141414"/>
<path d="M114.568 73.8847C114.67 73.373 114.865 72.967 115.153 72.6667C115.442 72.3663 115.782 72.1541 116.174 72.0299C116.565 71.9058 116.968 71.8389 117.382 71.8294C117.797 71.8199 118.18 71.8501 118.533 71.92C119.01 72.0144 119.447 72.1424 119.846 72.304C120.243 72.4744 120.581 72.6881 120.86 72.9451C121.14 73.2021 121.333 73.5201 121.442 73.8991C121.55 74.2781 121.552 74.7279 121.449 75.2484C121.336 75.8218 121.083 76.3081 120.692 76.7074C120.31 77.1085 119.832 77.3941 119.257 77.5645C118.681 77.7436 118.062 77.7676 117.4 77.6365C116.721 77.5019 116.149 77.2418 115.685 76.8564C115.229 76.4727 114.902 76.0182 114.703 75.493C114.503 74.9765 114.458 74.4404 114.568 73.8847ZM115.751 73.7477C115.667 74.1711 115.689 74.5653 115.819 74.9301C115.957 75.2968 116.181 75.6024 116.49 75.847C116.806 76.1022 117.193 76.2752 117.652 76.3662C118.331 76.5008 118.929 76.4221 119.445 76.1302C119.96 75.8471 120.285 75.3615 120.422 74.6734C120.504 74.2588 120.48 73.8691 120.351 73.5042C120.22 73.1481 119.996 72.8425 119.68 72.5873C119.364 72.3321 118.972 72.1582 118.504 72.0655C118.063 71.9781 117.651 71.9789 117.266 72.0677C116.889 72.1671 116.563 72.3547 116.288 72.6303C116.022 72.9077 115.843 73.2801 115.751 73.7477ZM122.064 71.4509L121.823 72.6683L120.317 72.4248L112.563 70.888L112.815 69.6177L122.064 71.4509Z" fill="#141414"/>
<path d="M120.047 80.2907L119.641 81.5206L113.248 79.4125L113.654 78.1826L120.047 80.2907ZM117.838 83.3266C117.985 82.8825 118.008 82.4686 117.907 82.085C117.803 81.71 117.633 81.3792 117.396 81.0927C117.156 80.8148 116.909 80.6009 116.656 80.451L117.39 80.6789C117.473 80.7157 117.598 80.7807 117.766 80.874C117.94 80.9786 118.126 81.1202 118.322 81.2988C118.519 81.4773 118.692 81.6858 118.841 81.9242C118.998 82.1654 119.102 82.4367 119.155 82.738C119.207 83.0393 119.174 83.3693 119.055 83.728L117.838 83.3266Z" fill="#141414"/>
<path d="M110.683 85.4908C110.962 84.8967 111.345 84.4109 111.831 84.0332C112.317 83.6555 112.865 83.4313 113.474 83.3604C114.084 83.2895 114.719 83.4092 115.378 83.7194C116.045 84.0334 116.546 84.4479 116.88 84.9629C117.222 85.4818 117.403 86.0488 117.421 86.6638C117.44 87.2789 117.31 87.8835 117.03 88.4775C116.75 89.0716 116.37 89.5533 115.888 89.9229C115.406 90.2924 114.856 90.5107 114.238 90.5777C113.628 90.6486 112.989 90.527 112.322 90.213C111.663 89.9029 111.166 89.4903 110.832 88.9752C110.498 88.4602 110.32 87.8992 110.297 87.2922C110.275 86.6853 110.403 86.0848 110.683 85.4908ZM111.696 85.9675C111.524 86.3337 111.446 86.7097 111.463 87.0955C111.485 87.4933 111.61 87.8604 111.84 88.1969C112.073 88.5453 112.418 88.8268 112.874 89.0412C113.337 89.2595 113.778 89.3476 114.195 89.3054C114.609 89.2714 114.976 89.136 115.296 88.899C115.612 88.6702 115.857 88.3727 116.029 88.0065C116.201 87.6403 116.277 87.2584 116.255 86.8606C116.242 86.4667 116.118 86.0955 115.885 85.747C115.651 85.3985 115.298 85.1132 114.826 84.8912C114.371 84.6767 113.936 84.5865 113.523 84.6205C113.113 84.6665 112.749 84.8079 112.428 85.0449C112.116 85.2856 111.872 85.5932 111.696 85.9675Z" fill="#141414"/>
<path d="M107.08 96.7906C106.647 96.435 106.344 96.015 106.171 95.5306C106.001 95.0586 105.961 94.5609 106.052 94.0374C106.144 93.5138 106.355 93.0057 106.686 92.5128C107.052 91.9677 107.499 91.5426 108.029 91.2375C108.566 90.9373 109.144 90.7945 109.763 90.8089C110.384 90.8358 110.997 91.0522 111.602 91.4582C112.214 91.8692 112.646 92.3544 112.899 92.914C113.154 93.486 113.245 94.0774 113.17 94.6883C113.096 95.2992 112.876 95.8771 112.51 96.4222C112.179 96.9151 111.792 97.2992 111.347 97.5747C110.902 97.8502 110.426 98.0021 109.92 98.0304C109.421 98.0638 108.922 97.9512 108.424 97.6927L109.078 96.7183C109.567 96.862 110.037 96.8472 110.489 96.6741C110.943 96.5134 111.311 96.2239 111.592 95.8058C111.822 95.4623 111.959 95.0886 112.003 94.6846C112.042 94.2881 111.972 93.9001 111.793 93.5204C111.618 93.1531 111.313 92.8242 110.88 92.5335C110.462 92.2528 110.046 92.0981 109.632 92.0694C109.22 92.0531 108.838 92.138 108.486 92.3239C108.141 92.5149 107.851 92.7859 107.615 93.1368C107.295 93.6147 107.15 94.0807 107.181 94.5348C107.212 94.9888 107.394 95.4197 107.727 95.8273L107.08 96.7906Z" fill="#141414"/>
<path d="M102.279 101.643L101.454 102.552C101.176 102.202 100.998 101.809 100.92 101.374C100.842 100.938 100.875 100.488 101.018 100.023C101.161 99.5573 101.433 99.1051 101.832 98.6659C102.304 98.1468 102.834 97.7841 103.423 97.5777C104.011 97.3714 104.604 97.3272 105.202 97.4451C105.8 97.5631 106.355 97.8549 106.867 98.3207C107.386 98.7925 107.736 99.317 107.916 99.8941C108.103 100.477 108.125 101.068 107.982 101.667C107.838 102.266 107.534 102.822 107.068 103.334C106.578 103.873 106.06 104.229 105.515 104.402C104.969 104.574 104.408 104.556 103.831 104.348C103.255 104.153 102.673 103.757 102.084 103.161L105.796 99.0785C105.466 98.8396 105.118 98.6874 104.752 98.6221C104.38 98.5635 104.016 98.5968 103.659 98.722C103.296 98.8539 102.966 99.0829 102.67 99.409C102.337 99.775 102.142 100.157 102.084 100.554C102.027 100.952 102.092 101.315 102.279 101.643ZM106.241 102.6C106.634 102.168 106.844 101.702 106.871 101.205C106.905 100.713 106.775 100.248 106.48 99.8098L103.694 102.874C104.124 103.217 104.567 103.352 105.022 103.279C105.483 103.212 105.89 102.986 106.241 102.6Z" fill="#141414"/>
<path d="M100.492 103.415L99.5846 104.18C99.3183 103.934 99.0032 103.812 98.6394 103.813C98.2813 103.821 97.9098 103.987 97.5248 104.312C97.2774 104.521 97.1081 104.71 97.017 104.881C96.9317 105.059 96.905 105.223 96.937 105.372C96.9621 105.528 97.0269 105.667 97.1313 105.791C97.2646 105.949 97.4074 106.035 97.5594 106.047C97.7173 106.067 97.8951 106.041 98.0927 105.968C98.2961 105.903 98.5241 105.81 98.7767 105.691C99.0558 105.562 99.3435 105.443 99.6399 105.334C99.9364 105.225 100.23 105.148 100.521 105.102C100.805 105.062 101.078 105.079 101.34 105.152C101.601 105.238 101.839 105.409 102.053 105.663C102.233 105.876 102.356 106.113 102.424 106.374C102.484 106.641 102.483 106.912 102.422 107.188C102.359 107.476 102.24 107.753 102.064 108.019C101.894 108.292 101.668 108.547 101.386 108.785C100.994 109.115 100.604 109.321 100.214 109.403C99.8296 109.492 99.4615 109.467 99.1095 109.329C98.7506 109.196 98.4285 108.968 98.1433 108.643L99.0095 107.913C99.3011 108.161 99.5777 108.287 99.8391 108.29C100.106 108.299 100.391 108.177 100.694 107.922C100.989 107.672 101.167 107.423 101.226 107.172C101.286 106.922 101.231 106.697 101.063 106.498C100.936 106.347 100.776 106.269 100.585 106.266C100.4 106.269 100.185 106.315 99.9417 106.403C99.6981 106.491 99.4276 106.595 99.1301 106.717C98.8463 106.827 98.57 106.925 98.301 107.01C98.031 107.109 97.7706 107.169 97.5197 107.193C97.2677 107.229 97.0246 107.199 96.7902 107.102C96.5548 107.018 96.3328 106.853 96.124 106.605C95.8688 106.303 95.7212 105.974 95.6811 105.62C95.6467 105.273 95.7217 104.915 95.9061 104.548C96.0835 104.186 96.3751 103.835 96.7806 103.492C97.1518 103.179 97.5057 102.957 97.8423 102.826C98.1721 102.701 98.4872 102.635 98.7877 102.629C99.0813 102.628 99.3429 102.666 99.5725 102.743C99.8011 102.833 99.9963 102.939 100.158 103.061C100.313 103.189 100.425 103.307 100.492 103.415Z" fill="#141414"/>
<path d="M95.4083 107.691L94.4111 108.344C94.1755 108.066 93.8763 107.906 93.5135 107.863C93.1557 107.828 92.7652 107.948 92.3422 108.225C92.0702 108.403 91.8785 108.572 91.767 108.731C91.6604 108.898 91.614 109.058 91.6277 109.211C91.6339 109.369 91.6816 109.516 91.7706 109.652C91.8844 109.826 92.0163 109.928 92.1663 109.959C92.3212 109.998 92.5016 109.994 92.7073 109.945C92.9181 109.904 93.1565 109.84 93.4227 109.752C93.7165 109.657 94.0178 109.573 94.3264 109.5C94.6351 109.428 94.9372 109.386 95.2328 109.376C95.5209 109.371 95.7909 109.421 96.043 109.526C96.2925 109.643 96.5087 109.841 96.6918 110.121C96.8451 110.355 96.9394 110.606 96.9748 110.875C97.0026 111.148 96.969 111.418 96.8741 111.685C96.7767 111.965 96.6242 112.227 96.4168 112.47C96.2144 112.722 95.9583 112.949 95.6486 113.151C95.218 113.433 94.8034 113.591 94.4049 113.626C94.0114 113.668 93.6476 113.598 93.3135 113.418C92.9718 113.242 92.6785 112.975 92.4335 112.618L93.3854 111.994C93.646 112.277 93.9064 112.436 94.1666 112.47C94.4317 112.513 94.7304 112.425 95.0628 112.207C95.3877 111.995 95.5949 111.767 95.6846 111.525C95.7743 111.283 95.7474 111.052 95.6039 110.833C95.4951 110.667 95.3456 110.571 95.1555 110.544C94.9703 110.525 94.751 110.544 94.4976 110.602C94.2442 110.66 93.9618 110.732 93.6506 110.817C93.3544 110.892 93.0671 110.956 92.7887 111.009C92.5077 111.074 92.2407 111.103 91.9878 111.096C91.7323 111.102 91.4936 111.042 91.2717 110.917C91.0473 110.805 90.846 110.613 90.6679 110.341C90.4503 110.009 90.343 109.664 90.3459 109.306C90.3538 108.955 90.4719 108.608 90.7002 108.264C90.9209 107.925 91.2541 107.61 91.6998 107.318C92.1077 107.051 92.4874 106.873 92.8387 106.783C93.1826 106.698 93.5046 106.671 93.8049 106.701C94.0976 106.736 94.3538 106.806 94.5733 106.91C94.7902 107.027 94.972 107.156 95.1186 107.298C95.2576 107.444 95.3542 107.575 95.4083 107.691Z" fill="#141414"/>
<path d="M79.5937 113.093C80.0893 112.927 80.5396 112.894 80.9448 112.995C81.3499 113.096 81.704 113.286 82.0071 113.565C82.3102 113.843 82.5692 114.16 82.7841 114.516C82.9991 114.872 83.1641 115.22 83.2792 115.562C83.4346 116.024 83.5415 116.468 83.5999 116.895C83.6497 117.326 83.6324 117.726 83.5481 118.097C83.4637 118.468 83.2837 118.795 83.0081 119.078C82.7324 119.361 82.3425 119.588 81.8385 119.758C81.2831 119.945 80.7344 119.968 80.1923 119.827C79.653 119.695 79.1661 119.421 78.7315 119.006C78.2883 118.594 77.9587 118.068 77.7429 117.427C77.5213 116.769 77.4623 116.142 77.5659 115.546C77.6724 114.958 77.9046 114.447 78.2624 114.013C78.6117 113.581 79.0555 113.275 79.5937 113.093ZM80.3024 114.053C79.8923 114.192 79.5608 114.408 79.308 114.702C79.0581 115.005 78.9038 115.352 78.8452 115.743C78.7809 116.145 78.8235 116.568 78.9732 117.013C79.1948 117.67 79.5612 118.151 80.0725 118.455C80.5752 118.761 81.1598 118.802 81.8262 118.577C82.2277 118.442 82.5549 118.227 82.8077 117.933C83.052 117.641 83.2063 117.294 83.2706 116.892C83.3349 116.49 83.2908 116.062 83.1382 115.61C82.9943 115.182 82.7879 114.824 82.519 114.534C82.2445 114.255 81.9189 114.065 81.5422 113.964C81.1685 113.871 80.7552 113.901 80.3024 114.053ZM85.4477 118.399L84.2687 118.796L83.7296 117.365L81.2 109.855L82.4303 109.441L85.4477 118.399Z" fill="#141414"/>
<path d="M76.8186 121.039L75.5514 121.306L74.1633 114.719L75.4305 114.452L76.8186 121.039ZM73.0841 120.654C73.5417 120.558 73.9111 120.37 74.1922 120.09C74.4645 119.812 74.665 119.498 74.7936 119.15C74.9135 118.803 74.9746 118.482 74.9769 118.187L75.1486 118.937C75.1584 119.027 75.1651 119.168 75.1689 119.36C75.1657 119.563 75.1363 119.794 75.0808 120.054C75.0252 120.314 74.9317 120.568 74.8002 120.816C74.6706 121.073 74.4886 121.3 74.2543 121.497C74.0199 121.693 73.718 121.83 73.3484 121.908L73.0841 120.654Z" fill="#141414"/>
<path d="M67.6158 115.551C68.2698 115.494 68.8822 115.581 69.4529 115.811C70.0237 116.041 70.4929 116.402 70.8608 116.894C71.2286 117.385 71.4441 117.994 71.5073 118.719C71.5714 119.454 71.4647 120.095 71.1875 120.643C70.911 121.2 70.5116 121.641 69.9893 121.966C69.467 122.292 68.8788 122.483 68.2247 122.54C67.5707 122.597 66.9628 122.51 66.401 122.279C65.8393 122.048 65.3741 121.682 65.0055 121.182C64.6377 120.69 64.4218 120.077 64.3577 119.342C64.2945 118.617 64.4015 117.98 64.6788 117.432C64.956 116.885 65.3513 116.448 65.8647 116.124C66.3781 115.799 66.9618 115.608 67.6158 115.551ZM67.713 116.667C67.3098 116.702 66.9458 116.824 66.621 117.033C66.288 117.251 66.0336 117.544 65.858 117.912C65.6742 118.289 65.6042 118.728 65.6479 119.23C65.6924 119.741 65.8378 120.166 66.084 120.506C66.3213 120.846 66.6229 121.095 66.9887 121.253C67.3455 121.411 67.7255 121.473 68.1287 121.438C68.5319 121.403 68.9 121.276 69.233 121.057C69.5668 120.848 69.8256 120.554 70.0094 120.177C70.1932 119.8 70.2625 119.352 70.2172 118.832C70.1735 118.33 70.033 117.909 69.7957 117.569C69.5502 117.238 69.2446 116.994 68.8787 116.836C68.5137 116.687 68.1251 116.631 67.713 116.667Z" fill="#141414"/>
<path d="M56.0623 118.144C56.1506 117.591 56.3601 117.118 56.6908 116.724C57.012 116.338 57.4216 116.053 57.9197 115.867C58.4177 115.682 58.9629 115.607 59.5554 115.644C60.2106 115.684 60.8037 115.856 61.3346 116.159C61.8649 116.472 62.28 116.898 62.58 117.439C62.8703 117.989 62.993 118.627 62.9481 119.354C62.9025 120.09 62.7021 120.709 62.3467 121.209C61.9819 121.718 61.517 122.095 60.9523 122.34C60.3875 122.584 59.7775 122.686 59.1222 122.645C58.5298 122.609 58.0024 122.468 57.54 122.223C57.0776 121.978 56.7063 121.644 56.4261 121.222C56.1453 120.808 55.9907 120.321 55.9623 119.76L57.1337 119.833C57.2563 120.327 57.5065 120.725 57.8842 121.028C58.2524 121.339 58.6879 121.51 59.1905 121.541C59.6034 121.567 59.9953 121.496 60.366 121.33C60.7277 121.163 61.0274 120.907 61.265 120.561C61.4931 120.224 61.6233 119.795 61.6555 119.274C61.6866 118.772 61.61 118.334 61.4258 117.963C61.232 117.599 60.9659 117.312 60.6275 117.102C60.2885 116.901 59.9081 116.788 59.4862 116.761C58.9118 116.726 58.4364 116.836 58.0601 117.092C57.6839 117.348 57.4039 117.723 57.2202 118.216L56.0623 118.144Z" fill="#141414"/>
<path d="M49.4406 116.451L48.2397 116.196C48.4015 115.78 48.6507 115.428 48.9874 115.141C49.324 114.854 49.7294 114.655 50.2034 114.544C50.6774 114.433 51.2047 114.439 51.7853 114.562C52.4716 114.708 53.0522 114.983 53.5273 115.387C54.0025 115.791 54.3399 116.281 54.5396 116.856C54.7394 117.432 54.7674 118.058 54.6238 118.736C54.4783 119.422 54.2019 119.988 53.7946 120.435C53.3854 120.891 52.8861 121.208 52.2967 121.386C51.7073 121.565 51.0739 121.582 50.3964 121.439C49.6838 121.288 49.1154 121.02 48.6912 120.636C48.267 120.252 47.9993 119.758 47.8881 119.156C47.7662 118.56 47.814 117.857 48.0314 117.048L53.4289 118.193C53.4688 117.788 53.4247 117.41 53.2964 117.062C53.1593 116.711 52.9467 116.413 52.6585 116.168C52.3614 115.921 51.9974 115.752 51.5663 115.66C51.0824 115.558 50.6544 115.582 50.2823 115.733C49.9101 115.884 49.6296 116.123 49.4406 116.451ZM50.6127 120.354C51.1845 120.475 51.6922 120.422 52.1358 120.194C52.5776 119.975 52.9132 119.628 53.1426 119.153L49.0913 118.294C49.0127 118.838 49.1195 119.288 49.4117 119.644C49.7021 120.009 50.1024 120.246 50.6127 120.354Z" fill="#141414"/>
<path d="M46.9969 115.791L45.881 115.388C45.9611 115.034 45.9098 114.7 45.7272 114.386C45.5416 114.079 45.2121 113.841 44.7387 113.669C44.4344 113.559 44.1854 113.508 43.9919 113.514C43.7953 113.529 43.6402 113.588 43.5268 113.69C43.4048 113.789 43.3163 113.915 43.2613 114.067C43.1909 114.262 43.1882 114.428 43.2529 114.566C43.3146 114.713 43.4262 114.853 43.5877 114.988C43.7462 115.132 43.94 115.283 44.1691 115.442C44.4206 115.619 44.6675 115.809 44.9097 116.011C45.152 116.214 45.3655 116.43 45.5503 116.659C45.7265 116.885 45.8483 117.13 45.9156 117.393C45.9713 117.662 45.9426 117.953 45.8295 118.266C45.7347 118.528 45.5911 118.753 45.3986 118.941C45.1977 119.127 44.9625 119.262 44.6931 119.346C44.4121 119.435 44.1127 119.47 43.7947 119.451C43.4736 119.44 43.1398 119.372 42.7932 119.246C42.3113 119.072 41.9376 118.837 41.6721 118.54C41.4036 118.252 41.2414 117.92 41.1854 117.546C41.121 117.169 41.158 116.777 41.2963 116.368L42.3615 116.753C42.2922 117.129 42.3216 117.432 42.4494 117.66C42.5743 117.896 42.8227 118.081 43.1946 118.216C43.5581 118.347 43.8631 118.376 44.1095 118.303C44.3559 118.23 44.5235 118.07 44.6122 117.825C44.6794 117.639 44.6668 117.463 44.5744 117.295C44.4789 117.136 44.3323 116.974 44.1346 116.806C43.9369 116.639 43.7112 116.457 43.4574 116.26C43.2205 116.07 42.9979 115.879 42.7894 115.689C42.5694 115.504 42.3867 115.309 42.2412 115.103C42.0841 114.903 41.9889 114.678 41.9554 114.427C41.9105 114.181 41.943 113.906 42.0531 113.601C42.1876 113.23 42.3984 112.938 42.6852 112.726C42.9691 112.523 43.316 112.409 43.7261 112.385C44.1278 112.359 44.578 112.435 45.0768 112.616C45.5333 112.781 45.9023 112.977 46.1837 113.203C46.4568 113.426 46.6711 113.666 46.8267 113.923C46.9738 114.177 47.0714 114.422 47.1194 114.66C47.1559 114.902 47.1617 115.124 47.1367 115.325C47.1032 115.524 47.0566 115.679 46.9969 115.791Z" fill="#141414"/>
<path d="M40.7848 113.488L39.7233 112.956C39.8442 112.614 39.8323 112.276 39.6878 111.943C39.5391 111.617 39.2397 111.341 38.7894 111.115C38.4999 110.97 38.2586 110.89 38.0656 110.874C37.8685 110.866 37.7076 110.906 37.5828 110.994C37.4501 111.078 37.3474 111.193 37.275 111.338C37.1823 111.523 37.1601 111.688 37.2083 111.832C37.2524 111.985 37.3469 112.138 37.4916 112.291C37.6322 112.452 37.8071 112.625 38.0161 112.81C38.2452 113.015 38.4683 113.233 38.6854 113.462C38.9024 113.692 39.0893 113.931 39.246 114.18C39.3946 114.426 39.487 114.683 39.523 114.953C39.547 115.226 39.4845 115.512 39.3355 115.809C39.2107 116.059 39.0416 116.266 38.8283 116.43C38.607 116.591 38.3576 116.698 38.0801 116.75C37.7905 116.806 37.4888 116.806 37.1751 116.749C36.8574 116.701 36.5337 116.594 36.204 116.429C35.7457 116.199 35.402 115.922 35.1729 115.596C34.9398 115.278 34.8174 114.93 34.8055 114.552C34.7857 114.17 34.8683 113.784 35.0536 113.394L36.0668 113.901C35.954 114.267 35.9478 114.571 36.0482 114.812C36.1445 115.061 36.3696 115.275 36.7235 115.452C37.0692 115.625 37.3688 115.69 37.6222 115.645C37.8756 115.601 38.0607 115.463 38.1775 115.23C38.2661 115.053 38.2743 114.876 38.202 114.699C38.1257 114.53 37.9991 114.351 37.8222 114.161C37.6454 113.972 37.4424 113.765 37.2133 113.54C37.0003 113.322 36.8013 113.107 36.6164 112.894C36.4195 112.685 36.2607 112.469 36.1402 112.248C36.0076 112.031 35.9394 111.795 35.9355 111.542C35.9196 111.293 35.9841 111.023 36.1291 110.734C36.3063 110.38 36.5497 110.115 36.8595 109.938C37.1653 109.769 37.5233 109.697 37.9335 109.721C38.3357 109.742 38.774 109.871 39.2485 110.108C39.6827 110.326 40.0264 110.563 40.2797 110.821C40.5248 111.074 40.7097 111.338 40.8342 111.611C40.9507 111.881 41.0189 112.136 41.0389 112.378C41.0468 112.623 41.0265 112.844 40.9781 113.041C40.9217 113.234 40.8573 113.383 40.7848 113.488Z" fill="#141414"/>
<path d="M28.125 102.607C28.5214 102.946 28.7799 103.315 28.9003 103.714C29.0207 104.113 29.0392 104.513 28.9557 104.915C28.8723 105.317 28.7332 105.701 28.5385 106.067C28.3438 106.433 28.1295 106.753 27.8957 107.026C27.58 107.395 27.254 107.714 26.9178 107.983C26.5747 108.246 26.2227 108.436 25.8619 108.553C25.5011 108.671 25.129 108.684 24.7455 108.593C24.362 108.501 23.9686 108.283 23.5654 107.938C23.1211 107.558 22.8206 107.1 22.664 106.564C22.5015 106.034 22.4867 105.477 22.6197 104.893C22.7459 104.303 23.0282 103.751 23.4666 103.238C23.9168 102.712 24.4236 102.341 24.9872 102.125C25.545 101.915 26.1015 101.853 26.6566 101.937C27.2049 102.015 27.6944 102.239 28.125 102.607ZM27.6653 103.705C27.3372 103.424 26.9824 103.251 26.6009 103.185C26.2136 103.126 25.8376 103.171 25.4729 103.321C25.0955 103.472 24.7548 103.725 24.4509 104.08C24.0008 104.606 23.7765 105.166 23.7781 105.759C23.7729 106.347 24.0369 106.868 24.57 107.324C24.8912 107.599 25.2426 107.769 25.6241 107.835C25.9988 107.895 26.3748 107.85 26.7521 107.699C27.1295 107.549 27.4731 107.292 27.7829 106.93C28.0752 106.588 28.2767 106.228 28.3875 105.849C28.4856 105.472 28.4818 105.096 28.3761 104.721C28.2644 104.354 28.0275 104.015 27.6653 103.705ZM26.575 110.335L25.6318 109.528L26.5816 108.335L31.72 102.327L32.7042 103.168L26.575 110.335Z" fill="#141414"/>
<path d="M19.8736 104.202L19.0036 103.243L23.9904 98.7208L24.8603 99.6802L19.8736 104.202ZM18.3217 100.783C18.6358 101.13 18.9846 101.354 19.368 101.455C19.7454 101.55 20.1171 101.565 20.4832 101.5C20.8432 101.429 21.151 101.32 21.4065 101.173L20.8459 101.7C20.7732 101.753 20.6549 101.83 20.4908 101.93C20.314 102.03 20.0995 102.121 19.8471 102.205C19.5947 102.288 19.3282 102.335 19.0474 102.347C18.7601 102.365 18.4725 102.322 18.1846 102.219C17.8968 102.116 17.626 101.924 17.3723 101.644L18.3217 100.783Z" fill="#141414"/>
<path d="M19.9132 93.5046C20.2939 94.043 20.5291 94.6179 20.6187 95.2295C20.7083 95.841 20.6331 96.4308 20.3931 96.9988C20.1532 97.5668 19.7346 98.0621 19.1372 98.4846C18.5325 98.9123 17.9224 99.1447 17.3069 99.1818C16.684 99.224 16.0992 99.1011 15.5524 98.8129C15.0056 98.5248 14.5418 98.1116 14.161 97.5732C13.7802 97.0349 13.5477 96.4636 13.4633 95.8594C13.379 95.2553 13.4604 94.6666 13.7078 94.0933C13.9477 93.5253 14.37 93.0274 14.9747 92.5997C15.5721 92.1772 16.1785 91.9474 16.794 91.9104C17.4095 91.8733 17.988 91.9952 18.5296 92.276C19.0712 92.5567 19.5324 92.9663 19.9132 93.5046ZM18.995 94.154C18.7603 93.8222 18.4701 93.5683 18.1244 93.3924C17.7661 93.2143 17.3832 93.1422 16.9756 93.176C16.5554 93.2077 16.1388 93.3695 15.7259 93.6617C15.3055 93.959 15.0104 94.3004 14.8406 94.6861C14.6656 95.0643 14.6024 95.452 14.651 95.8492C14.6943 96.239 14.8334 96.5998 15.0681 96.9316C15.3028 97.2635 15.5993 97.5184 15.9576 97.6965C16.3085 97.8798 16.6941 97.9556 17.1143 97.924C17.5344 97.8923 17.9584 97.7252 18.3861 97.4227C18.7991 97.1306 19.0931 96.7954 19.2681 96.4171C19.4305 96.0367 19.4874 95.6479 19.4388 95.2508C19.3829 94.8588 19.235 94.4933 18.995 94.154Z" fill="#141414"/>
<path d="M11.909 84.8164C12.4314 84.6141 12.9461 84.5567 13.453 84.6441C13.9479 84.7275 14.4008 84.9376 14.8118 85.2746C15.2228 85.6115 15.5616 86.0452 15.8282 86.5755C16.1231 87.162 16.2732 87.761 16.2785 88.3723C16.2759 88.9877 16.1162 89.5611 15.7997 90.0927C15.471 90.6203 14.9813 91.0477 14.3304 91.3749C13.6715 91.7061 13.0364 91.8443 12.4249 91.7893C11.8014 91.7303 11.2419 91.5184 10.7464 91.1535C10.2509 90.7886 9.85569 90.3128 9.56081 89.7263C9.29421 89.1959 9.15028 88.6694 9.12903 88.1466C9.10778 87.6238 9.20927 87.1349 9.43351 86.6799C9.64971 86.229 9.99276 85.8502 10.4627 85.5435L10.9898 86.5921C10.6246 86.9468 10.4063 87.3635 10.335 87.8423C10.2515 88.3171 10.3229 88.7794 10.5491 89.2294C10.7349 89.599 10.993 89.9021 11.3233 90.1387C11.6496 90.3672 12.0219 90.4971 12.4403 90.5284C12.8465 90.5557 13.2827 90.4521 13.7487 90.2179C14.1987 89.9916 14.5379 89.7053 14.7664 89.359C14.9828 89.0086 15.0967 88.6343 15.1079 88.2361C15.111 87.8419 15.0177 87.456 14.8278 87.0784C14.5693 86.5641 14.2347 86.2089 13.824 86.0127C13.4134 85.8166 12.9487 85.7633 12.4301 85.8529L11.909 84.8164Z" fill="#141414"/>
<path d="M10.0678 78.2343L9.68721 77.0681C10.1282 76.9999 10.557 77.0395 10.9739 77.1871C11.3907 77.3347 11.7657 77.5857 12.0988 77.9402C12.4319 78.2948 12.6905 78.754 12.8745 79.3178C13.0919 79.9843 13.1447 80.624 13.0329 81.2372C12.921 81.8504 12.6661 82.3873 12.2681 82.848C11.8702 83.3088 11.3423 83.6465 10.6844 83.8611C10.018 84.0786 9.38962 84.1229 8.7993 83.9942C8.20043 83.8682 7.67639 83.5949 7.22717 83.1742C6.77795 82.7536 6.44601 82.2144 6.23134 81.5565C6.00552 80.8645 5.95264 80.2389 6.0727 79.6798C6.19276 79.1207 6.48567 78.6422 6.95144 78.2444C7.40587 77.8409 8.03734 77.5309 8.84584 77.3143L10.5562 82.5559C10.9268 82.3877 11.2309 82.1608 11.4686 81.8753C11.7035 81.5812 11.8548 81.2482 11.9225 80.8763C11.9874 80.4959 11.9516 80.0964 11.815 79.6778C11.6616 79.2079 11.4266 78.8497 11.1099 78.6033C10.7931 78.3569 10.4458 78.2339 10.0678 78.2343ZM7.27803 81.2008C7.45924 81.7561 7.75931 82.1687 8.17822 82.4385C8.58858 82.7111 9.05678 82.8277 9.5828 82.7884L8.29895 78.8541C7.78894 79.0583 7.45299 79.3759 7.29111 79.8069C7.12069 80.2406 7.11633 80.7052 7.27803 81.2008Z" fill="#141414"/>
<path d="M9.4461 75.8006L9.23242 74.6372C9.57687 74.5284 9.83857 74.3163 10.0175 74.001C10.1877 73.6873 10.2274 73.2837 10.1368 72.7902C10.0785 72.4729 9.99793 72.2326 9.89505 72.0693C9.78335 71.9076 9.65493 71.8036 9.50978 71.7574C9.363 71.7023 9.2103 71.6894 9.05166 71.7185C8.84895 71.7557 8.70442 71.837 8.61809 71.9621C8.52294 72.0889 8.45792 72.2558 8.42302 72.4626C8.37931 72.6711 8.34649 72.914 8.32454 73.1914C8.29864 73.4968 8.25952 73.8046 8.20718 74.1149C8.15484 74.4251 8.07642 74.7174 7.97192 74.9917C7.86579 75.2572 7.71632 75.4851 7.52351 75.6754C7.32026 75.8585 7.05558 75.98 6.72949 76.0399C6.45627 76.0901 6.19016 76.0797 5.93115 76.0089C5.67052 75.9292 5.43625 75.7946 5.22832 75.605C5.00996 75.4082 4.8292 75.1681 4.68602 74.8846C4.53403 74.6028 4.42486 74.2812 4.35848 73.9198C4.26621 73.4174 4.28105 72.9774 4.403 72.5997C4.51614 72.2236 4.71957 71.9174 5.01329 71.6813C5.30539 71.4363 5.66216 71.2706 6.08359 71.184L6.28755 72.2945C5.92872 72.4242 5.68338 72.6014 5.55154 72.826C5.41088 73.0523 5.37617 73.3593 5.4474 73.7471C5.51701 74.1261 5.64534 74.4032 5.8324 74.5784C6.01946 74.7536 6.24079 74.8177 6.49638 74.7708C6.69028 74.7351 6.83597 74.6355 6.93346 74.4718C7.02213 74.3098 7.08868 74.1017 7.13311 73.8475C7.17753 73.5934 7.2207 73.3075 7.26261 72.9901C7.30776 72.6902 7.35974 72.4028 7.41856 72.1278C7.46694 71.8456 7.54302 71.5902 7.64681 71.3616C7.74016 71.1258 7.88648 70.9303 8.08577 70.7753C8.27463 70.6131 8.5277 70.5028 8.84499 70.4445C9.23278 70.3733 9.58991 70.4079 9.91636 70.5484C10.234 70.6905 10.5061 70.932 10.7328 71.2731C10.9578 71.6053 11.1181 72.0314 11.2136 72.5514C11.301 73.0273 11.3182 73.4433 11.2651 73.7992C11.2104 74.1464 11.1116 74.4515 10.9686 74.7146C10.824 74.969 10.6616 75.1765 10.4816 75.3371C10.2911 75.4905 10.103 75.6071 9.91717 75.6867C9.72975 75.7576 9.57273 75.7956 9.4461 75.8006Z" fill="#141414"/>
<path d="M8.25185 69.2696L8.17669 68.0849C8.53286 68.0172 8.81879 67.8369 9.0345 67.5438C9.24123 67.2514 9.32865 66.8538 9.29677 66.3512C9.27627 66.0281 9.22443 65.7791 9.14124 65.6041C9.04907 65.4297 8.93339 65.3109 8.79421 65.2477C8.65446 65.1754 8.5038 65.1444 8.34225 65.1547C8.13581 65.1678 7.98216 65.2316 7.88129 65.3461C7.77145 65.4612 7.68689 65.6198 7.62761 65.8218C7.55936 66.0244 7.49787 66.2626 7.44315 66.5364C7.38117 66.8377 7.30572 67.1399 7.2168 67.4429C7.12789 67.7459 7.01511 68.0279 6.87848 68.2889C6.74127 68.5409 6.56532 68.7503 6.35061 68.9171C6.12637 69.0755 5.8482 69.1653 5.51611 69.1864C5.23788 69.204 4.9739 69.1622 4.72416 69.0609C4.47386 68.9506 4.25632 68.7887 4.07156 68.5751C3.87725 68.3531 3.72553 68.0924 3.61642 67.7929C3.49833 67.4941 3.42762 67.1606 3.40427 66.7926C3.37182 66.281 3.43873 65.8442 3.605 65.4822C3.7623 65.1208 4.0013 64.8398 4.322 64.6393C4.64213 64.4297 5.01731 64.3068 5.44756 64.2705L5.5193 65.4014C5.14632 65.4881 4.88083 65.6356 4.72283 65.8439C4.55585 66.0527 4.48489 66.3546 4.50994 66.7495C4.53443 67.1355 4.62951 67.4268 4.79518 67.6235C4.96086 67.8203 5.17384 67.9104 5.43412 67.8939C5.63158 67.8814 5.78858 67.7993 5.90512 67.6478C6.01269 67.4967 6.10366 67.2972 6.17804 67.0492C6.25242 66.8012 6.3293 66.5215 6.40866 66.21C6.48917 65.9166 6.57502 65.6363 6.66621 65.3691C6.74786 65.0936 6.85394 64.8481 6.98444 64.6325C7.10541 64.4086 7.27438 64.2312 7.49136 64.1003C7.6988 63.9609 7.96407 63.881 8.28718 63.8605C8.68209 63.8355 9.0339 63.9123 9.34262 64.0909C9.64235 64.2702 9.88495 64.5432 10.0704 64.9099C10.2553 65.2676 10.3646 65.7113 10.3982 66.2408C10.4289 66.7255 10.3968 67.142 10.3017 67.4905C10.2061 67.83 10.0715 68.1224 9.89779 68.3677C9.72355 68.604 9.53719 68.7916 9.33873 68.9303C9.13073 69.0607 8.92942 69.1545 8.73481 69.2119C8.53963 69.2604 8.37865 69.2796 8.25185 69.2696Z" fill="#141414"/>
<path d="M11.2939 52.8583C11.1986 53.3711 11.0084 53.7794 10.7232 54.0831C10.4381 54.3869 10.1006 54.6031 9.71074 54.7319C9.32091 54.8607 8.91884 54.9323 8.50452 54.9468C8.0902 54.9612 7.7062 54.9356 7.35252 54.8698C6.87506 54.7811 6.43594 54.6583 6.03517 54.5015C5.63603 54.3358 5.29539 54.1261 5.01324 53.8725C4.73109 53.6188 4.53365 53.3031 4.42091 52.9254C4.30817 52.5477 4.30028 52.098 4.39725 51.5763C4.50408 51.0016 4.75054 50.5123 5.13663 50.1084C5.51387 49.7028 5.9888 49.4115 6.56143 49.2344C7.13569 49.0484 7.75439 49.017 8.41753 49.1403C9.09836 49.2669 9.67331 49.5201 10.1424 49.9C10.6026 50.2783 10.9351 50.7288 11.1398 51.2517C11.3461 51.7657 11.3975 52.3012 11.2939 52.8583ZM10.1133 53.0093C10.1922 52.5849 10.1648 52.191 10.031 51.8277C9.88849 51.4627 9.66123 51.1598 9.34927 50.9189C9.03011 50.6674 8.64064 50.499 8.18086 50.4135C7.50004 50.287 6.90324 50.3727 6.39048 50.6707C5.87936 50.9599 5.5597 51.4494 5.4315 52.139C5.35425 52.5546 5.38249 52.944 5.5162 53.3073C5.65155 53.6618 5.87881 53.9647 6.19797 54.2162C6.51713 54.4676 6.91102 54.6368 7.37964 54.724C7.82173 54.8061 8.23441 54.8005 8.61767 54.7071C8.99373 54.6032 9.31745 54.4118 9.58882 54.133C9.85135 53.8525 10.0262 53.4779 10.1133 53.0093ZM3.82727 55.3809L4.05407 54.1607L5.56263 54.3862L13.3346 55.8309L13.098 57.1041L3.82727 55.3809Z" fill="#141414"/>
<path d="M5.73455 46.5042L6.12592 45.2697L12.5427 47.304L12.1513 48.5385L5.73455 46.5042ZM7.90792 43.443C7.7666 43.8888 7.74853 44.3029 7.85372 44.6853C7.96162 45.0592 8.1357 45.388 8.37596 45.6717C8.61894 45.9468 8.86808 46.1579 9.12338 46.3049L8.38633 46.0854C8.30332 46.0496 8.17723 45.9861 8.00808 45.8947C7.83306 45.792 7.64613 45.6526 7.44728 45.4763C7.24842 45.3001 7.0733 45.0936 6.92191 44.8569C6.76195 44.6175 6.65415 44.3475 6.59852 44.0468C6.54289 43.7461 6.57215 43.4158 6.68629 43.0557L7.90792 43.443Z" fill="#141414"/>
<path d="M15.0485 41.1912C14.7757 41.7884 14.3986 42.2786 13.917 42.6617C13.4355 43.0449 12.8903 43.2754 12.2813 43.3531C11.6723 43.4309 11.0365 43.3184 10.3739 43.0158C9.70314 42.7094 9.19777 42.3006 8.85783 41.7894C8.50971 41.2744 8.32282 40.7095 8.29716 40.0947C8.27151 39.4798 8.39507 38.8738 8.66784 38.2767C8.94061 37.6795 9.31589 37.1934 9.79368 36.8185C10.2715 36.4435 10.8189 36.219 11.4361 36.1449C12.0451 36.0672 12.685 36.1815 13.3557 36.4879C14.0183 36.7905 14.5196 37.1975 14.8596 37.7087C15.1995 38.2199 15.3842 38.7789 15.4136 39.3855C15.443 39.9922 15.3213 40.5941 15.0485 41.1912ZM14.03 40.726C14.1982 40.3579 14.2715 39.9811 14.2498 39.5955C14.2238 39.198 14.0942 38.8323 13.8611 38.4984C13.6236 38.1526 13.2758 37.8751 12.8177 37.6658C12.3514 37.4529 11.9098 37.3698 11.4929 37.4167C11.0798 37.4553 10.7144 37.595 10.3969 37.8355C10.0831 38.0679 9.84217 38.3682 9.67402 38.7363C9.50587 39.1044 9.43483 39.4872 9.46089 39.8847C9.47876 40.2785 9.60647 40.6482 9.844 40.994C10.0815 41.3398 10.4375 41.6211 10.912 41.8378C11.3701 42.0471 11.8057 42.1323 12.2189 42.0937C12.6276 42.0431 12.9907 41.8975 13.3082 41.6569C13.6175 41.4126 13.8582 41.1023 14.03 40.726Z" fill="#141414"/>
<path d="M18.4654 29.818C18.9041 30.17 19.2131 30.5882 19.3924 31.0726C19.5691 31.5445 19.6146 32.0438 19.5288 32.5704C19.443 33.0971 19.2369 33.6097 18.9104 34.1083C18.5493 34.6597 18.1046 35.0917 17.5763 35.4041C17.0403 35.7116 16.4618 35.8617 15.8406 35.8543C15.2169 35.8344 14.599 35.6241 13.9871 35.2235C13.3676 34.8179 12.9279 34.3357 12.6678 33.7768C12.4051 33.2055 12.3075 32.6127 12.3751 31.9986C12.4426 31.3844 12.6569 30.8016 13.018 30.2501C13.3444 29.7515 13.7294 29.3614 14.1729 29.0797C14.6163 28.7981 15.0921 28.6401 15.6002 28.6058C16.1008 28.5666 16.6026 28.6739 17.1056 28.9277L16.4601 29.9136C15.9681 29.7749 15.4961 29.7951 15.0443 29.9741C14.5899 30.1407 14.2242 30.4355 13.9472 30.8585C13.7196 31.206 13.5863 31.5828 13.5471 31.9889C13.5128 32.3874 13.5874 32.7762 13.7709 33.1553C13.9517 33.522 14.2612 33.8488 14.6994 34.1357C15.1224 34.4127 15.5419 34.5632 15.9579 34.5873C16.3712 34.5989 16.7536 34.5093 17.1052 34.3186C17.4492 34.1229 17.7374 33.8475 17.9699 33.4925C18.2865 33.009 18.4266 32.5395 18.3902 32.084C18.3539 31.6284 18.1663 31.198 17.8273 30.7926L18.4654 29.818Z" fill="#141414"/>
<path d="M23.2465 24.969L24.0613 24.0507C24.3431 24.397 24.5257 24.7874 24.609 25.222C24.6924 25.6566 24.6651 26.1073 24.5274 26.5743C24.3897 27.0412 24.1238 27.4966 23.7299 27.9406C23.2644 28.4654 22.7386 28.8344 22.1525 29.0478C21.5664 29.2612 20.9738 29.3126 20.3747 29.2018C19.7756 29.0911 19.2171 28.806 18.6991 28.3464C18.1744 27.8808 17.8184 27.3606 17.6311 26.7857C17.4372 26.2048 17.4082 25.6141 17.5443 25.0135C17.6805 24.4129 17.9783 23.8536 18.4379 23.3356C18.9213 22.7907 19.4348 22.4287 19.9784 22.2497C20.5219 22.0707 21.0832 22.0818 21.6622 22.2829C22.2404 22.4713 22.8275 22.8599 23.4232 23.4486L19.7615 27.5758C20.0941 27.8107 20.4438 27.9586 20.8105 28.0195C21.1833 28.0737 21.5473 28.036 21.9027 27.9065C22.2641 27.7702 22.591 27.5373 22.8834 27.2076C23.2117 26.8376 23.4022 26.4536 23.4548 26.0554C23.5075 25.6573 23.438 25.2952 23.2465 24.969ZM19.2743 24.0596C18.8863 24.4969 18.6818 24.9646 18.6606 25.4628C18.6326 25.955 18.7686 26.4183 19.0685 26.8527L21.817 23.7548C21.3828 23.4176 20.9387 23.2881 20.4847 23.3662C20.0239 23.4383 19.6205 23.6695 19.2743 24.0596Z" fill="#141414"/>
<path d="M25.0215 23.1656L25.92 22.3898C26.1891 22.6326 26.5056 22.7515 26.8694 22.7462C27.2274 22.7342 27.597 22.5636 27.9781 22.2345C28.2232 22.0229 28.3903 21.8311 28.4794 21.6591C28.5626 21.4803 28.5874 21.3163 28.5537 21.1672C28.5268 21.0122 28.4604 20.8734 28.3546 20.7509C28.2195 20.5943 28.0758 20.5105 27.9235 20.4993C27.7654 20.4814 27.588 20.5098 27.3912 20.5846C27.1886 20.6527 26.9617 20.7477 26.7104 20.8695C26.4329 21.0022 26.1466 21.1247 25.8514 21.237C25.5562 21.3493 25.2634 21.4298 24.9729 21.4787C24.6892 21.5217 24.416 21.508 24.1533 21.4378C23.8916 21.3549 23.652 21.1875 23.4345 20.9356C23.2523 20.7246 23.1261 20.489 23.0559 20.2288C22.9925 19.9627 22.9901 19.6915 23.0486 19.4153C23.108 19.1263 23.224 18.8479 23.3967 18.58C23.5635 18.3053 23.7864 18.0474 24.0655 17.8064C24.4535 17.4714 24.8419 17.2608 25.2308 17.1745C25.6139 17.0814 25.9822 17.102 26.3358 17.2363C26.6962 17.3647 27.0209 17.5894 27.3098 17.9102L26.4521 18.6508C26.1576 18.406 25.8797 18.2837 25.6182 18.2836C25.3509 18.2768 25.0675 18.4027 24.768 18.6613C24.4753 18.914 24.3007 19.1659 24.244 19.4168C24.1874 19.6677 24.2443 19.8918 24.4147 20.0892C24.544 20.239 24.7043 20.3145 24.8955 20.3157C25.0808 20.3102 25.2948 20.2621 25.5373 20.1715C25.7799 20.0808 26.0492 19.973 26.3453 19.8481C26.6278 19.7349 26.903 19.6339 27.1709 19.5451C27.4398 19.4437 27.6995 19.3798 27.9501 19.3535C28.2016 19.3146 28.4451 19.342 28.6805 19.4357C28.9169 19.5168 29.1409 19.6799 29.3525 19.9249C29.6111 20.2244 29.7625 20.5511 29.8067 20.9051C29.845 21.2522 29.7742 21.6105 29.5941 21.9798C29.4208 22.3433 29.1333 22.6985 28.7317 23.0453C28.3642 23.3627 28.0128 23.5888 27.6778 23.7236C27.3495 23.8526 27.0352 23.9221 26.7348 23.9319C26.4411 23.9359 26.1791 23.9008 25.9486 23.8265C25.7191 23.7396 25.5226 23.6359 25.3593 23.5155C25.2027 23.3893 25.0901 23.2726 25.0215 23.1656Z" fill="#141414"/>
<path d="M30.0705 18.9014L31.0551 18.2383C31.2934 18.5116 31.5934 18.6673 31.9553 18.7055C32.3121 18.7362 32.6994 18.6109 33.1171 18.3296C33.3856 18.1487 33.5744 17.9782 33.6834 17.8181C33.7874 17.6505 33.8315 17.4906 33.8158 17.3386C33.8076 17.1815 33.7583 17.0358 33.6679 16.9015C33.5523 16.7299 33.4196 16.6295 33.2698 16.6003C33.115 16.5636 32.9355 16.5707 32.7312 16.6216C32.5218 16.6649 32.2852 16.7322 32.0212 16.8232C31.7299 16.9219 31.431 17.0093 31.1245 17.0856C30.8181 17.1619 30.5177 17.2069 30.2234 17.2208C29.9366 17.2296 29.667 17.1835 29.4146 17.0824C29.1647 16.9689 28.9467 16.7741 28.7609 16.4981C28.6051 16.2668 28.5079 16.0179 28.4692 15.7512C28.438 15.4794 28.4679 15.2099 28.559 14.9426C28.6524 14.6628 28.8009 14.4002 29.0042 14.1548C29.2026 13.9019 29.4547 13.6725 29.7605 13.4665C30.1857 13.1802 30.5965 13.0173 30.9929 12.978C31.3843 12.9313 31.7475 12.9957 32.0826 13.1712C32.4251 13.3417 32.7207 13.6035 32.9693 13.9565L32.0294 14.5895C31.7662 14.3114 31.5048 14.1567 31.2453 14.1255C30.9807 14.0868 30.6843 14.178 30.3561 14.3991C30.0353 14.6151 29.8319 14.8443 29.7457 15.0866C29.6595 15.329 29.6893 15.5583 29.835 15.7747C29.9455 15.9388 30.0956 16.0328 30.2853 16.0569C30.47 16.0735 30.6881 16.0513 30.9398 15.9902C31.1914 15.9292 31.4717 15.8543 31.7805 15.7655C32.0745 15.6868 32.3598 15.6193 32.6364 15.5632C32.9154 15.4945 33.1809 15.4621 33.4329 15.4659C33.6872 15.4572 33.9257 15.5134 34.1483 15.6346C34.3733 15.7433 34.5762 15.9319 34.7571 16.2005C34.9781 16.5287 35.0895 16.8711 35.0912 17.2278C35.0878 17.577 34.9747 17.9243 34.7519 18.2695C34.5365 18.6098 34.2087 18.9281 33.7686 19.2245C33.3658 19.4958 32.99 19.6784 32.6413 19.7723C32.2999 19.8612 31.9796 19.8927 31.6801 19.8666C31.3881 19.8356 31.1322 19.7695 30.9122 19.6682C30.6946 19.5545 30.512 19.4282 30.3641 19.2892C30.2238 19.1452 30.1259 19.0159 30.0705 18.9014Z" fill="#141414"/>
</g>
<defs>
<clipPath id="clip0_208_2966">
<rect width="124.93" height="124.93" fill="white" transform="translate(0.534912 0.608887)"/>
</clipPath>
</defs>
</svg>
