<svg width="24" height="25" viewBox="0 0 24 25" fill="none" xmlns="http://www.w3.org/2000/svg">
<path d="M12.49 10.6754V10.2254H13.837V16.5474H13.067C12.9146 16.5476 12.7683 16.4875 12.6601 16.3801C12.552 16.2727 12.4908 16.1268 12.49 15.9744V15.9754C11.9277 16.387 11.2488 16.6084 10.552 16.6074C9.68138 16.6074 8.84638 16.2616 8.23057 15.6462C7.61476 15.0308 7.26853 14.196 7.268 13.3254C7.26853 12.4547 7.61476 11.62 8.23057 11.0045C8.84638 10.3891 9.68138 10.0434 10.552 10.0434C11.2485 10.0426 11.927 10.264 12.489 10.6754H12.49ZM6.919 8.19336V8.39836C6.919 8.78036 6.868 9.09236 6.619 9.45836L6.589 9.49236C6.50604 9.58539 6.42535 9.68042 6.347 9.77736L2.024 15.2034H6.919V15.9714C6.919 16.0471 6.90407 16.1221 6.87506 16.192C6.84605 16.262 6.80353 16.3255 6.74994 16.379C6.69635 16.4325 6.63273 16.4749 6.56273 16.5038C6.49273 16.5327 6.41773 16.5475 6.342 16.5474H0V16.1854C0 15.7424 0.11 15.5444 0.25 15.3384L4.857 9.63336H0.192V8.19336H6.92H6.919ZM15.47 16.5474C15.3427 16.5474 15.2206 16.4968 15.1306 16.4068C15.0406 16.3168 14.99 16.1947 14.99 16.0674V8.19336H16.431V16.5474H15.47ZM20.693 10.0034C21.1272 10.0032 21.5571 10.0886 21.9582 10.2546C22.3594 10.4207 22.7239 10.6641 23.031 10.971C23.3381 11.2779 23.5817 11.6422 23.748 12.0433C23.9142 12.4443 23.9999 12.8742 24 13.3084C24.0001 13.7425 23.9147 14.1724 23.7487 14.5736C23.5827 14.9747 23.3393 15.3393 23.0324 15.6463C22.7255 15.9534 22.3611 16.1971 21.9601 16.3633C21.559 16.5296 21.1292 16.6152 20.695 16.6154C19.8182 16.6156 18.9772 16.2676 18.357 15.6478C17.7368 15.028 17.3883 14.1872 17.388 13.3104C17.3877 12.4336 17.7358 11.5926 18.3556 10.9724C18.9754 10.3522 19.8162 10.0036 20.693 10.0034ZM10.553 15.2564C10.8103 15.2622 11.0663 15.2166 11.3057 15.1222C11.5452 15.0277 11.7634 14.8864 11.9475 14.7064C12.1315 14.5265 12.2778 14.3116 12.3777 14.0743C12.4775 13.8371 12.529 13.5823 12.529 13.3249C12.529 13.0674 12.4775 12.8126 12.3777 12.5754C12.2778 12.3381 12.1315 12.1232 11.9475 11.9433C11.7634 11.7633 11.5452 11.622 11.3057 11.5276C11.0663 11.4331 10.8103 11.3875 10.553 11.3934C10.0483 11.4048 9.56822 11.6134 9.21537 11.9744C8.86251 12.3353 8.66495 12.8201 8.66495 13.3249C8.66495 13.8296 8.86251 14.3144 9.21537 14.6754C9.56822 15.0363 10.0483 15.2449 10.553 15.2564ZM20.693 15.2534C21.2088 15.2534 21.7036 15.0484 22.0683 14.6837C22.4331 14.3189 22.638 13.8242 22.638 13.3084C22.638 12.7925 22.4331 12.2978 22.0683 11.933C21.7036 11.5683 21.2088 11.3634 20.693 11.3634C20.1772 11.3634 19.6824 11.5683 19.3177 11.933C18.9529 12.2978 18.748 12.7925 18.748 13.3084C18.748 13.8242 18.9529 14.3189 19.3177 14.6837C19.6824 15.0484 20.1772 15.2534 20.693 15.2534Z" fill="#141414"/>
</svg>
