<svg width="24" height="25" viewBox="0 0 24 25" fill="none" xmlns="http://www.w3.org/2000/svg">
<path d="M4 12.4033C4 16.8216 7.58172 20.4033 12 20.4033C12.3241 20.4033 12.6437 20.3841 12.9576 20.3466C13.8669 21.5933 15.3389 22.4033 17 22.4033C19.7614 22.4033 22 20.1647 22 17.4033C22 15.7422 21.1899 14.2702 19.9433 13.361C19.9807 13.047 20 12.7274 20 12.4033C20 7.98504 16.4183 4.40332 12 4.40332C11.6759 4.40332 11.3563 4.42259 11.0424 4.46005C10.1331 3.21339 8.66115 2.40332 7 2.40332C4.23858 2.40332 2 4.6419 2 7.40332C2 9.06447 2.81007 10.5364 4.05673 11.4457C4.01927 11.7597 4 12.0792 4 12.4033Z" stroke="#141414" stroke-width="1.5" stroke-linejoin="round"/>
<path d="M13.75 10.4033C13.75 10.8175 14.0858 11.1533 14.5 11.1533C14.9142 11.1533 15.25 10.8175 15.25 10.4033H13.75ZM10.25 14.4033C10.25 13.9891 9.91421 13.6533 9.5 13.6533C9.08579 13.6533 8.75 13.9891 8.75 14.4033H10.25ZM12.5 7.65332H11.5V9.15332H12.5V7.65332ZM11.5 13.1533H12.5V11.6533H11.5V13.1533ZM12.5 15.6533H11.5V17.1533H12.5V15.6533ZM11.5 15.6533C10.8096 15.6533 10.25 15.0937 10.25 14.4033H8.75C8.75 15.9221 9.98122 17.1533 11.5 17.1533V15.6533ZM13.75 14.4033C13.75 15.0937 13.1904 15.6533 12.5 15.6533V17.1533C14.0188 17.1533 15.25 15.9221 15.25 14.4033H13.75ZM12.5 13.1533C13.1904 13.1533 13.75 13.713 13.75 14.4033H15.25C15.25 12.8845 14.0188 11.6533 12.5 11.6533V13.1533ZM8.75 10.4033C8.75 11.9221 9.98122 13.1533 11.5 13.1533V11.6533C10.8096 11.6533 10.25 11.0937 10.25 10.4033H8.75ZM11.5 7.65332C9.98122 7.65332 8.75 8.88454 8.75 10.4033H10.25C10.25 9.71296 10.8096 9.15332 11.5 9.15332V7.65332ZM15.25 10.4033C15.25 8.88454 14.0188 7.65332 12.5 7.65332V9.15332C13.1904 9.15332 13.75 9.71296 13.75 10.4033H15.25Z" fill="#141414"/>
</svg>
