<svg width="82" height="82" viewBox="0 0 82 82" fill="none" xmlns="http://www.w3.org/2000/svg">
<g clip-path="url(#clip0_341_4202)">
<path d="M41.4477 80.686C63.5357 80.3004 81.1291 62.082 80.7435 39.994C80.358 17.9059 62.1396 0.312607 40.0515 0.698151C17.9635 1.0837 0.370162 19.3021 0.755706 41.3901C1.14125 63.4782 19.3597 81.0715 41.4477 80.686Z" fill="#008253"/>
<path d="M22.6841 37.0026C25.2599 36.9576 27.3116 34.8331 27.2666 32.2573C27.2216 29.6815 25.0971 27.6299 22.5213 27.6748C19.9455 27.7198 17.8939 29.8443 17.9388 32.4201C17.9838 34.9959 20.1083 37.0475 22.6841 37.0026Z" fill="white"/>
<path d="M58.6753 36.3744C61.2511 36.3294 63.3028 34.2049 63.2578 31.6291C63.2128 29.0533 61.0883 27.0017 58.5125 27.0466C55.9367 27.0916 53.8851 29.2161 53.93 31.7919C53.975 34.3677 56.0995 36.4194 58.6753 36.3744Z" fill="white"/>
<path d="M23.6895 50.1146C31.3104 70.5647 53.2425 67.8682 58.1302 49.5135" stroke="white" stroke-width="2" stroke-linecap="round"/>
</g>
<defs>
<clipPath id="clip0_341_4202">
<rect width="80" height="80" fill="white" transform="translate(0.0576172 1.39624) rotate(-1)"/>
</clipPath>
</defs>
</svg>
