<svg width="48" height="49" viewBox="0 0 48 49" fill="none" xmlns="http://www.w3.org/2000/svg">
<rect y="0.40332" width="48" height="48" rx="24" fill="#F3F3F3"/>
<path d="M19.7298 33.4484L20.0505 32.7704C19.9123 32.705 19.7574 32.6834 19.6065 32.7086L19.7298 33.4484ZM14.9356 28.6324L15.676 28.7524C15.7001 28.6037 15.6789 28.4512 15.6151 28.3148L14.9356 28.6324ZM15.3745 34.1742L15.2512 33.4344L15.3745 34.1742ZM33.25 24.4033C33.25 29.512 29.1087 33.6533 24 33.6533V35.1533C29.9371 35.1533 34.75 30.3404 34.75 24.4033H33.25ZM14.75 24.4033C14.75 19.2947 18.8914 15.1533 24 15.1533V13.6533C18.063 13.6533 13.25 18.4663 13.25 24.4033H14.75ZM24 15.1533C29.1087 15.1533 33.25 19.2947 33.25 24.4033H34.75C34.75 18.4663 29.9371 13.6533 24 13.6533V15.1533ZM15.4978 34.914L19.8531 34.1881L19.6065 32.7086L15.2512 33.4344L15.4978 34.914ZM24 33.6533C22.5856 33.6533 21.2473 33.3364 20.0505 32.7704L19.4092 34.1264C20.8023 34.7852 22.3592 35.1533 24 35.1533V33.6533ZM15.6151 28.3148C15.0603 27.1277 14.75 25.8028 14.75 24.4033H13.25C13.25 26.0267 13.6104 27.5681 14.2562 28.9499L15.6151 28.3148ZM14.1953 28.5123L13.4827 32.9078L14.9633 33.1478L15.676 28.7524L14.1953 28.5123ZM15.2512 33.4344C15.0825 33.4626 14.936 33.3167 14.9633 33.1478L13.4827 32.9078C13.291 34.0899 14.3166 35.1109 15.4978 34.914L15.2512 33.4344Z" fill="#141414"/>
<path d="M28 27.5144V27.0782C28 26.5364 27.6701 26.0491 27.167 25.8479L26.7005 25.6613C26.1789 25.4527 25.5845 25.6787 25.3333 26.1811C25.3333 26.1811 24.2222 25.9589 23.3333 25.07C22.4444 24.1811 22.2222 23.07 22.2222 23.07C22.7247 22.8188 22.9506 22.2244 22.742 21.7028L22.5554 21.2363C22.3542 20.7332 21.8669 20.4033 21.3251 20.4033H20.8889C20.398 20.4033 20 20.8013 20 21.2922C20 25.2196 23.1838 28.4033 27.1111 28.4033C27.602 28.4033 28 28.0054 28 27.5144Z" fill="#141414"/>
</svg>
