<svg width="1240" height="332" viewBox="0 0 1240 332" fill="none" xmlns="http://www.w3.org/2000/svg">
<path d="M0.337402 1.64519H65.1401V10.9592H0.337402V1.64519ZM27.7539 9.96575H37.7236V82.367H27.7539V9.96575Z" fill="#141414"/>
<path d="M83.5596 37.4111H134.903V46.7252H83.5596V37.4111ZM134.28 1.64519H144.25V82.367H134.28V1.64519ZM74.4623 1.64519H84.4319V82.367H74.4623V1.64519Z" fill="#141414"/>
<path d="M171.632 46.8494V73.0529H219.113V82.367H161.663V1.64519H218.988V10.9592H171.632V37.5353H210.389V46.8494H171.632Z" fill="#141414"/>
<path d="M244.599 1.64519H309.401V10.9592H244.599V1.64519ZM272.015 9.96575H281.985V82.367H272.015V9.96575Z" fill="#141414"/>
<path d="M327.821 37.4111H379.164V46.7252H327.821V37.4111ZM378.541 1.64519H388.511V82.367H378.541V1.64519ZM318.723 1.64519H328.693V82.367H318.723V1.64519Z" fill="#141414"/>
<path d="M408.416 1.64519H418.386V82.367H408.416V1.64519Z" fill="#141414"/>
<path d="M500.919 70.5692L498.177 71.4385V1.64519H508.147V82.367H498.177L445.587 13.5672L448.329 12.6979V82.367H438.359V1.64519H448.329L500.919 70.5692Z" fill="#141414"/>
<path d="M559.955 83.6088C554.056 83.6088 548.739 82.6153 544.003 80.6283C539.351 78.6413 535.363 75.8678 532.04 72.3078C528.717 68.665 526.183 64.3184 524.438 59.2681C522.693 54.2178 521.821 48.6708 521.821 42.627C521.821 36.5004 522.776 30.8706 524.687 25.7375C526.598 20.5217 529.298 16.0509 532.788 12.3253C536.277 8.51689 540.389 5.57779 545.125 3.508C549.944 1.43821 555.219 0.40332 560.952 0.40332C567.183 0.40332 572.708 1.6038 577.526 4.00475C582.345 6.32291 586.25 9.63458 589.241 13.9397C592.232 18.1621 594.018 23.1296 594.599 28.8422H586.125C585.045 24.8682 583.3 21.4738 580.891 18.6589C578.482 15.7612 575.574 13.5672 572.168 12.0769C568.844 10.5039 565.106 9.71737 560.952 9.71737C555.219 9.71737 550.151 11.1662 545.748 14.0639C541.428 16.8788 538.022 20.77 535.529 25.7375C533.037 30.705 531.791 36.3349 531.791 42.627C531.791 48.9192 532.912 54.4662 535.155 59.2681C537.399 63.9872 540.639 67.6715 544.876 70.3208C549.113 72.9701 554.139 74.2948 559.955 74.2948C564.441 74.2948 568.346 73.4255 571.669 71.6869C575.075 69.9482 577.817 67.4231 579.894 64.1114C581.971 60.717 583.384 56.5774 584.131 51.6927H590.238C588.908 62.3728 585.544 70.3622 580.143 75.6609C574.743 80.9595 568.014 83.6088 559.955 83.6088ZM588.244 82.367C588.244 79.6348 588.285 76.5716 588.368 73.1771C588.535 69.6999 588.742 66.1812 588.991 62.6212C589.241 59.0611 589.448 55.8737 589.615 53.0588H562.198V43.7447H597.964V82.367H588.244Z" fill="#141414"/>
<path d="M607.398 56.1634H616.371C616.62 59.6407 617.659 62.7454 619.486 65.4775C621.314 68.2096 623.807 70.3622 626.964 71.9352C630.204 73.5083 633.984 74.2948 638.304 74.2948C642.043 74.2948 645.158 73.7566 647.651 72.6804C650.226 71.5213 652.137 69.9482 653.383 67.9612C654.713 65.9742 655.377 63.6561 655.377 61.0067C655.377 58.2746 654.713 56.0806 653.383 54.4248C652.054 52.769 650.143 51.3615 647.651 50.2024C645.158 49.0434 642.209 47.9257 638.803 46.8494C635.562 45.8559 632.281 44.6968 628.958 43.3721C625.634 42.0475 622.519 40.433 619.611 38.5288C616.786 36.6246 614.502 34.3479 612.757 31.6985C611.012 28.9664 610.14 25.6961 610.14 21.8877C610.14 18.1621 611.137 14.6849 613.131 11.456C615.208 8.14433 618.199 5.495 622.103 3.508C626.091 1.43821 630.868 0.40332 636.435 0.40332C645.158 0.40332 651.68 2.76288 656 7.482C660.32 12.2011 662.397 18.4519 662.231 26.2343H653.259C653.093 20.3561 651.431 16.1337 648.274 13.5672C645.117 11.0006 641.004 9.71737 635.936 9.71737C631.699 9.71737 628.002 10.7109 624.845 12.6979C621.688 14.6021 620.11 17.624 620.11 21.7635C620.11 23.585 620.442 25.1994 621.107 26.6068C621.854 27.9315 623.017 29.1734 624.596 30.3325C626.257 31.4915 628.459 32.6506 631.201 33.8097C634.025 34.886 637.473 36.0865 641.544 37.4111C644.203 38.2391 646.903 39.2326 649.645 40.3916C652.469 41.5507 655.045 42.9996 657.371 44.7382C659.78 46.4768 661.691 48.7122 663.104 51.4443C664.599 54.0936 665.347 57.4467 665.347 61.5035C665.347 65.3947 664.391 69.0375 662.481 72.432C660.653 75.7436 657.745 78.4344 653.757 80.5042C649.852 82.5739 644.784 83.6088 638.553 83.6088C633.236 83.6088 628.667 82.9051 624.845 81.4977C621.106 80.0074 618.033 78.1032 615.623 75.785C613.214 73.4669 611.345 71.0659 610.015 68.5822C608.769 66.0156 607.938 63.6147 607.523 61.3793C607.107 59.1439 607.066 57.4053 607.398 56.1634Z" fill="#141414"/>
<path d="M723.168 82.367L694.007 1.64519H704.724L729.773 71.6869H726.782L750.834 1.64519H761.551L785.603 71.6869H782.612L807.661 1.64519H818.129L789.217 82.367H778.749L754.822 9.84155H757.563L733.636 82.367H723.168Z" fill="#141414"/>
<path d="M838.085 46.8494V73.0529H885.565V82.367H828.115V1.64519H885.44V10.9592H838.085V37.5353H876.842V46.8494H838.085Z" fill="#141414"/>
<path d="M970.998 76.406H967.01L1003.9 1.64519H1013.87V82.367H1003.9V18.9072L1005.89 19.404L973.989 82.367H964.02L932.117 19.5282L934.111 19.0314V82.367H924.141V1.64519H934.111L970.998 76.406Z" fill="#141414"/>
<path d="M1040.27 61.2551V51.9411H1079.15V61.2551H1040.27ZM1023.82 82.367L1054.6 1.64519H1065.07L1096.1 82.367H1085.39L1058.34 9.34481H1061.33L1034.29 82.367H1023.82Z" fill="#141414"/>
<path d="M1125.4 43.1238V36.666L1172.26 82.367H1158.68L1116.06 40.1433L1153.57 1.64519H1167.03L1125.4 43.1238ZM1106.09 1.64519H1116.06V82.367H1106.09V1.64519Z" fill="#141414"/>
<path d="M1192.18 46.8494V73.0529H1239.66V82.367H1182.21V1.64519H1239.54V10.9592H1192.18V37.5353H1230.94V46.8494H1192.18Z" fill="#141414"/>
<path d="M53.5908 206.367V125.645H89.3569C95.0064 125.645 99.825 126.515 103.813 128.253C107.801 129.909 110.833 132.434 112.91 135.829C115.07 139.223 116.15 143.487 116.15 148.62C116.15 152.097 115.569 155.078 114.406 157.561C113.326 160.045 111.789 162.156 109.795 163.895C107.801 165.551 105.433 166.834 102.691 167.745C100.033 168.655 97.1249 169.235 93.9679 169.483L93.594 168.862C97.9973 169.028 101.777 169.566 104.934 170.477C108.092 171.388 110.542 173.043 112.287 175.444C114.032 177.845 114.904 181.447 114.904 186.249V206.367H104.934V186.249C104.934 182.937 104.353 180.37 103.19 178.549C102.11 176.645 100.24 175.32 97.5819 174.575C95.0064 173.747 91.4339 173.333 86.8645 173.333H63.5604V206.367H53.5908ZM63.5604 164.019H89.3569C95.0064 164.019 99.2019 162.612 101.944 159.797C104.768 156.899 106.181 153.173 106.181 148.62C106.181 144.232 104.768 140.879 101.944 138.561C99.2019 136.16 95.0064 134.959 89.3569 134.959H63.5604V164.019Z" fill="#141414"/>
<path d="M141.025 170.849V197.053H188.505V206.367H131.055V125.645H188.381V134.959H141.025V161.535H179.782V170.849H141.025Z" fill="#141414"/>
<path d="M225.715 206.367L195.931 125.645H206.648L232.445 196.432H229.454L255.25 125.645H265.718L236.183 206.367H225.715Z" fill="#141414"/>
<path d="M285.609 170.849V197.053H333.089V206.367H275.639V125.645H332.965V134.959H285.609V161.535H324.366V170.849H285.609Z" fill="#141414"/>
<path d="M356.965 185.255V175.941H395.847V185.255H356.965ZM340.515 206.367L371.296 125.645H381.764L412.795 206.367H402.078L375.035 133.345H378.026L350.983 206.367H340.515Z" fill="#141414"/>
<path d="M432.749 125.645V197.053H477.612V206.367H422.779V125.645H432.749Z" fill="#141414"/>
<path d="M509.549 180.163H518.522C518.771 183.641 519.81 186.745 521.637 189.477C523.465 192.21 525.958 194.362 529.115 195.935C532.355 197.508 536.135 198.295 540.455 198.295C544.194 198.295 547.309 197.757 549.802 196.68C552.377 195.521 554.288 193.948 555.534 191.961C556.864 189.974 557.528 187.656 557.528 185.007C557.528 182.275 556.864 180.081 555.534 178.425C554.205 176.769 552.294 175.362 549.802 174.202C547.309 173.043 544.36 171.926 540.954 170.849C537.713 169.856 534.432 168.697 531.109 167.372C527.785 166.047 524.67 164.433 521.762 162.529C518.937 160.625 516.653 158.348 514.908 155.699C513.163 152.966 512.291 149.696 512.291 145.888C512.291 142.162 513.288 138.685 515.282 135.456C517.359 132.144 520.35 129.495 524.254 127.508C528.242 125.438 533.019 124.403 538.586 124.403C547.309 124.403 553.831 126.763 558.151 131.482C562.471 136.201 564.548 142.452 564.382 150.234H555.41C555.244 144.356 553.582 140.134 550.425 137.567C547.268 135.001 543.155 133.717 538.087 133.717C533.85 133.717 530.153 134.711 526.996 136.698C523.839 138.602 522.26 141.624 522.26 145.764C522.26 147.585 522.593 149.199 523.258 150.607C524.005 151.932 525.168 153.173 526.747 154.332C528.408 155.492 530.61 156.651 533.352 157.81C536.176 158.886 539.624 160.086 543.695 161.411C546.354 162.239 549.054 163.233 551.796 164.392C554.62 165.551 557.196 167 559.522 168.738C561.931 170.477 563.842 172.712 565.255 175.444C566.75 178.094 567.498 181.447 567.498 185.503C567.498 189.395 566.542 193.038 564.632 196.432C562.804 199.744 559.896 202.434 555.908 204.504C552.003 206.574 546.935 207.609 540.704 207.609C535.387 207.609 530.818 206.905 526.996 205.498C523.257 204.007 520.184 202.103 517.774 199.785C515.365 197.467 513.496 195.066 512.166 192.582C510.92 190.016 510.089 187.615 509.674 185.379C509.258 183.144 509.217 181.405 509.549 180.163Z" fill="#141414"/>
<path d="M716.575 200.406H712.587L749.475 125.645H759.445V206.367H749.475V142.907L751.469 143.404L719.566 206.367H709.596L677.694 143.528L679.687 143.031V206.367H669.718V125.645H679.687L716.575 200.406Z" fill="#141414"/>
<path d="M786.847 170.849V197.053H834.327V206.367H776.877V125.645H834.202V134.959H786.847V161.535H825.604V170.849H786.847Z" fill="#141414"/>
<path d="M841.13 125.645H905.932V134.959H841.13V125.645ZM868.546 133.966H878.516V206.367H868.546V133.966Z" fill="#141414"/>
<path d="M924.352 161.411H975.695V170.725H924.352V161.411ZM975.072 125.645H985.042V206.367H975.072V125.645ZM915.254 125.645H925.224V206.367H915.254V125.645Z" fill="#141414"/>
<path d="M1004.95 125.645H1014.92V206.367H1004.95V125.645Z" fill="#141414"/>
<path d="M1097.45 194.569L1094.71 195.438V125.645H1104.68V206.367H1094.71L1042.12 137.567L1044.86 136.698V206.367H1034.89V125.645H1044.86L1097.45 194.569Z" fill="#141414"/>
<path d="M1156.49 207.609C1150.59 207.609 1145.27 206.615 1140.53 204.628C1135.88 202.641 1131.89 199.868 1128.57 196.308C1125.25 192.665 1122.71 188.318 1120.97 183.268C1119.22 178.218 1118.35 172.671 1118.35 166.627C1118.35 160.5 1119.31 154.871 1121.22 149.738C1123.13 144.522 1125.83 140.051 1129.32 136.325C1132.81 132.517 1136.92 129.578 1141.66 127.508C1146.47 125.438 1151.75 124.403 1157.48 124.403C1163.71 124.403 1169.24 125.604 1174.06 128.005C1178.88 130.323 1182.78 133.635 1185.77 137.94C1188.76 142.162 1190.55 147.13 1191.13 152.842H1182.66C1181.58 148.868 1179.83 145.474 1177.42 142.659C1175.01 139.761 1172.1 137.567 1168.7 136.077C1165.38 134.504 1161.64 133.717 1157.48 133.717C1151.75 133.717 1146.68 135.166 1142.28 138.064C1137.96 140.879 1134.55 144.77 1132.06 149.738C1129.57 154.705 1128.32 160.335 1128.32 166.627C1128.32 172.919 1129.44 178.466 1131.69 183.268C1133.93 187.987 1137.17 191.671 1141.41 194.321C1145.64 196.97 1150.67 198.295 1156.49 198.295C1160.97 198.295 1164.88 197.425 1168.2 195.687C1171.61 193.948 1174.35 191.423 1176.43 188.111C1178.5 184.717 1179.91 180.577 1180.66 175.693H1186.77C1185.44 186.373 1182.07 194.362 1176.67 199.661C1171.27 204.96 1164.54 207.609 1156.49 207.609ZM1184.77 206.367C1184.77 203.635 1184.82 200.572 1184.9 197.177C1185.07 193.7 1185.27 190.181 1185.52 186.621C1185.77 183.061 1185.98 179.874 1186.15 177.059H1158.73V167.745H1194.49V206.367H1184.77Z" fill="#141414"/>
<path d="M32.2603 309.255V299.941H71.1419V309.255H32.2603ZM15.8103 330.367L46.5916 249.645H57.0598L88.0903 330.367H77.3729L50.3302 257.345H53.3211L26.2785 330.367H15.8103Z" fill="#141414"/>
<path d="M98.0745 330.367V249.645H129.977C138.369 249.645 144.89 251.549 149.543 255.358C154.278 259.166 156.646 264.465 156.646 271.254C156.646 275.476 155.774 278.912 154.029 281.561C152.368 284.211 150 286.198 146.926 287.522C143.852 288.847 140.238 289.716 136.084 290.13L136.333 289.385C139.407 289.551 142.315 289.965 145.056 290.627C147.798 291.207 150.207 292.159 152.284 293.483C154.445 294.808 156.148 296.629 157.394 298.948C158.64 301.266 159.263 304.246 159.263 307.889C159.263 312.774 158.183 316.831 156.023 320.059C153.863 323.288 150.831 325.772 146.926 327.511C143.104 329.166 138.701 330.119 133.716 330.367H98.0745ZM108.044 321.053H131.224C136.873 321.053 141.276 320.018 144.433 317.948C147.674 315.796 149.294 312.443 149.294 307.889C149.294 304.246 148.255 301.514 146.178 299.693C144.184 297.871 141.609 296.671 138.452 296.091C135.295 295.429 132.054 295.098 128.731 295.098H108.044V321.053ZM108.044 285.784H128.731C134.381 285.784 138.784 284.583 141.941 282.182C145.181 279.699 146.801 276.18 146.801 271.626C146.801 267.156 145.181 263.927 141.941 261.94C138.784 259.953 134.796 258.959 129.977 258.959H108.044V285.784Z" fill="#141414"/>
<path d="M318.833 299.32V249.645H328.803V299.32C328.803 303.874 328.263 307.93 327.183 311.49C326.103 314.968 324.566 317.99 322.572 320.556C320.661 323.123 318.335 325.234 315.593 326.89C312.851 328.463 309.777 329.622 306.371 330.367C303.048 331.195 299.475 331.609 295.654 331.609C291.749 331.609 288.093 331.195 284.687 330.367C281.281 329.622 278.165 328.463 275.34 326.89C272.599 325.234 270.231 323.123 268.237 320.556C266.326 317.99 264.831 314.968 263.751 311.49C262.671 307.93 262.131 303.874 262.131 299.32V249.645H272.1V299.32C272.1 305.529 273.18 310.29 275.34 313.602C277.501 316.913 280.367 319.19 283.939 320.432C287.512 321.674 291.417 322.295 295.654 322.295C299.808 322.295 303.629 321.674 307.119 320.432C310.608 319.19 313.433 316.913 315.593 313.602C317.753 310.29 318.833 305.529 318.833 299.32Z" fill="#141414"/>
<path d="M338.188 249.645H402.991V258.959H338.188V249.645ZM365.605 257.966H375.574V330.367H365.605V257.966Z" fill="#141414"/>
<path d="M457.67 330.367L428.509 249.645H439.226L464.275 319.687H461.284L485.336 249.645H496.053L520.105 319.687H517.114L542.163 249.645H552.631L523.719 330.367H513.251L489.324 257.842H492.065L468.138 330.367H457.67Z" fill="#141414"/>
<path d="M571.714 285.411H623.058V294.725H571.714V285.411ZM622.435 249.645H632.405V330.367H622.435V249.645ZM562.617 249.645H572.587V330.367H562.617V249.645Z" fill="#141414"/>
<path d="M685.957 331.609C678.563 331.609 671.834 329.912 665.769 326.517C659.787 323.04 655.01 318.197 651.438 311.987C647.865 305.778 646.079 298.451 646.079 290.006C646.079 281.561 647.865 274.234 651.438 268.025C655.01 261.733 659.787 256.889 665.769 253.495C671.834 250.101 678.563 248.403 685.957 248.403C693.352 248.403 700.04 250.101 706.021 253.495C712.086 256.889 716.905 261.733 720.477 268.025C724.05 274.234 725.836 281.561 725.836 290.006C725.836 298.451 724.05 305.778 720.477 311.987C716.905 318.197 712.086 323.04 706.021 326.517C700.04 329.912 693.352 331.609 685.957 331.609ZM685.957 322.295C691.607 322.295 696.675 321.094 701.161 318.693C705.648 316.21 709.22 312.567 711.879 307.765C714.537 302.963 715.866 297.043 715.866 290.006C715.866 282.969 714.537 277.091 711.879 272.371C709.22 267.57 705.648 263.927 701.161 261.443C696.675 258.959 691.607 257.717 685.957 257.717C680.391 257.717 675.323 258.959 670.754 261.443C666.267 263.927 662.695 267.57 660.036 272.371C657.378 277.091 656.049 282.969 656.049 290.006C656.049 297.043 657.378 302.963 660.036 307.765C662.695 312.567 666.267 316.21 670.754 318.693C675.323 321.094 680.391 322.295 685.957 322.295Z" fill="#141414"/>
<path d="M784.931 330.367L755.769 249.645H766.487L791.535 319.687H788.545L812.596 249.645H823.314L847.365 319.687H844.375L869.423 249.645H879.891L850.979 330.367H840.511L816.584 257.842H819.326L795.399 330.367H784.931Z" fill="#141414"/>
<path d="M899.847 294.849V321.053H947.328V330.367H889.878V249.645H947.203V258.959H899.847V285.535H938.604V294.849H899.847Z" fill="#141414"/>
<path d="M994.876 309.255V299.941H1033.76V309.255H994.876ZM978.426 330.367L1009.21 249.645H1019.68L1050.71 330.367H1039.99L1012.95 257.345H1015.94L988.895 330.367H978.426Z" fill="#141414"/>
<path d="M1060.69 330.367V249.645H1096.46C1102.11 249.645 1106.92 250.515 1110.91 252.253C1114.9 253.909 1117.93 256.434 1120.01 259.829C1122.17 263.223 1123.25 267.487 1123.25 272.62C1123.25 276.097 1122.67 279.078 1121.51 281.561C1120.43 284.045 1118.89 286.156 1116.89 287.895C1114.9 289.551 1112.53 290.834 1109.79 291.745C1107.13 292.655 1104.22 293.235 1101.07 293.483L1100.69 292.862C1105.1 293.028 1108.88 293.566 1112.03 294.477C1115.19 295.388 1117.64 297.043 1119.39 299.444C1121.13 301.845 1122 305.447 1122 310.249V330.367H1112.03V310.249C1112.03 306.937 1111.45 304.37 1110.29 302.549C1109.21 300.645 1107.34 299.32 1104.68 298.575C1102.11 297.747 1098.53 297.333 1093.96 297.333H1070.66V330.367H1060.69ZM1070.66 288.019H1096.46C1102.11 288.019 1106.3 286.612 1109.04 283.797C1111.87 280.899 1113.28 277.173 1113.28 272.62C1113.28 268.232 1111.87 264.879 1109.04 262.561C1106.3 260.16 1102.11 258.959 1096.46 258.959H1070.66V288.019Z" fill="#141414"/>
<path d="M1148.12 294.849V321.053H1195.6V330.367H1138.15V249.645H1195.48V258.959H1148.12V285.535H1186.88V294.849H1148.12Z" fill="#141414"/>
<path d="M1221.6 318.197V330.367H1208.64V318.197H1221.6Z" fill="#141414"/>
</svg>
