<svg width="24" height="25" viewBox="0 0 24 25" fill="none" xmlns="http://www.w3.org/2000/svg">
<path d="M19.2976 4.8479L19 4.15945L19 4.15945L19.2976 4.8479ZM3.90891 11.4985L3.61137 10.8101H3.61137L3.90891 11.4985ZM20.682 5.92238L21.4227 6.03978V6.03977L20.682 5.92238ZM18.5779 19.1984L17.8372 19.081L18.5779 19.1984ZM16.8631 19.7283L16.316 20.2413L16.3177 20.2432L16.8631 19.7283ZM4.16248 13.4062L4.05512 14.1484H4.05512L4.16248 13.4062ZM10.6065 13.296L10.1887 12.6732L10.6065 13.296ZM7.80554 13.9331L7.91289 13.1908L7.80554 13.9331ZM15.7232 10.333L15.1309 9.87282C15.1249 9.8806 15.119 9.8885 15.1133 9.89652L15.7232 10.333ZM15.4538 10.0442L15.8717 10.667L15.4538 10.0442ZM13.5295 16.1732L14.0766 15.6602L14.0748 15.6584L13.5295 16.1732ZM13.4045 13.5732L13.9967 14.0333C14.0027 14.0255 14.0086 14.0176 14.0144 14.0096L13.4045 13.5732ZM19 4.15945L3.61137 10.8101L4.20644 12.187L19.5951 5.53636L19 4.15945ZM21.4227 6.03977C21.6387 4.67715 20.2665 3.61213 19 4.15945L19.5951 5.53636C19.776 5.45817 19.9721 5.61031 19.9412 5.80498L21.4227 6.03977ZM19.3187 19.3158L21.4227 6.03978L19.9412 5.80498L17.8372 19.081L19.3187 19.3158ZM16.3177 20.2432C17.3152 21.2997 19.0912 20.7508 19.3187 19.3158L17.8372 19.081C17.8047 19.286 17.551 19.3644 17.4085 19.2134L16.3177 20.2432ZM12.9824 16.6862L16.316 20.2413L17.4102 19.2153L14.0766 15.6602L12.9824 16.6862ZM14.0144 14.0096L16.3331 10.7694L15.1133 9.89652L12.7945 13.1367L14.0144 14.0096ZM15.036 9.42135L10.1887 12.6732L11.0243 13.9188L15.8717 10.667L15.036 9.42135ZM4.05512 14.1484L7.69818 14.6753L7.91289 13.1908L4.26983 12.6639L4.05512 14.1484ZM3.61137 10.8101C1.99153 11.5101 2.30864 13.8958 4.05512 14.1484L4.26983 12.6639C4.19056 12.6524 4.14844 12.6225 4.12208 12.594C4.09115 12.5606 4.06591 12.5104 4.0578 12.4494C4.04969 12.3884 4.06094 12.3334 4.08208 12.293C4.10008 12.2587 4.13292 12.2187 4.20644 12.187L3.61137 10.8101ZM10.1887 12.6732C9.52034 13.1215 8.70941 13.306 7.91289 13.1908L7.69818 14.6753C8.86232 14.8437 10.0475 14.5741 11.0243 13.9188L10.1887 12.6732ZM16.3154 10.7931C16.9774 9.94112 15.932 8.82024 15.036 9.42135L15.8717 10.667C15.3529 11.015 14.7477 10.3661 15.1309 9.87282L16.3154 10.7931ZM14.0748 15.6584C13.6516 15.2101 13.6184 14.5202 13.9967 14.0333L12.8122 13.113C11.98 14.184 12.053 15.7018 12.9841 16.6881L14.0748 15.6584Z" fill="#141414"/>
</svg>
