<svg width="24" height="25" viewBox="0 0 24 25" fill="none" xmlns="http://www.w3.org/2000/svg">
<path d="M23 3.40337C22.0424 4.07884 20.9821 4.59548 19.86 4.93337C19.2577 4.24088 18.4573 3.75006 17.567 3.52729C16.6767 3.30453 15.7395 3.36056 14.8821 3.68782C14.0247 4.01508 13.2884 4.59777 12.773 5.35708C12.2575 6.1164 11.9877 7.0157 12 7.93337V8.93337C10.2426 8.97893 8.50127 8.58918 6.93101 7.79881C5.36074 7.00845 4.01032 5.842 3 4.40337C3 4.40337 -1 13.4034 8 17.4034C5.94053 18.8013 3.48716 19.5023 1 19.4034C10 24.4034 21 19.4034 21 7.90337C20.9991 7.62482 20.9723 7.34696 20.92 7.07337C21.9406 6.06686 22.6608 4.79608 23 3.40337Z" stroke="#141414" stroke-width="1.5" stroke-linecap="round" stroke-linejoin="round"/>
</svg>
