<svg width="503" height="756" viewBox="0 0 503 756" fill="none" xmlns="http://www.w3.org/2000/svg">
<path d="M395.365 0.987671V513.72C396.922 550.14 384.808 585.773 361.553 613.171C347.464 628.852 330.262 641.196 311.128 649.359C291.993 657.521 271.378 661.308 250.695 660.46C230.011 661.327 209.39 657.549 190.252 649.386C171.115 641.222 153.915 628.867 139.838 613.171C116.583 585.773 104.468 550.14 106.026 513.72V0.987671H0.156997V513.72C-1.01465 545.678 4.38216 577.529 15.9911 607.172C27.6001 636.814 45.1571 663.573 67.503 685.681C117.636 732.989 183.701 758.094 251.527 755.612C285.12 757.029 318.652 751.554 350.189 739.502C381.726 727.451 410.643 709.061 435.273 685.395C457.515 663.191 475.021 636.422 486.667 606.808C498.312 577.193 503.841 545.388 502.897 513.433V0.987671H395.365Z" fill="#F3F3F3"/>
</svg>
