<svg width="24" height="25" viewBox="0 0 24 25" fill="none" xmlns="http://www.w3.org/2000/svg">
<path d="M7.72984 21.4484L8.05049 20.7704C7.91227 20.705 7.75737 20.6834 7.60654 20.7086L7.72984 21.4484ZM2.93565 16.6324L3.67598 16.7524C3.70008 16.6037 3.67887 16.4512 3.61511 16.3148L2.93565 16.6324ZM3.37452 22.1742L3.25122 21.4344L3.37452 22.1742ZM21.25 12.4033C21.25 17.512 17.1087 21.6533 12 21.6533V23.1533C17.9371 23.1533 22.75 18.3404 22.75 12.4033H21.25ZM2.75003 12.4033C2.75003 7.29469 6.89139 3.15332 12 3.15332V1.65332C6.06296 1.65332 1.25003 6.46626 1.25003 12.4033H2.75003ZM12 3.15332C17.1087 3.15332 21.25 7.29469 21.25 12.4033H22.75C22.75 6.46626 17.9371 1.65332 12 1.65332V3.15332ZM3.49782 22.914L7.85314 22.1881L7.60654 20.7086L3.25122 21.4344L3.49782 22.914ZM12 21.6533C10.5856 21.6533 9.24734 21.3364 8.05049 20.7704L7.40919 22.1264C8.80232 22.7852 10.3592 23.1533 12 23.1533V21.6533ZM3.61511 16.3148C3.0603 15.1277 2.75003 13.8028 2.75003 12.4033H1.25003C1.25003 14.0267 1.61039 15.5681 2.25619 16.9499L3.61511 16.3148ZM2.19532 16.5123L1.48268 20.9078L2.96335 21.1478L3.67598 16.7524L2.19532 16.5123ZM3.25122 21.4344C3.08248 21.4626 2.93597 21.3167 2.96335 21.1478L1.48268 20.9078C1.29103 22.0899 2.3166 23.1109 3.49782 22.914L3.25122 21.4344Z" fill="#141414"/>
<path d="M15.6444 11.5523C15.6564 10.0603 14.4254 8.69228 12.9004 8.50328L12.8004 8.48828C12.7239 8.4731 12.6463 8.4644 12.5684 8.46228C12.2554 8.46228 12.1724 8.68828 12.1504 8.82328C12.1379 8.87935 12.1368 8.93735 12.1471 8.99385C12.1574 9.05036 12.1789 9.10423 12.2104 9.15228C12.3144 9.29728 12.4964 9.32228 12.6424 9.34428C12.6854 9.35028 12.7264 9.35528 12.7594 9.36428C14.1304 9.67928 14.5924 10.1763 14.8174 11.5793C14.8234 11.6143 14.8254 11.6563 14.8274 11.7013C14.8374 11.8683 14.8584 12.2173 15.2224 12.2173C15.2524 12.2173 15.2844 12.2153 15.3184 12.2093C15.6574 12.1563 15.6464 11.8373 15.6414 11.6843C15.6389 11.6473 15.6389 11.6102 15.6414 11.5733C15.6425 11.5667 15.6432 11.56 15.6434 11.5533L15.6444 11.5523Z" fill="#141414"/>
<path d="M12.4804 7.95533C12.5204 7.95833 12.5604 7.96133 12.5914 7.96633C14.8414 8.32433 15.8774 9.42433 16.1644 11.7663C16.1694 11.8063 16.1694 11.8543 16.1704 11.9063C16.1734 12.0893 16.1794 12.4693 16.5754 12.4773H16.5874C16.6417 12.4802 16.6961 12.4715 16.7468 12.4516C16.7975 12.4318 16.8434 12.4013 16.8814 12.3623C17.0044 12.2293 16.9964 12.0323 16.9894 11.8723C16.9874 11.8343 16.9854 11.7973 16.9864 11.7653C17.0144 9.37033 15.0064 7.19833 12.6884 7.11833L12.6604 7.11933C12.6514 7.12064 12.6424 7.12131 12.6334 7.12133C12.6104 7.12133 12.5814 7.11933 12.5514 7.11733C12.5115 7.11368 12.4714 7.11168 12.4314 7.11133C12.0624 7.11133 11.9924 7.38133 11.9834 7.54333C11.9634 7.91633 12.3124 7.94333 12.4804 7.95533ZM16.0554 14.7923C16.0072 14.7546 15.9595 14.7163 15.9124 14.6773C15.6664 14.4733 15.4044 14.2853 15.1524 14.1033C15.0996 14.0654 15.047 14.0274 14.9944 13.9893C14.6704 13.7553 14.3794 13.6403 14.1044 13.6403C13.7344 13.6403 13.4114 13.8523 13.1444 14.2693C13.0264 14.4533 12.8824 14.5433 12.7064 14.5433C12.5835 14.5389 12.463 14.5079 12.3534 14.4523C11.3084 13.9623 10.5614 13.2123 10.1344 12.2223C9.92837 11.7423 9.99437 11.4303 10.3584 11.1753C10.5644 11.0313 10.9484 10.7623 10.9214 10.2473C10.8914 9.66233 9.64037 7.90233 9.11337 7.70233C8.88856 7.61749 8.64066 7.61678 8.41537 7.70033C7.81037 7.91033 7.37537 8.28033 7.15837 8.76733C6.94837 9.23933 6.95837 9.79233 7.18637 10.3683C7.84337 12.0343 8.76637 13.4863 9.93237 14.6843C11.0724 15.8573 12.4744 16.8173 14.0984 17.5393C14.2444 17.6043 14.3984 17.6393 14.5104 17.6653L14.6054 17.6893C14.6184 17.6931 14.6318 17.6951 14.6454 17.6953H14.6584C15.4224 17.6953 16.3394 16.9753 16.6214 16.1533C16.8684 15.4333 16.4174 15.0783 16.0554 14.7933V14.7923ZM12.8184 9.85833C12.6884 9.86133 12.4154 9.86833 12.3194 10.1543C12.2754 10.2883 12.2804 10.4043 12.3354 10.4993C12.4164 10.6393 12.5724 10.6823 12.7134 10.7053C13.2254 10.7903 13.4894 11.0833 13.5414 11.6253C13.5664 11.8793 13.7314 12.0553 13.9434 12.0553C13.9594 12.0557 13.9754 12.055 13.9914 12.0533C14.2464 12.0213 14.3694 11.8283 14.3584 11.4783C14.3624 11.1123 14.1774 10.6983 13.8624 10.3683C13.5464 10.0363 13.1654 9.84933 12.8184 9.85833Z" fill="#141414"/>
</svg>
