<svg width="24" height="25" viewBox="0 0 24 25" fill="none" xmlns="http://www.w3.org/2000/svg">
<path d="M7.72984 21.4484L8.05049 20.7704C7.91227 20.705 7.75737 20.6834 7.60654 20.7086L7.72984 21.4484ZM2.93565 16.6324L3.67598 16.7524C3.70008 16.6037 3.67887 16.4512 3.61511 16.3148L2.93565 16.6324ZM3.37452 22.1742L3.25122 21.4344L3.37452 22.1742ZM21.25 12.4033C21.25 17.512 17.1087 21.6533 12 21.6533V23.1533C17.9371 23.1533 22.75 18.3404 22.75 12.4033H21.25ZM2.75003 12.4033C2.75003 7.29469 6.89139 3.15332 12 3.15332V1.65332C6.06296 1.65332 1.25003 6.46626 1.25003 12.4033H2.75003ZM12 3.15332C17.1087 3.15332 21.25 7.29469 21.25 12.4033H22.75C22.75 6.46626 17.9371 1.65332 12 1.65332V3.15332ZM3.49782 22.914L7.85314 22.1881L7.60654 20.7086L3.25122 21.4344L3.49782 22.914ZM12 21.6533C10.5856 21.6533 9.24734 21.3364 8.05049 20.7704L7.40919 22.1264C8.80232 22.7852 10.3592 23.1533 12 23.1533V21.6533ZM3.61511 16.3148C3.0603 15.1277 2.75003 13.8028 2.75003 12.4033H1.25003C1.25003 14.0267 1.61039 15.5681 2.25619 16.9499L3.61511 16.3148ZM2.19532 16.5123L1.48268 20.9078L2.96335 21.1478L3.67598 16.7524L2.19532 16.5123ZM3.25122 21.4344C3.08248 21.4626 2.93597 21.3167 2.96335 21.1478L1.48268 20.9078C1.29103 22.0899 2.3166 23.1109 3.49782 22.914L3.25122 21.4344Z" fill="#141414"/>
<path d="M16 15.5144V15.0782C16 14.5364 15.6701 14.0491 15.167 13.8479L14.7005 13.6613C14.1789 13.4527 13.5845 13.6787 13.3333 14.1811C13.3333 14.1811 12.2222 13.9589 11.3333 13.07C10.4444 12.1811 10.2222 11.07 10.2222 11.07C10.7247 10.8188 10.9506 10.2244 10.742 9.70281L10.5554 9.23628C10.3542 8.7332 9.86693 8.40332 9.32509 8.40332H8.88889C8.39797 8.40332 8 8.80129 8 9.29221C8 13.2196 11.1838 16.4033 15.1111 16.4033C15.602 16.4033 16 16.0054 16 15.5144Z" fill="#141414"/>
</svg>
