<svg width="24" height="24" viewBox="0 0 24 24" fill="none" xmlns="http://www.w3.org/2000/svg">
<g clip-path="url(#clip0_10_866)">
<path d="M11.6628 23.7802C11.6195 23.7802 11.5773 23.7661 11.5427 23.74C11.5081 23.7139 11.4829 23.6773 11.4709 23.6356C11.4589 23.594 11.4607 23.5495 11.4761 23.509C11.4916 23.4685 11.5197 23.4341 11.5564 23.411L13.8848 21.9418L10.8532 23.6918C10.8079 23.7172 10.7545 23.724 10.7043 23.7107C10.654 23.6974 10.611 23.6651 10.5842 23.6206C10.5573 23.5761 10.5489 23.5229 10.5606 23.4723C10.5723 23.4217 10.6032 23.3776 10.6468 23.3494L13.3796 21.6398L10.024 23.575C9.97877 23.5999 9.92567 23.6063 9.87581 23.593C9.82595 23.5796 9.7832 23.5474 9.75649 23.5033C9.72978 23.4591 9.72118 23.4063 9.7325 23.3559C9.74381 23.3056 9.77416 23.2615 9.8172 23.233L14.3552 20.373L9.1476 23.379C9.10223 23.4036 9.04909 23.4097 8.99932 23.3961C8.94954 23.3824 8.90697 23.35 8.88052 23.3057C8.85407 23.2614 8.84578 23.2085 8.85739 23.1582C8.869 23.1079 8.8996 23.0641 8.9428 23.0358L11.1732 21.6626L8.5172 23.1958C8.4718 23.2201 8.41878 23.2259 8.36918 23.2121C8.31959 23.1982 8.27724 23.1658 8.25096 23.1215C8.22467 23.0773 8.21647 23.0246 8.22807 22.9744C8.23966 22.9242 8.27016 22.8805 8.3132 22.8522L8.4332 22.7794L8.0164 23.0194C7.97105 23.047 7.91662 23.0553 7.86509 23.0427C7.81355 23.0301 7.76913 22.9976 7.7416 22.9522C7.71407 22.9069 7.70569 22.8524 7.71829 22.8009C7.73089 22.7494 7.76345 22.705 7.8088 22.6774L15.5768 17.737L7.102 22.6298C7.05651 22.6546 7.00319 22.6607 6.95327 22.6469C6.90335 22.6332 6.86072 22.6006 6.83434 22.556C6.80796 22.5114 6.7999 22.4584 6.81185 22.408C6.8238 22.3576 6.85483 22.3138 6.8984 22.2858L7.3168 22.0322L6.6656 22.4082C6.62009 22.4355 6.56561 22.4436 6.51415 22.4307C6.46269 22.4178 6.41847 22.3849 6.3912 22.3394C6.36394 22.2939 6.35587 22.2394 6.36877 22.188C6.38168 22.1365 6.41449 22.0923 6.46 22.065L12.4692 18.345L6.044 22.053C5.99854 22.0782 5.94508 22.0846 5.89494 22.071C5.8448 22.0575 5.80191 22.0249 5.77535 21.9803C5.74879 21.9356 5.74064 21.8824 5.75264 21.8318C5.76463 21.7813 5.79582 21.7374 5.8396 21.7094L11.0232 18.5242L5.5132 21.705C5.46759 21.7321 5.41307 21.74 5.36165 21.7269C5.31023 21.7138 5.26611 21.6809 5.239 21.6352C5.2119 21.5896 5.20402 21.5351 5.21711 21.4837C5.2302 21.4323 5.26319 21.3881 5.3088 21.361L9.1488 19.0206L5.064 21.3778C5.01857 21.4034 4.96493 21.4103 4.91453 21.3969C4.86413 21.3835 4.82094 21.351 4.79418 21.3062C4.76742 21.2615 4.7592 21.208 4.77127 21.1573C4.78334 21.1066 4.81475 21.0625 4.8588 21.0346L11.31 17.061L4.5532 20.9622C4.50779 20.9884 4.45392 20.9957 4.40317 20.9826C4.35243 20.9695 4.30887 20.9369 4.28187 20.892C4.25487 20.8471 4.24659 20.7933 4.25881 20.7424C4.27103 20.6914 4.30277 20.6472 4.3472 20.6194L12.84 15.3346L3.9884 20.445C3.94281 20.4704 3.88911 20.477 3.83874 20.4633C3.78837 20.4497 3.74534 20.4169 3.71882 20.3719C3.6923 20.327 3.6844 20.2735 3.69681 20.2228C3.70921 20.1721 3.74093 20.1283 3.7852 20.1006L4.1184 19.9006L3.6944 20.145C3.64896 20.169 3.59605 20.1745 3.54662 20.1605C3.49719 20.1465 3.45505 20.1141 3.42892 20.0698C3.4028 20.0256 3.39469 19.973 3.40629 19.923C3.41788 19.8729 3.44829 19.8293 3.4912 19.801L5.704 18.4638L3.384 19.8038C3.33849 19.8311 3.28401 19.8392 3.23255 19.8263C3.18109 19.8134 3.13687 19.7805 3.1096 19.735C3.08234 19.6895 3.07427 19.635 3.08717 19.5836C3.10008 19.5321 3.13289 19.4879 3.1784 19.4606L11.6916 14.1846L2.9244 19.2462C2.87906 19.2712 2.82579 19.2776 2.77581 19.2641C2.72583 19.2507 2.68303 19.2183 2.6564 19.1739C2.62977 19.1295 2.6214 19.0765 2.63304 19.0261C2.64467 18.9756 2.67542 18.9317 2.7188 18.9034L11.3188 13.5778L2.502 18.6674C2.45659 18.6917 2.40358 18.6975 2.35398 18.6837C2.30439 18.6698 2.26204 18.6374 2.23576 18.5931C2.20947 18.5489 2.20127 18.4962 2.21287 18.446C2.22446 18.3958 2.25496 18.3521 2.298 18.3238L7.2896 15.2858L2.212 18.217C2.16651 18.2418 2.11319 18.2479 2.06327 18.2341C2.01335 18.2204 1.97072 18.1878 1.94434 18.1432C1.91796 18.0986 1.9099 18.0456 1.92185 17.9952C1.9338 17.9448 1.96483 17.901 2.0084 17.873L4.804 16.183L1.9784 17.8142C1.93299 17.8385 1.87998 17.8443 1.83038 17.8305C1.78079 17.8167 1.73844 17.7842 1.71216 17.7399C1.68587 17.6957 1.67767 17.643 1.68927 17.5928C1.70086 17.5426 1.73136 17.4989 1.7744 17.4706L7.502 13.975L1.7156 17.3158C1.67004 17.3418 1.6161 17.3488 1.5654 17.3354C1.5147 17.322 1.47131 17.2892 1.44456 17.2441C1.41781 17.199 1.40984 17.1452 1.42238 17.0942C1.43493 17.0433 1.46697 16.9994 1.5116 16.9718L5.636 14.4686L1.5008 16.8562C1.47816 16.8696 1.45312 16.8783 1.42709 16.882C1.40107 16.8857 1.37458 16.8842 1.34914 16.8776C1.3237 16.871 1.2998 16.8595 1.27881 16.8437C1.25782 16.8279 1.24015 16.8081 1.2268 16.7854C1.21346 16.7628 1.20471 16.7377 1.20105 16.7117C1.19738 16.6857 1.19888 16.6592 1.20546 16.6338C1.21873 16.5824 1.25188 16.5384 1.2976 16.5114L1.3604 16.4742L1.3436 16.4834C1.29808 16.5078 1.24488 16.5137 1.19516 16.4997C1.14543 16.4858 1.10303 16.4531 1.07682 16.4086C1.05062 16.3641 1.04264 16.3112 1.05457 16.261C1.06649 16.2107 1.09739 16.167 1.1408 16.139L2.4468 15.3518L1.1884 16.0798C1.14297 16.1054 1.08933 16.1123 1.03893 16.0989C0.988526 16.0855 0.945341 16.053 0.918579 16.0082C0.891818 15.9635 0.883597 15.91 0.895669 15.8593C0.907741 15.8086 0.939151 15.7645 0.983203 15.7366L8.3832 11.1766L0.984403 15.447C0.939057 15.472 0.885794 15.4784 0.835813 15.4649C0.785832 15.4515 0.743028 15.4191 0.7164 15.3747C0.689773 15.3303 0.681398 15.2773 0.693036 15.2269C0.704674 15.1764 0.735418 15.1325 0.778803 15.1042L8.9304 10.0506L0.800003 14.7434C0.754766 14.7655 0.702861 14.7697 0.654651 14.7552C0.60644 14.7407 0.56547 14.7086 0.539918 14.6652C0.514367 14.6218 0.506114 14.5704 0.516807 14.5212C0.527499 14.472 0.556351 14.4287 0.597603 14.3998L4.8564 11.8054L0.693603 14.2082C0.648306 14.2324 0.595438 14.2383 0.545951 14.2246C0.496464 14.2108 0.45415 14.1786 0.427774 14.1345C0.401398 14.0905 0.392982 14.038 0.404269 13.9879C0.415556 13.9378 0.445681 13.8939 0.488403 13.8654L8.1556 9.10543L0.586803 13.475C0.541368 13.5006 0.487733 13.5075 0.437329 13.4941C0.386925 13.4807 0.34374 13.4482 0.316979 13.4034C0.290218 13.3587 0.281997 13.3052 0.294069 13.2545C0.306141 13.2038 0.337551 13.1597 0.381603 13.1318L6.8 9.16663L0.528403 12.7874C0.48291 12.8122 0.429593 12.8183 0.379672 12.8045C0.329751 12.7908 0.287117 12.7582 0.26074 12.7136C0.234364 12.669 0.226302 12.616 0.23825 12.5656C0.250198 12.5152 0.281225 12.4714 0.324803 12.4434L2.6748 11.0146L0.514803 12.2618C0.469731 12.2844 0.4178 12.2891 0.369401 12.275C0.321003 12.261 0.279706 12.2291 0.253772 12.1859C0.227839 12.1427 0.219182 12.0912 0.229534 12.0419C0.239886 11.9926 0.268483 11.949 0.309603 11.9198L3.5788 9.91983L0.523203 11.6846C0.477639 11.7106 0.423698 11.7176 0.373001 11.7042C0.322304 11.6908 0.278907 11.658 0.252157 11.6129C0.225407 11.5678 0.217444 11.514 0.229985 11.463C0.242525 11.4121 0.274565 11.3682 0.319203 11.3406L1.0952 10.8698L0.555203 11.1814C0.510234 11.2034 0.458668 11.2077 0.410685 11.1935C0.362702 11.1793 0.321789 11.1476 0.29602 11.1047C0.270252 11.0618 0.261501 11.0108 0.271495 10.9618C0.281489 10.9127 0.309501 10.8692 0.350003 10.8398L4.7668 8.11103L0.634403 10.495C0.589247 10.5195 0.536406 10.5257 0.486831 10.5122C0.437255 10.4988 0.394745 10.4668 0.368108 10.4229C0.341472 10.379 0.332751 10.3265 0.343752 10.2764C0.354754 10.2262 0.384635 10.1822 0.427203 10.1534L7.2348 5.83103L0.814003 9.53783C0.768802 9.5631 0.715562 9.56985 0.665486 9.55666C0.61541 9.54347 0.5724 9.51138 0.545507 9.46712C0.518613 9.42287 0.509932 9.36991 0.521289 9.31939C0.532647 9.26887 0.563158 9.22472 0.606403 9.19623L6.97 5.11623L1.1084 8.50023C1.06312 8.52611 1.00951 8.53328 0.959019 8.5202C0.908526 8.50712 0.865139 8.47483 0.838112 8.43022C0.811084 8.38561 0.802554 8.33221 0.81434 8.2814C0.826127 8.23059 0.857296 8.18639 0.901203 8.15823L4.884 5.63823L1.4376 7.62943C1.39232 7.65531 1.33871 7.66248 1.28822 7.6494C1.23773 7.63632 1.19434 7.60403 1.16731 7.55942C1.14028 7.51481 1.13175 7.46141 1.14354 7.4106C1.15533 7.35979 1.1865 7.31559 1.2304 7.28743L4.0704 5.48743L1.8476 6.77263C1.80243 6.79835 1.74903 6.80546 1.6987 6.79248C1.64837 6.77949 1.60508 6.74743 1.57798 6.70307C1.55089 6.65871 1.54213 6.60555 1.55356 6.55485C1.56499 6.50414 1.5957 6.45988 1.6392 6.43143L4.3904 4.65663L2.4304 5.78743C2.38572 5.81266 2.33306 5.81975 2.2833 5.80724C2.23354 5.79473 2.19049 5.76357 2.16306 5.72021C2.13562 5.67685 2.1259 5.62461 2.13591 5.57428C2.14591 5.52396 2.17487 5.4794 2.2168 5.44983L5.2636 3.34623L3.5836 4.31543C3.53896 4.34105 3.48616 4.34847 3.43618 4.33615C3.3862 4.32383 3.3429 4.29272 3.31528 4.24928C3.28766 4.20584 3.27785 4.15343 3.2879 4.10294C3.29794 4.05246 3.32706 4.00779 3.3692 3.97823L4.8232 2.96463C4.80299 2.94898 4.78601 2.92955 4.7732 2.90743C4.74668 2.8615 4.7395 2.80691 4.75322 2.75567C4.76695 2.70444 4.80047 2.66076 4.8464 2.63423L7.4848 1.11183C7.52945 1.08621 7.58225 1.07879 7.63223 1.09111C7.68221 1.10343 7.72551 1.13455 7.75313 1.17799C7.78074 1.22142 7.79055 1.27384 7.78051 1.32432C7.77047 1.37481 7.74134 1.41947 7.6992 1.44903L7.4524 1.62103L9.3556 0.522633C9.40019 0.498284 9.45237 0.491815 9.50155 0.504539C9.55073 0.517262 9.59323 0.548224 9.62042 0.59114C9.6476 0.634055 9.65744 0.685707 9.64792 0.73561C9.63841 0.785512 9.61027 0.829925 9.5692 0.859833L6.5232 2.96303L11.2028 0.261433C11.248 0.23572 11.3014 0.228603 11.3517 0.241588C11.402 0.254572 11.4453 0.28664 11.4724 0.330996C11.4995 0.375353 11.5083 0.428514 11.4968 0.479218C11.4854 0.529922 11.4547 0.574186 11.4112 0.602633L8.6612 2.37663L12.3476 0.248633C12.3701 0.235028 12.395 0.225984 12.421 0.222018C12.447 0.218053 12.4735 0.219242 12.499 0.22552C12.5245 0.231797 12.5486 0.243039 12.5697 0.258603C12.5909 0.274168 12.6088 0.29375 12.6224 0.316233C12.636 0.338715 12.6451 0.363657 12.649 0.389634C12.653 0.415611 12.6518 0.442115 12.6455 0.467633C12.6392 0.493151 12.628 0.517182 12.6124 0.538355C12.5969 0.559528 12.5773 0.577428 12.5548 0.591033L9.7148 2.39103L13.2916 0.324233C13.3368 0.299358 13.3899 0.292937 13.4398 0.306311C13.4897 0.319686 13.5324 0.351821 13.5591 0.395995C13.5858 0.440168 13.5944 0.492959 13.5831 0.543325C13.5718 0.593691 13.5414 0.63773 13.4984 0.666233L9.5172 3.18343L14.2128 0.472633C14.2579 0.447815 14.3109 0.441361 14.3607 0.454613C14.4104 0.467865 14.4531 0.499802 14.48 0.543774C14.5068 0.587746 14.5156 0.640363 14.5046 0.690669C14.4935 0.740975 14.4635 0.785091 14.4208 0.813833L8.0556 4.89383L15.2592 0.733833C15.3044 0.709361 15.3572 0.703199 15.4068 0.716625C15.4564 0.730051 15.4989 0.762035 15.5255 0.805949C15.5521 0.849863 15.5609 0.902342 15.5499 0.952511C15.5389 1.00268 15.509 1.04669 15.4664 1.07543L8.6572 5.40183L16.1808 1.05823C16.2262 1.03264 16.2799 1.0258 16.3303 1.03918C16.3807 1.05255 16.4239 1.08509 16.4506 1.12985C16.4774 1.17461 16.4856 1.22805 16.4735 1.27878C16.4615 1.32951 16.4301 1.37352 16.386 1.40143L11.9748 4.12663L16.8148 1.33223C16.8604 1.30627 16.9143 1.29924 16.965 1.31266C17.0157 1.32608 17.0591 1.35888 17.0858 1.40398C17.1126 1.44909 17.1206 1.5029 17.108 1.55382C17.0955 1.60475 17.0634 1.64871 17.0188 1.67623L16.2472 2.14423L17.2656 1.55663C17.3111 1.5315 17.3645 1.52504 17.4147 1.53862C17.4648 1.5522 17.5077 1.58476 17.5343 1.62941C17.5608 1.67406 17.569 1.72729 17.557 1.77783C17.545 1.82838 17.5138 1.87228 17.47 1.90023L14.19 3.90583L17.7732 1.83743C17.8186 1.81383 17.8712 1.8085 17.9204 1.82253C17.9696 1.83657 18.0115 1.86891 18.0376 1.9129C18.0637 1.95689 18.0719 2.00919 18.0606 2.05906C18.0493 2.10893 18.0193 2.15258 17.9768 2.18103L15.64 3.60223L18.2184 2.11343C18.264 2.08622 18.3185 2.07822 18.3699 2.0912C18.4214 2.10418 18.4656 2.13707 18.4928 2.18263C18.52 2.2282 18.528 2.2827 18.515 2.33416C18.5021 2.38562 18.4692 2.42982 18.4236 2.45703L12 6.42463L18.7852 2.50703C18.8306 2.48206 18.8838 2.47564 18.9338 2.48913C18.9838 2.50261 19.0266 2.53495 19.0532 2.57935C19.0798 2.62375 19.0882 2.67674 19.0766 2.72718C19.0649 2.77762 19.0342 2.82159 18.9908 2.84983L11.32 7.61183L19.3656 2.96703C19.411 2.94276 19.464 2.93694 19.5136 2.95078C19.5632 2.96461 19.6056 2.99704 19.6319 3.04132C19.6581 3.08559 19.6663 3.13829 19.6547 3.18846C19.6431 3.23862 19.6127 3.28238 19.5696 3.31063L15.3248 5.89663L19.7744 3.32783C19.8198 3.30224 19.8735 3.2954 19.9239 3.30878C19.9743 3.32215 20.0175 3.35469 20.0442 3.39945C20.071 3.44421 20.0792 3.49765 20.0671 3.54838C20.0551 3.59911 20.0237 3.64312 19.9796 3.67103L11.8276 8.72503L20.2908 3.83983C20.3362 3.81523 20.3893 3.80912 20.4391 3.82279C20.4889 3.83645 20.5314 3.86883 20.5579 3.91316C20.5843 3.95749 20.5926 4.01033 20.581 4.06062C20.5694 4.11092 20.5388 4.15478 20.4956 4.18303L13.0912 8.74423L20.7344 4.33183C20.78 4.30644 20.8337 4.29987 20.8841 4.31352C20.9344 4.32718 20.9775 4.35998 21.004 4.40492C21.0305 4.44987 21.0384 4.5034 21.026 4.55408C21.0136 4.60477 20.9819 4.64861 20.9376 4.67623L19.63 5.46423L21.0088 4.66823C21.0544 4.64284 21.1081 4.63627 21.1585 4.64992C21.2088 4.66358 21.2519 4.69638 21.2784 4.74132C21.3049 4.78627 21.3128 4.8398 21.3004 4.89048C21.288 4.94117 21.2563 4.98501 21.212 5.01263L21.158 5.04503L21.2544 4.98983C21.3 4.96387 21.3539 4.95684 21.4046 4.97026C21.4553 4.98368 21.4987 5.01648 21.5254 5.06158C21.5522 5.10669 21.5602 5.1605 21.5476 5.21142C21.5351 5.26235 21.503 5.30631 21.4584 5.33383L17.332 7.83983L21.5456 5.40743C21.5911 5.3823 21.6445 5.37584 21.6947 5.38942C21.7448 5.403 21.7877 5.43556 21.8143 5.48021C21.8408 5.52486 21.849 5.57809 21.837 5.62863C21.825 5.67918 21.7938 5.72308 21.75 5.75103L16.0256 9.24223L21.8468 5.88223C21.8923 5.85749 21.9456 5.85136 21.9955 5.86513C22.0455 5.8789 22.0881 5.9115 22.1145 5.95607C22.1408 6.00063 22.1489 6.05369 22.137 6.10408C22.125 6.15447 22.094 6.19826 22.0504 6.22623L19.2464 7.91983L22.08 6.28543C22.1254 6.26116 22.1784 6.25534 22.228 6.26918C22.2776 6.28301 22.32 6.31544 22.3463 6.35972C22.3725 6.40399 22.3807 6.45669 22.3691 6.50686C22.3575 6.55702 22.3271 6.60079 22.284 6.62903L17.2908 9.66903L22.3244 6.75983C22.3698 6.73424 22.4235 6.7274 22.4739 6.74078C22.5243 6.75416 22.5675 6.78669 22.5942 6.83145C22.621 6.87621 22.6292 6.92965 22.6171 6.98038C22.6051 7.03111 22.5737 7.07512 22.5296 7.10303L13.932 12.429L22.6164 7.41543C22.6618 7.39046 22.715 7.38404 22.765 7.39753C22.815 7.41101 22.8578 7.44335 22.8844 7.48775C22.911 7.53215 22.9194 7.58514 22.9078 7.63558C22.8961 7.68602 22.8654 7.72999 22.822 7.75823L14.3092 13.033L22.8692 8.09143C22.9147 8.06669 22.968 8.06056 23.0179 8.07433C23.0679 8.0881 23.1105 8.1207 23.1369 8.16527C23.1632 8.20983 23.1713 8.26289 23.1594 8.31328C23.1474 8.36367 23.1164 8.40746 23.0728 8.43543L20.8584 9.77343L23.0096 8.53143C23.0552 8.50604 23.1089 8.49947 23.1593 8.51312C23.2096 8.52678 23.2527 8.55958 23.2792 8.60452C23.3057 8.64947 23.3136 8.703 23.3012 8.75368C23.2888 8.80437 23.2571 8.84821 23.2128 8.87583L22.8796 9.07583L23.1244 8.93503C23.1698 8.91006 23.223 8.90364 23.273 8.91713C23.323 8.93061 23.3658 8.96295 23.3924 9.00735C23.419 9.05175 23.4274 9.10474 23.4158 9.15518C23.4041 9.20562 23.3734 9.24959 23.33 9.27783L14.8376 14.5626L23.2872 9.68463C23.3326 9.66003 23.3857 9.65392 23.4355 9.66759C23.4853 9.68125 23.5278 9.71364 23.5543 9.75796C23.5807 9.80229 23.589 9.85513 23.5774 9.90542C23.5658 9.95572 23.5352 9.99958 23.492 10.0278L17.034 14.0058L23.3896 10.3366C23.435 10.3124 23.488 10.3065 23.5376 10.3204C23.5872 10.3342 23.6296 10.3666 23.6559 10.4109C23.6821 10.4552 23.6903 10.5079 23.6787 10.5581C23.6671 10.6082 23.6367 10.652 23.5936 10.6802L19.7656 13.0146L23.4456 10.8894C23.491 10.8648 23.5441 10.8587 23.5939 10.8724C23.6437 10.8861 23.6862 10.9184 23.7127 10.9628C23.7391 11.0071 23.7474 11.0599 23.7358 11.1102C23.7242 11.1605 23.6936 11.2044 23.6504 11.2326L18.46 14.423L23.48 11.525C23.5254 11.5001 23.5786 11.4936 23.6286 11.5071C23.6786 11.5206 23.7214 11.553 23.748 11.5974C23.7746 11.6417 23.783 11.6947 23.7714 11.7452C23.7597 11.7956 23.729 11.8396 23.6856 11.8678L17.6756 15.5898L23.48 12.2398C23.5255 12.2151 23.5788 12.209 23.6287 12.2227C23.6787 12.2365 23.7213 12.2691 23.7477 12.3137C23.774 12.3582 23.7821 12.4113 23.7702 12.4617C23.7582 12.5121 23.7272 12.5559 23.6836 12.5838L23.2716 12.8334L23.452 12.7294C23.4745 12.7158 23.4994 12.7067 23.5253 12.7027C23.5513 12.6987 23.5778 12.6999 23.6033 12.7061C23.6288 12.7124 23.6529 12.7236 23.6741 12.7391C23.6953 12.7546 23.7132 12.7742 23.7268 12.7966C23.7404 12.8191 23.7495 12.844 23.7535 12.87C23.7575 12.8959 23.7564 12.9224 23.7501 12.948C23.7439 12.9735 23.7327 12.9975 23.7171 13.0187C23.7016 13.0399 23.6821 13.0578 23.6596 13.0714L15.8916 18.011L23.3316 13.7154C23.377 13.6912 23.43 13.6853 23.4796 13.6992C23.5292 13.713 23.5716 13.7454 23.5979 13.7897C23.6241 13.834 23.6323 13.8867 23.6207 13.9369C23.6091 13.987 23.5787 14.0308 23.5356 14.059L23.2704 14.219C23.317 14.2034 23.3677 14.2054 23.4128 14.2247C23.458 14.2441 23.4945 14.2794 23.5153 14.3239C23.5361 14.3684 23.5398 14.419 23.5257 14.466C23.5116 14.5131 23.4807 14.5533 23.4388 14.579L21.208 15.9546L23.0828 14.8722C23.128 14.8474 23.1811 14.8409 23.231 14.8543C23.2809 14.8677 23.3236 14.8998 23.3503 14.944C23.377 14.9882 23.3856 15.041 23.3743 15.0913C23.363 15.1417 23.3326 15.1857 23.2896 15.2142L18.7528 18.0738L22.8112 15.7306C22.8567 15.7033 22.9111 15.6951 22.9626 15.7079C22.9881 15.7142 23.0121 15.7255 23.0333 15.7411C23.0544 15.7567 23.0723 15.7763 23.0858 15.7988C23.0994 15.8213 23.1083 15.8463 23.1122 15.8723C23.1162 15.8983 23.1149 15.9248 23.1086 15.9503C23.1022 15.9758 23.091 15.9998 23.0753 16.0209C23.0597 16.042 23.0401 16.0599 23.0176 16.0734L20.282 17.7866L22.5016 16.5066C22.5468 16.4818 22.5999 16.4753 22.6498 16.4887C22.6997 16.5021 22.7424 16.5342 22.7691 16.5784C22.7958 16.6226 22.8044 16.6754 22.7931 16.7257C22.7818 16.7761 22.7514 16.8201 22.7084 16.8486L20.378 18.3198L22.1044 17.3198C22.1495 17.295 22.2025 17.2886 22.2523 17.3018C22.302 17.3151 22.3447 17.347 22.3716 17.391C22.3984 17.4349 22.4072 17.4876 22.3962 17.5379C22.3851 17.5882 22.3551 17.6323 22.3124 17.661L19.9308 19.1918L21.5308 18.2674C21.5759 18.243 21.6286 18.2368 21.6781 18.2501C21.7276 18.2633 21.7701 18.2951 21.7968 18.3389C21.8236 18.3826 21.8325 18.4349 21.8218 18.4851C21.8111 18.5352 21.7815 18.5793 21.7392 18.6082L20.856 19.1806C20.901 19.1551 20.9541 19.1479 21.0042 19.1606C21.0543 19.1734 21.0975 19.2051 21.1248 19.249C21.1521 19.2929 21.1613 19.3457 21.1505 19.3963C21.1397 19.4469 21.1097 19.4913 21.0668 19.5202L19.8208 20.3642C19.8635 20.3674 19.9041 20.3841 19.9365 20.412C19.969 20.4399 19.9917 20.4774 20.0012 20.5191C20.0107 20.5609 20.0066 20.6045 19.9895 20.6438C19.9724 20.683 19.9431 20.7157 19.906 20.737L15.6056 23.2198C15.5607 23.2464 15.5072 23.2544 15.4565 23.2421C15.4058 23.2298 15.3619 23.1982 15.3342 23.154C15.3065 23.1098 15.2971 23.0565 15.3082 23.0055C15.3192 22.9545 15.3497 22.9098 15.3932 22.881L16.24 22.3082L13.9944 23.6046C13.9493 23.6294 13.8963 23.6359 13.8466 23.6227C13.7968 23.6094 13.7541 23.5775 13.7273 23.5335C13.7004 23.4895 13.6916 23.4369 13.7027 23.3866C13.7137 23.3363 13.7437 23.2922 13.7864 23.2634L14.6708 22.693L12.8708 23.733C12.8256 23.7587 12.7722 23.7659 12.7219 23.7529C12.6716 23.7399 12.6283 23.7078 12.6012 23.6635C12.5741 23.6191 12.5653 23.566 12.5768 23.5152C12.5882 23.4645 12.6189 23.4203 12.6624 23.3918L15.0472 21.8586L11.7648 23.7538C11.7338 23.7717 11.6986 23.7808 11.6628 23.7802Z" fill="#1BB250"/>
<path d="M10.7964 17.3751C10.7564 17.3751 10.7173 17.3631 10.6841 17.3406C10.651 17.3182 10.6254 17.2863 10.6106 17.2491C10.5957 17.212 10.5924 17.1712 10.601 17.1321C10.6096 17.093 10.6297 17.0574 10.6588 17.0299L10.8652 16.8343L10.1692 17.2343C10.1258 17.2593 10.0745 17.2672 10.0256 17.2562C9.97671 17.2453 9.93368 17.2164 9.90506 17.1753C9.87644 17.1341 9.86431 17.0837 9.87108 17.034C9.87784 16.9844 9.90301 16.9391 9.9416 16.9071L11.092 15.9507L9.6192 16.8011C9.57465 16.8268 9.52192 16.8343 9.47196 16.8221C9.422 16.81 9.37865 16.779 9.3509 16.7357C9.32316 16.6924 9.31315 16.6401 9.32296 16.5897C9.33278 16.5392 9.36165 16.4944 9.4036 16.4647L9.95 16.0779L9.2768 16.4663C9.23221 16.4916 9.17963 16.4988 9.12988 16.4864C9.08014 16.4741 9.03704 16.4431 9.00948 16.3999C8.98192 16.3567 8.972 16.3045 8.98177 16.2542C8.99155 16.2039 9.02026 16.1592 9.062 16.1295L10.4756 15.1363L8.8664 16.0651C8.82191 16.0905 8.76939 16.0978 8.71965 16.0856C8.66992 16.0734 8.62675 16.0426 8.59906 15.9995C8.57137 15.9564 8.56126 15.9044 8.57081 15.8541C8.58036 15.8037 8.60884 15.759 8.6504 15.7291L11.6 13.6355L8.318 15.5299C8.27662 15.5536 8.22811 15.5618 8.18123 15.553C8.13434 15.5441 8.09217 15.5188 8.06233 15.4815C8.03249 15.4443 8.01694 15.3976 8.01849 15.3499C8.02005 15.3023 8.0386 15.2567 8.0708 15.2215L8.8848 14.3363L7.76 14.9851C7.7174 15.0095 7.66733 15.0173 7.6193 15.0072C7.57128 14.9971 7.52866 14.9696 7.49956 14.9301C7.47046 14.8906 7.45691 14.8417 7.46149 14.7929C7.46607 14.744 7.48846 14.6985 7.5244 14.6651L8.0588 14.1695L7.3464 14.5803C7.30449 14.6031 7.25582 14.6101 7.20917 14.6002C7.16252 14.5902 7.12096 14.5639 7.092 14.526C7.06303 14.4881 7.04856 14.4411 7.0512 14.3935C7.05384 14.3459 7.07342 14.3007 7.1064 14.2663L7.8112 13.5567L6.9356 14.0619C6.89414 14.0856 6.84554 14.0938 6.79861 14.0848C6.75167 14.0759 6.70949 14.0504 6.67971 14.013C6.64993 13.9756 6.63452 13.9288 6.63626 13.8811C6.638 13.8333 6.65678 13.7878 6.6892 13.7527L7.5584 12.8183C7.52873 12.8003 7.50427 12.7748 7.48741 12.7445C7.47055 12.7142 7.46188 12.68 7.46224 12.6453C7.46261 12.6105 7.47199 12.5765 7.48948 12.5466C7.50697 12.5166 7.53196 12.4917 7.562 12.4743L8.2704 12.0655C8.31185 12.0417 8.36045 12.0336 8.40738 12.0425C8.45432 12.0515 8.4965 12.077 8.52628 12.1143C8.55606 12.1517 8.57147 12.1985 8.56973 12.2463C8.56799 12.294 8.54922 12.3396 8.5168 12.3747L7.8888 13.0499L8.9104 12.4603C8.9524 12.4358 9.0019 12.4274 9.04963 12.4367C9.09736 12.4461 9.14006 12.4725 9.16972 12.511C9.19939 12.5495 9.21399 12.5976 9.21081 12.6461C9.20762 12.6946 9.18685 12.7404 9.1524 12.7747L8.4472 13.4843L9.4 12.9343C9.4426 12.9095 9.49283 12.9014 9.54107 12.9114C9.58931 12.9214 9.63216 12.9489 9.6614 12.9885C9.69064 13.0282 9.70422 13.0772 9.69953 13.1263C9.69484 13.1753 9.67222 13.2209 9.636 13.2543L9.1016 13.7499L9.8168 13.3371C9.85817 13.3133 9.90668 13.3051 9.95356 13.314C10.0004 13.3229 10.0426 13.3482 10.0725 13.3854C10.1023 13.4227 10.1179 13.4693 10.1163 13.517C10.1147 13.5647 10.0962 13.6103 10.064 13.6455L9.25 14.5307L15.0732 11.1679C15.1177 11.1425 15.1702 11.1352 15.2199 11.1474C15.2697 11.1596 15.3128 11.1904 15.3405 11.2335C15.3682 11.2765 15.3783 11.3286 15.3688 11.3789C15.3592 11.4292 15.3307 11.4739 15.2892 11.5039L12.3388 13.5999L14.1676 12.5439C14.2122 12.5186 14.2648 12.5114 14.3145 12.5237C14.3643 12.5361 14.4074 12.5671 14.4349 12.6103C14.4625 12.6535 14.4724 12.7057 14.4626 12.756C14.4528 12.8063 14.4241 12.8509 14.3824 12.8807L12.9708 13.8731L13.4908 13.5727C13.5353 13.5479 13.5875 13.541 13.6368 13.5534C13.6862 13.5658 13.729 13.5966 13.7564 13.6394C13.7839 13.6822 13.794 13.7339 13.7847 13.7839C13.7754 13.834 13.7474 13.8786 13.7064 13.9087L13.006 14.4051C13.0414 14.4017 13.0772 14.4077 13.1095 14.4225C13.1419 14.4373 13.1698 14.4604 13.1904 14.4895C13.219 14.5306 13.2311 14.5809 13.2244 14.6306C13.2176 14.6802 13.1925 14.7255 13.154 14.7575L12.0032 15.7143L12.1296 15.6411C12.1722 15.6147 12.2232 15.6053 12.2724 15.6147C12.3216 15.6242 12.3655 15.6517 12.3954 15.6919C12.4253 15.7322 12.4389 15.7822 12.4337 15.832C12.4285 15.8818 12.4048 15.9279 12.3672 15.9611L11.7764 16.5211C11.7972 16.5369 11.8146 16.5568 11.8276 16.5795C11.8541 16.6254 11.8614 16.6799 11.8477 16.7311C11.8341 16.7824 11.8007 16.8261 11.7548 16.8527L10.8964 17.3479C10.8661 17.3658 10.8316 17.3751 10.7964 17.3751Z" fill="white"/>
<path d="M11.0248 13.2778C10.9821 13.2777 10.9405 13.264 10.9062 13.2386C10.8718 13.2132 10.8465 13.1775 10.834 13.1366C10.8214 13.0958 10.8223 13.052 10.8364 13.0117C10.8505 12.9714 10.8771 12.9367 10.9124 12.9126L11.9124 12.2326L11.7248 12.341C11.6801 12.367 11.627 12.3747 11.5768 12.3624C11.5265 12.3502 11.483 12.3189 11.4553 12.2752C11.4276 12.2315 11.4179 12.1788 11.4283 12.1281C11.4386 12.0774 11.4682 12.0327 11.5108 12.0034L12.8996 11.0454L12.3796 11.3458C12.335 11.3702 12.2828 11.3766 12.2337 11.3639C12.1845 11.3512 12.142 11.3202 12.1148 11.2773C12.0876 11.2344 12.0778 11.1827 12.0873 11.1328C12.0968 11.0829 12.1249 11.0385 12.166 11.0086L12.938 10.4758C12.8926 10.4956 12.8414 10.4979 12.7944 10.4822C12.7475 10.4664 12.708 10.4338 12.6837 10.3906C12.6594 10.3474 12.652 10.2968 12.6629 10.2484C12.6738 10.2001 12.7023 10.1575 12.7428 10.129L13.48 9.5978C13.4425 9.60427 13.404 9.60022 13.3687 9.58609C13.3334 9.57197 13.3027 9.54833 13.28 9.5178C13.2513 9.47691 13.239 9.42677 13.2455 9.37725C13.2519 9.32773 13.2766 9.28241 13.3148 9.2502L14.3088 8.4102C14.2672 8.43371 14.2186 8.44156 14.1718 8.43235C14.1249 8.42313 14.0829 8.39745 14.0533 8.35996C14.0238 8.32246 14.0086 8.27562 14.0105 8.22791C14.0125 8.18019 14.0315 8.13475 14.064 8.0998L14.788 7.313C14.7707 7.2983 14.7561 7.28071 14.7448 7.261C14.7184 7.2151 14.7113 7.16061 14.725 7.10947C14.7387 7.05834 14.7722 7.01473 14.818 6.9882L15.418 6.6418C15.4594 6.61804 15.5079 6.60985 15.5548 6.61872C15.6017 6.62758 15.6438 6.65292 15.6737 6.69015C15.7035 6.72738 15.7191 6.77405 15.7175 6.82174C15.716 6.86943 15.6974 6.91499 15.6652 6.9502L15.2432 7.4086L16.052 6.9422C16.0952 6.91796 16.1459 6.91062 16.1942 6.9216C16.2425 6.93258 16.285 6.9611 16.3135 7.00164C16.342 7.04218 16.3544 7.09184 16.3484 7.14101C16.3423 7.19019 16.3182 7.23537 16.2808 7.2678L15.2872 8.1078L16.6524 7.3194C16.6968 7.29363 16.7495 7.28596 16.7995 7.29797C16.8494 7.30997 16.8928 7.34074 16.9207 7.3839C16.9486 7.42706 16.9588 7.47929 16.9492 7.52976C16.9396 7.58023 16.911 7.62508 16.8692 7.655L16.2256 8.1174L17.0232 7.6574C17.0678 7.63306 17.12 7.62659 17.1691 7.63931C17.2183 7.65203 17.2608 7.683 17.288 7.72591C17.3152 7.76883 17.325 7.82048 17.3155 7.87038C17.306 7.92028 17.2779 7.9647 17.2368 7.9946L16.4768 8.519L17.0144 8.209C17.059 8.18466 17.1112 8.17819 17.1603 8.19091C17.2095 8.20363 17.252 8.2346 17.2792 8.27751C17.3064 8.32043 17.3162 8.37208 17.3067 8.42198C17.2972 8.47188 17.2691 8.5163 17.228 8.5462L15.8432 9.5002L16.37 9.1962C16.4148 9.17102 16.4675 9.16404 16.5173 9.1767C16.5671 9.18936 16.6101 9.22069 16.6374 9.26421C16.6647 9.30772 16.6743 9.36007 16.664 9.41042C16.6538 9.46076 16.6245 9.50523 16.5824 9.5346L15.5824 10.217L15.7728 10.1074C15.8185 10.0835 15.8717 10.0782 15.9212 10.0925C15.9708 10.1069 16.0128 10.1399 16.0387 10.1845C16.0645 10.2292 16.072 10.2821 16.0598 10.3322C16.0475 10.3823 16.0163 10.4257 15.9728 10.4534L11.1248 13.251C11.0944 13.2687 11.0599 13.2779 11.0248 13.2778Z" fill="white"/>
<path d="M16.1524 6.81458C14.2724 5.78458 11.7356 12.2946 10.3944 13.5982C9.60601 12.9042 8.66241 11.3786 7.55441 12.461C7.07801 12.907 6.11441 13.5766 6.71841 14.285C7.58841 15.2006 8.55001 16.0386 9.43841 16.9414C12.2752 19.0346 14.698 11.5338 16.436 9.86418C17.4192 8.56218 18.094 7.60018 16.1524 6.81458ZM16.8288 8.42938C15.0608 11.1346 13.2664 13.8342 11.494 16.5402C10.0108 18.0622 8.44841 14.8202 7.25401 14.0602C6.65001 13.6202 8.18001 12.0342 8.61401 12.6154C11.2756 15.6478 10.694 13.2706 12.8112 10.755C13.6284 10.0326 14.9236 6.13498 16.056 7.32778C16.4496 7.57178 17.1248 7.84858 16.8288 8.42938Z" fill="#262626"/>
<path d="M23.8904 11.9662C22.3424 -8.005 -7.1852 0.2298 1.794 18.1034C7.6996 28.1878 24.058 23.6626 23.8904 11.9662ZM15.9652 22.733C-2.666 27.989 -4.9824 -1.7038 14.2956 0.8278C25.1912 3.0218 26.44 18.9366 15.9652 22.733Z" fill="#262626"/>
</g>
<defs>
<clipPath id="clip0_10_866">
<rect width="24" height="24" fill="white"/>
</clipPath>
</defs>
</svg>
