<svg width="33" height="46" viewBox="0 0 33 46" fill="none" xmlns="http://www.w3.org/2000/svg">
<path d="M29.7371 42.0249L16.6869 45.5388L3.63648 42.0249L0.625 9.39941H32.7489L29.7371 42.0249Z" fill="#C4C4C4"/>
<path d="M16.6875 12.042V42.7362L16.717 42.7442L27.278 39.9004L29.7157 12.042H16.6875Z" fill="#DCDCDC"/>
<path d="M9.28111 4.60579V2.66392H12.1143V0.539062H7.15625V6.54478H12.1143V4.60579H9.28111ZM17.2109 2.66392H19.1916V0.539062H14.2331V2.66392C14.8965 3.32731 15.2425 3.64482 16.2019 4.60426C15.641 4.60426 14.2331 4.60627 14.2331 4.60617V6.54478H19.1916V4.60579L17.2109 2.66392ZM24.2387 2.66392H26.2194V0.539062H21.2606V2.66392C21.924 3.32731 22.2702 3.64482 23.2296 4.60426C22.6689 4.60426 21.2606 4.60627 21.2606 4.60617V6.54478H26.2194V4.60579L24.2387 2.66392Z" fill="#C4C4C4"/>
<path d="M16.6725 20.2L7.33203 24.09L7.64178 27.9415L16.6725 24.0802L26.2788 19.9731L26.6771 16.0332L16.6725 20.2Z" fill="white"/>
<path d="M7.33203 24.0893L7.64178 27.9407L16.6725 24.0795V20.1992L7.33203 24.0893Z" fill="url(#paint0_linear_600_6478)"/>
<path d="M26.6765 16.0332L16.6719 20.1999V24.0801L26.2782 19.973L26.6765 16.0332Z" fill="url(#paint1_linear_600_6478)"/>
<path d="M7.34766 24.0898L7.6575 27.9413L21.5139 27.9855L21.204 33.1206L16.6444 34.4043L12.2613 33.2976L11.9958 30.1102H7.92309L8.45435 36.2636L16.6887 38.6983L24.8784 36.3077L25.9409 24.0898H7.34766Z" fill="url(#paint2_linear_600_6478)"/>
<path opacity="0.05" d="M16.6725 24.0898H7.33203L7.64178 27.9413L16.6725 27.9701V24.0898ZM16.6725 34.392L16.6282 34.4044L12.2457 33.2977L11.9801 30.1103H7.90756L8.43873 36.2637L16.6725 38.6984V34.392Z" fill="#C4C4C4"/>
<path d="M6.49219 16.0332H26.6785L26.2802 19.9731H6.97909L6.49219 16.0332Z" fill="url(#paint3_linear_600_6478)"/>
<path opacity="0.05" d="M16.6739 16.0332H6.49219L6.97909 19.9731H16.6739V16.0332Z" fill="#C4C4C4"/>
<defs>
<linearGradient id="paint0_linear_600_6478" x1="12.0023" y1="27.9408" x2="12.0023" y2="20.1993" gradientUnits="userSpaceOnUse">
<stop offset="0.387" stop-color="#D1D3D4" stop-opacity="0"/>
<stop offset="1" stop-color="#D1D3D4"/>
</linearGradient>
<linearGradient id="paint1_linear_600_6478" x1="21.6741" y1="24.0802" x2="21.6741" y2="16.0333" gradientUnits="userSpaceOnUse">
<stop offset="0.387" stop-color="#D1D3D4" stop-opacity="0"/>
<stop offset="1" stop-color="#D1D3D4"/>
</linearGradient>
<linearGradient id="paint2_linear_600_6478" x1="7.34766" y1="31.3942" x2="25.9408" y2="31.3942" gradientUnits="userSpaceOnUse">
<stop stop-color="#E8E7E5"/>
<stop offset="1" stop-color="white"/>
</linearGradient>
<linearGradient id="paint3_linear_600_6478" x1="6.49219" y1="18.0031" x2="26.6784" y2="18.0031" gradientUnits="userSpaceOnUse">
<stop stop-color="#E8E7E5"/>
<stop offset="1" stop-color="white"/>
</linearGradient>
</defs>
</svg>
