<svg width="196" height="46" viewBox="0 0 196 46" fill="none" xmlns="http://www.w3.org/2000/svg">
<path d="M13.2486 36.7981C11.4681 36.7981 9.84937 35.3412 9.84937 33.5606C9.84937 31.7801 11.3062 30.3232 13.2486 30.3232C15.1911 30.3232 16.6479 31.7801 16.6479 33.5606C16.6479 35.3412 15.0292 36.7981 13.2486 36.7981ZM55.0112 19.1542C54.6875 16.5642 53.0688 14.4599 50.9645 12.8412L50.1551 12.1937L49.5076 13.0031C48.2127 14.4599 47.7271 17.0499 47.8889 18.9923C48.0508 20.4491 48.5364 21.906 49.3458 23.0391C48.6983 23.3628 47.8889 23.6865 47.2415 24.0103C45.7846 24.4959 44.3278 24.6578 42.8709 24.6578H0.946493L0.784622 25.629C0.460881 28.7045 0.946493 31.9419 2.24146 34.8556L2.88894 35.9887V36.1506C6.77383 42.6254 13.7343 45.5391 21.3422 45.5391C35.9105 45.5391 47.8889 39.2261 53.5544 25.629C57.2774 25.7909 61.0004 24.8196 62.781 21.2585L63.2666 20.4491L62.4573 19.9635C60.353 18.6686 57.4393 18.5067 55.0112 19.1542V19.1542ZM34.1299 16.5642H27.817V22.8772H34.1299V16.5642ZM34.1299 8.63259H27.817V14.9455H34.1299V8.63259ZM34.1299 0.539062H27.817V6.85201H34.1299V0.539062V0.539062ZM41.8997 16.5642H35.5868V22.8772H41.8997V16.5642ZM18.4285 16.5642H12.1156V22.8772H18.4285V16.5642V16.5642ZM26.3602 16.5642H20.0472V22.8772H26.3602V16.5642ZM10.6587 16.5642H4.34577V22.8772H10.6587V16.5642V16.5642ZM26.3602 8.63259H20.0472V14.9455H26.3602V8.63259ZM18.4285 8.63259H12.1156V14.9455H18.4285V8.63259V8.63259Z" fill="#C4C4C4"/>
<path d="M164.11 32.9136C166.862 30.4855 169.614 28.2193 172.366 25.7913C173.337 24.9819 174.308 24.1726 175.279 23.2014C174.47 22.2301 173.337 21.5826 172.204 21.097C170.099 20.2877 167.995 20.6114 165.891 21.7445C163.301 23.2014 162.168 25.6294 162.33 28.5431C162.33 29.6762 162.653 30.8093 163.301 31.7805C163.786 32.2661 163.948 32.5898 164.11 32.9136M167.348 35.1798C168.643 35.6654 170.261 35.6654 171.718 35.3416C172.366 35.0179 174.308 34.2085 174.955 34.3704H175.279C175.765 34.5323 176.089 34.856 176.25 35.3416C176.736 36.3129 176.574 37.2841 175.603 37.7697L175.279 37.9316C171.718 40.0359 167.995 39.7121 164.434 37.7697C162.815 36.7985 161.52 35.5035 160.549 33.8848L160.387 33.5611C158.121 29.6762 158.445 25.4675 161.035 21.7445C161.844 20.4496 163.139 19.4783 164.434 18.669L164.919 18.3452C168.319 16.4028 171.88 16.5647 175.279 18.1834C177.06 19.1546 178.678 20.4496 179.65 22.2301L179.812 22.5539C180.621 23.8488 179.65 24.9819 178.517 25.7913L175.117 28.705C172.204 30.9711 169.776 33.0755 167.348 35.1798V35.1798ZM193.732 17.374H194.056C195.189 17.374 195.999 18.1834 195.999 19.3165C195.999 20.9352 194.542 21.2589 193.247 21.2589C191.628 21.2589 190.009 22.2301 188.876 23.3632C187.419 24.8201 186.772 26.6006 186.772 28.5431V37.6078C186.772 38.5791 186.125 39.5503 184.991 39.5503H184.668C183.535 39.5503 182.887 38.7409 182.887 37.6078V28.0575C182.887 24.3344 184.668 21.4208 187.581 19.3165C189.686 18.0215 191.628 17.374 193.732 17.374V17.374ZM147.437 23.687L151.808 19.3165C152.294 18.9927 153.75 17.2121 154.398 17.2121H155.045C155.855 17.374 156.502 17.8596 156.502 18.8309V19.1546C156.502 19.8021 155.693 20.4496 155.369 20.9352C154.56 21.9064 153.589 22.7157 152.779 23.687L148.247 28.2193L154.074 34.0467L155.693 35.6654L156.34 36.3129C156.502 36.6366 156.664 36.7985 156.664 37.1222V37.6078C156.502 38.4172 155.855 39.0647 155.045 39.0647H154.722C154.074 39.0647 153.427 38.4172 152.941 37.9316C152.132 37.1222 151.16 36.3129 150.351 35.3416L147.437 32.5898V37.1222C147.437 38.0934 146.79 39.0647 145.657 39.0647H145.333C144.2 39.0647 143.553 38.2553 143.553 37.1222V12.1942C143.553 11.2229 144.2 10.4136 145.333 10.4136H145.657C146.79 10.4136 147.437 11.2229 147.437 12.1942V23.687V23.687ZM135.459 21.2589C134.973 20.9352 133.84 20.9352 133.193 20.9352C130.117 20.7733 127.851 22.5539 126.556 25.3057C126.071 26.2769 125.909 27.2481 125.909 28.3812C125.909 31.6186 127.527 33.8848 130.441 35.1798C131.412 35.6654 132.869 35.8273 134.002 35.8273C134.973 35.8273 136.43 35.1798 137.24 34.856H138.049C138.858 35.0179 139.506 35.5035 139.506 36.4747V36.7985C139.506 39.0647 135.297 39.5503 133.84 39.7121C128.337 40.0359 124.128 36.9603 122.509 31.7805C122.186 30.8093 122.186 29.9999 122.186 29.0287V28.2193C122.186 24.1726 124.128 20.9352 127.689 18.9927C129.308 18.0215 131.089 17.5359 133.031 17.5359H133.84C135.783 17.5359 137.725 18.0215 139.344 19.1546L139.506 19.3165L139.668 19.4783C139.83 19.8021 139.991 20.1258 139.991 20.4496V20.7733C139.991 21.7445 139.344 22.2301 138.373 22.392H138.211C137.078 22.0683 135.783 21.4208 135.459 21.2589V21.2589ZM101.466 28.2193C101.466 30.9711 102.923 33.0755 105.189 34.5323C106.322 35.1798 107.617 35.5035 108.912 35.5035C111.664 35.5035 113.768 34.0467 115.225 31.7805C115.873 30.6474 116.196 29.3524 116.196 28.0575C116.196 25.4675 114.901 23.3632 112.797 21.9064C111.664 21.097 110.207 20.7733 108.912 20.7733C105.837 20.7733 103.571 22.392 102.276 25.1438C101.466 26.2769 101.466 27.2481 101.466 28.2193V28.2193ZM108.265 17.2121H108.75C113.121 17.2121 116.358 19.3165 118.463 23.0395C119.272 24.4963 119.758 26.115 119.758 27.8956V28.705C119.758 32.7517 117.815 35.9891 114.254 37.9316C112.635 38.9028 110.855 39.3884 108.912 39.3884H108.103C104.056 39.3884 100.819 37.446 98.8763 33.8848C97.9051 32.2661 97.4195 30.4855 97.4195 28.5431V27.7337C97.4195 23.687 99.3619 20.4496 102.923 18.5071C104.704 17.6978 106.322 17.2121 108.265 17.2121V17.2121ZM76.8619 28.2193C76.8619 31.133 78.3188 33.3992 80.9087 34.6942C81.8799 35.1798 83.013 35.5035 84.308 35.5035C87.2216 35.5035 89.326 34.2085 90.7828 31.7805C91.4303 30.6474 91.754 29.3524 91.754 28.0575C91.754 25.4675 90.6209 23.5251 88.5166 22.0683C87.2216 21.2589 85.9267 20.7733 84.308 20.7733C81.2324 20.7733 78.9663 22.392 77.6713 25.1438C77.1857 26.2769 76.8619 27.2481 76.8619 28.2193V28.2193ZM91.754 19.9639V12.0323C91.754 11.0611 92.4015 10.0898 93.5346 10.0898H93.8583C94.9914 10.0898 95.6389 10.8992 95.6389 12.0323V28.705C95.6389 32.7517 93.6965 35.9891 90.1353 37.9316C88.5166 38.9028 86.736 39.3884 84.7936 39.3884H83.9842C79.9375 39.3884 76.7001 37.446 74.7576 33.8848C73.7864 32.2661 73.3008 30.4855 73.3008 28.5431V27.7337C73.3008 23.687 75.2432 20.4496 78.8044 18.5071C80.4231 17.5359 82.2037 17.0503 84.1461 17.0503H84.9555C87.3835 17.2121 89.8116 18.1834 91.754 19.9639V19.9639Z" fill="#C4C4C4"/>
</svg>
