<svg width="143" height="46" viewBox="0 0 143 46" fill="none" xmlns="http://www.w3.org/2000/svg">
<path d="M55.3789 13.4823C54.6453 13.4823 53.9758 13.5799 53.3705 13.7753C52.7836 13.955 52.2691 14.2577 51.827 14.6832C51.4024 15.0913 51.0594 15.6223 50.7981 16.2762C50.5532 16.9292 50.4143 17.7087 50.3812 18.6148C50.3299 20.0849 50.3299 21.555 50.3812 23.0251C50.4143 23.9394 50.5532 24.719 50.7981 25.3637C51.0594 26.0166 51.4024 26.5559 51.827 26.9814C52.2672 27.3895 52.7817 27.6922 53.3705 27.8894C53.9758 28.0691 54.6453 28.159 55.3789 28.159C56.0998 28.159 56.7693 28.0613 57.3874 27.866C58.0055 27.6532 58.5365 27.3441 58.9804 26.9388C59.4389 26.5142 59.7993 25.9749 60.0616 25.321C60.323 24.6681 60.4537 23.9005 60.4537 23.0182V21.7691H56.1851C55.8256 21.7691 55.6458 21.5857 55.6458 21.2189V20.875C55.6458 20.5081 55.8256 20.3247 56.1851 20.3247H61.4263C61.7931 20.3247 61.9765 20.5081 61.9765 20.875V23.0306C61.9765 24.0119 61.8298 24.9106 61.5363 25.7268C61.2429 26.5275 60.81 27.2226 60.2377 27.8123C59.6829 28.3993 58.9877 28.8564 58.1522 29.1838C57.3269 29.4938 56.396 29.6488 55.3597 29.6488C54.2977 29.6488 53.3668 29.4938 52.5671 29.1838C51.7665 28.8574 51.0888 28.408 50.5339 27.8357C49.9947 27.2644 49.5783 26.5866 49.2849 25.8025C49.007 25.0019 48.852 24.1196 48.8199 23.1558C48.7869 22.4221 48.7704 21.6462 48.7704 20.8282C48.7704 20.0028 48.7869 19.2269 48.8199 18.5006C48.8529 17.5377 49.0161 16.6637 49.3096 15.8786C49.6031 15.078 50.0194 14.392 50.5587 13.8207C51.1135 13.2493 51.7913 12.8082 52.5919 12.4973C53.3925 12.1708 54.3151 12.0076 55.3597 12.0076C56.4877 12.0076 57.4516 12.1791 58.2513 12.5221C59.0519 12.8651 59.7053 13.2777 60.2116 13.7601C60.7178 14.2343 61.0938 14.7327 61.3396 15.2555C61.5845 15.7782 61.7152 16.2111 61.7317 16.5541C61.7482 16.7008 61.7069 16.8232 61.6079 16.9214C61.5097 17.0039 61.379 17.0452 61.2158 17.0452H60.6765C60.5298 17.0452 60.4234 17.0131 60.3574 16.9489C60.2932 16.8663 60.2281 16.7357 60.1621 16.5568C60.0318 16.19 59.8484 15.8231 59.6118 15.4563C59.3825 15.0895 59.0735 14.763 58.6846 14.4768C58.293 14.1834 57.8276 13.9463 57.2883 13.7656C56.7491 13.5859 56.1117 13.496 55.3762 13.496L55.3789 13.4823ZM66.9453 18.3562C67.5323 17.2281 68.6429 16.6641 70.2772 16.6641H71.1851C71.5446 16.6641 71.7243 16.8439 71.7243 17.2034V17.5473C71.7243 17.9068 71.5446 18.0865 71.1851 18.0865H70.1313C69.15 18.0865 68.3742 18.3722 67.8037 18.9436C67.2324 19.5149 66.9467 20.2908 66.9467 21.2711V28.8647C66.9467 29.0279 66.8894 29.1586 66.7748 29.2567C66.6766 29.3549 66.546 29.4039 66.3827 29.4039H65.9907C65.6312 29.4039 65.4514 29.2242 65.4514 28.8647V17.2268C65.4514 17.0635 65.5005 16.9328 65.5986 16.8347C65.6967 16.7201 65.8274 16.6627 65.9907 16.6627H66.3827C66.546 16.6627 66.6766 16.7201 66.7748 16.8347C66.8894 16.9328 66.9467 17.0635 66.9467 17.2268V18.3548L66.9453 18.3562ZM82.0774 29.4108C81.7179 29.4108 81.5382 29.2311 81.5382 28.8716V27.7202C81.3914 27.9494 81.1956 28.1787 80.9508 28.408C80.7215 28.6372 80.4358 28.8413 80.0937 29.0201C79.7507 29.1999 79.338 29.3466 78.8557 29.4603C78.3815 29.5906 77.8267 29.6557 77.1911 29.6557C76.6042 29.6557 76.0402 29.5658 75.4991 29.3861C74.9763 29.1907 74.5109 28.9293 74.1028 28.6019C73.7112 28.2755 73.393 27.8916 73.1481 27.4505C72.9188 27.0103 72.8042 26.5288 72.8042 26.0061C72.8042 25.4513 72.9188 24.9528 73.1481 24.5108C73.393 24.0706 73.7277 23.6868 74.1523 23.3594C74.5769 23.0164 75.0832 22.739 75.671 22.5271C76.2763 22.2978 76.938 22.1346 77.6561 22.0374L81.5271 21.4981V20.6411C81.5271 19.7589 81.2575 19.0729 80.7183 18.5831C80.1955 18.0934 79.3545 17.8485 78.1953 17.8485C77.281 17.8485 76.5703 18.0283 76.0631 18.3878C75.5734 18.7308 75.2643 19.1068 75.1359 19.5158C75.0717 19.7112 74.9901 19.8501 74.8911 19.9326C74.8085 19.9968 74.6939 20.0289 74.5471 20.0289H74.2032C74.0565 20.0289 73.9258 19.9799 73.8112 19.8817C73.713 19.7671 73.664 19.6364 73.664 19.4897C73.664 19.2604 73.7456 18.9747 73.9088 18.6327C74.0721 18.2897 74.3335 17.9549 74.693 17.6284C75.0598 17.302 75.5335 17.0245 76.114 16.7962C76.6854 16.5513 77.3805 16.4289 78.1995 16.4289C79.1624 16.4289 79.9548 16.5596 80.5766 16.8209C81.213 17.0823 81.7115 17.4253 82.0719 17.8499C82.4314 18.258 82.6763 18.7152 82.8065 19.2214C82.9532 19.7277 83.0266 20.2261 83.0266 20.7168V28.8743C83.0266 29.2338 82.8468 29.4136 82.4873 29.4136H82.0705L82.0774 29.4108ZM77.447 28.2346C78.0018 28.2346 78.5246 28.1448 79.0152 27.965C79.5215 27.7697 79.9626 27.484 80.3386 27.108C80.7054 26.7412 80.9989 26.2675 81.219 25.687C81.4318 25.1156 81.5382 24.4461 81.5382 23.6785V22.8463L78.3783 23.2865C75.6674 23.6533 74.3119 24.519 74.3119 25.8837C74.3119 26.2918 74.4018 26.643 74.5815 26.9374C74.7769 27.2309 75.0217 27.4757 75.3161 27.672C75.6096 27.8673 75.9443 28.0141 76.3203 28.1122C76.6872 28.1948 77.0632 28.236 77.4484 28.236L77.447 28.2346ZM92.5185 29.6557C91.4895 29.6557 90.6486 29.4723 89.9956 29.1054C89.3426 28.7386 88.8116 28.2814 88.4026 27.7339V33.5391C88.4026 33.8986 88.2229 34.0784 87.8634 34.0784H87.4465C87.087 34.0784 86.9073 33.8986 86.9073 33.5391V17.2034C86.9073 16.8439 87.087 16.6641 87.4465 16.6641H87.8634C88.2229 16.6641 88.4026 16.8439 88.4026 17.2034V18.3548C88.8107 17.7999 89.3417 17.3428 89.9956 16.9833C90.6486 16.6164 91.4895 16.433 92.5185 16.433C93.4659 16.433 94.2661 16.6045 94.919 16.9475C95.5885 17.274 96.1278 17.7151 96.5368 18.2709C96.9449 18.8101 97.2384 19.431 97.4172 20.1335C97.6125 20.8195 97.7272 21.522 97.7611 22.241C97.7776 22.4858 97.7859 22.7555 97.7859 23.0498C97.7859 23.3433 97.7776 23.6129 97.7611 23.8587C97.7281 24.5796 97.6135 25.2903 97.4172 25.991C97.2374 26.677 96.944 27.2978 96.5368 27.8536C96.1287 28.3928 95.5894 28.834 94.919 29.177C94.2661 29.5034 93.4659 29.6667 92.5185 29.6667V29.6557ZM88.4026 22.1584C88.3861 22.4033 88.3778 22.7215 88.3778 23.1131C88.3778 23.5047 88.3861 23.823 88.4026 24.0678C88.4191 24.5576 88.5007 25.056 88.6475 25.5631C88.8107 26.0529 89.0556 26.494 89.3821 26.8865C89.7085 27.2781 90.1212 27.6046 90.6201 27.866C91.1099 28.1108 91.6977 28.2333 92.3837 28.2333C93.1046 28.2333 93.7007 28.1108 94.1721 27.866C94.6618 27.6211 95.0538 27.2946 95.3482 26.8865C95.6582 26.4619 95.8783 25.9804 96.0085 25.4421C96.1553 24.8872 96.2451 24.3154 96.2782 23.7267C96.2947 23.2681 96.2947 22.8109 96.2782 22.3551C96.2451 21.7682 96.1553 21.2042 96.0085 20.6631C95.8783 20.1239 95.6582 19.6502 95.3482 19.2421C95.0548 18.8175 94.6627 18.4827 94.1721 18.2379C93.6979 17.9765 93.1018 17.8458 92.3837 17.8458C91.6812 17.8458 91.0851 17.9765 90.5954 18.2379C90.1057 18.4992 89.693 18.8422 89.3573 19.2668C89.0473 19.6749 88.8103 20.1321 88.6461 20.6383C88.4994 21.1446 88.4177 21.6508 88.4012 22.1571L88.4026 22.1584ZM102.617 18.3562C103.057 17.7848 103.588 17.3194 104.21 16.9599C104.828 16.6004 105.669 16.4206 106.733 16.4206C107.566 16.4206 108.293 16.5596 108.913 16.8375C109.532 17.1153 110.046 17.4991 110.457 17.9889C110.882 18.4786 111.2 19.0587 111.412 19.7291C111.624 20.3985 111.731 21.1253 111.731 21.9094V28.8674C111.731 29.2269 111.551 29.4067 111.191 29.4067H110.779C110.419 29.4067 110.24 29.2269 110.24 28.8674V22.0305C110.24 20.7236 109.921 19.7029 109.285 18.9683C108.648 18.2163 107.718 17.8403 106.492 17.8403C105.317 17.8403 104.377 18.2071 103.675 18.9408C102.972 19.6745 102.621 20.7048 102.621 22.0319V28.8688C102.621 29.2283 102.441 29.4081 102.082 29.4081H101.665C101.306 29.4081 101.126 29.2283 101.126 28.8688V12.5468C101.126 12.1873 101.306 12.0076 101.665 12.0076H102.082C102.441 12.0076 102.621 12.1873 102.621 12.5468V18.352L102.617 18.3562ZM121.725 12.0117C122.672 12.0117 123.538 12.1506 124.322 12.4285C125.106 12.7064 125.776 13.131 126.33 13.7024C126.902 14.2572 127.343 14.9597 127.654 15.8098C127.98 16.6426 128.16 17.6307 128.193 18.7744C128.226 19.508 128.243 20.194 128.243 20.8323C128.243 21.4688 128.226 22.1548 128.193 22.8903C128.111 25.2261 127.514 26.9411 126.405 28.0352L127.973 30.2403C127.989 30.2733 128.006 30.3054 128.022 30.3366C128.039 30.3696 128.047 30.427 128.047 30.5086C128.047 30.6388 127.998 30.7534 127.9 30.8525C127.802 30.9506 127.687 30.9997 127.556 30.9997H127.017C126.837 30.9997 126.682 30.9263 126.552 30.7796C126.422 30.6494 126.315 30.5347 126.233 30.4357L125.152 28.9403C124.17 29.4145 123.027 29.6516 121.721 29.6516C119.679 29.6516 118.103 29.1045 116.993 28.0104C115.898 26.9163 115.318 25.2096 115.252 22.8903C115.219 22.1566 115.203 21.4706 115.203 20.8323C115.203 20.1959 115.219 19.5099 115.252 18.7744C115.285 17.6307 115.457 16.6426 115.767 15.8098C116.093 14.9606 116.534 14.2581 117.09 13.7024C117.662 13.131 118.331 12.7064 119.099 12.4285C119.883 12.1506 120.757 12.0117 121.721 12.0117H121.725ZM121.725 13.4836C121.039 13.4836 120.401 13.59 119.813 13.8028C119.226 13.9981 118.711 14.3164 118.269 14.7575C117.829 15.1977 117.478 15.7617 117.215 16.4495C116.971 17.1355 116.832 17.9517 116.799 18.8982C116.782 19.265 116.766 19.608 116.749 19.9271C116.749 20.2371 116.749 20.5398 116.749 20.8351C116.749 21.1285 116.749 21.4376 116.749 21.7622C116.766 22.0722 116.782 22.407 116.799 22.7665C116.832 23.7294 116.971 24.5548 117.215 25.2426C117.477 25.9121 117.82 26.4669 118.244 26.9071C118.685 27.3474 119.199 27.6738 119.788 27.8866C120.375 28.0819 121.019 28.1796 121.719 28.1796C122.422 28.1796 123.066 28.0819 123.651 27.8866C124.238 27.6738 124.744 27.3474 125.169 26.9071C125.61 26.4669 125.953 25.9121 126.198 25.2426C126.46 24.5566 126.606 23.7313 126.639 22.7665C126.655 22.407 126.663 22.0722 126.663 21.7622C126.663 21.4358 126.663 21.1267 126.663 20.8351C126.663 20.5416 126.663 20.239 126.663 19.9271C126.663 19.6172 126.655 19.2742 126.639 18.8982C126.606 17.9508 126.459 17.1346 126.198 16.4495C125.954 15.7635 125.611 15.1995 125.169 14.7575C124.729 14.3173 124.215 13.999 123.626 13.8028C123.039 13.59 122.402 13.4836 121.714 13.4836H121.725ZM133.683 27.9361H142.135C142.502 27.9361 142.685 28.1196 142.685 28.4864V28.8537C142.685 29.2132 142.502 29.3929 142.135 29.3929H132.679C132.32 29.3929 132.14 29.2132 132.14 28.8537V12.7944C132.14 12.4349 132.32 12.2552 132.679 12.2552H133.144C133.503 12.2552 133.683 12.4349 133.683 12.7944V27.9348V27.9361ZM4.23671 34.8322L2.58594 33.8775L20.9893 2.00391L22.64 2.9586L4.23671 34.8322Z" fill="#C4C4C4"/>
<path d="M2.21484 31.332H39.0215V33.24H2.21484V31.332Z" fill="#C4C4C4"/>
<path d="M21.353 43.0332L2.94141 32.4037L3.8961 30.7529L22.3063 41.3797L21.353 43.0332ZM37.3462 15.3278L18.936 4.6996L19.8907 3.04883L38.3009 13.6784L37.3462 15.3278Z" fill="#C4C4C4"/>
<path d="M3.90001 15.3217L2.94531 13.6709L21.3707 3.05371L22.3254 4.70448L3.90001 15.3217Z" fill="#C4C4C4"/>
<path d="M37.0051 34.8322L18.6003 2.9586L20.2511 2.00391L38.6545 33.8775L37.0051 34.8322ZM3.67188 12.4065H5.57714V33.6657H3.67188V12.4065ZM35.6638 12.4065H37.5718V33.6657H35.6624L35.6638 12.4065Z" fill="#C4C4C4"/>
<path d="M21.029 42.2258L20.1953 40.7814L36.2078 31.5371L37.0414 32.9815L21.029 42.2258Z" fill="#C4C4C4"/>
<path d="M40.0999 34.2849C39.5673 35.2062 38.6909 35.8784 37.6632 36.1542C36.6354 36.4299 35.5402 36.2865 34.618 35.7555C33.6968 35.2229 33.0245 34.3465 32.7488 33.3187C32.4731 32.2909 32.6164 31.1957 33.1474 30.2736C33.68 29.3523 34.5564 28.68 35.5842 28.4043C36.612 28.1286 37.7072 28.272 38.6294 28.803C40.5608 29.9035 41.2156 32.3797 40.1013 34.2849M8.08599 15.7963C7.55339 16.7176 6.677 17.3898 5.64921 17.6655C4.62142 17.9412 3.52623 17.7979 2.60406 17.2669C1.68281 16.7343 1.01055 15.8579 0.734836 14.8301C0.459126 13.8023 0.602504 12.7071 1.1335 11.7849C1.6661 10.8637 2.54249 10.1914 3.57028 9.91571C4.59806 9.64 5.69326 9.78338 6.61543 10.3144C8.53445 11.4149 9.18788 13.891 8.08737 15.7963M1.14588 34.2849C0.0426134 32.3659 0.697418 29.9186 2.61781 28.803C4.53684 27.6997 6.9841 28.3545 8.09975 30.2749C9.20301 32.194 8.54821 34.6412 6.62781 35.7569C4.69641 36.8601 2.24914 36.2053 1.14588 34.2849M33.1612 15.7963C32.0579 13.8773 32.7127 11.43 34.6331 10.3144C36.5521 9.21111 38.9994 9.86591 40.1151 11.7863C41.2183 13.7053 40.5635 16.1526 38.6431 17.2682C37.721 17.7992 36.6258 17.9426 35.598 17.6669C34.5702 17.3912 33.6938 16.7189 33.1612 15.7977M20.6195 45.5391C18.4019 45.5391 16.6095 43.7466 16.6095 41.5291C16.6095 39.3115 18.4061 37.5191 20.6195 37.5191C22.8329 37.5191 24.6295 39.3115 24.6295 41.5291C24.6276 42.592 24.2046 43.6109 23.453 44.3626C22.7013 45.1142 21.6824 45.5372 20.6195 45.5391M20.6195 8.55905C18.4019 8.55905 16.6095 6.76659 16.6095 4.54906C16.6095 2.33152 18.4061 0.539062 20.6195 0.539062C22.8329 0.539062 24.6295 2.33152 24.6295 4.54906C24.6304 5.07591 24.5273 5.59776 24.3261 6.08469C24.1249 6.57161 23.8295 7.01403 23.457 7.38657C23.0844 7.75912 22.642 8.05446 22.1551 8.25566C21.6682 8.45686 21.1463 8.55996 20.6195 8.55905Z" fill="#C4C4C4"/>
</svg>
