<svg width="135" height="46" viewBox="0 0 135 46" fill="none" xmlns="http://www.w3.org/2000/svg">
<path d="M0.0742188 12.3477H7.22305V19.4087H13.7611V12.3477H20.9099V33.7314H13.7611V26.5826H7.22305V33.7314H0.0742188V12.3477V12.3477ZM30.3088 19.44H24.004V12.3489H43.7398V19.44H37.4438V33.7339H30.295V19.44H30.3088ZM46.8727 12.3477H54.3263L58.9116 19.8727L63.4919 12.3477H70.9354V33.7314H63.8167V23.1311L58.9003 30.7352H58.7774L53.8786 23.1324V33.7327H46.8853L46.8727 12.3477ZM74.5023 12.3477H81.6512V26.6767H91.7034V33.7452H74.5036L74.5023 12.3477Z" fill="#C4C4C4"/>
<path d="M95.1016 0.539062H134.78L131.166 41.034L114.918 45.5391L98.7136 41.0403L95.1016 0.539062Z" fill="#C4C4C4"/>
<path d="M128.072 38.4579L131.161 3.85254H114.953V42.0975L128.072 38.4579Z" fill="#C4C4C4"/>
<path d="M108.37 18.8738L107.916 13.7869H114.954V8.82031H102.5L103.839 23.8416H114.954V18.8751L108.37 18.8738ZM104.048 26.3262L104.744 34.1272L114.919 36.9516L114.941 36.9453V31.7781L114.92 31.7844L109.402 30.2793L109.048 26.3161H106.36L104.048 26.3262Z" fill="white"/>
<path d="M126.354 20.2056L126.476 18.8712H114.93V23.8377H121.046L120.469 30.2804L114.93 31.7754V36.9427L125.114 34.1207L125.189 33.2804L126.354 20.2056ZM114.941 13.7867H126.94L127.385 8.80762H114.941V13.7616V13.7867Z" fill="white"/>
</svg>
