<svg width="199" height="46" viewBox="0 0 199 46" fill="none" xmlns="http://www.w3.org/2000/svg">
<path fill-rule="evenodd" clip-rule="evenodd" d="M190.311 3.86523L198.625 3.91104C198.625 3.91104 183.168 24.857 181.906 26.5641C181.496 27.1168 180.873 27.713 180.557 28.452C179.759 30.3097 178.939 34.3849 178.939 34.3849L171.332 34.4229C171.332 34.4229 172.516 30.175 172.467 27.9125C172.424 25.9361 171.415 23.962 170.849 21.9797C170.277 19.973 169.5 16.0465 169.5 16.0465H177.321L178.4 20.3615L190.311 3.86523Z" fill="#C4C4C4"/>
<path fill-rule="evenodd" clip-rule="evenodd" d="M174.566 8.28228C176.101 9.20724 177.042 14.3098 177.042 14.3098C177.042 14.3098 169.014 14.4282 164.645 14.4282H160.869L156.285 34.3844H149.273C149.273 34.3844 153.637 12.6971 154.667 8.76514C155.001 7.49201 156.954 7.71054 160.252 7.71054H165.519C168.92 7.71054 172.895 7.2762 174.566 8.28228M141.924 18.0015C141.924 18.0015 142.143 16.7206 141.183 15.2371C140.363 13.9725 139.606 13.6783 137.448 13.6108C131.356 13.4194 131.474 17.934 131.474 17.934L141.924 18.0015ZM148.531 12.8314C149.424 16.0518 147.722 23.6188 147.722 23.6188C147.722 23.6188 138.836 23.4705 133.969 23.6188C132.455 23.665 130.644 23.4542 130.193 24.1583C129.56 25.145 130.425 26.6638 131.159 27.3054C132.003 28.044 133.647 28.1283 134.239 28.2032C138.189 28.705 146.458 28.3328 146.458 28.3328L145.025 34.6751C145.025 34.6751 133.341 35.2612 127.497 33.8662C126.343 33.5914 125.261 33.036 124.53 32.2484C124.33 32.033 124.157 31.7392 123.969 31.4853C123.818 31.2827 123.379 30.6171 123.181 30.0907C121.847 26.5338 123.338 19.7194 124.8 16.0677C124.969 15.6447 125.182 15.1079 125.407 14.6518C125.687 14.0831 125.924 13.4412 126.148 13.1011C126.299 12.8667 126.485 12.7157 126.642 12.4945C126.822 12.2328 127.032 11.9794 127.227 11.7531C127.766 11.1274 128.378 10.6849 129.115 10.1353C131.55 8.31178 135.956 6.89621 141.25 7.43806C143.243 7.643 146.253 8.35487 147.722 10.4047C148.116 10.952 148.311 12.0388 148.531 12.8318V12.8314ZM116.372 7.6857L123.171 7.64572C123.171 7.64572 119.382 25.6197 117.451 34.3844H109.63C104.164 34.3844 99.296 35.0613 97.2249 31.148C95.2158 27.3485 97.1333 21.1001 98.0338 16.8549C98.6704 13.8506 100.011 7.71015 100.011 7.71015L107.055 7.64572C107.055 7.64572 105.065 17.2058 104.236 21.9792C103.94 23.689 103.328 25.2991 103.967 26.5633C104.574 27.7665 105.423 27.8527 108.012 27.9121C108.832 27.9315 111.518 27.9121 111.518 27.9121L116.372 7.6857ZM84.5499 20.6304C85.2618 18.1012 86.3001 15.3586 86.1681 13.0794C86.0253 10.6418 83.9813 8.4224 82.6624 7.95585C78.6901 6.55347 74.9712 8.51401 73.4932 10.1132C71.5812 12.1843 70.9337 14.6037 70.2568 17.9343C69.753 20.4068 69.34 23.0171 70.2568 24.9455C71.88 28.3546 76.9423 27.6101 82.3926 27.6427C83.2015 25.4745 83.8703 23.0393 84.5499 20.6304ZM93.9889 10.6527C94.7652 16.2995 91.7858 22.5323 89.7333 27.9524C91.8262 28.1415 93.6601 27.9233 93.7921 28.0794C93.9295 28.2816 92.3894 34.549 91.8525 34.5653C90.1917 34.6084 84.6877 34.6542 82.3926 34.6542C74.9033 34.6542 67.8972 35.1421 64.3244 31.4182C62.8735 29.9052 61.8701 27.3104 61.6271 25.485C61.2227 22.4376 61.7296 19.0825 62.4364 16.3162C63.0757 13.8184 63.8951 11.4616 65.1333 9.30389C68.2804 3.81082 73.7548 -0.266664 82.9318 0.674593C84.7118 0.857799 87.2681 1.6372 88.865 2.56215C88.9752 2.62697 89.3614 2.93439 89.4499 2.98834C91.6076 4.36122 93.5736 7.63757 93.9889 10.6527V10.6527ZM60.8531 7.7183C60.4002 9.78131 59.9472 12.1199 59.4698 14.1584H51.9188C52.5037 11.8987 52.9516 9.65205 53.537 7.68609C55.9532 7.68609 58.1998 7.7183 60.8535 7.7183M51.649 16.0464H58.9307C57.9785 21.3159 56.0933 29.8159 54.6156 35.7328C53.6907 39.4358 53.0731 42.1377 50.5703 44.0928C50.3464 44.2682 50.2171 44.1848 50.0308 44.3625C49.5697 44.8023 47.4364 45.3123 46.2557 45.4412C44.3355 45.6492 42.1646 45.4684 39.8047 45.4198C40.4222 43.1628 41.1209 40.4523 41.6713 38.4293C47.4236 39.1256 47.5692 33.6885 48.6828 28.4516C49.3271 25.4256 51.2799 17.2597 51.649 16.0464" fill="#C4C4C4"/>
<path fill-rule="evenodd" clip-rule="evenodd" d="M34.6605 29.8001L34.5045 30.2046C31.8456 35.3825 27.1339 38.5591 20.4135 38.6992C17.2719 38.764 14.2785 37.9578 12.323 37.0814C8.10305 35.1853 4.55344 31.669 2.61504 27.9122C-0.165653 22.5266 -0.667139 15.035 5.11471 9.43945C5.20398 9.43945 4.41332 10.6528 4.5026 10.6528L4.34346 11.1706C0.177081 24.2147 13.0135 35.3933 25.4917 34.1148C28.4905 33.8074 32.3145 32.1651 34.6605 29.8001Z" fill="#C4C4C4"/>
<path fill-rule="evenodd" clip-rule="evenodd" d="M27.1099 24.4066C30.2493 24.428 33.5283 22.9608 35.4702 20.9009C33.7713 25.2132 28.8523 27.985 22.2562 27.1035C16.7328 26.3644 11.4715 20.8066 10.9296 15.2374C10.5333 11.1844 11.9458 8.76545 14.2735 5.83105C13.4646 7.36579 13.1623 8.54925 13.087 9.3042C12.2028 18.0717 20.0907 24.3604 27.1099 24.4066" fill="#C4C4C4"/>
<path fill-rule="evenodd" clip-rule="evenodd" d="M35.1558 13.5165C34.6679 14.6359 31.8581 16.7497 30.6172 17.0141C25.7037 18.0609 22.557 15.7309 20.9085 13.0794C20.6636 12.6835 20.2106 11.6021 20.1295 11.3269C19.4902 9.15331 19.784 5.8657 21.691 4.16406C21.1165 5.78225 21.0327 7.66166 21.3351 8.88355C21.5183 9.62219 22.0764 10.912 22.635 11.7232C23.6512 13.2009 24.2959 13.5599 25.6012 14.3448C26.1892 14.698 26.82 14.9813 27.0925 15.059C28.3303 15.4234 30.9437 16.3833 35.1562 13.5165" fill="#C4C4C4"/>
</svg>
