<svg width="33" height="46" viewBox="0 0 33 46" fill="none" xmlns="http://www.w3.org/2000/svg">
<path d="M3.6507 41.9254L0.75 9.39062H32.6234L29.7197 41.9202L16.6672 45.5388L3.6507 41.9254Z" fill="#C4C4C4"/>
<path d="M16.6602 42.7327L27.2073 39.8087L29.6888 12.0107H16.6602V42.7327Z" fill="#DCDCDC"/>
<path d="M16.6533 34.4428L16.636 34.4479L12.192 33.2476L11.9077 30.0654H9.74853H7.90234L8.46137 36.3306L16.6349 38.5997L16.6533 38.5945V34.4428Z" fill="#DCDCDC"/>
<path d="M17.1931 28.0685V24.0784H12.2796L12.8558 17.816L17.2042 17.7002L17.1931 13.5508H9.2482L8.95309 16.4921L8.01527 26.9971L7.91797 28.0685H8.99327H17.1931Z" fill="#DCDCDC"/>
<path d="M17.1641 17.7056L17.1815 17.7007L21.5397 17.9631L21.9094 22.0829H24.0687H25.915L25.217 14.3735L17.1825 13.5488L17.1641 13.554V17.7056Z" fill="white"/>
<path d="M25.503 17.718L25.161 13.5508H16.7383V16.1388V17.7076V17.718H25.503Z" fill="white"/>
<path d="M16.6406 24.0801V28.0701H21.5541L21.091 33.245L16.6406 34.4464V38.5978L24.8209 36.3306L24.8808 35.6565L25.8186 25.1515L25.9159 24.0801H24.8406H16.6406Z" fill="white"/>
<path d="M22.307 2.2049H19.6615L22.4128 5.19026V6.61114H16.7461V4.94744H19.4968L16.7461 1.9622V0.539062H22.307V2.2049Z" fill="#C4C4C4"/>
<path d="M15.7357 0.541992V6.60882H10.8555V4.60351H13.7072V0.541992H15.7354H15.7357Z" fill="#C4C4C4"/>
</svg>
