<svg width="171" height="46" viewBox="0 0 171 46" fill="none" xmlns="http://www.w3.org/2000/svg">
<path d="M41.7208 45.5391C41.5444 45.5394 41.3709 45.494 41.2174 45.4072C41.0638 45.3204 40.9354 45.1952 40.8448 45.0438L33.1421 32.1962L18.7367 36.1141C18.5173 36.1671 18.2864 36.1456 18.0805 36.0531C17.8746 35.9607 17.7052 35.8024 17.5989 35.6032L0.764403 3.95892C0.687091 3.81398 0.645977 3.65249 0.644569 3.48823C0.64316 3.32397 0.681498 3.1618 0.756313 3.01555C0.831128 2.86931 0.940202 2.74333 1.07423 2.64835C1.20826 2.55338 1.36327 2.49222 1.52605 2.47011L15.8186 0.548759C16.0161 0.521318 16.2173 0.552424 16.3972 0.638225C16.5772 0.724026 16.728 0.860748 16.831 1.03145L34.0699 29.8266L54.1203 24.3729L47.4347 14.9307C47.3383 14.7965 47.276 14.6408 47.2531 14.4771C47.2303 14.3134 47.2476 14.1467 47.3036 13.9912C47.3596 13.8357 47.4526 13.6961 47.5745 13.5846C47.6965 13.4731 47.8437 13.3929 48.0036 13.351L57.3831 11.1334C57.5705 11.0888 57.7667 11.0983 57.949 11.1607C58.1312 11.2231 58.292 11.3359 58.4127 11.486L66.5307 21.6225C66.6365 21.7544 66.7078 21.9106 66.7381 22.077C66.7685 22.2433 66.7569 22.4146 66.7045 22.5754C66.6521 22.7362 66.5605 22.8814 66.4379 22.998C66.3154 23.1145 66.1658 23.1987 66.0025 23.2429L57.4771 25.5686L64.9416 36.0687C65.033 36.1975 65.0932 36.3458 65.1175 36.5019C65.1418 36.658 65.1294 36.8176 65.0813 36.9681C65.0333 37.1185 64.9509 37.2558 64.8407 37.369C64.7305 37.4821 64.5955 37.5681 64.4463 37.6202L42.0437 45.4764C41.9396 45.5148 41.8301 45.536 41.7193 45.5391H41.7208ZM35.1826 31.6383L42.1643 43.2823L62.5109 36.1596L55.4053 26.1422L35.1826 31.6383ZM3.2515 4.28019L19.0063 33.931L32.0812 30.383L15.43 2.6566L3.2515 4.28019ZM50.0049 14.9902L56.2736 23.8071L64.0498 21.6914L57.2844 13.2663L50.0049 14.9902ZM77.2533 11.9123H79.2906V33.7586H77.2611L77.2533 11.9123ZM99.1936 17.9976V33.7586H97.1923V31.0318C96.4166 32.0034 95.4403 32.7995 94.3307 33.3637C92.8208 34.0855 91.1224 34.3151 89.475 34.0202C87.8276 33.7252 86.3143 32.9206 85.1487 31.7198C84.3778 30.9455 83.7708 30.0238 83.3639 29.0098C82.9571 27.9958 82.7587 26.9102 82.7807 25.8178C82.7641 24.7359 82.9673 23.6618 83.3782 22.6608C83.789 21.6598 84.3988 20.7526 85.1706 19.9942C85.9125 19.2147 86.8078 18.5974 87.8001 18.1812C88.7925 17.765 89.8603 17.559 90.9362 17.5761C92.1586 17.5604 93.3653 17.8425 94.4498 18.402C95.5511 18.9996 96.4965 19.8478 97.2096 20.8781V17.9945L99.1936 17.9976ZM91.0914 19.5648C89.9888 19.5576 88.9047 19.848 87.9534 20.4054C87.0021 20.9629 86.2189 21.7667 85.6862 22.732C84.5531 24.7035 84.5531 27.128 85.6862 29.0995C86.2237 30.0789 87.0152 30.8954 87.9774 31.4627C88.9106 32.0199 89.9779 32.3124 91.0647 32.309C92.1711 32.3093 93.2583 32.0197 94.2179 31.469C95.1785 30.9409 95.9731 30.1526 96.5091 29.1966C97.0557 28.204 97.3329 27.0856 97.313 25.9526C97.3362 25.1082 97.1885 24.2679 96.8788 23.4821C96.5691 22.6962 96.1038 21.9811 95.5108 21.3796C94.939 20.7881 94.2511 20.3212 93.4903 20.0081C92.7296 19.695 91.9123 19.5424 91.0898 19.5601L91.0914 19.5648ZM102.989 17.9976H105.061V20.3014C105.58 19.506 106.244 18.8163 107.02 18.2687C107.652 17.8362 108.398 17.6016 109.164 17.5949C109.801 17.6158 110.422 17.8009 110.966 18.1324L109.904 19.8563C109.56 19.6918 109.187 19.5985 108.807 19.582C108.073 19.6045 107.374 19.9015 106.849 20.4142C106.131 21.1201 105.631 22.0169 105.407 22.9985C105.167 23.897 105.047 25.7118 105.047 28.4428V33.7759H102.975L102.989 17.9976ZM128.377 17.9976V33.7586H126.378V31.0318C125.602 32.0034 124.626 32.7995 123.516 33.3637C122.006 34.0855 120.308 34.3151 118.66 34.0202C117.013 33.7252 115.5 32.9206 114.334 31.7198C113.563 30.9455 112.956 30.0238 112.549 29.0098C112.142 27.9958 111.944 26.9102 111.966 25.8178C111.935 23.6316 112.797 21.5238 114.359 19.9942C115.101 19.2147 115.996 18.5974 116.989 18.1812C117.981 17.765 119.049 17.559 120.125 17.5761C121.347 17.5604 122.554 17.8425 123.638 18.402C124.74 18.9996 125.685 19.8478 126.398 20.8781V17.9945L128.377 17.9976ZM120.275 19.5648C119.173 19.5576 118.089 19.848 117.137 20.4054C116.186 20.9629 115.403 21.7667 114.87 22.732C113.737 24.7035 113.737 27.128 114.87 29.0995C115.408 30.0789 116.199 30.8954 117.161 31.4627C118.094 32.0199 119.162 32.3124 120.249 32.309C121.355 32.3093 122.442 32.0197 123.402 31.469C124.362 30.9409 125.157 30.1526 125.693 29.1966C126.24 28.204 126.517 27.0856 126.497 25.9526C126.522 25.1057 126.376 24.2625 126.066 23.4738C125.757 22.6851 125.291 21.9674 124.696 21.3639C124.125 20.7728 123.437 20.3061 122.677 19.993C121.917 19.6799 121.1 19.5272 120.278 19.5444L120.275 19.5648ZM131.454 17.9976H133.617L138.907 29.485L144.142 17.9976H146.304L139.095 33.7602H138.735L131.454 17.9976ZM162.651 28.529L164.375 29.427C163.892 30.4246 163.235 31.3279 162.434 32.0943C161.713 32.7616 160.871 33.285 159.954 33.6364C158.957 34.003 157.9 34.1825 156.837 34.1661C154.267 34.1661 152.256 33.3303 150.804 31.6586C149.401 30.0862 148.631 28.0501 148.641 25.9432C148.621 24.003 149.271 22.1146 150.482 20.6148C151.209 19.6533 152.155 18.8805 153.243 18.3612C154.33 17.8419 155.526 17.5915 156.731 17.6309C157.969 17.5903 159.2 17.8464 160.32 18.378C161.439 18.9096 162.416 19.7013 163.167 20.6869C164.308 22.1287 164.883 23.9309 164.891 26.0936H150.7C150.677 27.7658 151.307 29.38 152.455 30.5945C152.992 31.1639 153.643 31.6143 154.365 31.9167C155.086 32.219 155.864 32.3666 156.646 32.3498C157.446 32.3504 158.239 32.2087 158.989 31.9313C159.695 31.6805 160.351 31.3047 160.924 30.8218C161.61 30.1598 162.192 29.3979 162.65 28.5619L162.651 28.529ZM162.651 24.2976C162.448 23.3595 162.045 22.4761 161.47 21.7071C160.918 21.0333 160.216 20.4977 159.42 20.1431C158.585 19.7513 157.673 19.5476 156.75 19.5476C155.278 19.5179 153.852 20.0516 152.761 21.0395C151.949 21.7708 151.335 22.8522 150.92 24.2835L162.651 24.2976ZM168.356 11.9295H170.385V33.7759H168.356V11.9295Z" fill="#C4C4C4"/>
</svg>
