<svg width="88" height="46" viewBox="0 0 88 46" fill="none" xmlns="http://www.w3.org/2000/svg">
<g clip-path="url(#clip0_600_6508)">
<path d="M0.386719 41.4158H3.24024V30.1514L7.65777 39.9748C8.17882 41.159 8.89273 41.5845 10.2918 41.5845C11.6909 41.5845 12.3769 41.1637 12.8987 39.9748L17.3167 30.1514V41.42H20.1706V30.17C20.1706 29.0725 19.7308 28.5417 18.8257 28.2677C16.6582 27.591 15.2037 28.1763 14.5456 29.6396L10.2106 39.3345L6.01172 29.6354C5.3807 28.1721 3.89917 27.5867 1.73164 28.2634C0.825723 28.5379 0.386719 29.0687 0.386719 30.1658V41.4158ZM22.5425 32.2441H25.3951V38.4527C25.3685 38.7902 25.5034 39.5819 27.0666 39.606C27.8642 39.6187 33.2219 39.606 33.2718 39.606V32.2132H36.1308C36.1435 32.2132 36.1279 42.2934 36.1283 42.3365C36.144 44.8225 33.0434 45.3626 31.6148 45.4044H22.6046V43.4843L31.6308 43.4839C33.4672 43.2894 33.2507 42.3771 33.2507 42.0696V41.321H27.1858C24.364 41.2957 22.5674 40.0637 22.545 38.6468C22.5429 38.52 22.6059 32.305 22.5433 32.2436L22.5425 32.2441Z" fill="#C4C4C4"/>
<path d="M38.332 41.416H46.5361C47.4961 41.416 48.4295 41.2151 49.1709 40.867C50.4059 40.3003 51.0094 39.5318 51.0094 38.5257V36.4406C51.0094 35.6172 50.3234 34.8491 48.9794 34.3369C48.2659 34.062 47.3879 33.9161 46.5373 33.9161H43.0799C41.9278 33.9161 41.3788 33.5685 41.2418 32.8004C41.2143 32.7091 41.2143 32.6312 41.2143 32.5441V31.2457C41.2143 31.1726 41.2143 31.099 41.2418 31.0076C41.3788 30.4223 41.6808 30.2573 42.6958 30.1617C42.7783 30.1617 42.8879 30.1431 42.9708 30.1431H51.1198V28.2412H43.1078C41.9553 28.2412 41.3518 28.3144 40.8028 28.4789C39.1001 29.0097 38.3591 29.8555 38.3591 31.3189V32.9836C38.3591 34.2642 39.814 35.3617 42.2551 35.6176C42.5301 35.6358 42.8041 35.6539 43.0782 35.6539H46.0417C46.1516 35.6539 46.2616 35.6539 46.3436 35.6726C47.2487 35.7457 47.6336 35.9102 47.9076 36.2393C48.0768 36.4085 48.1276 36.5692 48.1276 36.7468V38.4115C48.1276 38.6128 47.9905 38.8691 47.7161 39.0882C47.4691 39.3081 47.0575 39.454 46.5086 39.4908C46.3986 39.4908 46.3166 39.509 46.207 39.509H38.332V41.4113V41.416ZM68.8102 38.1053C68.8102 40.0626 70.2643 41.1601 73.2003 41.3796C73.4741 41.4008 73.7486 41.4129 74.0233 41.416H81.4593V39.5136H73.9683C72.2948 39.5136 71.6633 39.0928 71.6633 38.0867V28.245H68.8098V38.1044L68.8102 38.1053ZM52.8297 38.2042V31.4225C52.8297 29.6995 54.0393 28.6544 56.4314 28.3245C56.6865 28.2881 56.9439 28.2697 57.2016 28.2695H62.6181C62.8849 28.2697 63.1514 28.2881 63.4157 28.3245C65.8078 28.6544 67.0174 29.6991 67.0174 31.4225V38.2042C67.0174 39.602 66.5036 40.3502 65.3193 40.8378L68.1301 43.3754H64.8169L62.5428 41.3225L60.2535 41.4676H57.2016C56.6793 41.4676 56.1294 41.394 55.5242 41.229C53.7056 40.7342 52.8302 39.7809 52.8302 38.2042H52.8297ZM55.9099 38.0351C55.9099 38.1268 55.9374 38.2182 55.9649 38.3286C56.1341 39.1169 56.8721 39.5568 57.995 39.5568H60.5876L58.2065 37.407H61.5197L63.5921 39.2819C63.9748 39.078 64.2265 38.7659 64.3111 38.3654C64.3386 38.274 64.3386 38.1822 64.3386 38.0905V31.5879C64.3386 31.5147 64.3386 31.4187 64.3111 31.3312C64.1419 30.5982 63.4035 30.1766 62.3038 30.1766H58.0001C56.7313 30.1766 55.9108 30.7264 55.9108 31.5879V38.0401L55.9099 38.0351Z" fill="#C4C4C4"/>
<path d="M83.9677 25.0894C82.2138 25.042 80.8736 25.2048 79.7283 25.6878C79.4026 25.8253 78.8837 25.8287 78.8304 26.2368C79.0093 26.4241 79.0376 26.7041 79.1793 26.9346C79.4529 27.3774 79.9152 27.9708 80.3267 28.2812C80.7767 28.6208 81.2403 28.9846 81.7237 29.2794C82.5822 29.8029 83.5406 30.102 84.367 30.626C84.8542 30.9347 85.3381 31.3238 85.8134 31.6731C86.0482 31.8457 86.2068 32.1138 86.5113 32.2217V32.1718C86.3506 31.9675 86.3095 31.6867 86.1623 31.4739L85.514 30.8256C84.8796 29.9797 84.0752 29.2451 83.2196 28.6306C82.5374 28.1408 81.0102 27.4794 80.7255 26.6851L80.6756 26.6352C81.1595 26.5802 81.7258 26.4055 82.1728 26.2863C82.9227 26.0854 83.593 26.137 84.3678 25.9373L85.4154 25.6379V25.4383C85.0238 25.0365 84.7447 24.5049 84.3179 24.1416C83.2014 23.19 81.9821 22.2405 80.7272 21.4475C80.0311 21.0076 79.1709 20.7226 78.4328 20.35C78.1846 20.2248 77.7485 20.1597 77.5849 19.9507C77.1974 19.4568 76.9864 18.83 76.6874 18.259C76.0615 17.0537 75.4465 15.7366 74.8916 14.4683C74.5131 13.6034 74.2657 12.7503 73.7945 11.9742C71.5297 8.25074 69.0915 6.00328 65.3156 3.79472C64.512 3.32527 63.5448 3.13918 62.5221 2.89684L60.8761 2.79703C60.5411 2.65746 60.1926 2.24721 59.8779 2.04844C58.6269 1.25755 55.4181 -0.460821 54.4915 1.79468C53.9066 3.22123 55.3657 4.6131 55.888 5.33631C56.2543 5.84383 56.7237 6.41183 56.9851 6.98236C57.1572 7.35708 57.1873 7.73307 57.3344 8.12978C57.6969 9.10252 58.0124 10.1696 58.4814 11.0725C58.7183 11.5293 58.9796 12.0106 59.2795 12.4192C59.4635 12.67 59.7786 12.7803 59.828 13.1677C59.5201 13.5991 59.5024 14.2674 59.329 14.8138C58.5495 17.2719 58.8435 20.3267 59.9773 22.1462C60.3254 22.7044 61.1446 23.9022 62.2717 23.4429C63.2572 23.0411 63.033 21.7977 63.3193 20.6998C63.3828 20.4502 63.3439 20.2684 63.4691 20.1013V20.1512L64.367 21.9466C65.031 23.0166 66.2109 24.1352 67.2099 24.8902C67.728 25.2814 68.1403 25.9581 68.806 26.1869V26.137H68.7561C68.6263 25.934 68.4233 25.8506 68.2571 25.6887C67.8667 25.3059 67.4324 24.8301 67.1097 24.392C66.2004 23.1578 65.3976 21.8078 64.666 20.4016C64.3166 19.7304 64.0125 18.9898 63.7186 18.3068C63.6052 18.0433 63.6065 17.6453 63.3697 17.5087C63.047 18.0095 62.5716 18.4138 62.3221 19.0051C61.9228 19.9499 61.8712 21.102 61.7236 22.2972C61.6361 22.3285 61.675 22.3069 61.6238 22.3471C60.9294 22.1796 60.6849 21.4644 60.4269 20.8507C59.7739 19.2986 59.6529 16.8007 60.2273 15.0151C60.3753 14.5533 61.0478 13.0975 60.7758 12.6708C60.646 12.2449 60.2176 11.9941 59.9778 11.6727C59.6817 11.2709 59.3848 10.7405 59.1797 10.2762C58.6451 9.06657 58.3956 7.70896 57.8331 6.48542C57.5641 5.90093 57.1099 5.30967 56.736 4.79369C56.3224 4.2185 55.8592 3.79388 55.5391 3.10196C55.4249 2.85454 55.2701 2.4591 55.4393 2.20408C55.4554 2.1308 55.4922 2.06368 55.5453 2.01062C55.5983 1.95756 55.6654 1.92079 55.7387 1.90464C56.028 1.68175 56.8341 1.97865 57.1352 2.10426C57.9346 2.43669 58.6028 2.75304 59.2803 3.20177C59.606 3.41324 59.9346 3.83448 60.3275 3.95036H60.7758C61.4779 4.11192 62.2646 4.00111 62.9201 4.19989C64.0798 4.5522 65.1185 5.10074 66.0625 5.69623C68.9376 7.51145 71.2878 10.0956 72.8958 13.1821C73.1546 13.6782 73.2663 14.1523 73.4943 14.6785C73.954 15.7358 74.533 16.8325 74.9906 17.8703C75.4474 18.9065 75.8914 19.9512 76.5368 20.8131C76.876 21.2656 78.1863 21.5092 78.7813 21.7605C79.1988 21.9368 79.8822 22.1208 80.2777 22.3589C81.0326 22.8144 81.7643 23.357 82.4727 23.8561C82.8267 24.1056 83.9149 24.6525 83.969 25.1029L83.9677 25.0894Z" fill="#C4C4C4"/>
<path fill-rule="evenodd" clip-rule="evenodd" d="M61.6752 6.08581C61.3094 6.07904 61.051 6.12556 60.7773 6.18562V6.23553H60.8272C61.0015 6.59417 61.3094 6.82467 61.5251 7.13341L62.0241 8.18059L62.0741 8.13068C62.3828 7.91287 62.5245 7.5648 62.5224 7.03318C62.3984 6.90291 62.3803 6.73966 62.2728 6.58402C62.1303 6.37678 61.8499 6.25921 61.6744 6.08496L61.6752 6.08581Z" fill="#C4C4C4"/>
<path fill-rule="evenodd" clip-rule="evenodd" d="M82.7969 39.4593C82.7969 40.7154 83.7895 41.5621 84.8997 41.5621C86.0099 41.5621 87.0025 40.7154 87.0025 39.4593C87.0025 38.2032 86.0099 37.3564 84.8997 37.3564C83.7895 37.3564 82.7969 38.2032 82.7969 39.4593ZM86.5314 39.4593C86.5314 40.4126 85.8027 41.1248 84.8988 41.1248C83.9853 41.1248 83.2663 40.4126 83.2663 39.4593C83.2663 38.506 83.9845 37.7938 84.8988 37.7938C85.8018 37.7938 86.5314 38.506 86.5314 39.4593ZM85.4656 40.6595H85.9363L85.2469 39.6056C85.617 39.5663 85.897 39.3865 85.897 38.9492C85.897 38.4611 85.5882 38.2598 84.9944 38.2598H84.0576V40.66H84.4615V39.6225H84.8371L85.4652 40.66L85.4656 40.6595ZM84.4615 39.285V38.5956H84.9268C85.1678 38.5956 85.4597 38.6405 85.4597 38.9213C85.4597 39.2575 85.1962 39.2859 84.8929 39.2859H84.4615V39.285Z" fill="#C4C4C4"/>
</g>
<defs>
<clipPath id="clip0_600_6508">
<rect width="86.6165" height="45" fill="white" transform="translate(0.386719 0.539062)"/>
</clipPath>
</defs>
</svg>
