<svg width="170" height="46" viewBox="0 0 170 46" fill="none" xmlns="http://www.w3.org/2000/svg">
<path d="M29.3501 2.72355C27.2344 1.26905 24.4735 0.540039 21.0675 0.540039H7.88126C6.83711 0.540039 6.26025 1.06224 6.15067 2.10563L0.794158 35.7299C0.738487 36.0602 0.821111 36.3622 1.04128 36.6368C1.26018 36.9119 1.53551 37.0487 1.86526 37.0487H8.12863C9.22719 37.0487 9.83101 36.5277 9.94184 35.4831L11.4251 26.418C11.4792 25.9787 11.6724 25.6215 12.0022 25.3464C12.3317 25.0718 12.7438 24.8922 13.2383 24.8101C13.7328 24.7285 14.199 24.6872 14.6394 24.6872C15.0784 24.6872 15.6001 24.7151 16.2055 24.7698C16.8093 24.8245 17.1942 24.8514 17.3592 24.8514C22.0839 24.8514 25.7925 23.5201 28.4851 20.8544C31.1764 18.1903 32.5236 14.4958 32.5236 9.76959C32.5236 6.52808 31.4649 4.17956 29.3501 2.7228V2.72355ZM22.5515 12.8199C22.2759 14.7432 21.5625 16.0063 20.4088 16.6108C19.2548 17.2162 17.6066 17.5174 15.4641 17.5174L12.7443 17.5996L14.1456 8.78112C14.255 8.1773 14.6119 7.87501 15.2167 7.87501H16.7831C18.9797 7.87501 20.574 8.19166 21.563 8.82243C22.5515 9.45471 22.8812 10.7875 22.5515 12.8199V12.8199Z" fill="#C4C4C4"/>
<path d="M168.504 0.539062H162.406C161.8 0.539062 161.443 0.841352 161.334 1.44618L155.977 35.7305L155.895 35.8952C155.895 36.1713 156.004 36.431 156.225 36.6784C156.443 36.9253 156.719 37.0489 157.049 37.0489H162.489C163.531 37.0489 164.108 36.528 164.22 35.4834L169.576 1.77592V1.69405C169.576 0.924479 169.218 0.540073 168.504 0.540073V0.539062Z" fill="#D0D0D0"/>
<path d="M94.8276 13.809C94.8276 13.5349 94.7173 13.2735 94.4989 13.0268C94.2785 12.7797 94.0311 12.6553 93.757 12.6553H87.4113C86.8057 12.6553 86.3112 12.9314 85.9273 13.4793L77.1917 26.3362L73.5656 13.9743C73.2895 13.0959 72.6859 12.6553 71.7526 12.6553H65.5706C65.2953 12.6553 65.0482 12.7792 64.8297 13.0268C64.6093 13.2735 64.5 13.5354 64.5 13.809C64.5 13.9196 65.0358 15.5398 66.1069 18.6715C67.178 21.8042 68.3317 25.1833 69.5681 28.8097C70.8044 32.4354 71.4496 34.3594 71.5047 34.5773C66.9992 40.7319 64.7474 44.0283 64.7474 44.4671C64.7474 45.182 65.1038 45.5387 65.8187 45.5387H72.1645C72.7685 45.5387 73.2628 45.2647 73.6482 44.715L94.6639 14.3856C94.773 14.2768 94.8276 14.0853 94.8276 13.8087V13.809Z" fill="#C4C4C4"/>
<path d="M153.919 12.656H147.656C146.886 12.656 146.42 13.5628 146.255 15.3763C144.825 13.1792 142.217 12.0791 138.425 12.0791C134.469 12.0791 131.104 13.5628 128.33 16.5298C125.555 19.4967 124.168 22.9866 124.168 26.9969C124.168 30.2392 125.116 32.8212 127.011 34.7435C128.906 36.6678 131.447 37.6281 134.635 37.6281C136.228 37.6281 137.849 37.2978 139.497 36.6391C141.145 35.9799 142.435 35.1012 143.371 34.0019C143.371 34.0571 143.315 34.3034 143.206 34.7428C143.095 35.1831 143.041 35.5138 143.041 35.7317C143.041 36.6119 143.397 37.0502 144.113 37.0502H149.8C150.842 37.0502 151.447 36.5293 151.612 35.4846L154.991 13.9744C155.045 13.6444 154.963 13.3429 154.744 13.0678C154.523 12.7938 154.249 12.656 153.919 12.656V12.656ZM143.164 28.8923C141.763 30.2659 140.074 30.9523 138.096 30.9523C136.502 30.9523 135.212 30.5135 134.222 29.6339C133.233 28.7567 132.738 27.5478 132.738 26.0077C132.738 23.9763 133.425 22.2578 134.799 20.857C136.171 19.4559 137.876 18.7556 139.909 18.7556C141.446 18.7556 142.724 19.2088 143.741 20.1149C144.756 21.0217 145.266 22.2717 145.266 23.8655C145.266 25.8432 144.565 27.5194 143.164 28.8923Z" fill="#D0D0D0"/>
<path d="M60.295 12.656H54.0314C53.261 12.656 52.795 13.5628 52.63 15.3763C51.1465 13.1792 48.5366 12.0791 44.8006 12.0791C40.8446 12.0791 37.4789 13.5628 34.7047 16.5298C31.9297 19.4967 30.543 22.9866 30.543 26.9969C30.543 30.2392 31.4909 32.8212 33.3865 34.7435C35.2821 36.6678 37.8225 37.6281 41.0096 37.6281C42.5473 37.6281 44.1416 37.2978 45.7895 36.6391C47.4377 35.9799 48.7565 35.1012 49.7455 34.0019C49.525 34.6606 49.4157 35.2378 49.4157 35.7317C49.4157 36.6119 49.7727 37.0502 50.4871 37.0502H56.1736C57.2167 37.0502 57.8218 36.5293 57.9868 35.4846L61.3656 13.9744C61.4197 13.6444 61.3376 13.3429 61.1185 13.0678C60.8986 12.7938 60.6242 12.656 60.295 12.656V12.656ZM49.5399 28.9331C48.1385 30.2808 46.4208 30.9523 44.3892 30.9523C42.7949 30.9523 41.5175 30.5135 40.5567 29.6339C39.5947 28.7567 39.1143 27.5478 39.1143 26.0077C39.1143 23.9763 39.8007 22.2578 41.1749 20.857C42.5475 19.4559 44.2509 18.7553 46.2845 18.7553C47.8222 18.7553 49.0996 19.2088 50.117 20.1149C51.1327 21.0217 51.6415 22.2717 51.6415 23.8655C51.6413 25.8984 50.941 27.5884 49.5399 28.9331V28.9331Z" fill="#C4C4C4"/>
<path d="M122.972 2.72355C120.856 1.26905 118.096 0.540039 114.689 0.540039H101.585C100.486 0.540039 99.8813 1.06224 99.7723 2.10563L94.4152 35.7299C94.3596 36.0602 94.4422 36.3622 94.6626 36.6368C94.8805 36.9119 95.1566 37.0487 95.4863 37.0487H102.244C102.903 37.0487 103.343 36.692 103.563 35.9776L105.046 26.418C105.101 25.9787 105.293 25.6215 105.624 25.3464C105.953 25.0718 106.365 24.8922 106.86 24.8101C107.354 24.7285 107.82 24.6872 108.261 24.6872C108.7 24.6872 109.221 24.7151 109.826 24.7698C110.43 24.8245 110.816 24.8514 110.98 24.8514C115.706 24.8514 119.414 23.5201 122.106 20.8544C124.799 18.1903 126.144 14.4958 126.144 9.76959C126.145 6.52808 125.086 4.17931 122.972 2.7228V2.72355ZM114.525 16.2808C113.316 17.1048 111.502 17.5167 109.085 17.5167L106.448 17.5993L107.849 8.78061C107.958 8.17705 108.315 7.87426 108.92 7.87426H110.403C111.612 7.87426 112.573 7.92943 113.288 8.039C114.001 8.14934 114.689 8.49218 115.349 9.06879C116.008 9.64591 116.338 10.4842 116.338 11.5826C116.338 13.891 115.732 15.4561 114.525 16.2808Z" fill="#D0D0D0"/>
</svg>
