<svg width="90" height="46" viewBox="0 0 90 46" fill="none" xmlns="http://www.w3.org/2000/svg">
<path d="M45.1956 45.5391C69.7249 45.5391 89.6099 35.4655 89.6099 23.0391C89.6099 10.6127 69.7249 0.539062 45.1956 0.539062C20.6662 0.539062 0.78125 10.6127 0.78125 23.0391C0.78125 35.4655 20.6662 45.5391 45.1956 45.5391Z" fill="#C4C4C4"/>
<path d="M54.1903 30.311L56.3973 18.9772C56.8989 16.4197 56.4808 14.5142 55.1603 13.3103C53.8895 12.1403 51.7335 11.5718 48.5572 11.5718H44.7468L45.8327 5.95522C45.8665 5.7379 45.8168 5.52058 45.683 5.35361C45.5491 5.18663 45.349 5.08594 45.1311 5.08594H39.8657C39.5145 5.08594 39.2303 5.33704 39.1633 5.67098L36.8232 17.7065C36.6058 16.3522 36.0877 15.1821 35.2522 14.2293C33.7144 12.4576 31.257 11.5718 27.9972 11.5718H17.7837C17.4326 11.5718 17.1483 11.8229 17.0814 12.1568L12.3342 36.512C12.301 36.73 12.3507 36.9473 12.4845 37.1143C12.6184 37.2812 12.8185 37.3819 13.0365 37.3819H18.3522C18.7034 37.3819 18.9876 37.1302 19.0545 36.7969L20.208 30.8955H24.1529C26.2255 30.8955 27.964 30.6781 29.3349 30.2269C30.7223 29.7751 32.009 29.0065 33.1294 27.9537C34.0483 27.1175 34.801 26.182 35.3695 25.1623L34.4167 30.0268C34.3829 30.2435 34.4333 30.4615 34.5671 30.6278C34.701 30.7954 34.9017 30.8955 35.119 30.8955H40.3844C40.7356 30.8955 41.0198 30.6444 41.0867 30.3104L43.678 16.9379H47.289C48.8261 16.9379 49.278 17.2387 49.3953 17.3725C49.5125 17.4898 49.7464 17.9244 49.4787 19.2449L47.4222 30.0434C47.3884 30.2613 47.4387 30.478 47.5726 30.645C47.7064 30.812 47.9065 30.9127 48.1238 30.9127H53.4734C53.8232 30.8961 54.1234 30.6622 54.1903 30.311ZM29.7848 20.9497C29.4508 22.6545 28.832 23.8577 27.929 24.56C27.01 25.2623 25.555 25.6128 23.5832 25.6128H21.2258L22.9312 16.8537H25.9731C28.2132 16.8537 29.1156 17.3387 29.4668 17.7396C29.969 18.2921 30.0862 19.3953 29.7848 20.9497Z" fill="white"/>
<path d="M76.7085 14.2298C75.1707 12.4581 72.7132 11.5723 69.4534 11.5723H59.2406C58.8895 11.5723 58.6052 11.8234 58.5383 12.1573L53.807 36.5297C53.7732 36.7464 53.8242 36.9643 53.9574 37.1307C54.0912 37.2983 54.292 37.3984 54.5087 37.3984H59.825C60.1762 37.3984 60.4598 37.1479 60.5274 36.8133L61.6809 30.9125H65.6258C67.6983 30.9125 69.4369 30.6952 70.8077 30.2433C72.1957 29.7928 73.4825 29.0235 74.6022 27.9707C75.5384 27.1014 76.3242 26.1321 76.9092 25.0786C77.4943 24.0258 77.9117 22.8557 78.1628 21.6015C78.7485 18.4921 78.2635 16.0187 76.7085 14.2298ZM71.2092 20.9495C70.8759 22.6543 70.2571 23.8576 69.3546 24.5599C68.435 25.2622 66.9807 25.6127 65.0082 25.6127H62.6515L64.3563 16.8536H67.3988C69.6389 16.8536 70.5413 17.3386 70.8918 17.7395C71.4099 18.292 71.51 19.3952 71.2092 20.9495Z" fill="white"/>
</svg>
