<svg width="129" height="46" viewBox="0 0 129 46" fill="none" xmlns="http://www.w3.org/2000/svg">
<path d="M55.4331 38.2434C55.4331 38.2434 61.08 37.7523 61.08 30.4569C61.08 23.1615 54.2406 22.4951 54.2406 22.4951H41.8945V45.5388H48.1026V39.9971L53.469 45.5388H62.6584L55.4331 38.2434ZM53.0481 33.5434H48.1026V28.2823H53.0831C53.0831 28.2823 54.4861 28.8084 54.4861 30.9129C54.4861 33.0173 53.0481 33.5434 53.0481 33.5434ZM76.4074 22.6354H70.0941C65.6046 22.6354 64.0964 26.704 64.0964 28.6331V45.5037H70.4097V41.4702H76.3372V45.5037H82.4401V28.6331C82.405 23.7578 77.9507 22.6354 76.4074 22.6354ZM76.3022 34.9464H70.3747V29.3696C70.3747 29.3696 70.3747 28.107 72.3388 28.107H74.5134C76.2671 28.107 76.3022 29.3696 76.3022 29.3696V34.9464ZM85.2811 22.6354H91.84V45.5037H85.2811V22.6354ZM101.064 39.6112V22.6705H94.5407V39.6112V45.5388H101.064H109.868V39.6112H101.064ZM112.043 39.6814V45.5388H122.6C124.774 45.5388 128.492 43.9604 128.598 39.5411V37.2964C128.598 33.5084 125.511 31.2987 122.6 31.2987H117.339V28.598H127.756V22.7056H117.76C115.164 22.7056 111.727 24.8451 111.727 28.8084V30.8427C111.727 34.8061 115.164 36.8404 117.76 36.8404C125.02 36.8755 116.006 36.8404 122.74 36.8404V39.6814H112.043Z" fill="#C4C4C4"/>
<path d="M2.82286 45.4689H28.3217C28.3217 45.4689 23.4464 23.232 39.5805 14.2179C43.0879 12.4993 54.3116 6.11584 72.6553 19.6895C73.2515 19.1985 73.7777 18.8126 73.7777 18.8126C73.7777 18.8126 56.9772 2.04725 38.2827 3.94125C28.8829 4.78303 17.3084 13.3411 10.5392 24.6349C3.80494 35.9288 2.82286 45.4689 2.82286 45.4689ZM55.9951 5.73002L56.1354 3.55543C55.8548 3.38006 55.0481 2.99425 53.0138 2.43306L52.8735 4.57258C53.9257 4.92332 54.978 5.30913 55.9951 5.73002ZM52.9437 12.5695L52.8034 14.6038C53.8556 14.6388 54.9429 14.7791 55.9951 14.9896L56.1354 12.9903C55.013 12.7799 53.9608 12.6396 52.9437 12.5695ZM40.9834 2.50321H41.2991L40.6678 0.539062C39.6506 0.539062 38.6335 0.609213 37.5812 0.749509L38.1775 2.6435C39.0894 2.53828 40.0364 2.50321 40.9834 2.50321ZM42.5267 14.3933L43.2632 16.6381C44.2102 16.1821 45.1222 15.7963 46.0692 15.5157L45.3677 13.3762C44.2804 13.6568 43.3334 14.0426 42.5267 14.3933ZM27.8657 5.90539L26.4277 3.66066C25.621 4.08154 24.7792 4.53751 23.9024 5.06362L25.3755 7.30835C26.2172 6.78224 27.024 6.29121 27.8657 5.90539ZM34.4947 20.426L36.038 22.7409C36.5992 21.9342 37.2305 21.1977 37.932 20.4611L36.4939 18.2515C35.7574 18.9529 35.0559 19.6895 34.4947 20.426ZM29.7948 30.808L32.4254 32.8773C32.5657 31.6147 32.7761 30.352 33.0918 29.0893L30.7769 27.2655C30.356 28.458 30.0754 29.6505 29.7948 30.808ZM15.66 15.4806L13.3802 13.4814C12.5384 14.2881 11.7317 15.0948 10.9951 15.9015L13.4854 18.041C14.1518 17.1642 14.8883 16.2873 15.66 15.4806ZM5.90938 29.9311L2.19153 28.5632C1.59527 29.9662 0.893791 31.5796 0.578125 32.4214L4.29597 33.7893C4.71686 32.702 5.38327 31.1236 5.90938 29.9311ZM29.3038 39.0153C29.3739 40.7339 29.5142 42.1018 29.6896 43.0839L33.5477 44.4868C33.2671 43.2242 32.9515 41.8212 32.7761 40.278L29.3038 39.0153Z" fill="#C4C4C4"/>
</svg>
