<svg width="141" height="48" viewBox="0 0 141 48" fill="none" xmlns="http://www.w3.org/2000/svg">
<path d="M26.4321 28.7393C29.0525 28.7393 31.1768 26.615 31.1768 23.9946C31.1768 21.3742 29.0525 19.25 26.4321 19.25C23.8117 19.25 21.6875 21.3742 21.6875 23.9946C21.6875 26.615 23.8117 28.7393 26.4321 28.7393Z" fill="#C4C4C4"/>
<path fill-rule="evenodd" clip-rule="evenodd" d="M26.4327 14.3477C32.803 14.3477 38.7209 15.2617 43.1829 16.7979C48.5591 18.6487 51.8645 21.4542 51.8645 23.9945C51.8645 26.6417 48.3614 29.6221 42.5881 31.5349C38.2234 32.981 32.4798 33.7359 26.4327 33.7359C20.2328 33.7359 14.3618 33.0274 9.94793 31.519C4.36353 29.6103 1 26.5913 1 23.9945C1 21.4748 4.15603 18.691 9.4566 16.843C13.9353 15.2815 19.9993 14.3477 26.4318 14.3477H26.4327Z" stroke="#C4C4C4" stroke-width="1.66272"/>
<path fill-rule="evenodd" clip-rule="evenodd" d="M18.0336 19.1988C21.2162 13.6805 24.9643 9.01063 28.5241 5.91267C32.8132 2.1801 36.8948 0.718316 39.0954 1.98726C41.3887 3.30972 42.2204 7.83344 40.9932 13.7901C40.0664 18.2936 37.8501 23.6461 34.8291 28.8846C31.7317 34.2554 28.1851 38.9873 24.6737 42.0565C20.2305 45.9406 15.9348 47.3462 13.6853 46.0489C11.5024 44.791 10.6677 40.6655 11.7149 35.1505C12.5996 30.4907 14.82 24.7711 18.0326 19.1987L18.0336 19.1988Z" stroke="#C4C4C4" stroke-width="1.66272"/>
<path fill-rule="evenodd" clip-rule="evenodd" d="M18.0439 28.8989C14.8524 23.3868 12.6795 17.8063 11.7725 13.175C10.6807 7.59499 11.4527 3.32862 13.6512 2.05599C15.9422 0.729644 20.2768 2.26822 24.8245 6.30628C28.263 9.35922 31.7937 13.9516 34.8235 19.1851C37.9298 24.5507 40.2579 29.9867 41.1636 34.5616C42.3095 40.351 41.382 44.7744 39.1346 46.0754C36.9539 47.3378 32.9634 46.0013 28.7084 42.3396C25.1133 39.246 21.2669 34.4658 18.0439 28.8988V28.8989Z" stroke="#C4C4C4" stroke-width="1.66272"/>
<path fill-rule="evenodd" clip-rule="evenodd" d="M79.0984 36.1159L73.2829 27.3299C76.2221 27.0705 78.8705 24.9409 78.8705 21.0502C78.8705 17.0913 76.061 14.5576 72.1198 14.5576H63.4648V36.0995H66.146V27.5401H70.4421L75.9327 36.0995L79.0984 36.1159ZM71.799 25.1989H66.1473V16.963H71.799C74.3518 16.963 76.0951 18.6421 76.0951 21.0652C76.0951 23.4884 74.3505 25.2016 71.799 25.2016V25.1989ZM89.079 36.5023C91.6318 36.5023 93.73 35.6627 95.2808 34.1133L94.1177 32.5297C92.8891 33.7897 91.0816 34.4996 89.3056 34.4996C85.9473 34.4996 83.8792 32.0451 83.6853 29.1073H96.3129V28.493C96.3129 23.8105 93.5348 20.1274 88.8182 20.1274C84.3611 20.1274 81.1325 23.7778 81.1325 28.2991C81.1325 33.1768 84.4593 36.49 89.0776 36.49L89.079 36.5023ZM93.9252 27.3285H83.6867C83.8164 24.9395 85.4614 22.1273 88.7896 22.1273C92.343 22.1273 93.8925 25.0023 93.9252 27.3285ZM112.401 36.1146V25.3914C112.401 21.6127 109.657 20.126 106.362 20.126C103.809 20.126 101.808 20.9656 100.128 22.7102L101.259 24.3894C102.647 22.9041 104.167 22.2256 106.039 22.2256C108.3 22.2256 109.981 23.4201 109.981 25.5197V28.3292C108.721 26.8753 106.945 26.1968 104.812 26.1968C102.164 26.1968 99.3517 27.8445 99.3517 31.3325C99.3517 34.7235 102.161 36.5009 104.812 36.5009C106.912 36.5009 108.689 35.7583 109.981 34.3371V36.1118L112.401 36.1146ZM105.685 34.7576C103.424 34.7576 101.84 33.3379 101.84 31.3666C101.84 29.3639 103.424 27.9428 105.685 27.9428C107.396 27.9428 109.043 28.5885 109.981 29.8813V32.8205C109.044 34.1119 107.396 34.759 105.685 34.759V34.7576ZM124.114 36.5023C126.956 36.5023 128.635 35.3392 129.831 33.7897L128.216 32.3044C127.183 33.6928 125.859 34.3385 124.257 34.3385C120.93 34.3385 118.865 31.7543 118.865 28.2991C118.865 24.844 120.932 22.2925 124.257 22.2925C125.872 22.2925 127.196 22.9068 128.216 24.3266L129.831 22.8413C128.637 21.2905 126.956 20.1288 124.114 20.1288C119.463 20.1288 116.33 23.6822 116.33 28.3005C116.33 32.9515 119.463 36.4913 124.114 36.4913V36.5023ZM137.165 36.5023C138.584 36.5023 139.458 36.0818 140.072 35.5016L139.363 33.6928C139.039 34.0477 138.407 34.3385 137.715 34.3385C136.65 34.3385 136.131 33.4989 136.131 32.3358V22.6461H139.298V20.5151H136.131V16.2518H133.708V20.5151H131.124V22.6474H133.708V32.8546C133.708 35.1808 134.871 36.505 137.165 36.505V36.5023Z" fill="#C4C4C4"/>
</svg>
