<svg width="173" height="46" viewBox="0 0 173 46" fill="none" xmlns="http://www.w3.org/2000/svg">
<g clip-path="url(#clip0_600_6531)">
<path d="M37.8241 9.3526C37.7907 9.13373 37.5782 9.0123 37.4019 8.99908C37.2269 8.98586 33.7986 8.93898 33.7986 8.93898C33.7986 8.93898 30.9313 6.43305 30.6481 6.17814C30.3649 5.92322 29.8117 6.00017 29.5966 6.05789C29.594 6.05909 29.0582 6.2082 28.1564 6.45951C28.0054 6.01941 27.7836 5.47831 27.467 4.9348C26.4462 3.18163 24.9512 2.25454 23.1448 2.25214C23.1422 2.25214 23.1408 2.25214 23.1381 2.25214C23.0125 2.25214 22.8883 2.26297 22.7627 2.27258C22.7093 2.21486 22.6558 2.15835 22.5997 2.10303C21.8128 1.34549 20.8041 0.976339 19.5949 1.00881C17.2622 1.06893 14.9388 2.58522 13.055 5.2787C11.7296 7.17376 10.7209 9.55466 10.435 11.3979C7.75614 12.1447 5.88298 12.6665 5.84157 12.6786C4.48948 13.061 4.44673 13.0982 4.27037 14.2454C4.13944 15.1123 0.601562 39.7337 0.601562 39.7337L30.25 44.3487L43.1001 41.4736C43.1001 41.4736 37.8574 9.57149 37.8241 9.3526ZM26.672 6.87315C25.9893 7.06314 25.213 7.27958 24.3713 7.51406C24.354 6.4511 24.2137 4.97208 23.6632 3.69388C25.4335 3.99569 26.3046 5.79817 26.672 6.87315ZM22.8201 7.94693C21.2663 8.37979 19.5709 8.85236 17.8701 9.32617C18.3484 7.67759 19.2556 6.03625 20.3699 4.96006C20.784 4.55964 21.3639 4.11353 22.0506 3.85861C22.6959 5.07068 22.8362 6.78657 22.8201 7.94693ZM19.6417 2.40605C20.1894 2.39523 20.6504 2.50346 21.0446 2.73673C20.4139 3.03132 19.8047 3.45459 19.2329 4.00651C17.7511 5.43743 16.6155 7.65835 16.1626 9.80108C14.7504 10.1943 13.3689 10.5803 12.097 10.9338C12.9 7.56096 16.041 2.49984 19.6417 2.40605Z" fill="#C4C4C4"/>
<path d="M37.4058 9.00033C37.2308 8.98711 33.8024 8.94022 33.8024 8.94022C33.8024 8.94022 30.9353 6.4343 30.6521 6.17938C30.5465 6.08439 30.4036 6.03509 30.2539 6.01465L30.2552 44.3476L43.1041 41.4737C43.1041 41.4737 37.8614 9.57274 37.828 9.35386C37.7946 9.13498 37.5808 9.01355 37.4058 9.00033Z" fill="#C4C4C4"/>
<path d="M23.1323 14.9464L21.64 19.9713C21.64 19.9713 19.9753 19.2896 18.002 19.4015C15.108 19.5662 15.0773 21.2088 15.1067 21.6212C15.2644 23.8685 21.8337 24.3591 22.2025 29.6235C22.4924 33.7647 19.7615 36.5977 15.8268 36.8213C11.1039 37.0894 8.50391 34.5824 8.50391 34.5824L9.50463 30.7514C9.50463 30.7514 12.1219 32.5286 14.2168 32.4095C15.585 32.3314 16.074 31.3298 16.0245 30.6215C15.8188 27.6899 10.4692 27.8631 10.1312 23.046C9.84663 18.9927 12.8047 14.8851 19.3313 14.5147C21.8457 14.3692 23.1323 14.9464 23.1323 14.9464Z" fill="white"/>
<path d="M60.0237 25.4689C58.5461 24.7473 57.7867 24.1391 57.7867 23.303C57.7867 22.2392 58.8415 21.5557 60.4888 21.5557C62.4062 21.5557 64.1183 22.2773 64.1183 22.2773L65.4687 18.5539C65.4687 18.5539 64.227 17.6797 60.5722 17.6797C55.4862 17.6797 51.9613 20.3011 51.9613 23.9863C51.9613 26.0759 53.6072 27.6717 55.803 28.8106C57.576 29.7218 58.2095 30.3682 58.2095 31.3176C58.2095 32.3051 57.323 33.103 55.6771 33.103C53.2242 33.103 50.9078 31.9628 50.9078 31.9628L49.4727 35.6863C49.4727 35.6863 51.6128 36.9778 55.2133 36.9778C60.4477 36.9778 64.2045 34.6605 64.2045 30.4815C64.2032 28.2417 62.3042 26.6459 60.0237 25.4689Z" fill="#C4C4C4"/>
<path d="M80.8742 17.6434C78.2992 17.6434 76.273 18.7454 74.712 20.4163L74.6271 20.3781L76.864 9.85547H71.0386L65.3828 36.6375H71.2082L73.1496 27.4827C73.9089 24.0252 75.8927 21.8988 77.7506 21.8988C79.0585 21.8988 79.566 22.6967 79.566 23.8368C79.566 24.5584 79.4812 25.4326 79.3129 26.1542L77.1184 36.6387H82.9441L85.2228 25.8118C85.4764 24.6716 85.6458 23.3049 85.6458 22.3925C85.6434 19.4288 83.9129 17.6434 80.8742 17.6434Z" fill="#C4C4C4"/>
<path d="M98.8134 17.6426C91.8057 17.6426 87.1641 23.3411 87.1641 29.6848C87.1641 33.7492 89.9492 37.016 95.1839 37.016C102.064 37.016 106.707 31.4702 106.707 24.9738C106.707 21.2133 104.258 17.6426 98.8134 17.6426ZM95.9432 32.9907C93.9591 32.9907 93.1147 31.4713 93.1147 29.5714C93.1147 26.5707 94.846 21.6702 98.0116 21.6702C100.08 21.6702 100.754 23.2659 100.754 24.8235C100.754 28.052 99.0253 32.9907 95.9432 32.9907Z" fill="#C4C4C4"/>
<path d="M121.609 17.6426C117.677 17.6426 115.445 20.7577 115.445 20.7577H115.362L115.7 17.9467H110.55C110.297 19.8466 109.832 22.7328 109.369 24.8986L105.316 44.0823H111.142L112.745 36.3325H112.872C112.872 36.3325 114.067 37.016 116.291 37.016C123.129 37.016 127.603 30.7104 127.603 24.3274C127.603 20.796 125.872 17.6426 121.609 17.6426ZM116.037 33.0659C114.525 33.0659 113.63 32.3061 113.63 32.3061L114.601 27.4056C115.277 24.139 117.176 21.9731 119.203 21.9731C120.976 21.9731 121.524 23.4543 121.524 24.8605C121.524 28.2416 119.287 33.0659 116.037 33.0659Z" fill="#C4C4C4"/>
<path d="M135.916 10.1211C134.06 10.1211 132.582 11.4508 132.582 13.1599C132.582 14.7176 133.68 15.7814 135.326 15.7814H135.41C137.226 15.7814 138.787 14.6793 138.829 12.7425C138.829 11.2231 137.689 10.1211 135.916 10.1211Z" fill="#C4C4C4"/>
<path d="M127.773 36.637H133.597L137.566 18.0615H131.698L127.773 36.637Z" fill="#C4C4C4"/>
<path d="M152.379 18.0233H148.326L148.537 17.1491C148.875 15.3637 150.057 13.7679 151.999 13.7679C153.035 13.7679 153.855 14.0338 153.855 14.0338L154.995 9.93117C154.995 9.93117 153.982 9.47559 151.828 9.47559C149.76 9.47559 147.693 10.0075 146.13 11.2228C144.146 12.7422 143.218 14.9451 142.754 17.1491L142.586 18.0233H139.884L139.039 21.9745H141.742L138.66 36.638H144.486L147.567 21.9745H151.577L152.379 18.0233Z" fill="#C4C4C4"/>
<path d="M166.395 18.0617C166.395 18.0617 162.753 26.3184 161.119 30.8254H161.033C160.923 29.374 159.598 18.0617 159.598 18.0617H153.478L156.983 35.1177C157.068 35.4971 157.025 35.726 156.856 35.9919C156.179 37.1691 155.04 38.3093 153.689 39.1453C152.592 39.8668 151.368 40.3224 150.398 40.6265L152.001 45.0715C153.184 44.8437 155.631 43.9696 157.699 42.2223C160.359 39.9813 162.806 36.5239 165.339 31.8129L172.472 18.0605H166.395V18.0617Z" fill="#C4C4C4"/>
</g>
<defs>
<clipPath id="clip0_600_6531">
<rect width="172" height="45" fill="white" transform="translate(0.597656 0.539062)"/>
</clipPath>
</defs>
</svg>
