<svg width="109" height="46" viewBox="0 0 109 46" fill="none" xmlns="http://www.w3.org/2000/svg">
<g clip-path="url(#clip0_600_6516)">
<path d="M8.51106 18.0947C8.51106 16.9286 9.46797 16.4799 11.0532 16.4799C13.3257 16.4799 16.1964 17.1679 18.4692 18.394V11.3663C15.9872 10.3795 13.5351 9.99073 11.0532 9.99073C4.98239 9.99073 0.945312 13.1607 0.945312 18.4539C0.945312 26.7072 12.3089 25.3916 12.3089 28.9503C12.3089 30.3256 11.1129 30.7743 9.43811 30.7743C6.95615 30.7743 3.7862 29.7575 1.27417 28.3819V35.4992C4.05534 36.6954 6.86637 37.2036 9.43811 37.2036C15.6582 37.2036 19.9345 34.1236 19.9345 28.7707C19.9047 19.8593 8.51106 21.4441 8.51106 18.0947V18.0947ZM28.7263 4.00996L21.4297 5.56487L21.3999 29.5182C21.3999 33.9443 24.7193 37.2036 29.1452 37.2036C31.5973 37.2036 33.3915 36.7551 34.3782 36.2168V30.1463C33.4215 30.5351 28.6965 31.9106 28.6965 27.4847V16.8687H34.3782V10.4991H28.6965L28.7263 4.00996V4.00996ZM43.6787 12.712L43.2001 10.4991H36.7408V36.6653H44.2169V18.9322C45.9811 16.6296 48.9717 17.0483 49.8987 17.3771V10.4991C48.9418 10.1402 45.443 9.48231 43.6787 12.712V12.712ZM51.7228 10.4991H59.2288V36.6653H51.7228V10.4991V10.4991ZM51.7228 8.2264L59.2288 6.61157V0.541016L51.7228 2.12599V8.22619V8.2264ZM74.8388 9.99073C71.9082 9.99073 70.0242 11.3663 68.9777 12.3234L68.5887 10.4693H62.01V45.3375L69.4859 43.7527L69.516 35.2898C70.5925 36.0673 72.1773 37.1737 74.809 37.1737C80.1619 37.1737 85.0362 32.8675 85.0362 23.388C85.0064 14.7156 80.0721 9.99073 74.8388 9.99073V9.99073ZM73.0446 30.5948C71.2803 30.5948 70.2334 29.9669 69.516 29.1894L69.4859 18.0947C70.2635 17.2276 71.34 16.6296 73.0446 16.6296C75.7659 16.6296 77.6499 19.6797 77.6499 23.5972C77.6499 27.6044 75.7958 30.5948 73.0446 30.5948V30.5948ZM108.601 23.6869C108.601 16.0314 104.893 9.99073 97.8054 9.99073C90.688 9.99073 86.3817 16.0316 86.3817 23.6272C86.3817 32.6282 91.4657 37.1737 98.7621 37.1737C102.321 37.1737 105.012 36.3663 107.046 35.2301V29.2491C105.012 30.2659 102.68 30.894 99.7192 30.894C96.8184 30.894 94.2467 29.8771 93.9178 26.3485H108.541C108.541 25.9595 108.601 24.4046 108.601 23.6869ZM93.828 20.8461C93.828 17.4669 95.8916 16.0613 97.7756 16.0613C99.5996 16.0613 101.544 17.4669 101.544 20.8461H93.828Z" fill="#C4C4C4"/>
</g>
<defs>
<clipPath id="clip0_600_6516">
<rect width="107.656" height="45" fill="white" transform="translate(0.945312 0.539062)"/>
</clipPath>
</defs>
</svg>
