<svg width="153" height="46" viewBox="0 0 153 46" fill="none" xmlns="http://www.w3.org/2000/svg">
<path d="M45.4676 12.9851V11.6189C45.4676 10.6328 45.3917 9.6458 45.24 8.65973C45.0883 7.67366 44.7849 6.76345 44.3298 5.85142C43.8747 4.93939 43.2679 4.18087 42.5843 3.42236C41.9016 2.73969 41.0673 2.13106 40.1552 1.67685C39.2432 1.22264 38.3339 0.918334 37.3469 0.766631C36.3599 0.614927 35.3739 0.539062 34.3878 0.539062H10.8647C10.1062 0.539062 9.34766 0.614927 8.66409 0.766631C7.90557 0.918334 7.22201 1.07004 6.53934 1.37344C6.31179 1.44929 6.08423 1.601 5.85668 1.67685C5.17401 1.98026 4.56539 2.43537 4.03533 2.89138C3.88363 3.04308 3.65606 3.1948 3.50436 3.42236C2.82169 4.10502 2.21307 4.93939 1.75887 5.85142C1.30466 6.76345 1.00035 7.67275 0.848648 8.65973C0.696945 9.64671 0.621094 10.6328 0.621094 11.6189V34.4593C0.621094 35.4454 0.696945 36.4323 0.848648 37.4184C1.00035 38.4045 1.30376 39.3147 1.75887 40.2267C2.21398 41.1388 2.82079 41.8973 3.50436 42.6558C4.18703 43.3385 5.0214 43.9471 5.93343 44.4013C6.84545 44.8555 7.75477 45.1598 8.74175 45.3115C9.72872 45.4632 10.7148 45.5391 11.7009 45.5391H34.4564C35.4425 45.5391 36.4295 45.4632 37.4155 45.3115C38.4016 45.1598 39.3118 44.8564 40.2239 44.4013C41.1359 43.9462 41.8944 43.3394 42.6529 42.6558C43.3356 41.9731 43.9442 41.1388 44.3984 40.2267C44.8526 39.3147 45.1569 38.4054 45.3086 37.4184C45.4604 36.4314 45.5362 35.4454 45.5362 34.4593V14.6556C45.4604 14.0488 45.4604 13.5179 45.4604 12.9851H45.4676Z" fill="#C4C4C4"/>
<path d="M36.1339 28.3143C36.2098 28.1626 36.2098 27.935 36.2857 27.7833C38.1819 20.3471 33.5541 11.5447 25.8894 6.91504C29.3046 11.468 30.7458 17.0828 29.4563 21.9409C29.3046 22.396 29.2287 22.7753 29.0012 23.2322C28.8495 23.1564 28.6219 23.0047 28.3185 22.853C28.3185 22.853 20.6548 18.0725 12.3083 9.72517C12.0808 9.49761 16.7854 16.4028 22.021 21.9427C19.517 20.5765 12.6118 15.4926 8.21055 11.4707C8.74151 12.3809 9.42509 13.2162 10.1068 14.0505C13.7495 18.6793 18.53 24.4467 24.2965 28.848C20.2746 31.277 14.5839 31.5028 8.89141 28.848C7.52517 28.1653 6.15984 27.4059 4.94531 26.4957C7.37438 30.3659 11.0162 33.6293 15.5691 35.6015C20.9564 37.877 26.2696 37.7262 30.2139 35.6773H30.2897C30.4415 35.6015 30.5932 35.5256 30.7449 35.3739C32.6412 34.3879 36.4364 33.4009 38.4835 37.347C38.9386 38.1814 40.0006 33.0126 36.1312 28.317L36.1339 28.3143Z" fill="white"/>
<path d="M56.8804 37.527C57.8665 38.2097 59.0052 38.7416 60.2955 39.1976C61.6253 39.5955 63.0054 39.7999 64.3933 39.8044C66.9732 39.8044 69.0221 39.1217 70.54 37.8313C71.9821 36.4651 72.7406 34.7205 72.7406 32.5199C72.7406 30.5469 72.2097 28.9531 71.1469 27.6636C70.0849 26.4491 68.2636 25.3113 65.7596 24.2484C63.028 23.2624 60.9033 22.0478 59.3095 20.5299C57.7157 19.012 56.8714 17.0389 56.8714 14.6108C56.8714 13.3195 57.0989 12.1068 57.6299 11.0439C58.1608 9.9811 58.8444 8.99412 59.6797 8.24463C60.515 7.49514 61.6527 6.87839 62.8673 6.42328C64.0818 5.96817 65.4471 5.74061 66.8892 5.74061C68.5598 5.74061 70.0001 5.89232 71.1387 6.27158C72.2774 6.65084 73.1885 6.95424 73.7186 7.3335L72.8084 9.3833C72.3533 9.00404 71.5171 8.70063 70.5328 8.32138C69.4709 7.94212 68.2573 7.79043 66.8143 7.79043C65.448 7.79043 64.2344 8.01798 63.3233 8.39724C62.3372 8.7765 61.5778 9.30746 61.0477 9.91427C60.4409 10.5211 60.0617 11.2055 59.8332 11.9641C59.6047 12.7226 59.4539 13.4062 59.4539 14.1647C59.4539 16.1377 60.0608 17.6557 61.1994 18.7935C62.3381 19.9312 64.1586 20.9941 66.6626 21.981C68.1047 22.5878 69.3174 23.1955 70.457 23.8773C71.5189 24.56 72.43 25.2436 73.1885 26.0779C73.9471 26.9123 74.4798 27.7485 74.8591 28.8095C75.2383 29.7956 75.39 30.9343 75.39 32.2246C75.39 33.515 75.1625 34.7286 74.7074 35.8673C74.2425 37.0325 73.5454 38.0909 72.6585 38.9782C71.7483 39.8884 70.6087 40.5719 69.2433 41.1029C67.878 41.6339 66.2842 41.8614 64.4629 41.8614C63.7044 41.8614 62.9458 41.7856 62.1873 41.7097L59.9118 41.1787C59.1532 40.9512 58.4697 40.7236 57.862 40.4202L56.1914 39.51L56.8741 37.537L56.8804 37.527ZM79.7208 16.3563L83.8186 30.546L84.9564 34.6438L85.8666 38.3623H86.0183L87.0803 34.6438L88.4465 30.4701L93.3787 16.2804H95.6542L100.35 30.3184L101.716 34.5679C102.171 35.8592 102.475 37.1478 102.778 38.2864H102.93C103.157 37.0719 103.461 35.8484 103.84 34.5679L105.131 30.3184L109.532 16.2046H112.036L103.841 41.2447H101.716L97.0873 27.2825L95.6452 23.033C95.1901 21.6668 94.8867 20.3015 94.5833 18.8594H94.5074L93.2929 23.1937L91.8508 27.4432L86.9186 41.3296H84.7939L77.206 16.2894L79.71 16.3653L79.7208 16.3563ZM116.295 8.75934C116.295 8.15253 116.522 7.6974 116.902 7.24229C117.281 6.78718 117.812 6.63548 118.419 6.63548C119.026 6.63548 119.481 6.86303 119.936 7.24229C120.315 7.62155 120.543 8.15253 120.543 8.75934C120.543 9.36616 120.315 9.82126 119.936 10.2764C119.481 10.6556 119.026 10.8832 118.419 10.8832C117.812 10.8832 117.357 10.6556 116.902 10.2764C116.522 9.82126 116.295 9.36616 116.295 8.75934ZM117.205 41.3883V16.3481H119.643V41.3883H117.205ZM129.65 41.3883V18.3203H126.083V16.424H129.65V14.99C129.65 13.3962 129.802 11.956 130.03 10.5888C130.333 9.22258 130.788 8.08478 131.396 7.0978C132.003 6.11083 132.913 5.35233 133.9 4.74551C134.962 4.1387 136.252 3.91113 137.77 3.91113C138.604 3.91113 139.287 3.987 139.895 4.1387C140.503 4.2904 141.033 4.51796 141.412 4.74551L140.653 6.64181L139.439 6.1867C138.984 6.035 138.377 5.95914 137.617 5.95914C136.403 5.95914 135.493 6.18669 134.818 6.71765C134.135 7.17276 133.527 7.85543 133.148 8.6907C132.768 9.52597 132.465 10.4362 132.313 11.574C132.162 12.7061 132.086 13.847 132.086 14.9891V16.4312H143.999V18.3275H132.17V41.3955H129.666L129.65 41.3883Z" fill="#C4C4C4"/>
<path d="M145.737 10.8163V16.4312H152.642V18.3275H145.737V34.6419C145.737 36.3125 146.04 37.601 146.571 38.5122C147.102 39.4233 148.013 39.8784 149.379 39.8784L150.973 39.8026L152.111 39.575L152.339 41.4713C151.504 41.8506 150.366 42.0781 149 42.0781C147.862 42.0781 146.875 41.8506 146.192 41.4713C145.433 41.092 144.901 40.5611 144.446 39.8775C143.992 39.194 143.688 38.3605 143.536 37.4485C143.384 36.4624 143.309 35.4754 143.309 34.3376V18.4783H143.46V16.582H143.309V11.9532L145.738 10.8154L145.737 10.8163Z" fill="#C4C4C4"/>
</svg>
