<svg width="224" height="46" viewBox="0 0 224 46" fill="none" xmlns="http://www.w3.org/2000/svg">
<g clip-path="url(#clip0_600_6543)">
<path fill-rule="evenodd" clip-rule="evenodd" d="M69.1497 0.539062H7.61447C3.71932 0.539062 0.567363 3.7224 0.597876 7.58573V31.0748C0.597876 34.9691 3.7507 38.1219 7.64498 38.1219H36.7902L50.1111 45.5395L47.0821 38.1219H69.1497C73.044 38.1219 76.1964 34.9695 76.1964 31.0752V7.58573C76.1964 3.69145 73.0435 0.539062 69.1497 0.539062ZM6.31638 5.97903C5.45069 6.04005 4.80164 6.34954 4.36923 6.93669C3.93639 7.49289 3.78165 8.20383 3.87449 9.00718C5.69828 20.5976 7.39783 28.4171 8.97446 32.4657C9.59212 33.9491 10.3031 34.66 11.1378 34.5985C12.4359 34.5057 13.9811 32.7129 15.8045 29.2205C16.7626 27.2424 18.2464 24.2757 20.255 20.3195C21.9244 26.1605 24.2111 30.55 27.0854 33.4857C27.8892 34.32 28.7235 34.691 29.5269 34.6291C30.2383 34.5676 30.7945 34.1967 31.165 33.5167C31.4745 32.9295 31.5978 32.2491 31.5359 31.4767C31.3507 28.6643 31.6288 24.7391 32.4016 19.7014C33.205 14.509 34.194 10.7691 35.3993 8.54383C35.6468 8.08047 35.7393 7.61668 35.7087 7.06048C35.6468 6.34954 35.3378 5.76239 34.7506 5.29859C34.1631 4.83524 33.514 4.6186 32.8031 4.6805C31.9069 4.74239 31.2269 5.17524 30.7631 6.04049C28.8473 9.53287 27.4873 15.189 26.684 23.0391C25.5092 20.0719 24.5198 16.58 23.7478 12.4695C23.4078 10.6461 22.5731 9.78046 21.2131 9.87331C20.2859 9.9352 19.5131 10.5533 18.8954 11.7276L12.1268 24.6153C11.014 20.1343 9.96307 14.6638 9.00497 8.20383C8.78877 6.59669 7.89257 5.8548 6.31638 5.97859V5.97903ZM65.8735 8.20383C68.0678 8.66762 69.7059 9.84192 70.8187 11.7891C71.8078 13.4585 72.3021 15.4671 72.3021 17.8776C72.3021 21.061 71.4987 23.9666 69.8916 26.6243C68.0368 29.7148 65.6264 31.2605 62.6283 31.2605C62.103 31.2605 61.5468 31.1986 60.9592 31.0748C58.7649 30.6114 57.1269 29.4371 56.014 27.49C55.0254 25.79 54.5307 23.75 54.5307 21.37C54.5307 18.1871 55.3345 15.2814 56.9412 12.6547C58.8268 9.56426 61.2373 8.01858 64.2045 8.01858C64.7302 8.01858 65.2864 8.08047 65.8735 8.20383V8.20383ZM64.5754 24.9247C65.7192 23.9047 66.4916 22.39 66.9244 20.3505C67.0482 19.6395 67.1407 18.8667 67.1407 18.0633C67.1407 17.1671 66.9554 16.209 66.5845 15.2509C66.1207 14.0453 65.5026 13.3962 64.7607 13.2415C63.6483 13.0253 62.5664 13.6438 61.5468 15.1581C60.7121 16.3324 60.1868 17.5686 59.9087 18.8357C59.754 19.5467 59.6921 20.3195 59.6921 21.0924C59.6921 21.9886 59.8773 22.9467 60.2483 23.9047C60.7121 25.11 61.3302 25.759 62.0721 25.9138C62.8445 26.0681 63.6792 25.7281 64.5754 24.9243V24.9247ZM51.4406 11.7886C50.3278 9.84149 48.6587 8.66719 46.4954 8.20339C45.9078 8.08004 45.352 8.01814 44.8259 8.01814C41.8592 8.01814 39.4487 9.56339 37.5635 12.6543C35.9559 15.281 35.153 18.1867 35.153 21.37C35.153 23.75 35.6473 25.7896 36.6359 27.4895C37.7487 29.4367 39.3868 30.611 41.5811 31.0743C42.1683 31.1981 42.7245 31.26 43.2506 31.26C46.2482 31.26 48.6587 29.7148 50.513 26.6239C52.1206 23.9662 52.9235 21.0605 52.9235 17.8772C52.9235 15.4667 52.4292 13.4577 51.4406 11.7886V11.7886ZM47.5459 20.3496C47.1135 22.3896 46.3406 23.9043 45.1973 24.9239C44.3011 25.7277 43.4668 26.0677 42.6939 25.9134C41.9521 25.7586 41.334 25.1096 40.8702 23.9039C40.4997 22.9462 40.314 21.9881 40.314 21.0919C40.314 20.3191 40.3759 19.5462 40.5306 18.8353C40.8087 17.5682 41.334 16.332 42.1683 15.1577C43.1882 13.6434 44.2701 13.0248 45.3825 13.2415C46.1244 13.3958 46.7425 14.0448 47.2063 15.2505C47.5768 16.2086 47.7625 17.1667 47.7625 18.0629C47.7625 18.8662 47.7006 19.6391 47.5459 20.35V20.3496Z" fill="#C4C4C4"/>
<path fill-rule="evenodd" clip-rule="evenodd" d="M84.0163 11.5107C81.9453 13.5507 80.9258 16.1469 80.9258 19.2997C80.9258 22.6683 81.9453 25.4192 83.9853 27.4902C86.0253 29.5607 88.683 30.6112 91.9901 30.6112C92.9482 30.6112 94.0301 30.4569 95.2044 30.1169V25.1098C94.1229 25.4192 93.1953 25.5735 92.392 25.5735C90.7539 25.5735 89.4558 25.0173 88.4668 23.9355C87.4777 22.823 86.983 21.3393 86.983 19.4545C86.983 17.6926 87.4777 16.2397 88.4358 15.1273C89.4249 13.9835 90.6301 13.4273 92.1139 13.4273C93.072 13.4273 94.0915 13.5816 95.2044 13.8907V8.88402C94.1844 8.60591 93.041 8.48212 91.8353 8.48212C88.683 8.45161 86.0868 9.4716 84.0163 11.5112V11.5107ZM105.465 8.45117C102.622 8.45117 100.397 9.40927 98.7896 11.2945C97.1825 13.1802 96.4096 15.8378 96.4096 19.2378C96.4096 22.9159 97.2134 25.7283 98.7896 27.6754C100.366 29.6226 102.684 30.6116 105.713 30.6116C108.649 30.6116 110.905 29.6221 112.481 27.6754C114.057 25.7283 114.861 22.9774 114.861 19.4545C114.861 15.9307 114.057 13.2111 112.451 11.2945C110.812 9.40927 108.494 8.45117 105.465 8.45117V8.45117ZM107.907 24.5226C107.351 25.3883 106.516 25.8211 105.465 25.8211C104.476 25.8211 103.735 25.3883 103.209 24.5226C102.684 23.6574 102.437 21.9264 102.437 19.2997C102.437 15.2507 103.457 13.2417 105.527 13.2417C107.691 13.2417 108.803 15.2816 108.803 19.3921C108.772 21.9264 108.463 23.6574 107.907 24.5226ZM130.129 9.03832L129.016 13.7673C128.738 14.9726 128.46 16.2088 128.213 17.4759L127.595 20.7521C127.008 17.4759 126.204 13.5816 125.184 9.03832H118.014L115.324 30.0859H120.702L122.155 15.5907L125.833 30.0859H129.665L133.189 15.6216L134.703 30.0859H140.328L137.485 9.03832H130.129ZM155.874 9.03832L154.762 13.7673C154.483 14.9726 154.205 16.2088 153.958 17.4759L153.34 20.7521C152.753 17.4759 151.949 13.5816 150.93 9.03832H143.759L141.07 30.0859H146.448L147.9 15.5907L151.578 30.0859H155.411L158.903 15.6216L160.418 30.0859H166.043L163.199 9.03832H155.874ZM173.368 21.7721H178.405V17.414H173.368V13.5507H179.178V9.06971H167.681V30.1169H179.209V25.6359H173.368V21.7721ZM195.219 18.434C195.806 17.4759 196.115 16.4869 196.115 15.4673C196.115 13.4892 195.342 11.913 193.797 10.7693C192.251 9.62591 190.119 9.03876 187.461 9.03876H180.847V30.0859H186.534V20.505H186.627L191.232 30.0859H197.228L192.684 20.5978C193.765 20.1031 194.631 19.3921 195.218 18.434H195.219ZM186.503 18.094V13.0873C187.863 13.1179 188.821 13.3345 189.408 13.7673C189.995 14.1997 190.273 14.8797 190.273 15.8688C190.273 17.3216 189.006 18.0635 186.503 18.094V18.094ZM199.452 11.5112C197.382 13.5511 196.362 16.1469 196.362 19.2997C196.362 22.6683 197.382 25.4192 199.422 27.4902C201.462 29.5607 204.119 30.6112 207.427 30.6112C208.385 30.6112 209.467 30.4569 210.641 30.1169V25.1098C209.56 25.4192 208.632 25.5735 207.828 25.5735C206.191 25.5735 204.893 25.0173 203.904 23.9355C202.914 22.823 202.42 21.3393 202.42 19.4545C202.42 17.6926 202.914 16.2397 203.872 15.1273C204.861 13.9835 206.066 13.4273 207.55 13.4273C208.508 13.4273 209.529 13.5816 210.641 13.8907V8.88402C209.621 8.60591 208.478 8.48212 207.273 8.48212C204.151 8.45161 201.524 9.4716 199.452 11.5112V11.5112ZM217.905 25.5735V21.7412H222.941V17.3835H217.905V13.5202H223.745V9.03832H212.248V30.0859H223.777V25.6045H217.905V25.5735Z" fill="#C4C4C4"/>
</g>
<defs>
<clipPath id="clip0_600_6543">
<rect width="223.178" height="45" fill="white" transform="translate(0.597656 0.539062)"/>
</clipPath>
</defs>
</svg>
