<svg width="244" height="46" viewBox="0 0 244 46" fill="none" xmlns="http://www.w3.org/2000/svg">
<g clip-path="url(#clip0_600_6518)">
<path d="M141.532 18.3174H131.966V19.1342C134.958 19.1342 135.439 19.6503 135.439 22.7045V28.2105C135.439 31.2642 134.959 31.8235 131.966 31.8235C129.669 31.5656 128.119 30.576 125.981 28.6835L123.523 26.533C126.836 26.0592 128.599 24.3823 128.599 22.4894C128.599 20.1241 126.088 18.3174 121.385 18.3174H111.98V19.1342C114.972 19.1342 115.453 19.6503 115.453 22.7045V28.2105C115.453 31.2642 114.972 31.8235 111.98 31.8235V32.6406H122.614V31.8235C119.622 31.8235 119.141 31.2642 119.141 28.2105V26.6623H120.049L125.981 32.6406H141.532C149.173 32.6406 152.487 29.372 152.487 25.4573C152.487 21.5432 149.174 18.3174 141.532 18.3174ZM119.142 25.328V19.6079H121.332C123.737 19.6079 124.806 20.9412 124.806 22.4897C124.806 23.9954 123.737 25.3283 121.332 25.3283H119.142V25.328ZM141.692 31.3074H141.318C139.395 31.3074 139.127 30.9205 139.127 28.9417V19.6079C139.127 19.6079 141.479 19.6079 141.692 19.6079C147.25 19.6079 148.265 22.8765 148.265 25.4145C148.265 28.038 147.249 31.3074 141.692 31.3074Z" fill="#C4C4C4"/>
<path d="M82.2178 26.9201L85.9051 18.1448C86.9743 15.6072 86.4933 14.8762 83.0733 14.8762V14.0156H93.1195V14.8762C89.7531 14.8762 88.9516 15.5214 87.6156 18.6613L81.523 33.3717H80.8287L75.3774 19.9085L69.8203 33.3717H69.1255L63.1941 18.6613C61.9116 15.5214 61.0566 14.8762 57.957 14.8762V14.0156H69.8203V14.8762C66.6672 14.8762 65.8117 15.4782 66.9345 18.1448L70.5147 26.9201L75.912 14.0156H76.9276L82.2178 26.9201Z" fill="#C4C4C4"/>
<path d="M100.387 33.2C94.5088 33.2 89.6992 29.7162 89.6992 25.4573C89.6992 21.2423 94.5092 17.7578 100.387 17.7578C106.265 17.7578 111.074 21.2423 111.074 25.4573C111.074 29.7162 106.265 33.2 100.387 33.2ZM100.387 19.0922C95.4709 19.0922 93.7604 22.6618 93.7604 25.4577C93.7604 28.2971 95.4709 31.8239 100.387 31.8239C105.357 31.8239 107.067 28.2971 107.067 25.4577C107.067 22.6618 105.357 19.0922 100.387 19.0922Z" fill="#C4C4C4"/>
<path d="M165.686 31.7806V32.6408H153.449V31.7806C157.029 31.7806 157.67 31.0497 157.67 26.7477V19.866C157.67 15.5641 157.029 14.8762 153.449 14.8762V14.0156H164.51C170.014 14.0156 173.061 16.2954 173.061 19.3499C173.061 22.3178 170.014 24.6404 164.51 24.6404H161.464V26.7473C161.464 31.0497 162.105 31.7806 165.686 31.7806ZM164.51 15.5641H161.464V23.0488H164.51C167.503 23.0488 168.892 21.3714 168.892 19.3499C168.892 17.2853 167.503 15.5641 164.51 15.5641Z" fill="#C4C4C4"/>
<path d="M209.771 28.5976L209.504 29.3717C209.023 30.7911 208.434 31.3074 204.64 31.3074H203.892C201.114 31.3074 200.633 30.7911 200.633 27.7374V25.759C204.801 25.759 205.122 26.0596 205.122 28.2966H206.137V21.8873H205.122C205.122 24.124 204.801 24.425 200.633 24.425V19.6079H203.571C207.366 19.6079 207.953 20.1241 208.434 21.5436L208.702 22.3604H209.557L209.183 18.3174H193.472V19.1342C196.464 19.1342 196.945 19.6503 196.945 22.7045V28.2105C196.945 31.0042 196.537 31.7079 194.178 31.8083C191.935 31.5326 190.396 30.5481 188.289 28.6835L185.831 26.533C189.144 26.0592 190.908 24.3823 190.908 22.4894C190.908 20.1241 188.396 18.3174 183.694 18.3174H174.289V19.1342C177.281 19.1342 177.762 19.6503 177.762 22.7045V28.2105C177.762 31.2642 177.281 31.8235 174.289 31.8235V32.6406H184.923V31.8235C181.931 31.8235 181.45 31.2642 181.45 28.2105V26.6623H182.358L188.29 32.6406H210.252L210.573 28.598H209.771V28.5976ZM181.449 25.328V19.6079H183.64C186.045 19.6079 187.114 20.9412 187.114 22.4897C187.114 23.9954 186.045 25.3283 183.64 25.3283H181.449V25.328Z" fill="#C4C4C4"/>
<path d="M220.621 33.1996C218.483 33.1996 216.612 32.2966 215.811 31.737C215.544 31.9525 215.063 32.5976 214.956 33.1996H213.941V27.2644H215.01C215.437 30.103 217.895 31.7805 221.048 31.7805C222.758 31.7805 224.148 31.0064 224.148 29.7162C224.148 28.5981 222.919 27.7374 220.728 26.9203L217.682 25.7591C215.544 24.9412 213.941 23.5217 213.941 21.6295C213.941 19.5649 216.346 17.8017 219.659 17.8017C221.422 17.8017 222.918 18.3178 223.827 18.9198C224.094 18.7477 224.361 18.2743 224.522 17.7578H225.537V22.8338H224.415C224.041 20.8119 222.651 19.1346 219.82 19.1346C218.323 19.1346 216.933 19.8228 216.933 20.8986C216.933 22.0167 218.056 22.6187 220.621 23.5651L223.56 24.7264C226.125 25.7156 227.14 27.3079 227.14 28.5981C227.14 31.3074 224.201 33.1996 220.621 33.1996Z" fill="#C4C4C4"/>
<path d="M237.079 33.1996C234.941 33.1996 233.07 32.2966 232.269 31.737C232.002 31.9525 231.521 32.5976 231.414 33.1996H230.399V27.2644H231.467C231.895 30.103 234.353 31.7805 237.506 31.7805C239.216 31.7805 240.606 31.0064 240.606 29.7162C240.606 28.5981 239.377 27.7374 237.185 26.9203L234.139 25.7591C232.002 24.9412 230.398 23.5217 230.398 21.6295C230.398 19.5649 232.803 17.8017 236.116 17.8017C237.88 17.8017 239.376 18.3178 240.285 18.9198C240.552 18.7477 240.819 18.2743 240.979 17.7578H241.994V22.8338H240.872C240.498 20.8119 239.109 19.1346 236.277 19.1346C234.781 19.1346 233.391 19.8228 233.391 20.8986C233.391 22.0167 234.513 22.6187 237.079 23.5651L240.017 24.7264C242.582 25.7156 243.597 27.3079 243.597 28.5981C243.597 31.3074 240.658 33.1996 237.079 33.1996Z" fill="#C4C4C4"/>
<path d="M4.51562 23.0379C4.51562 30.5726 9.95567 37.0841 17.8442 40.1697L6.56313 15.291C5.25093 17.6584 4.51562 20.2783 4.51562 23.0379Z" fill="#C4C4C4"/>
<path d="M44.1308 22.0772C44.1308 19.7247 43.081 18.0955 42.1805 16.8273C40.9817 15.2593 39.8581 13.9315 39.8581 12.3635C39.8581 10.6136 41.5069 8.9848 43.8293 8.9848C43.9342 8.9848 44.0336 8.99525 44.1358 8.99999C39.9283 5.89729 34.3226 4.00293 28.1657 4.00293C19.9037 4.00293 12.6349 7.41494 8.40625 12.583C8.9611 12.5964 9.484 12.6058 9.92815 12.6058C12.4018 12.6058 16.2308 12.3642 16.2308 12.3642C17.5057 12.3037 17.656 13.8108 16.3825 13.9322C16.3825 13.9322 15.1013 14.0536 13.6757 14.1137L22.2878 34.7324L27.4633 22.2387L23.7787 14.113C22.5052 14.0528 21.2987 13.9315 21.2987 13.9315C20.0243 13.8713 20.1737 12.303 21.4481 12.3635C21.4481 12.3635 25.3537 12.605 27.6775 12.605C30.1507 12.605 33.9802 12.3635 33.9802 12.3635C35.2559 12.303 35.4058 13.8101 34.1318 13.9315C34.1318 13.9315 32.848 14.0528 31.4251 14.113L39.9715 34.5757L42.3304 28.2308C43.3528 25.5979 44.1308 23.7068 44.1308 22.0772Z" fill="#C4C4C4"/>
<path d="M28.58 24.7031L21.4844 41.2992C23.603 41.8006 25.8436 42.0747 28.1651 42.0747C30.9191 42.0747 33.5602 41.6915 36.0185 40.9957C35.9551 40.9142 35.8975 40.8276 35.8502 40.7334L28.58 24.7031Z" fill="#C4C4C4"/>
<path d="M48.9175 13.9053C49.0192 14.5116 49.0768 15.1625 49.0768 15.8626C49.0768 17.7943 48.6286 19.9657 47.2786 22.6809L40.0547 39.4921C47.0855 36.192 51.8146 30.0609 51.8146 23.0384C51.815 19.7289 50.7647 16.6168 48.9175 13.9053Z" fill="#C4C4C4"/>
<path d="M28.1656 0.849609C12.9651 0.849609 0.597656 10.8035 0.597656 23.0386C0.597656 35.2751 12.9651 45.2287 28.1656 45.2287C43.3657 45.2287 55.7349 35.2751 55.7349 23.0386C55.7344 10.8035 43.3657 0.849609 28.1656 0.849609ZM28.1656 44.2116C13.6621 44.2116 1.86171 34.7134 1.86171 23.0386C1.86171 11.3646 13.6617 1.86706 28.1656 1.86706C42.6687 1.86706 54.4681 11.3646 54.4681 23.0386C54.4681 34.7134 42.6687 44.2116 28.1656 44.2116Z" fill="#C4C4C4"/>
</g>
<defs>
<clipPath id="clip0_600_6518">
<rect width="243" height="45" fill="white" transform="translate(0.597656 0.539062)"/>
</clipPath>
</defs>
</svg>
