<svg width="81" height="81" viewBox="0 0 81 81" fill="none" xmlns="http://www.w3.org/2000/svg">
<g clip-path="url(#clip0_407_5699)">
<path d="M12.7648 70.0599C12.8374 70.2777 12.8858 70.4471 12.91 70.5922C12.9342 70.7133 12.91 70.81 12.8374 70.8827C12.7648 70.9553 12.6197 70.9794 12.4503 71.0037C12.281 71.0278 11.9907 71.0278 11.6763 71.0278C11.3376 71.0278 11.0473 71.0278 10.8537 71.0037C10.6602 71.0037 10.5151 70.9794 10.4183 70.9553C10.3215 70.9311 10.2489 70.8827 10.2006 70.8343C10.1522 70.7859 10.128 70.7133 10.1038 70.6406L9.20877 68.2449H4.22538L3.37869 70.5681C3.3545 70.6649 3.30611 70.7375 3.28193 70.7859C3.23354 70.8343 3.16097 70.8827 3.0642 70.9311C2.96744 70.9553 2.82229 70.9794 2.65296 71.0037C2.48362 71.0278 2.24171 71.0278 1.95141 71.0278C1.63693 71.0278 1.39502 71.0278 1.22568 71.0037C1.05634 70.9794 0.935387 70.9311 0.862814 70.8584C0.766049 70.7859 0.741858 70.6891 0.766049 70.5438C0.79024 70.4229 0.838622 70.2535 0.911196 70.0357L4.9753 59.4606C5.02368 59.3637 5.07207 59.2669 5.12045 59.2185C5.16883 59.146 5.26559 59.0975 5.38655 59.0734C5.50751 59.0491 5.67684 59.025 5.87038 59.0007C6.08809 59.0007 6.3542 58.9766 6.71706 58.9766C7.12831 58.9766 7.44279 58.9766 7.6847 59.0007C7.92662 59.0007 8.12015 59.025 8.2411 59.0734C8.36206 59.0975 8.45882 59.146 8.5314 59.2185C8.57978 59.2912 8.62816 59.3879 8.67652 59.4847L12.7648 70.0599ZM6.69287 61.2997L4.80597 66.3574H8.55558L6.69287 61.2997Z" fill="#141414"/>
<path d="M27.6907 64.8088C27.6907 65.8978 27.5214 66.8416 27.207 67.6159C26.8924 68.3903 26.4328 69.0195 25.8522 69.5277C25.2716 70.0117 24.5459 70.3747 23.6992 70.6167C22.8525 70.8586 21.8365 70.9554 20.6753 70.9554H17.5305C17.3127 70.9554 17.1192 70.907 16.9741 70.786C16.8289 70.6651 16.7322 70.4714 16.7322 70.2052V59.7995C16.7322 59.5333 16.8047 59.3398 16.9741 59.2188C17.1192 59.0977 17.3127 59.0493 17.5305 59.0493H20.9172C22.1026 59.0493 23.0945 59.1704 23.9169 59.4123C24.7394 59.6544 25.4167 60.0416 25.9973 60.5255C26.5537 61.0095 26.9892 61.6145 27.2795 62.3405C27.5698 63.0665 27.6907 63.8651 27.6907 64.8088ZM24.9087 64.9056C24.9087 64.349 24.8362 63.8167 24.691 63.3327C24.5459 62.8487 24.304 62.4372 23.9895 62.0743C23.675 61.7113 23.2396 61.4451 22.7315 61.2515C22.2235 61.0579 21.5704 60.9611 20.7237 60.9611H19.369V69.0679H20.7721C21.4978 69.0679 22.1268 68.9711 22.6348 68.8017C23.1428 68.6323 23.5541 68.3661 23.8927 68.0274C24.2314 67.6885 24.4733 67.2529 24.6426 66.7206C24.812 66.1882 24.9087 65.5832 24.9087 64.9056Z" fill="#141414"/>
<path d="M39.8105 70.0117C39.8105 70.1811 39.8105 70.3505 39.7863 70.4473C39.7621 70.5682 39.7379 70.6651 39.7137 70.7376C39.6896 70.8103 39.6412 70.8586 39.5928 70.907C39.5444 70.9313 39.496 70.9554 39.4234 70.9554H32.795C32.5773 70.9554 32.3839 70.907 32.2387 70.786C32.0936 70.6651 32.021 70.4714 32.021 70.2052V59.7995C32.021 59.5333 32.0936 59.3398 32.2387 59.2188C32.3839 59.0977 32.5773 59.0493 32.795 59.0493H39.3993C39.4719 59.0493 39.5202 59.0736 39.5686 59.0977C39.617 59.122 39.6653 59.1704 39.6896 59.2671C39.7137 59.3398 39.7379 59.4366 39.7621 59.5576C39.7863 59.6785 39.7863 59.8238 39.7863 60.0173C39.7863 60.1867 39.7863 60.3319 39.7621 60.4529C39.7379 60.5739 39.7137 60.6707 39.6896 60.7433C39.6653 60.8159 39.617 60.8643 39.5686 60.9127C39.5202 60.9369 39.4719 60.9611 39.3993 60.9611H34.682V63.8651H38.6735C38.7461 63.8651 38.7945 63.8892 38.8429 63.9134C38.8912 63.9376 38.9396 64.0102 38.9638 64.0586C38.988 64.1312 39.0122 64.228 39.0364 64.349C39.0606 64.47 39.0606 64.6152 39.0606 64.7846C39.0606 64.954 39.0606 65.0992 39.0364 65.2202C39.0122 65.3412 38.988 65.438 38.9638 65.5106C38.9396 65.5832 38.8912 65.6316 38.8429 65.6558C38.7945 65.68 38.7461 65.7042 38.6735 65.7042H34.682V69.0679H39.4476C39.5202 69.0679 39.5686 69.0921 39.617 69.1163C39.6653 69.1405 39.7137 69.2131 39.7379 69.2857C39.7621 69.3583 39.7863 69.4551 39.8105 69.5761C39.8105 69.6729 39.8105 69.818 39.8105 70.0117Z" fill="#141414"/>
<path d="M54.8332 70.0601C54.9058 70.2779 54.9542 70.4473 54.9784 70.5925C55.0026 70.7135 54.9784 70.8103 54.9058 70.8829C54.8332 70.9555 54.6881 70.9797 54.5188 71.0039C54.3494 71.0281 54.0591 71.0281 53.7447 71.0281C53.406 71.0281 53.1157 71.0281 52.9221 71.0039C52.7287 71.0039 52.5834 70.9797 52.4867 70.9555C52.39 70.9313 52.3174 70.8829 52.269 70.8345C52.2206 70.7861 52.1964 70.7135 52.1723 70.6409L51.2772 68.2451H46.318L45.4713 70.5683C45.4471 70.6651 45.3987 70.7377 45.3745 70.7861C45.3261 70.8345 45.2536 70.8829 45.1568 70.9313C45.0601 70.9555 44.9149 70.9797 44.7456 71.0039C44.5763 71.0281 44.3343 71.0281 44.044 71.0281C43.7296 71.0281 43.4876 71.0281 43.3183 71.0039C43.149 70.9797 43.028 70.9313 42.9554 70.8587C42.8829 70.7861 42.8586 70.6893 42.8829 70.5683C42.907 70.4473 42.9554 70.2779 43.028 70.0601L47.0921 59.485C47.1405 59.3882 47.1888 59.2914 47.2372 59.243C47.2857 59.1704 47.3824 59.122 47.5034 59.0978C47.6243 59.0736 47.7936 59.0494 47.9872 59.0252C48.2049 59.0252 48.471 59.001 48.8339 59.001C49.2451 59.001 49.5596 59.001 49.8015 59.0252C50.0434 59.0252 50.2369 59.0494 50.3579 59.0978C50.4789 59.1462 50.5756 59.1704 50.6482 59.243C50.7208 59.3156 50.745 59.4124 50.7933 59.5091L54.8332 70.0601ZM48.7855 61.2999L46.8985 66.3576H50.6482L48.7855 61.2999Z" fill="#141414"/>
<path d="M66.6143 67.3742C66.6143 68.0033 66.4933 68.5599 66.2273 69.0197C65.9611 69.5037 65.6224 69.8909 65.187 70.2054C64.7516 70.52 64.2193 70.7621 63.6388 70.9315C63.0582 71.1009 62.405 71.1734 61.7277 71.1734C61.2681 71.1734 60.8568 71.1493 60.4455 71.0766C60.0343 71.004 59.7198 70.9315 59.4054 70.8346C59.115 70.7378 58.849 70.641 58.6554 70.5443C58.4619 70.4475 58.3167 70.3506 58.22 70.2781C58.1232 70.2054 58.0748 70.0844 58.0264 69.9393C57.978 69.7941 57.978 69.5763 57.978 69.2859C57.978 69.0923 57.978 68.9471 58.0023 68.8019C58.0264 68.6809 58.0264 68.5599 58.0748 68.4873C58.099 68.4147 58.1474 68.3421 58.1957 68.3179C58.2442 68.2937 58.3167 68.2695 58.3651 68.2695C58.4619 68.2695 58.5828 68.3179 58.7764 68.4147C58.9457 68.5115 59.1634 68.6325 59.4537 68.7535C59.7198 68.8745 60.0585 68.9955 60.4214 69.0923C60.8084 69.1891 61.2438 69.2375 61.7277 69.2375C62.0664 69.2375 62.3566 69.2133 62.5986 69.1407C62.8646 69.0681 63.0824 68.9713 63.2517 68.8503C63.4211 68.7293 63.5662 68.5599 63.663 68.3663C63.7597 68.1727 63.8081 67.9549 63.8081 67.7371C63.8081 67.4709 63.7356 67.2289 63.5662 67.0353C63.3969 66.8418 63.1792 66.6724 62.9372 66.5271C62.6712 66.382 62.3808 66.2368 62.0422 66.0915C61.7035 65.9464 61.3648 65.8253 61.0019 65.6802C60.6391 65.535 60.3004 65.3656 59.9617 65.172C59.6231 64.9784 59.3328 64.7606 59.0667 64.4944C58.8006 64.2282 58.5828 63.9136 58.4377 63.5748C58.2684 63.2119 58.1957 62.8004 58.1957 62.2923C58.1957 61.7115 58.3167 61.2275 58.5587 60.7919C58.8006 60.3563 59.115 59.9933 59.5021 59.7029C59.8891 59.4125 60.373 59.1947 60.9052 59.0738C61.4374 58.9528 62.0179 58.856 62.6228 58.856C62.9372 58.856 63.2517 58.8801 63.5662 58.9285C63.8807 58.9769 64.171 59.0253 64.437 59.0979C64.7032 59.1706 64.9451 59.2431 65.1628 59.34C65.3806 59.4368 65.5015 59.5093 65.574 59.5819C65.6467 59.6545 65.695 59.7029 65.7193 59.7271C65.7434 59.7513 65.7676 59.824 65.7918 59.8965C65.816 59.9691 65.816 60.0659 65.816 60.1627C65.816 60.2595 65.816 60.4047 65.816 60.5741C65.816 60.7435 65.816 60.9129 65.7918 61.0339C65.7918 61.1549 65.7676 61.2517 65.7434 61.3484C65.7193 61.4453 65.695 61.4937 65.6466 61.5179C65.5983 61.5662 65.5499 61.5662 65.4773 61.5662C65.4047 61.5662 65.2837 61.5179 65.1144 61.4453C64.9451 61.3484 64.7516 61.2759 64.5097 61.1549C64.2677 61.0581 64.0016 60.9613 63.6872 60.8887C63.3727 60.8161 63.034 60.7677 62.6469 60.7677C62.3566 60.7677 62.0905 60.7919 61.8728 60.8645C61.6551 60.9371 61.4616 61.0097 61.3164 61.1307C61.1713 61.2517 61.0504 61.3727 60.9778 61.5421C60.9052 61.7115 60.881 61.8809 60.881 62.0502C60.881 62.3164 60.9535 62.5342 61.1229 62.7279C61.2922 62.9214 61.4858 63.0908 61.7761 63.236C62.0422 63.3813 62.3566 63.5264 62.6953 63.6716C63.034 63.7926 63.3726 63.9378 63.7356 64.083C64.0984 64.2282 64.4371 64.3976 64.7757 64.5912C65.1144 64.7848 65.4289 65.0026 65.695 65.2688C65.9611 65.535 66.1788 65.8253 66.3482 66.1884C66.5417 66.4787 66.6143 66.8902 66.6143 67.3742Z" fill="#141414"/>
<path d="M78.5889 70.0117C78.5889 70.1811 78.5889 70.3505 78.5647 70.4473C78.5405 70.5682 78.5163 70.6651 78.4921 70.7376C78.4679 70.8103 78.4196 70.8586 78.3712 70.907C78.3227 70.9554 78.2744 70.9554 78.2018 70.9554H71.5734C71.3557 70.9554 71.1622 70.907 71.017 70.786C70.8719 70.6651 70.7993 70.4714 70.7993 70.2052V59.7995C70.7993 59.5333 70.8719 59.3398 71.017 59.2188C71.1622 59.0977 71.3557 59.0493 71.5734 59.0493H78.1534C78.226 59.0493 78.2744 59.0736 78.3227 59.0977C78.3712 59.122 78.4196 59.1704 78.4437 59.2671C78.4679 59.3398 78.4921 59.4366 78.5163 59.5576C78.5405 59.6785 78.5405 59.8238 78.5405 60.0173C78.5405 60.1867 78.5405 60.3319 78.5163 60.4529C78.4921 60.5739 78.4679 60.6707 78.4437 60.7433C78.4196 60.8159 78.3712 60.8643 78.3227 60.9127C78.2744 60.9369 78.226 60.9611 78.1534 60.9611H73.4361V63.8651H77.4277C77.5003 63.8651 77.5487 63.8892 77.597 63.9134C77.6454 63.9376 77.6938 64.0102 77.718 64.0586C77.7422 64.1312 77.7664 64.228 77.7906 64.349C77.8147 64.47 77.8147 64.6152 77.8147 64.7846C77.8147 64.954 77.8147 65.0992 77.7906 65.2202C77.7664 65.3412 77.7422 65.438 77.718 65.5106C77.6938 65.5832 77.6454 65.6316 77.597 65.6558C77.5487 65.68 77.5003 65.7042 77.4277 65.7042H73.4361V69.0679H78.2018C78.2744 69.0679 78.3227 69.0921 78.3712 69.1163C78.4196 69.1405 78.4679 69.2131 78.4921 69.2857C78.5163 69.3583 78.5405 69.4551 78.5647 69.5761C78.5889 69.6729 78.5889 69.818 78.5889 70.0117Z" fill="#141414"/>
<path d="M43.8021 31.365C43.8747 26.4767 42.3022 21.5884 39.1815 17.6197C39.1332 17.5472 39.0848 17.4745 39.0364 17.4261C35.3836 12.8525 29.9164 9.80334 23.7234 9.36774C23.6993 9.36774 23.6751 9.36774 23.6267 9.36774C23.3122 9.3435 22.9977 9.3435 22.6833 9.31934C22.6349 9.31934 22.5864 9.31934 22.5381 9.31934C22.4171 9.31934 22.2962 9.31934 22.1753 9.31934C21.9817 9.31934 21.8124 9.31934 21.6189 9.31934C21.6189 9.31934 21.6189 9.31934 21.5946 9.31934C21.256 9.31934 20.9415 9.3435 20.6028 9.36774C20.5786 9.36774 20.5786 9.36774 20.5544 9.36774C20.2158 9.39191 19.9013 9.41615 19.5626 9.46456H19.5384C19.2239 9.51297 18.8852 9.5613 18.5708 9.6097H18.5465C18.2321 9.65811 17.8934 9.73076 17.5789 9.80334C17.5547 9.80334 17.5305 9.80334 17.5064 9.8275C17.1918 9.90015 16.9016 9.97272 16.6113 10.0453C16.5629 10.0453 16.5387 10.0695 16.4903 10.0695C16.2242 10.1421 15.934 10.2147 15.6678 10.3115C15.5953 10.3357 15.5227 10.3599 15.4501 10.3842C15.2082 10.4567 14.9904 10.5293 14.7727 10.6261C14.6518 10.6745 14.5309 10.7229 14.4099 10.7713C14.2647 10.8197 14.1438 10.8923 13.9986 10.9407C10.6845 12.2958 7.68476 14.4496 5.28984 17.4261C3.28198 19.9428 1.92727 22.75 1.17735 25.6781C1.17735 25.7265 1.15316 25.7749 1.15316 25.8233C1.08059 26.0895 1.0322 26.3557 0.983822 26.6219C0.959631 26.7429 0.93544 26.8639 0.911249 26.9849C0.862867 27.1785 0.838676 27.3963 0.814484 27.5899C0.790293 27.7593 0.766102 27.9529 0.741911 28.1223C0.71772 28.2675 0.693529 28.4126 0.693529 28.5579C0.669338 28.7757 0.645147 29.0176 0.620956 29.2597C0.620956 29.3565 0.596764 29.4532 0.596764 29.5259C0.524191 29.8162 0.524191 30.1066 0.5 30.3728C0.5 30.4212 0.5 30.4696 0.5 30.4938V30.518C0.5 30.8326 0.5 31.1714 0.5 31.4859C0.5 31.5102 0.5 31.5344 0.5 31.5344C0.524191 32.5992 0.620956 33.6397 0.814484 34.6561V34.6803C0.862867 34.9949 0.93544 35.3337 1.00801 35.6483C1.00801 35.6967 1.0322 35.7451 1.0322 35.8177C1.10478 36.0839 1.15316 36.35 1.22573 36.6162C1.24992 36.7373 1.29831 36.8824 1.34669 37.0034C1.37088 37.1002 1.39507 37.1971 1.41927 37.2939C2.70139 41.5287 5.26565 45.4006 9.03943 48.2804C10.5393 49.4177 12.1118 50.3131 13.7567 51.0149L13.7809 50.9907C16.3936 52.1039 19.2965 52.7089 22.3204 52.6846C24.0621 52.6605 25.7797 52.4427 27.4005 52.0555C27.594 52.0071 27.715 51.8377 27.715 51.6441V50.2889C27.715 47.2398 25.2233 44.7714 22.1753 44.7714H22.151C13.6358 44.7714 6.91064 37.0034 8.70082 28.1464C9.4991 24.3229 12.5956 20.5721 16.2484 18.6603C16.2484 18.6603 16.2726 18.6603 16.2726 18.6361C19.8287 17.1116 24.3282 16.9421 27.6908 18.4183C27.715 18.4425 27.7392 18.4425 27.7876 18.4667C27.9085 18.5151 28.0537 18.5877 28.1746 18.6603C33.0128 21.0802 35.6497 25.6781 35.8674 30.4212C35.8674 30.4454 35.8674 30.4938 35.8674 30.518V31.7037C35.8674 31.728 35.8674 31.7764 35.8674 31.8006C35.8674 31.8248 35.8674 31.849 35.8674 31.8974V52.3217C35.8674 52.5153 36.0367 52.6846 36.2303 52.6846C40.4153 52.6846 43.8263 49.2967 43.8263 45.086V31.4376C43.8263 31.4134 43.8021 31.3892 43.8021 31.365Z" fill="#141414"/>
<path d="M80.5 23.0163H56.7202C52.3416 23.0163 48.7612 19.459 48.7612 15.0547H72.5411C76.9439 15.0547 80.5 18.612 80.5 23.0163Z" fill="#141414"/>
<path d="M80.0888 31.8735C80.0888 34.0756 78.2987 35.8423 76.1215 35.8423H50.4547C49.3177 35.8423 48.3743 34.9227 48.3743 33.7611V29.502C48.3743 28.6066 49.1 27.9048 49.9708 27.9048H76.1215C78.3228 27.9048 80.0888 29.6956 80.0888 31.8735Z" fill="#141414"/>
<path d="M80.0403 40.7788C80.0403 45.1589 76.4841 48.7404 72.0814 48.7404H48.3015C48.3015 44.3604 51.8576 40.7788 56.2604 40.7788H80.0403Z" fill="#141414"/>
<path d="M22.1752 38.4314C26.0897 38.4314 29.2632 35.2569 29.2632 31.3409C29.2632 27.425 26.0897 24.2505 22.1752 24.2505C18.2605 24.2505 15.0872 27.425 15.0872 31.3409C15.0872 35.2569 18.2605 38.4314 22.1752 38.4314Z" fill="#141414"/>
</g>
<defs>
<clipPath id="clip0_407_5699">
<rect width="80" height="80" fill="white" transform="translate(0.5 0.539062)"/>
</clipPath>
</defs>
</svg>
