<svg width="146" height="53" viewBox="0 0 146 53" fill="none" xmlns="http://www.w3.org/2000/svg">
<g clip-path="url(#clip0_407_5741)">
<path d="M19.2556 1.14111L19.2854 1.18497L23.82 8.26537C23.82 8.26537 14.8601 22.8988 12.8238 26.3976C10.7874 29.8915 9.26268 32.8396 9.26268 34.9399C9.26268 37.0401 11.895 44.2277 19.4443 44.2277C26.9937 44.2277 29.472 37.2107 29.472 34.6378C29.472 32.674 26.8943 27.3771 22.2108 20.8181L26.9639 12.8946C26.9639 12.8946 37.5876 27.611 37.5876 34.8376C37.5876 42.0641 32.5663 52.3168 19.4294 52.3168C6.29261 52.3168 0.963379 42.2786 0.963379 34.3356C0.963379 26.3927 19.2556 1.14111 19.2556 1.14111Z" fill="#141414"/>
<path d="M19.494 40.1783C22.8103 40.1783 25.4987 37.5406 25.4987 34.2869C25.4987 31.0331 22.8103 28.3955 19.494 28.3955C16.1777 28.3955 13.4893 31.0331 13.4893 34.2869C13.4893 37.5406 16.1777 40.1783 19.494 40.1783Z" fill="#141414"/>
<path d="M36.0231 42.0352C36.2317 41.1727 36.3459 40.276 36.3459 39.3599C36.3459 33.6878 32.1689 28.8928 26.4175 27.3042C28.4092 30.7494 29.472 33.3808 29.472 34.638C29.472 37.211 26.9937 44.228 19.4443 44.228C11.895 44.228 9.26266 37.0355 9.26266 34.9402C9.26266 34.7891 9.27259 34.638 9.28749 34.4772C8.58222 35.9781 8.19482 37.6252 8.19482 39.3599C8.19482 46.3234 14.4975 51.9711 22.2704 51.9711C22.7819 51.9711 23.2885 51.9468 23.7902 51.898C30.1823 50.6018 34.0761 46.4842 36.028 42.04L36.0231 42.0352Z" fill="#141414"/>
<path d="M47.1089 40.2418V28.4785H53.7692V31.1147H50.0442V32.947H53.65V35.5832H50.0442V37.6006H53.7692V40.2369H47.1089V40.2418Z" fill="#141414"/>
<path d="M67.7803 35.6174C67.4327 37.0013 66.6976 38.1172 65.5751 38.97C64.4626 39.8179 63.1762 40.2419 61.721 40.2419C59.9727 40.2419 58.4827 39.6522 57.251 38.473C56.0193 37.2888 55.3984 35.8367 55.3984 34.1214C55.3984 32.4061 56.0093 30.9638 57.2311 29.7845C58.448 28.6199 59.933 28.04 61.6862 28.04C63.9659 28.04 65.7241 28.961 66.9608 30.8029C67.3929 31.4413 67.6661 32.0797 67.7754 32.7278H64.5619C64.0305 31.3633 63.062 30.6811 61.6664 30.6811C60.7227 30.6811 59.9429 31.0271 59.332 31.7142C58.746 32.3769 58.4529 33.1761 58.4529 34.1117C58.4529 35.0473 58.746 35.8659 59.332 36.5384C59.9479 37.2547 60.7326 37.6105 61.6813 37.6105C62.9875 37.6105 63.951 36.9477 64.5619 35.6223H67.7754L67.7803 35.6174Z" fill="#141414"/>
<path d="M80.2116 38.4974C78.9848 39.662 77.4849 40.2419 75.7168 40.2419C73.9486 40.2419 72.5232 39.6718 71.2964 38.5266C70.0399 37.3669 69.4141 35.9537 69.4141 34.2823C69.4141 33.3905 69.568 32.5524 69.8809 31.7679C70.0448 31.3488 70.3031 30.9102 70.6657 30.4473C71.9123 28.8392 73.601 28.0352 75.7366 28.0352C77.4998 28.0352 78.9898 28.6199 80.2116 29.7894C81.4433 30.9638 82.0642 32.4111 82.0642 34.1361C82.0642 35.8611 81.4483 37.3181 80.2116 38.4974ZM78.1157 31.7289C77.4899 31.0272 76.7002 30.6714 75.7515 30.6714C74.8029 30.6714 74.0033 31.0125 73.3775 31.6948C72.7765 32.3526 72.4735 33.1518 72.4735 34.102C72.4735 35.0522 72.7765 35.8855 73.3824 36.5531C74.0082 37.2499 74.8079 37.6008 75.7813 37.6008C76.7548 37.6008 77.4899 37.2499 78.1157 36.5433C78.7067 35.8758 78.9997 35.0766 78.9997 34.1459C78.9997 33.2151 78.7017 32.3916 78.1157 31.724V31.7289Z" fill="#141414"/>
<path d="M96.0753 35.6174C95.7276 37.0013 94.9925 38.1172 93.8701 38.97C92.7575 39.8179 91.4712 40.2419 90.0159 40.2419C88.2677 40.2419 86.7777 39.6522 85.5459 38.473C84.3142 37.2888 83.6934 35.8367 83.6934 34.1214C83.6934 32.4061 84.3043 30.9638 85.5261 29.7845C86.7429 28.6199 88.2279 28.04 89.9812 28.04C92.2609 28.04 94.0191 28.961 95.2558 30.8029C95.6879 31.4413 95.961 32.0797 96.0703 32.7278H92.8569C92.3254 31.3633 91.3569 30.6811 89.9613 30.6811C89.0176 30.6811 88.2379 31.0271 87.627 31.7142C87.0409 32.3769 86.7479 33.1761 86.7479 34.1117C86.7479 35.0473 87.0409 35.8659 87.627 36.5384C88.2428 37.2547 89.0276 37.6105 89.9762 37.6105C91.2824 37.6105 92.246 36.9477 92.8569 35.6223H96.0703L96.0753 35.6174Z" fill="#141414"/>
<path d="M97.7095 40.2418V28.4785H100.769V37.6055H104.32V40.2418H97.7095Z" fill="#141414"/>
<path d="M105.954 40.2418V28.4785H112.614V31.1147H108.889V32.947H112.495V35.5832H108.889V37.6006H112.614V40.2369H105.954V40.2418Z" fill="#141414"/>
<path d="M122.915 40.2418L122.329 38.5411H118.167L117.536 40.2418H114.248L119.056 28.4785H121.47L126.238 40.2418H122.915ZM120.288 32.138H120.238L119.006 36.1582H121.519L120.288 32.138Z" fill="#141414"/>
<path d="M135.322 40.2418L130.758 33.0883L130.718 33.1029L130.807 40.2418H127.872V28.4785H130.514L135.148 35.8756L135.178 35.8464L135.044 28.4833H137.979V40.2466H135.322V40.2418Z" fill="#141414"/>
<path d="M139.965 27.6157H139.091V27.0845H141.485V27.6157H140.611V29.9547H139.97V27.6157H139.965Z" fill="#141414"/>
<path d="M141.822 27.0845H142.726L143.412 29.0581H143.422L144.067 27.0845H144.971V29.9547H144.37V27.9227H144.36L143.645 29.9547H143.148L142.433 27.9422H142.423V29.9547H141.822V27.0845Z" fill="#141414"/>
</g>
<defs>
<clipPath id="clip0_407_5741">
<rect width="145" height="52" fill="white" transform="translate(0.5 0.539062)"/>
</clipPath>
</defs>
</svg>
