<svg width="81" height="81" viewBox="0 0 81 81" fill="none" xmlns="http://www.w3.org/2000/svg">
<g clip-path="url(#clip0_407_5711)">
<path d="M26.1934 9.11035L35.1134 23.6732L44.1936 9.11035H52.055L26.0333 50.8465H18.1709L31.1822 29.9789L18.0278 9.11035H18.9827H26.1934Z" fill="#141414"/>
<path d="M56.528 9.11035L30.3149 50.8465H64.1991L60.7916 45.3816L41.5808 45.3877L64.1991 9.11035H56.528Z" fill="#141414"/>
<path d="M5.45959 62.1309V65.1518H3.86716V62.1551L0.5 56.5845H2.20221L4.71222 60.7594L7.24842 56.5845H8.81466L5.45959 62.1309Z" fill="#141414"/>
<path d="M14.9033 63.1711H10.6145L9.76641 65.1548H8.12866L11.9823 56.5845H13.5536L17.4213 65.1548H15.7584L14.9033 63.1711ZM14.3765 61.9225L12.7649 58.1765L11.1604 61.9225H14.3765Z" fill="#141414"/>
<path d="M24.1214 65.1548L22.3709 62.6445C22.261 62.6545 22.1508 62.6585 22.0405 62.6565H20.1056V65.1548H18.5132V56.5845H22.0385C24.2916 56.5845 25.6877 57.7354 25.6877 59.6326C25.6877 60.9306 25.0259 61.8852 23.8626 62.3383L25.8347 65.1579L24.1214 65.1548ZM21.967 57.9308H20.1056V61.3465H21.967C23.363 61.3465 24.0821 60.7101 24.0821 59.6346C24.0821 58.5592 23.364 57.9308 21.967 57.9308Z" fill="#141414"/>
<path d="M33.0736 65.1548L31.321 62.6445C31.2112 62.6545 31.1009 62.6585 30.9907 62.6565H29.0568V65.1548H27.4644V56.5845H30.9896C33.2428 56.5845 34.6388 57.7354 34.6388 59.6326C34.6388 60.9306 33.9771 61.8852 32.8137 62.3383L34.7859 65.1579L33.0736 65.1548ZM30.9181 57.9308H29.0568V61.3465H30.9181C32.3142 61.3465 33.0333 60.7101 33.0333 59.6346C33.0333 58.5592 32.3142 57.9308 30.9181 57.9308Z" fill="#141414"/>
<path d="M41.9757 63.1711H37.6899L36.8449 65.1548H35.2041L39.0608 56.5845H40.629L44.4988 65.1548H42.8328L41.9757 63.1711ZM41.4489 61.9225L39.8323 58.1765L38.2288 61.9225H41.4489Z" fill="#141414"/>
<path d="M45.5874 56.5845H47.1798V63.8075H51.667V65.1548H45.5874V56.5845Z" fill="#141414"/>
<path d="M58.5434 63.1711H54.2577L53.4126 65.1548H51.7678L55.6255 56.5845H57.1968L61.0665 65.1548H59.4006L58.5434 63.1711ZM58.0177 61.9225L56.4061 58.1765L54.8016 61.9225H58.0177Z" fill="#141414"/>
<path d="M69.7731 56.5845V65.1548H68.4637L63.7368 59.3516V65.1548H62.1565V56.5845H63.4659L68.1928 62.3877V56.5845H69.7731Z" fill="#141414"/>
<path d="M72.0745 56.5845H75.8224C78.6023 56.5845 80.4999 58.2963 80.4999 60.8692C80.4999 63.442 78.6023 65.1548 75.8224 65.1548H72.0745V56.5845ZM75.7488 63.8075C77.6626 63.8075 78.8954 62.6445 78.8954 60.8692C78.8954 59.0939 77.6585 57.9308 75.7488 57.9308H73.6669V63.8075H75.7488Z" fill="#141414"/>
<path d="M36.0289 68.6227C36.0289 69.5743 35.3732 70.0919 34.3257 70.0919H33.2178L32.975 71.3003H32.7051L33.4454 67.5986H34.7356C35.5515 67.5976 36.0289 67.9682 36.0289 68.6227ZM35.754 68.6439C35.754 68.1253 35.3833 67.8453 34.7226 67.8453H33.67L33.2671 69.8492H34.3247C35.2302 69.8452 35.7529 69.4374 35.7529 68.6398L35.754 68.6439Z" fill="#141414"/>
<path d="M38.1281 68.522L38.0808 68.7808C38.0485 68.7808 38.0274 68.7808 37.9962 68.7808C37.3717 68.7808 36.9597 69.1564 36.8117 69.8884L36.5256 71.3053H36.2617L36.8117 68.5451H37.0705L36.9547 69.1262C37.1974 68.7234 37.5731 68.522 38.1281 68.522Z" fill="#141414"/>
<path d="M38.2288 70.1725C38.2288 69.226 38.8895 68.5181 39.8101 68.5181C40.5555 68.5181 41.0319 68.9621 41.0319 69.665C41.0319 70.6166 40.3701 71.3205 39.4505 71.3205C38.7042 71.3205 38.2288 70.8704 38.2288 70.1725ZM40.767 69.6811C40.767 69.0941 40.4074 68.7557 39.789 68.7557C39.0426 68.7557 38.4927 69.3478 38.4927 70.1574C38.4927 70.7435 38.8522 71.0818 39.4717 71.0818C40.217 71.0818 40.767 70.4958 40.767 69.6811Z" fill="#141414"/>
<path d="M41.2322 70.9711L41.3742 70.7646C41.5807 70.966 41.9463 71.0879 42.327 71.0879C42.8981 71.0879 43.2255 70.8704 43.2255 70.5169C43.2255 69.8191 41.6341 70.2843 41.6341 69.3528C41.6341 68.8494 42.0944 68.5181 42.7863 68.5181C43.1308 68.5181 43.4914 68.6188 43.6928 68.7879L43.572 68.9893C43.3357 68.8255 43.0537 68.7405 42.7662 68.7466C42.2223 68.7466 41.8939 68.9793 41.8939 69.3226C41.8939 70.0366 43.4914 69.5714 43.4914 70.4857C43.4914 71.0093 43.02 71.3165 42.3069 71.3165C41.8667 71.3205 41.4437 71.1725 41.2322 70.9711Z" fill="#141414"/>
<path d="M47.1345 69.6649C47.1345 70.6165 46.4738 71.3204 45.5693 71.3204C44.9921 71.3204 44.6174 71.0666 44.4795 70.6155L44.136 72.3274H43.8711L44.6275 68.5421H44.8864L44.7806 69.0758C44.916 68.8983 45.0915 68.7554 45.2929 68.6589C45.4943 68.5624 45.7157 68.5152 45.9389 68.521C46.652 68.522 47.1345 68.957 47.1345 69.6649ZM46.8646 69.681C46.8646 69.094 46.505 68.7556 45.8866 68.7556C45.1402 68.7556 44.5903 69.3427 44.5903 70.1573C44.5903 70.7434 44.9498 71.0817 45.5743 71.0817C46.3187 71.0817 46.8636 70.4896 46.8636 69.681H46.8646Z" fill="#141414"/>
<path d="M47.8729 69.9772C47.8679 70.0356 47.8629 70.093 47.8629 70.1514C47.8629 70.7495 48.2124 71.0818 48.8832 71.0818C49.0579 71.0884 49.2321 71.0589 49.395 70.9953C49.5578 70.9318 49.7059 70.8354 49.83 70.7123L49.9518 70.8976C49.7081 71.1614 49.3012 71.3205 48.862 71.3205C48.0794 71.3205 47.604 70.8865 47.604 70.1625C47.604 69.2209 48.2436 68.5181 49.1148 68.5181C49.834 68.5181 50.2893 68.9511 50.2893 69.67C50.2874 69.7732 50.2766 69.8759 50.257 69.9772H47.8729ZM47.9052 69.7707H50.0314C50.0356 69.7252 50.0373 69.6795 50.0365 69.6338C50.0365 69.0628 49.6557 68.7456 49.1058 68.7456C48.4974 68.7456 48.0411 69.1575 47.9052 69.7707Z" fill="#141414"/>
<path d="M52.6743 68.522L52.6259 68.7808C52.5947 68.7808 52.5736 68.7808 52.5413 68.7808C51.9179 68.7808 51.5049 69.1564 51.3568 69.8884L51.0718 71.3053H50.8069L51.3568 68.5451H51.6167L51.4999 69.1262C51.7446 68.7234 52.1193 68.522 52.6743 68.522Z" fill="#141414"/>
<path d="M54.7321 70.5008C54.7178 70.565 54.7107 70.6305 54.7109 70.6962C54.7109 70.955 54.8479 71.0929 55.1339 71.0929C55.2966 71.0936 55.4548 71.0397 55.5832 70.9399L55.6627 71.1352C55.4915 71.2612 55.283 71.3264 55.0705 71.3205C54.6736 71.3205 54.441 71.103 54.441 70.7334C54.4403 70.6624 54.4474 70.5915 54.4621 70.522L54.8167 68.7668H54.303L54.3453 68.5392H54.859L54.9798 67.9351H55.2447L55.1229 68.5392H55.9981L55.9558 68.7668H55.0775L54.7321 70.5008Z" fill="#141414"/>
<path d="M56.2126 70.1725C56.2126 69.226 56.8734 68.5181 57.794 68.5181C58.5393 68.5181 59.0148 68.9621 59.0148 69.665C59.0148 70.6166 58.354 71.3205 57.4334 71.3205C56.6881 71.3205 56.2126 70.8704 56.2126 70.1725ZM58.7509 69.6811C58.7509 69.0941 58.3913 68.7557 57.7728 68.7557C57.0265 68.7557 56.4765 69.3478 56.4765 70.1574C56.4765 70.7435 56.8361 71.0818 57.4546 71.0818C58.2009 71.0818 58.7509 70.4958 58.7509 69.6811Z" fill="#141414"/>
<path d="M62.5794 68.5391L62.0879 71.0032C61.9025 71.9457 61.405 72.3485 60.5166 72.3485C60.013 72.3485 59.5859 72.1904 59.322 71.9155L59.4912 71.7192C59.7128 71.9679 60.0885 72.1109 60.5377 72.1109C61.273 72.1109 61.6749 71.7776 61.8179 71.0485L61.9025 70.6356C61.7616 70.8171 61.58 70.9629 61.3723 71.0613C61.1646 71.1596 60.9367 71.2076 60.707 71.2016C59.9717 71.2016 59.4983 70.7837 59.4983 70.1019C59.4983 69.2027 60.154 68.521 61.0696 68.521C61.6407 68.521 62.0526 68.7697 62.1846 69.245L62.3225 68.5401L62.5794 68.5391ZM62.0607 69.6297C62.0607 69.0799 61.6961 68.7576 61.0726 68.7576C60.3162 68.7576 59.7632 69.3236 59.7632 70.0899C59.7632 70.6397 60.1328 70.9629 60.7513 70.9629C61.5107 70.9609 62.0607 70.4 62.0607 69.6297Z" fill="#141414"/>
<path d="M63.3671 69.9772C63.3671 70.0356 63.356 70.093 63.356 70.1514C63.356 70.7495 63.7055 71.0818 64.3774 71.0818C64.5519 71.0882 64.7259 71.0587 64.8886 70.9951C65.0513 70.9316 65.1992 70.8353 65.3231 70.7123L65.445 70.8976C65.2023 71.1614 64.7943 71.3205 64.3562 71.3205C63.5736 71.3205 63.0972 70.8865 63.0972 70.1625C63.0972 69.2209 63.7368 68.5181 64.608 68.5181C65.3272 68.5181 65.7824 68.9511 65.7824 69.67C65.7804 69.7731 65.77 69.8758 65.7512 69.9772H63.3671ZM63.3983 69.7707H65.5246C65.5271 69.7251 65.5271 69.6794 65.5246 69.6338C65.5246 69.0628 65.1439 68.7456 64.5939 68.7456C63.9906 68.7456 63.5313 69.1575 63.3983 69.7707Z" fill="#141414"/>
<path d="M66.7826 70.5008C66.7688 70.5651 66.7618 70.6305 66.7614 70.6962C66.7614 70.955 66.8994 71.0929 67.1844 71.0929C67.3474 71.0937 67.506 71.0398 67.6347 70.9399L67.7132 71.1352C67.5421 71.2615 67.3336 71.3267 67.121 71.3205C66.7252 71.3205 66.4915 71.103 66.4915 70.7334C66.4913 70.6624 66.4984 70.5916 66.5126 70.522L66.8672 68.7668H66.3545L66.3968 68.5392H66.9095L67.0313 67.9351H67.2962L67.1744 68.5392H68.0517L68.0094 68.7668H67.1321L66.7826 70.5008Z" fill="#141414"/>
<path d="M71.2304 69.4011C71.2297 69.5026 71.2189 69.6038 71.1982 69.7032L70.8809 71.3003H70.6171L70.9343 69.7032C70.953 69.6162 70.9618 69.5273 70.9605 69.4383C70.9605 69.0104 70.7017 68.7566 70.1829 68.7566C69.5534 68.7566 69.1092 69.1111 68.9743 69.7988L68.6721 71.3003H68.4082L69.1908 67.373H69.4547L69.1223 69.0487C69.3923 68.6791 69.7881 68.515 70.2534 68.515C70.886 68.522 71.2304 68.8563 71.2304 69.4011Z" fill="#141414"/>
<path d="M72.1974 69.9772C72.1924 70.0356 72.1863 70.093 72.1863 70.1514C72.1863 70.7495 72.5359 71.0818 73.2077 71.0818C73.3824 71.0881 73.5565 71.0586 73.7193 70.995C73.8822 70.9315 74.0303 70.8352 74.1545 70.7123L74.2753 70.8976C74.0326 71.1614 73.6257 71.3205 73.1865 71.3205C72.4039 71.3205 71.9275 70.8865 71.9275 70.1625C71.9275 69.2209 72.5671 68.5181 73.4383 68.5181C74.1575 68.5181 74.6117 68.9511 74.6117 69.67C74.6097 69.7731 74.5993 69.8758 74.5805 69.9772H72.1974ZM72.2287 69.7707H74.3549C74.3574 69.7251 74.3574 69.6794 74.3549 69.6338C74.3549 69.0628 73.9742 68.7456 73.4242 68.7456C72.8189 68.7456 72.3616 69.1575 72.2287 69.7707Z" fill="#141414"/>
<path d="M76.9989 68.522L76.9515 68.7808C76.9193 68.7808 76.8981 68.7808 76.8669 68.7808C76.2424 68.7808 75.8305 69.1564 75.6824 69.8884L75.3964 71.3053H75.1355L75.6854 68.5451H75.9413L75.8244 69.1262C76.0682 68.7234 76.4449 68.522 76.9989 68.522Z" fill="#141414"/>
</g>
<defs>
<clipPath id="clip0_407_5711">
<rect width="80" height="80" fill="white" transform="translate(0.5 0.539062)"/>
</clipPath>
</defs>
</svg>
