<svg width="161" height="41" viewBox="0 0 161 41" fill="none" xmlns="http://www.w3.org/2000/svg">
<path d="M59.5765 14.0254C58.6138 14.0254 57.8333 13.245 57.8333 12.2823C57.8333 11.3195 58.6138 10.5391 59.5765 10.5391H72.5159C73.4787 10.5391 74.2591 11.3195 74.2591 12.2823C74.2591 13.245 73.4787 14.0254 72.5159 14.0254H68.136V28.4493C68.136 29.6034 67.2004 30.5391 66.0462 30.5391C64.892 30.5391 63.9564 29.6034 63.9564 28.4493V14.0254H59.5765Z" fill="#141414"/>
<path d="M78.4117 10.5391C79.5793 10.5391 80.5259 11.4857 80.5259 12.6534V28.4248C80.5259 29.5925 79.5793 30.5391 78.4117 30.5391C77.244 30.5391 76.2974 29.5925 76.2974 28.4248V12.6534C76.2974 11.4857 77.244 10.5391 78.4117 10.5391Z" fill="#141414"/>
<path d="M100.4 12.6436C100.4 11.4813 99.4579 10.5391 98.2956 10.5391C97.1333 10.5391 96.1911 11.4813 96.1911 12.6436V23.1172H96.0153L88.1068 11.5944C87.6535 10.9339 86.9037 10.5391 86.1025 10.5391C84.76 10.5391 83.6716 11.6275 83.6716 12.9701V28.4248C83.6716 29.5925 84.6182 30.5391 85.7858 30.5391C86.9535 30.5391 87.9001 29.5925 87.9001 28.4248V17.9512H88.0466L96.0333 29.5055C96.4807 30.1528 97.2174 30.5391 98.0042 30.5391C99.3274 30.5391 100.4 29.4664 100.4 28.1432V12.6436Z" fill="#141414"/>
<path d="M105.675 10.5391C106.842 10.5391 107.789 11.4857 107.789 12.6534V28.4248C107.789 29.5925 106.842 30.5391 105.675 30.5391C104.507 30.5391 103.561 29.5925 103.561 28.4248V12.6534C103.561 11.4857 104.507 10.5391 105.675 10.5391Z" fill="#141414"/>
<path d="M122.819 21.553L121.607 17.8223H121.53L120.317 21.553H122.819Z" fill="#141414"/>
<path d="M129.581 20.5612H130.997C131.398 20.5612 131.728 20.4922 131.988 20.3542C132.251 20.213 132.447 20.0188 132.576 19.7717C132.707 19.5214 132.773 19.2342 132.773 18.9101C132.773 18.5827 132.707 18.2971 132.576 18.0532C132.447 17.8061 132.251 17.6151 131.988 17.4804C131.725 17.3424 131.391 17.2734 130.987 17.2734H129.581V20.5612Z" fill="#141414"/>
<path d="M139.773 20.5612H138.358V17.2734H139.764C140.168 17.2734 140.502 17.3424 140.765 17.4804C141.028 17.6151 141.224 17.8061 141.352 18.0532C141.484 18.2971 141.55 18.5827 141.55 18.9101C141.55 19.2342 141.484 19.5214 141.352 19.7717C141.224 20.0188 141.028 20.213 140.765 20.3542C140.505 20.4922 140.174 20.5612 139.773 20.5612Z" fill="#141414"/>
<path fill-rule="evenodd" clip-rule="evenodd" d="M112.944 15.8724C112.944 12.9269 115.332 10.5391 118.278 10.5391H142.5C145.446 10.5391 147.833 12.9269 147.833 15.8724V25.2058C147.833 28.1513 145.446 30.5391 142.5 30.5391H118.278C115.332 30.5391 112.944 28.1513 112.944 25.2058V15.8724ZM116.823 25.428H119.056L119.787 23.18H123.347L124.077 25.428H126.31L122.912 15.5694H120.226L116.823 25.428ZM127.497 15.5694V25.428H129.581V22.2316H131.334C132.091 22.2316 132.736 22.0921 133.269 21.8128C133.805 21.5336 134.214 21.1437 134.496 20.6431C134.779 20.1425 134.92 19.5648 134.92 18.9102C134.92 18.2555 134.78 17.6778 134.501 17.1772C134.225 16.6734 133.824 16.2802 133.298 15.9978C132.771 15.7122 132.134 15.5694 131.387 15.5694H127.497ZM136.274 25.428V15.5694H140.163C140.911 15.5694 141.548 15.7122 142.074 15.9978C142.601 16.2802 143.002 16.6734 143.278 17.1772C143.557 17.6778 143.697 18.2555 143.697 18.9102C143.697 19.5648 143.555 20.1425 143.273 20.6431C142.991 21.1437 142.581 21.5336 142.045 21.8128C141.513 22.0921 140.868 22.2316 140.11 22.2316H138.358V25.428H136.274Z" fill="#141414"/>
<path d="M33.3889 7.20557C38.5621 7.20557 42.8178 11.1337 43.3359 16.17C43.7169 16.1201 44.1055 16.0944 44.5 16.0944C49.4092 16.0944 53.3889 20.0741 53.3889 24.9833C53.3889 29.8925 49.4092 33.8722 44.5 33.8722H36.3767C40.5624 32.5927 43.6111 28.6962 43.6111 24.0944C43.6111 18.4534 39.0299 13.8722 33.3889 13.8722C27.7479 13.8722 23.1667 18.4534 23.1667 24.0944C23.1667 28.6962 26.2154 32.5927 30.4011 33.8722H23.3889C17.8661 33.8722 13.3889 29.395 13.3889 23.8722C13.3889 18.3493 17.8661 13.8722 23.3889 13.8722C23.578 13.8722 23.7659 13.8774 23.9524 13.8878C25.3208 9.99572 29.029 7.20557 33.3889 7.20557Z" fill="#141414"/>
<path d="M33.389 32.5391C37.7053 32.5391 41.2158 29.0397 41.2158 24.7234C41.2158 23.9728 41.1054 23.2663 40.9177 22.5708H25.8714C25.6727 23.2552 25.5623 23.9728 25.5623 24.7234C25.5623 29.0397 29.0617 32.5391 33.389 32.5391Z" fill="#141414"/>
</svg>
