<svg width="24" height="24" viewBox="0 0 24 24" fill="none" xmlns="http://www.w3.org/2000/svg">
<path d="M15.4167 21.75L4.25 21.75C3.14543 21.75 2.25 20.8546 2.25 19.75L2.25 8.58335C2.25 7.47878 3.14543 6.58335 4.25 6.58335L15.4167 6.58335C16.5212 6.58335 17.4167 7.47878 17.4167 8.58335L17.4167 19.75C17.4167 20.8546 16.5212 21.75 15.4167 21.75Z" stroke="#141414" stroke-width="1.5" stroke-linecap="round"/>
<path d="M6.58398 6.58333V4.25C6.58398 3.14543 7.47941 2.25 8.58398 2.25H19.7506C20.8552 2.25 21.7506 3.14543 21.7506 4.25V15.4167C21.7506 16.5212 20.8552 17.4167 19.7507 17.4167H17.4173" stroke="#141414" stroke-width="1.5" stroke-linecap="round"/>
</svg>
